<svg width="317" height="463" viewBox="0 0 317 463" fill="none" xmlns="http://www.w3.org/2000/svg">
<rect y="291" width="317" height="172" fill="#E3AD6F"/>
<path d="M132.5 328.5C128 333.5 131 349.5 138 360C108 337 138.372 299.5 143.5 336.5L142.5 342C141.167 341 137 323.5 132.5 328.5Z" fill="#CDE58A"/>
<path d="M126.502 371.435C134.852 355.795 145.713 357.738 151.186 360.356L147.493 364.049C135.675 358.878 128.17 380.391 126.502 384.037L126.465 384.118C123.336 390.959 112.662 414.297 126.502 420.182C124.849 420.175 117.949 416.489 116.472 407.626C114.994 398.763 122.038 379.795 126.502 371.435Z" fill="#F9ECC9"/>
<path d="M169.182 319.442C155.805 317.506 143.709 325.428 139.309 336.21C137.4 340.887 136.217 347.961 135.485 354.71C134.417 364.557 133.309 373.21 133.309 373.21L149.309 370.71L157.809 370.229C167.025 367.743 176.717 363.488 182.309 356.21C193.723 341.355 188.309 322.21 169.182 319.442Z" fill="#F5EA93"/>
<path d="M188.309 338.21C183.809 345.71 173.809 359.71 161.309 362.71C142.445 367.238 138.309 372.21 133.309 373.21C138.683 373.21 147.309 370.21 157.809 370.21C157.809 370.21 166.053 367.8 169.809 365.992C180.309 360.937 189.309 351.21 188.309 338.21Z" fill="#EDDFB9" style="mix-blend-mode:multiply"/>
</svg>
