<svg width="317" height="463" viewBox="0 0 317 463" fill="none" xmlns="http://www.w3.org/2000/svg">
<rect y="291" width="317" height="172" fill="#E3AD6F"/>
<path d="M164.373 324.231C150.997 322.295 138.9 330.218 134.5 341C132.592 345.677 131.409 352.751 130.676 359.5C129.608 369.347 128.5 378 128.5 378L144.5 375.5L153 375.019C162.217 372.533 171.908 368.278 177.5 361C188.914 346.145 183.5 327 164.373 324.231Z" fill="#F5EA93"/>
<path d="M183.5 343C179 350.5 169 364.5 156.5 367.5C137.636 372.027 133.5 377 128.5 378C133.874 378 142.5 375 153 375C153 375 161.245 372.59 165 370.782C175.5 365.726 184.5 356 183.5 343Z" fill="#EDDFB9" style="mix-blend-mode:multiply"/>
</svg>
