<svg width="317" height="463" viewBox="0 0 317 463" fill="none" xmlns="http://www.w3.org/2000/svg">
<rect y="291" width="317" height="172" fill="#E3AD6F"/>
<path d="M151.3 324.741C150.237 322.267 148.802 318.795 147.819 305.823C147.371 299.909 150.58 164.541 150.693 162.704C150.806 160.867 141.252 145.438 128.452 133.758C118.338 124.53 81.7067 104.934 74.6456 102.612C78.0934 101.895 97.4643 110.698 112.862 118.648L107.635 101.776L118.643 121.694C125.049 125.144 130.083 128.132 131.85 129.671C137.987 135.017 148.75 145.248 151.439 152.682C151.936 145.994 153.098 126.757 154.476 106.09C153.952 103.713 154.107 100.097 147.83 89.2528C141.553 78.4084 129.854 70.7024 129.854 70.7024C129.854 70.7024 142.54 77.8832 146.679 83.28C150.817 88.6769 153.417 92.6123 155.12 96.5704C156.823 100.528 158.765 47.0236 160.135 41.9257C159.534 48.9361 159.102 63.7119 158.823 81.9718L180.059 58.4261C174.6 65.0666 163.184 79.4605 161.199 83.9122C159.215 88.364 158.68 92.8123 158.66 94.48C158.259 131.327 158.405 138.66 158.935 164.996C162.418 160.073 172.623 147.844 185.586 138.312C198.548 128.78 246.453 99.4235 250.089 98.1643C237.923 106.481 221.534 118.202 206.862 129.234L224.857 128.778C229.855 128.651 241.71 129.375 243.389 129.844C237.228 130.167 222.414 131.176 212.45 132.629C202.486 134.082 199.012 135.201 198.52 135.579C186.59 144.765 176.817 152.837 173.059 157.136C164.115 167.365 159.303 179.491 159.455 188.991C160.597 238.89 161.891 308.467 159.695 320.527C157.5 332.586 152.363 327.214 151.3 324.741Z" fill="#C0880E"/>
<path d="M160.939 305.336C161.121 314.362 156.723 349.599 155.351 370.285C157.785 373.554 160.943 376.842 164.305 378.269C170.794 381.022 179.955 375.288 182.614 373.278C180.932 375.912 172.414 381.501 168.557 382.375C174.415 386.116 180.559 387.259 192.5 387.933C186.702 388.402 177.857 391.487 163.735 383.467C159.944 381.314 157.085 378.791 155.02 376.472C154.985 377.411 154.961 378.293 154.951 379.11C154.863 386.62 150.985 400.456 155.947 407.079C162.38 415.665 174.498 418.926 174.498 418.926C174.498 418.926 169.083 419.766 163.188 417.265C157.309 414.77 153.449 409.06 153.427 409.027C153.427 409.027 154.764 436.911 183.054 433.509C180.634 434.495 167.043 440.979 155.904 426.516C144.765 412.054 149.551 368.336 149.551 368.336C149.551 368.336 144.968 378.532 138.947 384.17C134.866 387.992 121.94 393.305 118.007 391.968C137.849 385.08 148.547 373.58 148.862 344.186C149.177 314.792 148.039 313.661 147.852 304.322L160.939 305.336Z" fill="url(#paint0_linear_2398_172)"/>
<path d="M167.075 53.4168C157.676 56.8743 158.682 62.1598 158.708 63.3837C158.734 64.697 168.957 65.6231 173.345 60.6355C176.855 56.6454 180.064 49.886 181.23 47.0051C180.552 47.155 176.474 49.9594 167.075 53.4168Z" fill="#AEC767"/>
<path d="M171.621 56.181C164.874 61.5434 160.201 63.2171 158.708 63.3837C159.549 64.591 167.334 66.0644 172.954 61.4598C178.574 56.8552 181.23 47.0051 181.23 47.0051C181.23 47.0051 178.369 50.8186 171.621 56.181Z" fill="#93AE48"/>
<path d="M168.635 98.166C157.19 101.642 158.026 108.014 157.972 109.475C157.914 111.043 170.04 112.85 175.615 107.204C180.074 102.688 184.365 94.849 185.953 91.494C185.135 91.6262 180.079 94.6897 168.635 98.166Z" fill="#AEC767"/>
<path d="M173.866 101.775C165.452 107.705 159.764 109.379 157.973 109.475C158.892 110.972 168.074 113.265 175.092 108.16C182.11 103.056 185.953 91.494 185.953 91.494C185.953 91.494 182.28 95.8445 173.866 101.775Z" fill="#93AE48"/>
<path d="M167.345 126.208C155.901 129.684 156.737 136.055 156.682 137.517C156.624 139.084 168.75 140.892 174.325 135.246C178.785 130.73 183.075 122.891 184.663 119.536C183.846 119.668 178.789 122.731 167.345 126.208Z" fill="#AEC767"/>
<path d="M172.576 129.816C164.162 135.746 158.475 137.421 156.683 137.517C157.603 139.014 166.784 141.306 173.802 136.202C180.82 131.098 184.664 119.536 184.664 119.536C184.664 119.536 180.99 123.886 172.576 129.816Z" fill="#93AE48"/>
<path d="M149.657 76.025C144.59 77.8889 145.133 80.7383 145.146 81.3982C145.161 82.1062 150.672 82.6055 153.037 79.9166C154.93 77.7655 156.66 74.1215 157.288 72.5684C156.923 72.6492 154.724 74.1611 149.657 76.025Z" fill="#AEC767"/>
<path d="M152.108 77.5152C148.471 80.4061 145.951 81.3084 145.146 81.3982C145.6 82.0491 149.797 82.8435 152.827 80.3611C155.856 77.8787 157.288 72.5684 157.288 72.5684C157.288 72.5684 155.746 74.6243 152.108 77.5152Z" fill="#93AE48"/>
<path d="M120.282 106.1C112.093 109.112 112.97 113.717 112.992 114.783C113.015 115.927 121.922 116.734 125.744 112.389C128.803 108.913 131.598 103.024 132.614 100.514C132.024 100.644 128.47 103.087 120.282 106.1Z" fill="#AEC767"/>
<path d="M124.243 108.508C118.364 113.18 114.293 114.638 112.992 114.783C113.725 115.835 120.507 117.118 125.404 113.107C130.3 109.095 132.614 100.513 132.614 100.513C132.614 100.513 130.121 103.836 124.243 108.508Z" fill="#93AE48"/>
<path d="M176.954 69.149C168.653 68.8422 167.76 73.2147 167.394 74.1617C167.001 75.1779 174.554 79.1079 179.491 76.6625C183.441 74.7063 188.032 70.5301 189.834 68.6865C189.267 68.5883 185.254 69.4557 176.954 69.149Z" fill="#AEC767"/>
<path d="M179.572 72.7017C172.706 74.6915 168.593 74.5041 167.394 74.1617C167.659 75.353 173.169 78.9352 178.932 77.1718C184.694 75.4084 189.834 68.6865 189.834 68.6865C189.834 68.6865 186.438 70.7118 179.572 72.7017Z" fill="#93AE48"/>
<path d="M152.427 58.5874C160.705 64.2225 158.447 69.1058 158.125 70.2871C157.781 71.5546 147.639 69.972 144.592 64.0686C142.156 59.3458 140.683 52.0098 140.252 48.9321C140.872 49.2419 144.148 52.9524 152.427 58.5874Z" fill="#AEC767"/>
<path d="M147.346 60.1655C152.59 67.0052 156.717 69.7631 158.125 70.2871C157.016 71.2542 149.106 70.7941 144.772 64.9631C140.437 59.1322 140.252 48.9321 140.252 48.9321C140.252 48.9321 142.101 53.3259 147.346 60.1655Z" fill="#93AE48"/>
<path d="M150.126 112.901C159.516 119.293 156.954 124.832 156.589 126.172C156.198 127.61 144.694 125.815 141.239 119.118C138.475 113.761 136.805 105.44 136.315 101.949C137.019 102.3 140.735 106.509 150.126 112.901Z" fill="#AEC767"/>
<path d="M144.362 114.691C150.31 122.449 154.992 125.577 156.589 126.172C155.331 127.269 146.359 126.747 141.442 120.133C136.526 113.519 136.315 101.949 136.315 101.949C136.315 101.949 138.413 106.932 144.362 114.691Z" fill="#93AE48"/>
<path d="M236.003 108.581C225.144 108.115 224.034 113.722 223.567 114.934C223.067 116.236 232.995 121.346 239.42 118.249C244.56 115.771 250.509 110.449 252.841 108.097C252.099 107.966 246.862 109.046 236.003 108.581Z" fill="#AEC767"/>
<path d="M239.473 113.164C230.52 115.66 225.139 115.384 223.567 114.934C223.929 116.466 231.182 121.112 238.695 118.898C246.208 116.683 252.841 108.097 252.841 108.097C252.841 108.097 248.427 110.668 239.473 113.164Z" fill="#93AE48"/>
<path d="M220.954 130.348C212.247 127.202 209.916 131.475 209.227 132.341C208.489 133.271 215.255 139.956 221.267 139.077C226.076 138.374 232.268 135.565 234.762 134.248C234.192 133.952 229.661 133.495 220.954 130.348Z" fill="#AEC767"/>
<path d="M222.606 134.958C214.693 134.704 210.39 133.108 209.228 132.342C209.132 133.679 213.841 139.304 220.512 139.42C227.182 139.535 234.762 134.249 234.762 134.249C234.762 134.249 230.519 135.213 222.606 134.958Z" fill="#93AE48"/>
<path d="M198.638 142.931C186.9 138.689 183.757 144.45 182.829 145.618C181.833 146.872 190.955 155.884 199.059 154.699C205.543 153.75 213.89 149.964 217.253 148.189C216.484 147.79 210.376 147.173 198.638 142.931Z" fill="#AEC767"/>
<path d="M200.865 149.146C190.197 148.803 184.396 146.651 182.829 145.618C182.7 147.421 189.049 155.005 198.041 155.16C207.034 155.316 217.253 148.189 217.253 148.189C217.253 148.189 211.532 149.489 200.865 149.146Z" fill="#93AE48"/>
<path d="M95.115 97.1863C85.7387 100.67 86.7606 105.946 86.7896 107.169C86.8208 108.48 97.0345 109.372 101.401 104.376C104.894 100.379 108.077 93.6176 109.232 90.7362C108.556 90.8882 104.491 93.7025 95.115 97.1863Z" fill="#AEC767"/>
<path d="M99.665 99.9323C92.9429 105.31 88.2807 106.997 86.7898 107.168C87.6337 108.371 95.4144 109.818 101.013 105.201C106.612 100.583 109.232 90.7361 109.232 90.7361C109.232 90.7361 106.387 94.5544 99.665 99.9323Z" fill="#93AE48"/>
<path d="M165.885 36.254C159.176 39.4621 160.114 41.7947 160.218 42.6978C160.329 43.6668 167.176 42.206 170.074 38.2142C172.392 35.0208 175.07 31.2373 175.732 29.0265C175.242 29.1843 172.593 33.0459 165.885 36.254Z" fill="#AEC767"/>
<path d="M169.265 36.4773C164.649 40.9098 161.31 42.4715 160.218 42.6982C160.923 43.5324 165.706 42.6798 169.541 38.8857C173.376 35.0915 175.732 29.0269 175.732 29.0269C175.732 29.0269 173.882 32.0448 169.265 36.4773Z" fill="#93AE48"/>
<path d="M185.31 52.7669C178.601 55.9751 179.539 58.3076 179.643 59.2108C179.754 60.1798 186.601 58.7189 189.499 54.7272C191.817 51.5338 194.495 47.7502 195.157 45.5395C194.666 45.6973 192.018 49.5588 185.31 52.7669Z" fill="#AEC767"/>
<path d="M188.69 52.9902C184.074 57.4228 180.735 58.9844 179.643 59.2112C180.348 60.0454 185.13 59.1927 188.966 55.3986C192.801 51.6045 195.157 45.5399 195.157 45.5399C195.157 45.5399 193.306 48.5577 188.69 52.9902Z" fill="#93AE48"/>
<path d="M113.397 96.6034C106.689 99.8115 107.627 102.144 107.73 103.047C107.841 104.016 114.689 102.555 117.587 98.5636C119.905 95.3702 122.583 91.5866 123.245 89.3759C122.754 89.5337 120.106 93.3952 113.397 96.6034Z" fill="#AEC767"/>
<path d="M116.778 96.8267C112.162 101.259 108.823 102.821 107.73 103.048C108.436 103.882 113.218 103.029 117.054 99.235C120.889 95.4409 123.245 89.3763 123.245 89.3763C123.245 89.3763 121.394 92.3941 116.778 96.8267Z" fill="#93AE48"/>
<path d="M156.306 38.6571C161.664 43.8135 160.039 45.7323 159.657 46.557C159.246 47.4419 153.207 43.9002 151.712 39.1993C150.517 35.4385 149.166 31.0045 149.233 28.6978C149.649 29.0019 150.948 33.5007 156.306 38.6571Z" fill="#AEC767"/>
<path d="M153.027 37.8052C156.014 43.4654 158.691 45.9984 159.657 46.5574C158.725 47.1272 154.454 44.8129 152.007 40.0044C149.561 35.196 149.234 28.6983 149.234 28.6983C149.234 28.6983 150.04 32.1451 153.027 37.8052Z" fill="#93AE48"/>
<path d="M127.923 63.3845C133.281 68.5409 131.657 70.4597 131.274 71.2844C130.864 72.1692 124.824 68.6276 123.33 63.9266C122.134 60.1659 120.783 55.7319 120.851 53.4252C121.267 53.7293 122.565 58.2281 127.923 63.3845Z" fill="#AEC767"/>
<path d="M124.644 62.5326C127.631 68.1927 130.309 70.7258 131.274 71.2848C130.342 71.8545 126.071 69.5402 123.625 64.7318C121.178 59.9234 120.851 53.4256 120.851 53.4256C120.851 53.4256 121.658 56.8724 124.644 62.5326Z" fill="#93AE48"/>
<path d="M254.592 91.8724C245.61 95.9608 246.84 98.8798 246.97 100.012C247.109 101.228 256.261 99.3309 260.165 94.2941C263.288 90.2646 266.897 85.4911 267.801 82.7103C267.145 82.9129 263.575 87.784 254.592 91.8724Z" fill="#AEC767"/>
<path d="M259.102 92.1215C252.9 97.7274 248.43 99.7182 246.97 100.013C247.904 101.053 254.294 99.9392 259.447 95.1417C264.601 90.3443 267.8 82.7108 267.8 82.7108C267.8 82.7108 265.303 86.5156 259.102 92.1215Z" fill="#93AE48"/>
<path d="M248.841 125.141C238.972 125.251 238.918 128.418 238.579 129.506C238.216 130.674 247.353 132.638 252.96 129.608C257.445 127.184 262.675 124.276 264.625 122.098C263.944 122.018 258.71 125.031 248.841 125.141Z" fill="#AEC767"/>
<path d="M252.865 127.191C244.927 129.812 240.034 129.827 238.579 129.507C239.013 130.836 245.308 132.399 251.961 130.093C258.614 127.788 264.625 122.098 264.625 122.098C264.625 122.098 260.803 124.569 252.865 127.191Z" fill="#93AE48"/>
<path d="M70.8939 96.4918C78.5542 99.6888 77.6403 102.342 77.5761 103.355C77.5072 104.442 69.7906 103.2 66.3343 98.914C63.5691 95.4851 60.37 91.4185 59.5071 88.9913C60.0626 89.1395 63.2336 93.2947 70.8939 96.4918Z" fill="#AEC767"/>
<path d="M67.1377 96.9318C72.5348 101.612 76.3453 103.164 77.5759 103.355C76.8366 104.325 71.4569 103.645 66.9664 99.6323C62.476 95.6195 59.507 88.9917 59.507 88.9917C59.507 88.9917 61.7405 92.2514 67.1377 96.9318Z" fill="#93AE48"/>
<path d="M137.84 81.7723C146.823 83.8013 147.62 87.6831 147.665 88.808C147.774 91.5378 139.194 93.1792 133.42 89.9452C129.157 87.557 125.017 83.6265 123.126 81.4839C123.759 81.407 129.302 79.844 137.84 81.7723Z" fill="#AEC767"/>
<path d="M134.263 86.5066C141.754 89.0959 146.319 89.1196 147.665 88.8079C147.896 90.7074 141.597 93.1776 135.316 90.901C129.034 88.6245 123.126 81.4838 123.126 81.4838C123.126 81.4838 126.772 83.9173 134.263 86.5066Z" fill="#93AE48"/>
<path d="M115.608 127.219C128.424 127.811 130.464 132.941 130.8 134.473C131.615 138.19 120.248 142.534 111.54 139.506C105.11 137.27 98.4733 132.889 95.3568 130.412C96.2064 130.152 103.428 126.656 115.608 127.219Z" fill="#AEC767"/>
<path d="M111.857 134.584C122.763 136.309 129.03 135.228 130.8 134.472C131.58 137.021 123.544 141.945 114.373 140.355C105.202 138.764 95.3567 130.411 95.3567 130.411C95.3567 130.411 100.952 132.86 111.857 134.584Z" fill="#93AE48"/>
<path d="M86.9923 112.073C96.3155 110.076 98.7517 113.377 99.2828 114.415C100.572 116.933 93.2228 122.204 86.3915 121.674C81.3468 121.283 75.7484 119.389 73.04 118.197C73.6015 117.85 78.1314 113.972 86.9923 112.073Z" fill="#AEC767"/>
<path d="M85.6886 118.077C93.8532 117.254 98.1531 115.293 99.2825 114.415C100.325 116.1 95.48 121.158 88.5877 121.749C81.6954 122.339 73.0396 118.197 73.0396 118.197C73.0396 118.197 77.524 118.899 85.6886 118.077Z" fill="#93AE48"/>
<path d="M207.121 108.9C214.397 115.062 213.271 119.007 212.774 120.062C211.568 122.62 202.906 120.021 199.153 114.288C196.381 110.055 194.462 104.465 193.751 101.593C194.369 101.825 200.206 103.044 207.121 108.9Z" fill="#AEC767"/>
<path d="M201.572 111.535C207.21 117.497 211.389 119.704 212.774 120.062C212.077 121.916 205.112 121.169 200.435 116.073C195.758 110.977 193.75 101.593 193.75 101.593C193.75 101.593 195.934 105.572 201.572 111.535Z" fill="#93AE48"/>
<defs>
<linearGradient id="paint0_linear_2398_172" x1="157.11" y1="321.014" x2="159.05" y2="306.804" gradientUnits="userSpaceOnUse">
<stop stop-color="#F9ECC9"/>
<stop offset="1" stop-color="#FFF6DD" stop-opacity="0"/>
</linearGradient>
</defs>
</svg>
