<svg width="317" height="463" viewBox="0 0 317 463" fill="none" xmlns="http://www.w3.org/2000/svg">
<path d="M0 291H317V463H0V291Z" fill="#E3AD6F"/>
<path d="M129 377C137.35 361.36 145 360.5 149 355L152.5 360.5C144 363.5 132.668 378.353 131 382C127.919 388.736 134 416.5 113 424C133.5 411 121.205 391.599 129 377Z" fill="#F9ECC9"/>
<path d="M177.27 366.474C162.707 356.362 155.507 359.085 149.439 356.014L148.832 362.505C149.512 362.413 150.238 362.375 151 362.384C155.667 365.756 165.7 375 168.5 385C171.3 395 183 400.167 188.5 401.5C184.167 400 174.8 394.3 172 383.5C169.2 372.7 159.167 365.132 154.5 362.697C163.562 364.102 175.209 369.813 177.77 371.835C183.584 376.426 190.833 403.908 212.942 401.006C188.77 398.785 190.865 375.912 177.27 366.474Z" fill="#F9ECC9"/>
<path d="M147.5 250C132.7 284 141.333 334.833 147.5 356L152.5 362C150.833 334.5 142.1 282.1 152.5 258.5C162.9 234.9 164.833 202.833 160.5 194C162.333 198.5 162.3 216 147.5 250Z" fill="#AEC767"/>
<path d="M151.5 206.5C146.615 213.993 146.94 221.281 149.308 224.337C168.16 219.33 165.102 202.157 161.216 194.196C158.949 194.943 156.385 199.007 151.5 206.5Z" fill="#917E54"/>
<path d="M150.926 208.022C147.557 216.307 152.527 223.477 155.433 226.027C172.987 217.522 166.715 201.246 161.385 194.171C159.302 195.335 154.294 199.736 150.926 208.022Z" fill="#564B4B"/>
</svg>
