<svg width="317" height="463" viewBox="0 0 317 463" fill="none" xmlns="http://www.w3.org/2000/svg">
<rect y="291" width="317" height="172" fill="#E3AD6F"/>
<path d="M134 301.184V72.1841C140.4 60.9841 150.333 67.5174 154.5 72.1841C153.667 149.851 150.8 306.184 146 310.184C141.2 314.184 136 305.851 134 301.184Z" fill="#B78144"/>
<mask id="mask0_2453_81" style="mask-type:alpha" maskUnits="userSpaceOnUse" x="134" y="66" width="21" height="246">
<path d="M134 301.184V72.1841C140.4 60.9841 150.333 67.5174 154.5 72.1841C153.667 149.851 150.8 306.184 146 310.184C141.2 314.184 136 305.851 134 301.184Z" fill="#B78144"/>
</mask>
<g mask="url(#mask0_2453_81)">
<path d="M124 301.184V72.1841C130.4 60.9841 140.333 67.5174 144.5 72.1841C143.667 149.851 140.8 306.184 136 310.184C131.2 314.184 126 305.851 124 301.184Z" fill="#9F6B2F"/>
</g>
<path d="M149.388 381.435C152.193 376.182 154.762 375.893 156.105 374.046L157.281 375.893C154.426 376.901 150.62 381.89 150.06 383.114C149.025 385.377 151.067 394.702 144.014 397.221C150.899 392.855 146.77 386.339 149.388 381.435Z" fill="#F9ECC9"/>
<path d="M165.601 377.899C160.709 374.503 158.291 375.418 156.253 374.386L156.049 376.566C156.277 376.536 156.521 376.523 156.777 376.526C158.345 377.658 161.714 380.763 162.655 384.122C163.595 387.481 167.525 389.216 169.372 389.664C167.917 389.16 164.771 387.246 163.83 383.618C162.89 379.991 159.52 377.449 157.953 376.631C160.996 377.103 164.908 379.021 165.769 379.7C167.721 381.242 170.156 390.473 177.582 389.498C169.463 388.752 170.167 381.07 165.601 377.899Z" fill="#F9ECC9"/>
<path d="M158.684 379.128C158.684 370 167.5 302 167.5 293C167.5 276.988 165.5 230 165.5 230L170.5 180.5L168.346 146L163 121.5H178.5L195.5 117L207 106L212 93.5001L192 104L178.5 109.5H165.5L168.346 93.5001V75.0001V58.5001L165.5 45.5001C165.5 45.5001 160.978 33.162 156.5 27.5001C153.658 32.5329 153.5 45.5001 153.5 45.5001V58.5001V75.0001V90.0001L150.5 109.5L148.5 128L155.538 151L157.5 177.5L153.5 219.5L155.538 263.5C155.538 263.5 150.5 303.5 155.538 375.353L158.684 379.128Z" fill="#AEC767"/>
<mask id="mask1_2453_81" style="mask-type:alpha" maskUnits="userSpaceOnUse" x="148" y="27" width="64" height="353">
<path d="M158.684 379.128C158.684 370 167.5 302 167.5 293C167.5 276.988 165.5 230 165.5 230L170.5 180.5L168.346 146L163 121.5H178.5L195.5 117L207 106L212 93.5001L192 104L178.5 109.5H165.5L168.346 93.5001V75.0001V58.5001L165.5 45.5001C165.5 45.5001 160.978 33.162 156.5 27.5001C153.658 32.5329 153.5 45.5001 153.5 45.5001V58.5001V75.0001V90.0001L150.5 109.5L148.5 128L155.538 151L157.5 177.5L153.5 219.5L155.538 263.5C155.538 263.5 150.5 303.5 155.538 375.353L158.684 379.128Z" fill="#AEC767"/>
</mask>
<g mask="url(#mask1_2453_81)">
<path d="M187 114.5H159.5L162.5 62.0001L155 17.0001C137.123 19.4015 133.093 164.032 133 204C132.919 238.929 149.135 274.471 151 281C136.819 284.398 132.087 282.783 114.5 281C128.969 290.122 149.95 373.466 151.523 375.982C153.096 378.499 150.265 363.715 149.95 348.931C149.698 337.104 158.564 309.178 161.5 301V208.5L166 158.5L163 121.5L202 127L215 91.5001L187 114.5Z" fill="#94A958"/>
</g>
<path d="M164.557 225L161 230.662L165.404 229.089" stroke="white"/>
<path d="M164.557 207L161 212.662L165.404 211.089" stroke="white"/>
<path d="M164.557 189L161 194.662L165.404 193.089" stroke="white"/>
<path d="M166.557 168L163 173.662L167.404 172.089" stroke="white"/>
<path d="M166.557 150L163 155.662L167.404 154.089" stroke="white"/>
<path d="M164.557 135L161 140.662L165.404 139.089" stroke="white"/>
<path d="M160.557 121L157 126.662L161.404 125.089" stroke="white"/>
<path d="M162.557 105L159 110.662L163.404 109.089" stroke="white"/>
<path d="M162.557 89L159 94.6618L163.404 93.0891" stroke="white"/>
<path d="M163.557 73L160 78.6618L164.404 77.0891" stroke="white"/>
<path d="M164.557 57L161 62.6618L165.404 61.0891" stroke="white"/>
<path d="M162.557 40L159 45.6618L163.404 44.0891" stroke="white"/>
<path d="M148.154 38L153 42L147 40.8889" stroke="white"/>
<path d="M148.154 52L153 56L147 54.8889" stroke="white"/>
<path d="M148.154 69L153 73L147 71.8889" stroke="white"/>
<path d="M148.154 86L153 90L147 88.8889" stroke="white"/>
<path d="M145.154 103L150 107L144 105.889" stroke="white"/>
<path d="M144.154 123L149 127L143 125.889" stroke="white"/>
<path d="M148.154 141L153 145L147 143.889" stroke="white"/>
<path d="M152.154 159L157 163L151 161.889" stroke="white"/>
<path d="M153.154 177L158 181L152 179.889" stroke="white"/>
<path d="M152.154 195L157 199L151 197.889" stroke="white"/>
<path d="M150.154 213L155 217L149 215.889" stroke="white"/>
<path d="M150.154 231L155 235L149 233.889" stroke="white"/>
<path d="M156.231 24.7209L156.307 30.0376L153.721 25.6535" stroke="white"/>
<path d="M172.231 104.721L172.307 110.037L169.721 105.653" stroke="white"/>
<path d="M184.231 101.721L184.307 107.037L181.721 102.653" stroke="white"/>
<path d="M197.231 95.7208L197.307 101.037L194.721 96.6533" stroke="white"/>
<path d="M209.231 89.7208L209.307 95.0374L206.721 90.6533" stroke="white"/>
<path d="M203.231 95.7208L203.307 101.037L200.721 96.6533" stroke="white"/>
<path d="M193.231 103.721L193.307 109.037L190.721 104.653" stroke="white"/>
<path d="M180.231 109.721L180.307 115.037L177.721 110.653" stroke="white"/>
<path d="M167.231 110.721L167.307 116.037L164.721 111.653" stroke="white"/>
<path d="M171.654 41L166 46L173 44.6111" stroke="white"/>
<path d="M174.654 56L169 61L176 59.6111" stroke="white"/>
<path d="M172.846 77L168 81L174 79.8889" stroke="white"/>
<path d="M171.654 94L166 99L173 97.6111" stroke="white"/>
</svg>
