<svg width="317" height="463" viewBox="0 0 317 463" fill="none" xmlns="http://www.w3.org/2000/svg">
<rect y="291" width="317" height="172" fill="#E3AD6F"/>
<path d="M139.447 305.372V112.959C144.825 103.548 153.171 109.037 156.672 112.959C155.972 178.217 153.563 309.573 149.53 312.934C145.497 316.295 141.128 309.293 139.447 305.372Z" fill="#B78144"/>
<mask id="mask0_2519_98" style="mask-type:alpha" maskUnits="userSpaceOnUse" x="139" y="107" width="18" height="207">
<path d="M139.447 305.372V112.959C144.825 103.548 153.171 109.037 156.672 112.959C155.972 178.217 153.563 309.573 149.53 312.934C145.497 316.295 141.128 309.293 139.447 305.372Z" fill="#B78144"/>
</mask>
<g mask="url(#mask0_2519_98)">
<path d="M131.045 305.372V112.959C136.422 103.548 144.769 109.037 148.27 112.959C147.57 178.217 145.161 309.573 141.128 312.934C137.095 316.295 132.725 309.293 131.045 305.372Z" fill="#9F6B2F"/>
</g>
<path d="M152.377 372.801C154.733 368.387 156.892 368.145 158.021 366.593L159.009 368.145C156.61 368.991 153.412 373.183 152.941 374.212C152.072 376.113 153.788 383.949 147.861 386.065C153.647 382.396 150.177 376.921 152.377 372.801Z" fill="#F9ECC9"/>
<path d="M165.999 369.831C161.889 366.977 159.857 367.745 158.145 366.879L157.973 368.711C158.165 368.685 158.37 368.674 158.585 368.676C159.902 369.628 162.734 372.237 163.524 375.059C164.314 377.881 167.616 379.339 169.168 379.715C167.945 379.292 165.302 377.684 164.512 374.636C163.722 371.588 160.89 369.452 159.573 368.765C162.13 369.161 165.417 370.773 166.14 371.344C167.781 372.639 169.827 380.395 176.066 379.576C169.244 378.949 169.836 372.494 165.999 369.831Z" fill="#F9ECC9"/>
<path d="M160.187 370.863C160.187 363.193 167.595 306.057 167.595 298.495C167.595 285.041 165.915 245.561 165.915 245.561L170.116 203.969L168.306 174.981L165.915 156.076L191.072 158.618L208.332 170.31L218.911 193.695L237.285 205.945L259 203.969L241.74 199.82L227.82 189.798L218.911 164.742L197.197 149.709L174.925 146.925L165.915 152.493L168.306 122.887L157.544 94.5873H174.925L191.072 103.496L204.435 126.668L227.82 136.346L245.637 127.994L227.82 126.668L210.003 117.416L197.197 96.2576L178.266 84.5651H159.193L155.832 91.2465L134.28 74.5429L105.327 66.7479L88.6233 56.7258L77.4876 41.6925L66.9086 30L69.1358 45.0332L81.3851 62.8504L98.6455 72.3158L129.826 84.5651L146.589 98.5199L155.832 126.668L142.075 117.416L123.144 120.756L101.429 139.13L99.759 164.742L90.8504 182.003L75.8172 189.798L58 195.366L78.0444 199.82L97.5319 192.582L110.895 170.31L113.122 144.313L132.053 127.994L155.832 129.665L154.151 154.816L157.544 179.182L159.193 201.448L155.832 236.738L157.544 273.708C157.544 273.708 153.311 307.318 157.544 367.691L160.187 370.863Z" fill="#AEC767"/>
<mask id="mask1_2519_98" style="mask-type:alpha" maskUnits="userSpaceOnUse" x="58" y="30" width="201" height="341">
<path d="M160.187 370.863C160.187 363.193 167.595 306.057 167.595 298.495C167.595 285.041 165.915 245.561 165.915 245.561L170.116 203.969L168.306 174.981L165.915 156.076L191.072 158.618L208.332 170.31L218.911 193.695L237.285 205.945L259 203.969L241.74 199.82L227.82 189.798L218.911 164.742L197.197 149.709L174.925 146.925L165.915 152.493L168.306 122.887L157.544 94.5873H174.925L191.072 103.496L204.435 126.668L227.82 136.346L245.637 127.994L227.82 126.668L210.003 117.416L197.197 96.2576L178.266 84.5651H159.193L155.832 91.2465L134.28 74.5429L105.327 66.7479L88.6233 56.7258L77.4876 41.6925L66.9086 30L69.1358 45.0332L81.3851 62.8504L98.6455 72.3158L129.826 84.5651L146.589 98.5199L155.832 126.668L142.075 117.416L123.144 120.756L101.429 139.13L99.759 164.742L90.8504 182.003L75.8172 189.798L58 195.366L78.0444 199.82L97.5319 192.582L110.895 170.31L113.122 144.313L132.053 127.994L155.832 129.665L154.151 154.816L157.544 179.182L159.193 201.448L155.832 236.738L157.544 273.708C157.544 273.708 153.311 307.318 157.544 367.691L160.187 370.863Z" fill="#AEC767"/>
</mask>
<g mask="url(#mask1_2519_98)">
<path d="M160.873 154.395L179.936 151.936L197.753 156.391L215.014 170.31L222.252 189.241L238.399 202.604L265.681 205.388L226.15 213.183L160.873 156.391L166.335 185.484L162.554 227.496V305.217C160.087 312.089 152.638 335.553 152.849 345.491C153.113 357.912 155.492 370.334 154.171 368.22C152.849 366.105 135.22 296.077 123.063 288.413C137.84 289.911 141.816 291.268 153.731 288.413C152.164 282.927 138.539 253.063 138.607 223.715L51.8754 196.479L92.5208 189.241L104.77 167.526L107.554 141.357L126.485 123.54L139.848 122.983L155.438 126.881C156.232 124.467 149.826 110.313 137.608 98.4848L105.558 81.4454C94.1622 76.6538 82.7963 71.7548 75.8172 65.6344C58.358 50.3235 64.6814 28.3297 64.6814 28.3297L84.169 58.953L104.77 70.6455L132.609 80.1109L151.54 95.7009L160.873 123.54V154.395Z" fill="#94A958"/>
<path d="M162.554 90.133L157.665 95.7009L182.72 117.416L222.252 144.698L252.319 126.881L226.15 131.892L206.662 122.983L193.856 100.712L174.925 90.133H162.554Z" fill="#94A958"/>
</g>
<path d="M129.312 66.952L126.323 71.7093L130.023 70.3878" stroke="white" stroke-width="0.840233"/>
<path d="M91.9886 56L89 60.7573L92.7001 59.4358" stroke="white" stroke-width="0.840233"/>
<path d="M180.989 85L178 89.7573L181.7 88.4358" stroke="white" stroke-width="0.840233"/>
<path d="M208.989 116L206 120.757L209.7 119.436" stroke="white" stroke-width="0.840233"/>
<path d="M232.989 126L230 130.757L233.7 129.436" stroke="white" stroke-width="0.840233"/>
<path d="M155.039 84.2358L152.051 88.9931L155.751 87.6716" stroke="white" stroke-width="0.840233"/>
<path d="M167.643 107.762L164.654 112.52L168.354 111.198" stroke="white" stroke-width="0.840233"/>
<path d="M194.989 147L192 151.757L195.7 150.436" stroke="white" stroke-width="0.840233"/>
<path d="M217.989 164L215 168.757L218.7 167.436" stroke="white" stroke-width="0.840233"/>
<path d="M228.989 187L226 191.757L229.7 190.436" stroke="white" stroke-width="0.840233"/>
<path d="M153.02 246.401L157.092 249.762L152.051 248.828" stroke="white" stroke-width="0.840233"/>
<path d="M155.541 220.354L159.613 223.714L154.572 222.781" stroke="white" stroke-width="0.840233"/>
<path d="M158.062 194.307L162.134 197.667L157.092 196.734" stroke="white" stroke-width="0.840233"/>
<path d="M153.86 160.697L157.932 164.058L152.891 163.124" stroke="white" stroke-width="0.840233"/>
<path d="M153.02 132.969L157.092 136.33L152.051 135.397" stroke="white" stroke-width="0.840233"/>
<path d="M137.12 111.729L137.184 116.196L135.011 112.513" stroke="white" stroke-width="0.840233"/>
<path d="M102.671 134.415L102.735 138.883L100.562 135.199" stroke="white" stroke-width="0.840233"/>
<path d="M125.715 123.606L125.778 128.073L123.606 124.389" stroke="white" stroke-width="0.840233"/>
<path d="M100.715 168.606L100.778 173.073L98.6057 169.389" stroke="white" stroke-width="0.840233"/>
<path d="M72.7147 189.606L72.7785 194.073L70.6057 190.389" stroke="white" stroke-width="0.840233"/>
<path d="M171.085 131.289L166.335 135.49L172.216 134.323" stroke="white" stroke-width="0.840233"/>
<path d="M248.263 109.694C246.328 110.276 241.313 112.777 239.07 115.289C235.559 118.622 238.902 119.085 241.012 118.899C244.631 117.679 249.757 114.8 251.263 114.193C252.769 113.587 256.768 113.416 256.601 112.255L253.763 112.255L255.263 110.693L252.638 111.314L254.745 108.938C253.864 108.729 250.198 109.111 248.263 109.694Z" fill="#F4E1AC"/>
<path d="M228.5 116C232.033 113.189 241.5 116 240 110.5C241.5 113.5 241.554 113.291 240 116C244.77 112.675 246 113.5 246 113.5C246 113.5 245.105 114.425 241.5 117.5C243.102 117.052 244 117.5 246 119.5C239.5 117.5 242.605 122 239 125.5C235.448 128.949 231.053 130.036 227.618 128.28C224.183 126.523 224.084 119.514 228.5 116Z" fill="#CBE67D"/>
<path d="M228.5 123C227.334 124.166 226 123.5 225 125.5C231.5 134.5 241.5 125 242 119.5C239.864 123.296 238.665 125.337 236.5 126.5C237.417 125.06 237.62 123.058 237.5 121C236.5 122.333 236.1 123.7 234.5 124.5C232.5 125.5 230.5 126.5 231.5 125.5C232.3 124.7 233 121.333 233.5 120.5C231 121.5 230 121.5 228.5 123Z" fill="#ACC75F"/>
<path d="M255.263 178.694C253.328 179.276 248.313 181.777 246.07 184.289C242.559 187.623 245.902 188.085 248.012 187.899C251.631 186.679 256.757 183.8 258.263 183.194C259.769 182.587 263.768 182.416 263.601 181.255L260.763 181.255L262.263 179.694L259.638 180.314L261.745 177.938C260.864 177.729 257.198 178.111 255.263 178.694Z" fill="#F4E1AC"/>
<path d="M235.5 185C239.033 182.189 248.5 185 247 179.5C248.5 182.5 248.554 182.291 247 185C251.77 181.675 253 182.5 253 182.5C253 182.5 252.105 183.425 248.5 186.5C250.102 186.052 251 186.5 253 188.5C246.5 186.5 249.605 191 246 194.5C242.448 197.949 238.053 199.037 234.618 197.28C231.183 195.523 231.084 188.514 235.5 185Z" fill="#CBE67D"/>
<path d="M235.5 192C234.334 193.166 233 192.5 232 194.5C238.5 203.5 248.5 194 249 188.5C246.864 192.296 245.665 194.338 243.5 195.5C244.417 194.06 244.62 192.058 244.5 190C243.5 191.333 243.1 192.7 241.5 193.5C239.5 194.5 237.5 195.5 238.5 194.5C239.3 193.7 240 190.333 240.5 189.5C238 190.5 237 190.5 235.5 192Z" fill="#ACC75F"/>
<path d="M58.1543 174.694C60.0889 175.276 65.1045 177.777 67.3475 180.289C70.858 183.623 67.5154 184.085 65.4053 183.899C61.7865 182.679 56.6606 179.8 55.1544 179.194C53.6481 178.587 49.6494 178.416 49.8161 177.255L52.6544 177.255L51.1543 175.694L53.7798 176.314L51.6721 173.938C52.5529 173.729 56.2198 174.111 58.1543 174.694Z" fill="#F4E1AC"/>
<path d="M77.9174 181C74.3843 178.189 64.9173 181 66.4174 175.5C64.9173 178.5 64.8635 178.291 66.4174 181C61.647 177.675 60.4173 178.5 60.4173 178.5C60.4173 178.5 61.3123 179.425 64.9173 182.5C63.3148 182.052 62.4173 182.5 60.4173 184.5C66.9173 182.5 63.8123 187 67.4173 190.5C70.9696 193.949 75.3643 195.037 78.7993 193.28C82.2342 191.523 82.3337 184.514 77.9174 181Z" fill="#CBE67D"/>
<path d="M77.9173 188C79.0835 189.166 80.4173 188.5 81.4173 190.5C74.9173 199.5 64.9173 190 64.4173 184.5C66.5537 188.296 67.7521 190.338 69.9173 191.5C68.9999 190.06 68.7974 188.058 68.9173 186C69.9173 187.333 70.3173 188.7 71.9173 189.5C73.9173 190.5 75.9173 191.5 74.9173 190.5C74.1173 189.7 73.4173 186.333 72.9173 185.5C75.4173 186.5 76.4173 186.5 77.9173 188Z" fill="#ACC75F"/>
<path d="M57.1543 36.6937C59.0889 37.276 64.1045 39.7767 66.3475 42.2891C69.858 45.6225 66.5154 46.0847 64.4053 45.8992C60.7865 44.6789 55.6606 41.7999 54.1544 41.1936C52.6481 40.5873 48.6494 40.4158 48.8161 39.2554L51.6544 39.2554L50.1543 37.6936L52.7798 38.3139L50.6721 35.9379C51.5529 35.7287 55.2198 36.1114 57.1543 36.6937Z" fill="#F4E1AC"/>
<path d="M76.9174 43C73.3843 40.1889 63.9173 43 65.4174 37.5C63.9173 40.5 63.8635 40.2914 65.4174 43C60.647 39.6748 59.4173 40.5 59.4173 40.5C59.4173 40.5 60.3123 41.4253 63.9173 44.5C62.3148 44.0517 61.4173 44.5 59.4173 46.5C65.9173 44.5 62.8123 49 66.4173 52.5C69.9696 55.9488 74.3643 57.0366 77.7993 55.2796C81.2342 53.5227 81.3337 46.5139 76.9174 43Z" fill="#CBE67D"/>
<path d="M76.9173 50C78.0835 51.1662 79.4173 50.5001 80.4173 52.5001C73.9173 61.5001 63.9173 52.0001 63.4173 46.5C65.5537 50.2961 66.7521 52.3376 68.9173 53.5C67.9999 52.06 67.7974 50.0578 67.9173 48C68.9173 49.3333 69.3173 50.7 70.9173 51.5C72.9173 52.5 74.9173 53.5 73.9173 52.5C73.1173 51.7 72.4173 48.3333 71.9173 47.5C74.4173 48.5 75.4173 48.5 76.9173 50Z" fill="#ACC75F"/>
</svg>
