<svg width="317" height="463" viewBox="0 0 317 463" fill="none" xmlns="http://www.w3.org/2000/svg">
<rect y="291" width="317" height="172" fill="#E3AD6F"/>
<path d="M143.9 388.564C149.153 378.725 153.965 378.184 156.482 374.724L158.683 378.184C153.336 380.071 146.207 389.415 145.158 391.709C143.22 395.947 147.045 413.413 133.834 418.131C146.731 409.953 138.996 397.748 143.9 388.564Z" fill="#F9ECC9"/>
<path d="M174.266 381.942C165.105 375.581 160.575 377.294 156.758 375.362L156.376 379.445C156.804 379.387 157.26 379.363 157.74 379.369C160.676 381.49 166.987 387.306 168.749 393.596C170.51 399.887 177.871 403.138 181.331 403.977C178.605 403.033 172.712 399.447 170.951 392.653C169.189 385.859 162.877 381.097 159.942 379.566C165.642 380.449 172.969 384.042 174.581 385.315C178.238 388.203 182.798 405.491 196.707 403.666C181.5 402.268 182.818 387.879 174.266 381.942Z" fill="#F9ECC9"/>
<path d="M150.5 283.976C150.5 283.976 151.659 362.037 155.538 375.353L158.683 379.128C158.683 370 162.5 329 162.5 320C162.5 318.119 167.729 285.81 168.346 283.976C171.887 286.5 177.485 287.379 181 286.5C201 281.5 192.638 276.5 181 276.5C177 276.5 171.806 278 168.346 278C168.832 276.965 168.346 267 168.346 267L165.5 252.5V235L162.5 216.5V199.5L165.5 181.5L169.5 166L173.5 154L176.5 138.5C176.5 138.5 172.824 130.162 168.346 124.5C165.504 129.533 156.5 135.5 156.5 135.5L150.5 148C150.5 148 149.506 158.414 148.309 165C147.126 171.512 145.898 175.045 144.433 181.5C142.84 188.517 140.5 199.5 140.5 199.5V216.5L144.433 235L148.309 252.5L150.5 266V279.5C149.098 278 146.436 276.427 137 278C126.451 279.758 118 283.976 134.5 286.5C140.925 287.483 150.5 283.976 150.5 283.976Z" fill="#AEC767"/>
<mask id="mask0_2452_220" style="mask-type:alpha" maskUnits="userSpaceOnUse" x="125" y="124" width="69" height="256">
<path d="M150.5 283.976C150.5 283.976 151.659 362.037 155.538 375.353L158.683 379.128C158.683 370 162.5 329 162.5 320C162.5 318.119 167.729 285.81 168.346 283.976C171.887 286.5 177.485 287.379 181 286.5C201 281.5 192.638 276.5 181 276.5C177 276.5 171.806 278 168.346 278C168.832 276.965 168.346 267 168.346 267L165.5 252.5V235L162.5 216.5V199.5L165.5 181.5L169.5 166L173.5 154L176.5 138.5C176.5 138.5 172.824 130.162 168.346 124.5C165.504 129.533 156.5 135.5 156.5 135.5L150.5 148C150.5 148 149.506 158.414 148.309 165C147.126 171.512 145.898 175.045 144.433 181.5C142.84 188.517 140.5 199.5 140.5 199.5V216.5L144.433 235L148.309 252.5L150.5 266V279.5C149.098 278 146.436 276.427 137 278C126.451 279.758 118 283.976 134.5 286.5C140.925 287.483 150.5 283.976 150.5 283.976Z" fill="#AEC767"/>
</mask>
<g mask="url(#mask0_2452_220)">
<path d="M155 220.5L151 201.5L165.5 141.5L168.5 122C150.623 124.401 133.093 164.032 133 204C132.919 238.929 149.135 274.471 151 281C136.819 284.398 132.087 282.783 114.5 281C128.969 290.122 149.95 373.466 151.523 375.982C153.095 378.498 150.265 363.715 149.95 348.931C149.698 337.104 155.507 317.791 158.443 309.613L161.274 286.966L155 220.5Z" fill="#94A958"/>
</g>
<path d="M182.605 133L176 138.662L184.178 137.089" stroke="white"/>
<path d="M175.605 162L169 167.662L177.178 166.089" stroke="white"/>
<path d="M172.605 174L166 179.662L174.178 178.089" stroke="white"/>
<path d="M169.605 186L163 191.662L171.178 190.089" stroke="white"/>
<path d="M168.605 198L162 203.662L170.178 202.089" stroke="white"/>
<path d="M168.605 213L162 218.662L170.178 217.089" stroke="white"/>
<path d="M170.605 227L164 232.662L172.178 231.089" stroke="white"/>
<path d="M172.605 242L166 247.662L174.178 246.089" stroke="white"/>
<path d="M174.605 257L168 262.662L176.178 261.089" stroke="white"/>
<path d="M180.605 148L174 153.662L182.178 152.089" stroke="white"/>
<path d="M169.557 133L166 138.662L170.404 137.089" stroke="white"/>
<path d="M165.557 145L162 150.662L166.404 149.089" stroke="white"/>
<path d="M163.557 159L160 164.662L164.404 163.089" stroke="white"/>
<path d="M161.557 170L158 175.662L162.404 174.089" stroke="white"/>
<path d="M158.557 183L155 188.662L159.404 187.089" stroke="white"/>
<path d="M155.557 196L152 201.662L156.404 200.089" stroke="white"/>
<path d="M156.557 207L153 212.662L157.404 211.089" stroke="white"/>
<path d="M157.557 220L154 225.662L158.404 224.089" stroke="white"/>
<path d="M159.557 235L156 240.662L160.404 239.089" stroke="white"/>
<path d="M161.557 250L158 255.662L162.404 254.089" stroke="white"/>
<path d="M163.557 265L160 270.662L164.404 269.089" stroke="white"/>
<path d="M143.573 159L150.178 164.662L142 163.089" stroke="white"/>
<path d="M141.573 174L148.178 179.662L140 178.089" stroke="white"/>
<path d="M137.573 189L144.178 194.662L136 193.089" stroke="white"/>
<path d="M136.573 204L143.178 209.662L135 208.089" stroke="white"/>
<path d="M137.573 220L144.178 225.662L136 224.089" stroke="white"/>
<path d="M141.573 233L148.178 238.662L140 237.089" stroke="white"/>
<path d="M144.573 246L151.178 251.662L143 250.089" stroke="white"/>
<path d="M147.573 259L154.178 264.662L146 263.089" stroke="white"/>
<path d="M145.573 145L152.178 150.662L144 149.089" stroke="white"/>
<path d="M149.573 130L156.178 135.662L148 134.089" stroke="white"/>
<path d="M169.286 118.179L169.41 126.878L165.179 119.705" stroke="white"/>
</svg>
