<svg width="317" height="463" viewBox="0 0 317 463" fill="none" xmlns="http://www.w3.org/2000/svg">
<rect y="291" width="317" height="172" fill="#E3AD6F"/>
<path d="M134 301.184V72.1841C140.4 60.9841 150.333 67.5174 154.5 72.1841C153.667 149.851 150.8 306.184 146 310.184C141.2 314.184 136 305.851 134 301.184Z" fill="#B78144"/>
<mask id="mask0_2453_168" style="mask-type:alpha" maskUnits="userSpaceOnUse" x="134" y="66" width="21" height="246">
<path d="M134 301.184V72.1841C140.4 60.9841 150.333 67.5174 154.5 72.1841C153.667 149.851 150.8 306.184 146 310.184C141.2 314.184 136 305.851 134 301.184Z" fill="#B78144"/>
</mask>
<g mask="url(#mask0_2453_168)">
<path d="M124 301.184V72.1841C130.4 60.9841 140.333 67.5174 144.5 72.1841C143.667 149.851 140.8 306.184 136 310.184C131.2 314.184 126 305.851 124 301.184Z" fill="#9F6B2F"/>
</g>
<path d="M149.388 381.435C152.193 376.182 154.762 375.893 156.105 374.046L157.281 375.893C154.426 376.9 150.62 381.889 150.06 383.114C149.025 385.377 151.067 394.702 144.014 397.221C150.899 392.854 146.77 386.338 149.388 381.435Z" fill="#F9ECC9"/>
<path d="M165.601 377.899C160.709 374.503 158.291 375.418 156.253 374.386L156.049 376.566C156.277 376.536 156.521 376.523 156.777 376.526C158.345 377.658 161.714 380.763 162.655 384.122C163.595 387.481 167.525 389.216 169.372 389.664C167.917 389.16 164.771 387.245 163.83 383.618C162.89 379.991 159.52 377.449 157.953 376.631C160.996 377.103 164.908 379.021 165.769 379.7C167.721 381.242 170.156 390.472 177.582 389.498C169.463 388.752 170.167 381.069 165.601 377.899Z" fill="#F9ECC9"/>
<path d="M158.684 379.128C158.684 370 167.5 302 167.5 293C167.5 276.988 165.5 230 165.5 230L170.5 180.5L168.346 146L165.5 123.5H186L211 130L234 148L266 154.5L240.5 136.5L211 115L168.346 109.5V84L161 62.5L148.5 41.5L130.5 30.5L105 20.5L119.5 39L142.5 55L153.5 76.5L134 73.886L115 84L100.5 94.5L75.5 105L103 107L119.5 94.5L136.5 86L153.5 88.5L151.5 122L155.538 151L157.5 177.5L153.5 219.5L155.538 263.5C155.538 263.5 150.5 303.5 155.538 375.353L158.684 379.128Z" fill="#AEC767"/>
<mask id="mask1_2453_168" style="mask-type:alpha" maskUnits="userSpaceOnUse" x="75" y="20" width="191" height="360">
<path d="M158.684 379.128C158.684 370 167.5 302 167.5 293C167.5 276.988 165.5 230 165.5 230L170.5 180.5L168.346 146L165.5 123.5H186L211 130L234 148L266 154.5L240.5 136.5L211 115L168.346 109.5V84L161 62.5L148.5 41.5L130.5 30.5L105 20.5L119.5 39L142.5 55L153.5 76.5L134 73.886L115 84L100.5 94.5L75.5 105L103 107L119.5 94.5L136.5 86L153.5 88.5L151.5 122L155.538 151L157.5 177.5L153.5 219.5L155.538 263.5C155.538 263.5 150.5 303.5 155.538 375.353L158.684 379.128Z" fill="#AEC767"/>
</mask>
<g mask="url(#mask1_2453_168)">
<path d="M210 121.5L159.5 114.5L163 83L145.5 45L96.5 15.5C118 47 158.625 73.5 155.5 83L134 81.5L102 100L70.5 106C70.5 106 133.018 196.163 133 204C132.919 238.929 149.135 274.471 151 281C136.819 284.398 132.087 282.783 114.5 281C128.969 290.122 149.95 373.466 151.523 375.982C153.096 378.498 150.265 363.715 149.95 348.931C149.698 337.104 158.564 309.178 161.5 301V208.5L166 158.5L163 121.5L240.5 156L268 161L210 121.5Z" fill="#94A958"/>
</g>
<path d="M119.557 21L116 26.6618L120.404 25.0891" stroke="white"/>
<path d="M152.557 38L149 43.6618L153.404 42.0891" stroke="white"/>
<path d="M167.557 66L164 71.6618L168.404 70.0891" stroke="white"/>
<path d="M214.557 113L211 118.662L215.404 117.089" stroke="white"/>
<path d="M249.557 140L246 145.662L250.404 144.089" stroke="white"/>
<path d="M150.154 231L155 235L149 233.889" stroke="white"/>
<path d="M153.154 200L158 204L152 202.889" stroke="white"/>
<path d="M156.154 169L161 173L155 171.889" stroke="white"/>
<path d="M151.154 129L156 133L150 131.889" stroke="white"/>
<path d="M150.154 96L155 100L149 98.8889" stroke="white"/>
<path d="M131.231 70.7208L131.307 76.0374L128.721 71.6533" stroke="white"/>
<path d="M90.2308 97.7208L90.3067 103.037L87.7208 98.6533" stroke="white"/>
<path d="M171.654 93.9999L166 98.9999L173 97.611" stroke="white"/>
</svg>
