<svg width="440" height="440" viewBox="0 0 440 440" fill="none" xmlns="http://www.w3.org/2000/svg">
<g clip-path="url(#clip0_2299_567)">
<path d="M0 23.5627C0 10.5494 10.5494 0 23.5627 0H415.881C428.894 0 439.444 10.5494 439.444 23.5627V415.881C439.444 428.894 428.894 439.444 415.881 439.444H23.5627C10.5494 439.444 0 428.894 0 415.881V23.5627Z" fill="#4A6484"/>
<path d="M228.464 359.331C127.617 363.361 65.9755 397.62 59.4957 461.828L404.689 452.992C389.373 382.304 316.918 355.796 228.464 359.331Z" fill="#B0D2FA"/>
<path d="M219.722 401.154C188.148 401.626 157.87 387.999 146.678 381.126L143.732 372.879L311.027 364.043L312.794 381.126C294.926 387.606 251.296 400.683 219.722 401.154Z" fill="#90BAEB"/>
<path d="M144.91 371.112L112.512 378.181L97.196 458.883L360.509 450.636L341.07 371.112L308.082 364.043C304.963 369.501 308.082 428.84 308.082 428.84H239.161H153.746C153.746 428.84 149.398 377.687 144.91 371.112Z" fill="#FFC251"/>
<path d="M102.696 55.3058C42.4967 94.4172 52.8112 133.587 52.8112 133.587C52.8112 133.587 -93.2792 229.66 -4.19968 294.598C84.8799 359.536 370.825 344.413 451.888 256.347C532.95 168.28 361.026 114.907 361.026 114.907C361.026 114.907 357.463 78.9742 312.923 49.079C252.137 8.27946 176.632 7.2695 102.696 55.3058Z" fill="#EFCA8F"/>
<path d="M48.0125 316.918C-46.274 285.713 -39.0468 240.244 -24.0366 208.147C-9.02633 176.051 72.0289 98.4855 204.564 91.3532C347.772 83.6464 428.716 148.413 428.716 148.413C450.361 162.975 480.307 188.533 470.523 227.762C462.289 260.773 413.595 288.388 397.584 293.737" stroke="#C8A46C" stroke-width="7.0688" stroke-linecap="round"/>
<path d="M216.21 173.264C118.896 183.226 103.003 208.651 96.7877 220.511V274.77C90.2764 270.026 73.7022 264.274 59.4957 279.218C41.7376 297.897 81.6933 340.593 96.7877 340.593C108.863 340.593 110.994 329.029 110.994 329.029C110.994 329.029 110.461 331.52 133.192 355.714C161.605 385.957 228.63 392.113 285.456 372.544C330.917 356.889 345.242 326.29 346.722 312.948C348.497 313.837 354.89 315.083 366.255 312.948C380.462 310.279 408.875 248.904 386.677 238.23C368.919 229.691 352.641 247.125 346.722 256.91L335.179 200.872C329.851 188.122 313.524 163.301 216.21 173.264Z" fill="#FFE6C9"/>
<path d="M236.24 309.225C217.928 307.016 206.765 301.249 207.375 309.225C207.375 323.03 221.691 327.27 232.705 323.363C243.72 319.455 254.551 311.434 236.24 309.225Z" fill="#F3CDA1"/>
<path d="M265.08 280.396C265.08 280.396 265.08 267.602 286.548 260.868C302.411 255.893 313.383 263.561 313.383 263.561" stroke="#B97565" stroke-width="7.0688" stroke-linecap="round"/>
<path d="M183.58 283.682C183.58 283.682 181.523 270.924 159.473 267.59C143.182 265.127 133.699 274.502 133.699 274.502" stroke="#B97565" stroke-width="7.0688" stroke-linecap="round"/>
<path d="M348.727 269.203C387.017 228.558 378.77 173.775 352.262 150.212C314.452 116.604 287.464 103.676 214.83 126.649C146.089 100.141 87.1432 144.91 69.5099 191.447C58.6096 220.213 61.623 270.014 91.8944 278.039C102.187 272.472 94.8759 288.608 140.042 252.687C185.207 216.766 196.46 197.039 214.83 178.673C217.204 178.375 228.719 195.616 277.153 227.718C325.587 259.821 341.605 265.934 348.727 269.203Z" fill="#636F77"/>
<path d="M363.217 290.999C362.324 284.03 362.353 262.728 373.038 255.281C385.537 246.569 390.894 257.895 385.537 264.864C379.584 272.61 373.038 276.189 373.038 276.189" stroke="#F3CDA1" stroke-width="3.5344" stroke-linecap="round"/>
<path d="M98.3929 322.031C97.1803 314.962 90.8446 294.15 78.4484 289.959C63.9479 285.056 62.1931 297.673 69.3658 302.937C77.3376 308.787 84.6404 310.394 84.6404 310.394" stroke="#F3CDA1" stroke-width="3.5344" stroke-linecap="round"/>
<path d="M196.159 339.302C196.159 339.302 199.694 349.317 220.311 354.029C238.572 358.203 250.942 346.96 250.942 346.96" stroke="#DE8E7B" stroke-width="5.89067" stroke-linecap="round"/>
<path d="M68.3317 242.695C68.3317 220.311 86.0037 179.665 129.006 156.692C172.349 133.535 194.981 145.499 217.366 156.692C236.805 138.431 277.45 133.718 306.904 146.088C341.424 160.587 356.974 193.214 371.112 221.489" stroke="#505B63" stroke-width="5.89067" stroke-linecap="round"/>
<path d="M80.1131 266.258C80.1131 240.928 105.443 179.076 183.2 173.186" stroke="#505B63" stroke-width="5.89067" stroke-linecap="round"/>
<path d="M360.509 250.353C338.713 207.94 304.547 179.076 250.942 170.829" stroke="#535E66" stroke-width="5.89067" stroke-linecap="round"/>
<path d="M258.701 238.128C260.63 236.761 267.297 234.436 278.528 236.07" stroke="#535E66" stroke-width="7.0688" stroke-linecap="round"/>
<path d="M184.316 240.57C182.32 239.302 175.545 237.318 164.411 239.519" stroke="#535E66" stroke-width="7.0688" stroke-linecap="round"/>
<path d="M345.782 324.576C350.966 313.737 352.262 295.319 352.262 287.464C340.952 339.302 298.068 366.792 278.039 374.057C326.343 361.098 340.598 335.414 345.782 324.576Z" fill="#F3CDA1"/>
<path d="M129.595 354.113C120.17 344.688 108.388 329.962 104.854 304.632C142.554 378.854 188.501 377.087 207.351 385.923C149.623 379.443 138.09 362.609 129.595 354.113Z" fill="#F3CDA1"/>
</g>
<defs>
<clipPath id="clip0_2299_567">
<rect width="439.444" height="439.444" fill="white"/>
</clipPath>
</defs>
</svg>
