<svg width="445" height="445" viewBox="0 0 445 445" fill="none" xmlns="http://www.w3.org/2000/svg">
<g clip-path="url(#clip0_2312_680)">
<path d="M0 23.8155C0 10.6625 10.6626 0 23.8155 0H420.343C433.496 0 444.159 10.6626 444.159 23.8155V420.343C444.159 433.496 433.496 444.159 420.343 444.159H23.8155C10.6625 444.159 0 433.496 0 420.343V23.8155Z" fill="#C6EEF6"/>
<path d="M57.7526 352.469L69.6604 284.595L367.949 261.375L397.719 331.035L372.712 336.394L379.857 352.469L352.469 357.828L348.302 369.14L102.407 375.094L104.788 363.781H79.7819V352.469H57.7526Z" fill="#F6A344"/>
<path d="M230.915 363.186C128.986 367.259 66.6834 401.886 60.1341 466.783L409.031 457.853C393.551 386.406 320.318 359.614 230.915 363.186Z" fill="#434237"/>
<path d="M175.639 449.517L167.304 376.285L153.014 372.712C144.878 375.888 123.721 383.429 104.193 395.337C84.664 407.245 63.7064 434.037 60.1341 452.494L175.639 449.517Z" fill="#FAE079"/>
<path d="M287.572 447.731L291.144 373.308L306.029 365.568C327.463 371.522 353.065 381.048 370.331 394.742C379.619 402.108 410.023 433.839 412.603 447.731H287.572Z" fill="#FAE079"/>
<path d="M167.899 384.025V379.857C209.576 384.62 242.322 385.215 291.144 375.094V379.262C282.847 382.414 261.351 391.584 239.941 394.281V398.909H214.935V394.135C195.198 392.431 173.964 386.243 167.899 384.025Z" fill="#F8F8F8"/>
<path d="M216.721 123.245C118.362 133.314 104.847 157.465 90.4877 218.195V265.697C83.9066 260.902 67.1545 255.088 52.7956 270.192C34.847 289.072 75.2314 332.226 90.4877 332.226C102.693 332.226 104.847 320.538 104.847 320.538C104.847 320.538 106.574 337.855 120.864 353.064C149.581 383.632 223.091 399.047 280.527 379.268C326.475 363.445 340.954 332.518 342.449 319.032C344.244 319.931 350.706 321.19 362.193 319.032C376.552 316.335 405.269 254.302 382.833 243.513C364.885 234.882 351.903 249.104 345.92 258.993L338.775 201.241C333.391 188.355 315.079 113.176 216.721 123.245Z" fill="#FFE6C9"/>
<path d="M279.237 379.262C301.861 367.354 332.821 349.492 345.92 302.457C341.752 348.301 310.792 369.735 279.237 379.262Z" fill="#F2E0CE" style="mix-blend-mode:multiply"/>
<path d="M174.448 381.643C151.824 369.735 116.1 357.828 103.002 310.792C107.17 356.637 142.893 372.117 174.448 381.643Z" fill="#F2E0CE" style="mix-blend-mode:multiply"/>
<path d="M230.286 311.638C215.649 309.894 206.726 305.342 207.214 311.638C207.214 322.534 218.656 325.88 227.461 322.796C236.265 319.712 244.923 313.381 230.286 311.638Z" fill="#F3CDA1"/>
<path d="M254.826 282.965C254.826 282.965 256.399 268.862 280.892 264.079C298.989 260.546 310.141 270.349 310.141 270.349" stroke="#B97565" stroke-width="4.7631" stroke-linecap="round"/>
<path d="M184.925 285.126C184.925 285.126 182.441 269.719 155.815 265.693C136.141 262.719 124.69 274.04 124.69 274.04" stroke="#B97565" stroke-width="4.7631" stroke-linecap="round"/>
<path d="M356.397 309.601C355.495 302.557 355.524 281.027 366.324 273.5C378.957 264.695 384.371 276.142 378.957 283.186C372.94 291.015 366.324 294.633 366.324 294.633" stroke="#F3CDA1" stroke-width="3.57232" stroke-linecap="round"/>
<path d="M93.4948 310.006C92.2692 302.861 85.8655 281.826 73.3363 277.59C58.6802 272.635 56.9066 285.387 64.1563 290.707C72.2136 296.62 79.5948 298.245 79.5948 298.245" stroke="#F3CDA1" stroke-width="3.57232" stroke-linecap="round"/>
<path d="M177.425 70.2556L217.912 88.7126L257.803 70.2556L370.331 129.794L441.182 236.369L418.557 258.993C419.549 267.13 422.963 279.832 426.297 284.595C429.631 289.358 395.139 301.663 383.429 303.647L331.631 197.073L225.056 141.702L109.551 178.616L61.9203 329.844L22.6247 319.127L30.9601 288.763L7.14465 260.779L61.9203 141.702L177.425 70.2556Z" fill="#F4C868"/>
<path d="M192.905 348.301C192.905 348.301 206.004 354.851 225.056 354.851C243.989 354.851 261.375 344.134 254.826 348.301" stroke="#DE8E7B" stroke-width="5.95387" stroke-linecap="round"/>
<path d="M261.477 240.683C263.427 239.301 277.45 231.01 289.954 238.155" stroke="#E4A445" stroke-width="7.14464" stroke-linecap="round"/>
<path d="M186.952 241.132C184.934 239.851 167.899 231.372 155.396 239.346" stroke="#E4A445" stroke-width="7.14464" stroke-linecap="round"/>
<path d="M149.171 284.937C146.672 281.918 148.13 272.105 149.171 268.331C150.005 265.311 166.357 268.331 171.044 272.86C174.794 276.483 171.825 286.447 168.701 287.957C165.576 289.467 153.363 290 149.171 284.937Z" fill="#CF9822"/>
<path d="M286.74 283.365C289.121 280.345 287.732 270.532 286.74 266.758C285.946 263.739 270.373 266.758 265.909 271.287C262.338 274.911 265.165 284.875 268.141 286.384C271.117 287.894 284.359 286.384 286.74 283.365Z" fill="#CF9822"/>
<path d="M204.218 221.484V177.425L192.905 221.484L204.218 264.352H192.905L164.327 189.928L160.159 226.247L180.998 257.803H154.801L135.748 243.513L130.985 203.622L120.864 243.513L130.985 294.717L105.979 309.601L98.8342 284.893L91.6896 260.184L85.1403 299.48L52.9894 281.618L64.3018 203.622L93.4758 154.801L186.952 105.383L226.842 120.863L248.872 105.383L340.561 154.801C348.897 170.876 366.401 203.146 369.735 203.622C373.07 204.099 384.223 255.818 389.383 281.618L348.897 294.717L354.255 253.039L323.891 309.601L309.006 294.717L318.532 238.75L279.237 189.928L293.526 226.247L273.283 257.803L257.207 264.352V226.247L232.796 184.57L238.75 226.247V281.618H218.507L204.218 221.484Z" fill="#F4C868"/>
<path d="M130.985 294.717L106.574 309.601L96.4527 275.069L125.627 264.352L130.985 294.717Z" fill="#F6A344"/>
<path d="M180.998 258.398H155.991L135.748 244.109L166.708 235.773L180.998 258.398Z" fill="#F6A344"/>
<path d="M197.073 237.559H182.784L192.905 264.352H204.218L197.073 237.559Z" fill="#F6A344"/>
<path d="M239.346 247.086L210.767 248.276L218.507 281.618H239.346V247.086Z" fill="#F6A344"/>
<path d="M289.358 232.201L257.803 233.392L256.612 264.352L273.283 258.398L289.358 232.201Z" fill="#F6A344"/>
<path d="M344.134 272.092L314.364 264.352L309.006 294.717L323.891 309.601L344.134 272.092Z" fill="#F6A344"/>
<path d="M380.452 262.566L352.469 268.52L348.897 295.312L375.094 285.786L383.429 306.029L427.488 288.167L419.748 264.352L378.071 277.45L380.452 262.566Z" fill="#F6A344"/>
<path d="M428.679 220.889L413.199 236.964L418.557 258.993L441.182 236.369L428.679 220.889Z" fill="#F6A344"/>
<path d="M85.1404 300.075L89.9035 266.733L80.3773 264.352L72.6372 292.93L85.1404 300.075Z" fill="#F6A344"/>
<path d="M71.4465 298.884C63.3095 293.923 34.2943 285.19 33.3417 285.19L46.4402 258.993L21.4339 238.155L7.14465 260.779L30.9601 288.763L22.6247 319.723L62.5156 330.44L71.4465 298.884Z" fill="#F6A344"/>
<path d="M120.864 386.406L103.002 396.528L120.864 408.436V386.406Z" fill="white"/>
<path d="M147.061 424.511L135.153 441.182L155.396 443.563L147.061 424.511Z" fill="white"/>
<path d="M84.5449 429.869L73.8279 444.754L92.8803 446.54L84.5449 429.869Z" fill="white"/>
<path d="M343.538 385.811H323.295L334.012 404.268L343.538 385.811Z" fill="white"/>
<path d="M311.983 425.106L302.457 439.396L321.509 443.563L311.983 425.106Z" fill="white"/>
<path d="M375.689 428.083L386.406 409.031L397.719 428.083H375.689Z" fill="white"/>
<path d="M73.2326 203.622L97.0481 160.755L154.205 115.505" stroke="#EED1A8" stroke-width="4.7631" stroke-linecap="round" style="mix-blend-mode:multiply"/>
<path d="M123.245 188.142C130.985 178.418 146.703 158.373 147.656 155.991C148.609 153.61 176.235 124.436 189.928 110.147" stroke="#EED1A8" stroke-width="4.7631" stroke-linecap="round" style="mix-blend-mode:multiply"/>
<path d="M225.652 129.199L239.346 150.633L235.178 187.547" stroke="#EED1A8" stroke-width="4.7631" stroke-linecap="round" style="mix-blend-mode:multiply"/>
<path d="M197.669 129.794L183.379 158.373V196.478" stroke="#EED1A8" stroke-width="4.7631" stroke-linecap="round" style="mix-blend-mode:multiply"/>
<path d="M262.566 116.696L292.335 141.107L324.486 204.218" stroke="#EED1A8" stroke-width="4.7631" stroke-linecap="round" style="mix-blend-mode:multiply"/>
<path d="M267.924 105.979L344.134 147.656L379.857 211.363" stroke="#EED1A8" stroke-width="4.7631" stroke-linecap="round" style="mix-blend-mode:multiply"/>
</g>
<defs>
<clipPath id="clip0_2312_680">
<rect width="444.159" height="444.159" fill="white"/>
</clipPath>
</defs>
</svg>
