<svg width="440" height="440" viewBox="0 0 440 440" fill="none" xmlns="http://www.w3.org/2000/svg">
<g clip-path="url(#clip0_2331_263)">
<path d="M0 23.5925C0 10.5627 10.5627 0 23.5925 0H416.408C429.437 0 440 10.5627 440 23.5925V416.408C440 429.437 429.437 440 416.408 440H23.5925C10.5627 440 0 429.437 0 416.408V23.5925Z" fill="#D6B4EF"/>
<path d="M228.753 359.786C127.779 363.821 66.059 398.123 59.571 462.413L405.201 453.566C389.866 382.788 317.319 356.247 228.753 359.786Z" fill="#2D3C57"/>
<path d="M220 401.662C188.386 402.134 158.07 388.49 146.863 381.609L143.914 373.351L311.421 364.504L313.19 381.609C295.299 388.097 251.614 401.19 220 401.662Z" fill="#90BAEB"/>
<path d="M415.818 270.134C398.123 262.466 398.123 222.359 380.429 215.281C362.735 208.204 328.526 201.126 328.526 201.126L343.861 305.523C370.616 287.822 375.109 286.063 415.66 270.196L415.818 270.134Z" fill="#4A4646"/>
<path d="M96.9101 220.79C100.268 201.126 111.356 129.117 208.793 119.142C306.231 109.167 341.826 180.693 347.16 193.458L355.657 256.414C366.719 247.567 367.957 244.48 385.737 253.029C407.963 263.717 375.19 324.084 360.965 326.756C349.586 328.894 348.938 327.647 347.16 326.756C340.911 340.912 336.296 356.497 290.777 372.172C233.879 391.765 171.137 387.304 135.657 365.684C116.604 354.073 106.228 349.962 101.738 329.269C80.8623 329.269 76.9906 276.449 78.7354 264.236C80.1509 254.327 92.818 257.748 96.9102 261.877C97.3042 252.009 97.3575 227.411 96.9101 220.79Z" fill="#FFE6C9"/>
<path d="M324 342.5C339.4 320.5 340 289 337.5 258.5C348.476 250.759 351.851 255.095 359.5 253.5C379.5 234.5 408 255.5 383.5 300C367.214 329.581 356.5 330 347.5 327C337 350 327 360.5 287.5 370C293.833 366.333 312.8 358.5 324 342.5Z" fill="#FAEDE4" style="mix-blend-mode:multiply"/>
<path d="M210.587 314.335C192.252 312.124 181.075 306.349 181.686 314.335C181.686 328.158 196.02 332.403 207.048 328.491C218.076 324.578 228.922 316.547 210.587 314.335Z" fill="#F3CDA1"/>
<path d="M240.643 292.547C240.643 292.547 241.561 282.434 263.056 275.691C278.939 270.71 289.008 275.691 289.008 275.691" stroke="#4A4646" stroke-width="4.7185" stroke-linecap="round"/>
<path d="M175.689 288.949C175.689 288.949 171.635 277.116 152.761 274.263C136.449 271.796 125.744 279.757 125.744 279.757" stroke="#4A4646" stroke-width="4.7185" stroke-linecap="round"/>
<path d="M356.599 301.984C355.705 295.006 355.734 273.678 366.433 266.221C378.948 257.498 384.311 268.838 378.948 275.816C372.987 283.571 366.433 287.155 366.433 287.155" stroke="#D4A46C" stroke-width="3.53887" stroke-linecap="round"/>
<path d="M188.15 358.016C188.15 358.016 185.259 358.016 206.434 358.016C222.359 358.016 227.078 358.016 227.078 358.016" stroke="#DE8E7B" stroke-width="5.89812" stroke-linecap="round"/>
<path d="M170.349 250.271C164.655 243.606 142.183 236.793 129.004 243.262" stroke="#4A4646" stroke-width="7.07775" stroke-linecap="round"/>
<path d="M239.464 247.168C245.747 241.055 268.75 236.336 281.279 243.988" stroke="#4A4646" stroke-width="7.07775" stroke-linecap="round"/>
<path d="M274.73 291.328C277.088 288.337 275.713 278.616 274.73 274.877C273.944 271.886 258.516 274.877 254.094 279.364C250.556 282.953 253.357 292.824 256.305 294.319C259.253 295.815 272.372 294.319 274.73 291.328Z" fill="#575962"/>
<path d="M147.351 292.726C144.647 290.043 144.832 280.227 145.353 276.396C145.77 273.332 161.069 276.245 166.003 280.161C169.951 283.294 168.748 291.614 166.003 293.457C163.259 295.299 150.056 295.408 147.351 292.726Z" fill="#575962"/>
<path d="M168.686 288.418C203.485 264.236 222.556 235.453 231.796 194.048C257.609 221.121 266.595 245.362 274.263 273.083C283.7 253.029 283.864 234.176 274.263 212.922C307.882 238.874 324.987 293.137 324.987 293.137C324.987 293.137 331.475 274.852 329.705 254.209C344.45 293.727 345.63 298.445 345.63 323.807C360.325 290.303 360.12 279.791 359.205 232.871L359.196 232.386C380.429 228.847 407.56 247.131 429.973 234.155C410.509 226.488 403.618 219.683 396.944 202.306C415.414 198.554 424.075 184.611 436.461 175.764C411.689 169.866 393.42 166.851 368.043 140.965C390.456 135.067 412.869 113.244 418.767 92.6005C387.507 106.756 352.799 101.357 315.55 95.2994C333.935 76.534 349.759 50.7238 349.759 20.0536C329.705 38.3378 299.035 59.571 260.107 65.1148C268.954 36.5683 260.107 24.7721 241.823 8.25732C235.503 41.8481 229.173 47.4507 206.434 71.9571C206.434 71.9571 149.223 65.1148 99.0885 20.0536C99.0885 44.8257 105.006 70.517 133.887 90.2413C105.122 105.367 46.0053 99.0884 20.0536 90.2413C27.7212 108.776 44.248 145.353 71.9571 147.453C46.2802 176.269 40.1072 176.354 6.48792 186.97C29.0866 206.756 43.1274 213.393 71.9571 212.922C61.8423 231.83 46.4925 238.65 28.311 249.491C41.0785 256.298 71.8211 266.839 84.3431 263.056C83.2255 287.938 103.807 327.936 103.807 327.936C103.807 327.936 93.7801 263.056 120.322 228.257C106.734 273.083 112.654 280.161 112.654 280.161C112.654 280.161 126.22 244.182 150.992 221.769C153.351 242.413 156.89 253.029 149.223 273.083C171.046 250.08 175.764 245.362 189.92 217.051C191.689 248.311 178.713 258.928 168.686 288.418Z" fill="#4A4646"/>
<path d="M218.231 382.788C250.316 384.204 298.052 367.65 317.909 359.196C327.936 355.177 331.475 372.761 335.603 378.659C339.732 384.558 282.52 431.743 213.512 431.743C144.504 431.743 110.295 382.788 110.295 378.659C110.295 374.531 125.04 376.89 119.732 369.222C115.485 363.088 121.501 359.982 125.04 359.196C142.735 366.47 186.145 381.373 218.231 382.788Z" fill="#2D3C57"/>
<circle cx="257.158" cy="395.174" r="7.07775" fill="#EBC23B"/>
<circle cx="299.625" cy="430.563" r="7.07775" fill="#EBC23B"/>
</g>
<defs>
<clipPath id="clip0_2331_263">
<rect width="440" height="440" fill="white"/>
</clipPath>
</defs>
</svg>
