<svg width="441" height="441" viewBox="0 0 441 441" fill="none" xmlns="http://www.w3.org/2000/svg">
<g clip-path="url(#clip0_2299_637)">
<path d="M0 23.6132C0 10.572 10.572 0 23.6132 0H416.773C429.815 0 440.387 10.572 440.387 23.6132V416.773C440.387 429.815 429.815 440.387 416.773 440.387H23.6132C10.572 440.387 0 429.815 0 416.773V23.6132Z" fill="#A9DE8D"/>
<path d="M118.657 363.053C138.728 361.095 300.478 357.937 302.84 370.728C302.84 370.728 342.392 390.209 357.15 417.364C371.908 444.519 373.089 460.458 373.089 460.458L44.2748 455.735C44.2748 440.977 51.9491 423.857 66.1171 405.557C80.285 387.257 98.5853 365.011 118.657 363.053Z" fill="#ED74B6"/>
<path d="M155.808 22.3741C88.7914 48.5368 90.9624 89.071 90.9624 89.071C90.9624 89.071 -71.9089 153.698 2.32899 235.509C76.5669 317.32 360.255 360.525 457.685 290.555C555.114 220.584 397.228 133.305 397.228 133.305C397.228 133.305 401.025 97.3184 363.384 58.9387C312.012 6.5599 238.118 -9.75858 155.808 22.3741Z" fill="#EFCA8F"/>
<path d="M326.098 340.586L320.674 312.25C279.114 306.583 273.755 345.775 277.101 362.501L297.172 369.585C297.172 369.585 297.277 380.96 301.894 385.524C307.833 391.394 318.07 392.018 318.07 392.018C318.07 392.018 319.596 396.706 323.146 401.39C328.664 408.67 348.767 407.293 348.767 407.293C348.767 407.293 353.92 417.941 358.803 420.871C370.609 427.955 391.861 425.003 391.861 425.003C391.861 425.003 394.223 407.883 379.464 397.258C374.01 393.33 362.108 392.018 362.108 392.018C362.108 392.018 364.47 380.559 358.803 372.464C353.136 364.368 346.406 369.585 346.406 369.585C346.406 369.585 346.406 352.983 342.864 345.308C338.404 335.646 326.098 340.586 326.098 340.586Z" fill="#9F7748"/>
<path d="M323.973 330.55C315.473 316.382 295.244 336.453 286.192 348.26C281.47 366.206 312.167 370.299 328.106 370.102C330.27 362.822 332.474 344.718 323.973 330.55Z" fill="#8B6539"/>
<path d="M326.335 386.632C320.123 386.632 310.789 384.27 306.854 382.499C318.188 398.253 337.944 395.36 346.406 391.944C348.552 383.1 348.451 378.333 346.406 370.102L339.912 385.451C336.961 387.222 332.828 386.632 326.335 386.632Z" fill="#8B6539"/>
<path d="M356.442 400.209L348.767 407.293C353.962 429.49 379.661 428.348 391.861 425.003C388.319 424.609 378.52 422.76 367.658 418.509C356.796 414.259 355.654 404.538 356.442 400.209Z" fill="#8B6539"/>
<path d="M92.0916 287.491C-47.8168 232.59 -20.8353 175.094 0.410735 146.642C21.6567 118.191 116.948 58.5243 248.461 78.4288C390.566 99.9365 456.855 179.928 456.855 179.928C475.14 198.612 499.341 229.773 481.775 266.285C466.994 297.01 407.818 311.887 383.715 318.188" stroke="#C8A46C" stroke-width="7.08397" stroke-linecap="round"/>
<path d="M212.519 177.099C161.751 172.376 106.85 175.918 87.3691 212.519C84.9431 223.739 89.5189 241.856 87.3691 266.829C85.3337 290.472 74.0408 296.288 79.6947 321.73C84.4173 342.982 112.184 368.552 171.786 377.221C204.254 381.944 281.45 391.389 311.695 342.392C313.474 343.283 325.689 348.663 337.079 346.524C351.316 343.85 388.841 287.562 366.595 276.865C348.799 268.308 338.879 275.324 332.947 285.13V234.361C327.608 221.584 310.131 186.179 212.519 177.099Z" fill="#FFE6C9"/>
<path d="M169.449 301.624C151.098 299.411 139.911 293.631 140.523 301.624C140.523 315.459 154.869 319.708 165.907 315.792C176.945 311.876 187.8 303.838 169.449 301.624Z" fill="#F3CDA1"/>
<path d="M207.796 273.805C207.796 273.805 212.194 261.761 234.717 262.801C251.36 263.569 259.053 274.559 259.053 274.559" stroke="#B97565" stroke-width="7.08397" stroke-linecap="round"/>
<path d="M147.507 267.951C147.507 267.951 145.446 255.165 123.349 251.824C107.022 249.356 97.5188 258.751 97.5188 258.751" stroke="#B97565" stroke-width="7.08397" stroke-linecap="round"/>
<path d="M334.467 329.065C334.588 322.028 337.618 300.897 348.971 294.972C362.251 288.04 365.82 300.011 359.673 306.192C352.84 313.062 346.024 315.717 346.024 315.717" stroke="#F3CDA1" stroke-width="3.54198" stroke-linecap="round"/>
<path d="M130.463 193.038C103.072 204.845 91.8949 235.542 86.1884 245.578C61.3945 232.59 71.2104 167.726 86.1884 147.583C103.308 124.56 148.173 90.911 174.738 111.573C210.748 54.9008 360.692 121.018 370.137 213.109C372.499 225.506 357.15 288.081 332.356 295.756C325.566 297.858 335.179 279.767 296.346 268.601C233.682 250.581 207.5 216.777 191.944 196.692L191.858 196.58C197.532 224.005 213.844 237.309 236.723 251.481C224.916 247.742 195.99 237.903 181.232 213.109C170.316 194.771 169.622 182.609 170.015 175.328C168.244 176.312 157.854 181.232 130.463 193.038Z" fill="#9F7748"/>
<path d="M174.165 335.273C142.86 331.028 140.123 336.847 140.516 339.995C140.516 351.837 175.291 360.692 194.219 360.692C217.242 360.692 235.802 343.365 220.193 335.272C206.599 328.224 208.994 339.995 174.165 335.273Z" fill="#EA9B88"/>
<path d="M299.888 356.56C308.062 349.476 322.911 326.453 328.814 305.201C299.888 373.679 249.12 379.015 168.835 376.041C170.606 376.434 194.219 381.354 214.88 381.354C275.094 381.354 291.714 363.644 299.888 356.56Z" fill="#F3CDA1"/>
<path d="M76.1527 191.267C75.5624 188.906 84.8813 160.817 113.344 146.992C134.005 136.957 159.98 132.234 169.425 142.27C183.593 128.102 202.483 122.789 247.349 136.957C292.214 151.124 347.114 186.544 363.644 246.758M348.885 277.455C331.766 234.952 319.063 227.453 274.504 208.977C250.3 198.941 223.145 142.27 169.425 165.292C155.257 155.257 120.073 164.466 99.7659 184.773C79.4586 205.081 76.7431 220.39 76.1527 223.145" stroke="#8B6539" stroke-width="7.08397" stroke-linecap="round"/>
<path d="M105.079 225.954C106.987 224.55 113.625 222.1 124.908 223.536" stroke="#8B6539" stroke-width="7.08397" stroke-linecap="round"/>
<path d="M232.348 227.135C230.439 225.731 223.802 223.281 212.519 224.717" stroke="#8B6539" stroke-width="7.08397" stroke-linecap="round"/>
<path d="M184.183 347.114C168.598 347.114 157.815 350.656 155.257 353.018C174.738 361.282 206.025 364.234 216.651 354.789C213.306 352.427 199.768 347.114 184.183 347.114Z" fill="#F6B0A0"/>
<path d="M258.565 377.812L264.468 430.351H304.611L316.122 451.898L327.634 473.445H85.598C89.3719 460.201 92.3803 438.466 97.9949 421.496C98.4533 420.111 100.601 420.211 102.742 420.309L107.44 419.135C116.357 392.155 121.018 372.186 121.018 364.234C121.018 364.234 139.318 370.728 144.041 371.908L136.366 421.496C147.386 427.203 174.62 437.789 195.399 434.483C216.179 431.178 230.819 430.351 235.542 430.351V381.354L258.565 377.812Z" fill="#FFC251"/>
<path d="M185.954 378.992C152.896 375.002 136.366 370.728 121.608 363.644C130.857 371.515 142.27 390.208 188.906 394.931C228.455 398.936 259.155 381.944 276.275 373.679C247.939 380.173 221.964 383.338 185.954 378.992Z" fill="#E0BACF" style="mix-blend-mode:multiply"/>
<path d="M327.634 448.651L295.165 410.87L316.417 453.374L327.634 448.651Z" fill="#EDD7D7" style="mix-blend-mode:multiply"/>
<path d="M90.911 449.832L102.718 402.015C86.1883 427.045 79.6947 444.322 78.514 449.832H90.911Z" fill="#EDD7D7" style="mix-blend-mode:multiply"/>
</g>
<defs>
<clipPath id="clip0_2299_637">
<rect width="440.387" height="440.387" fill="white"/>
</clipPath>
</defs>
</svg>
