<svg width="441" height="441" viewBox="0 0 441 441" fill="none" xmlns="http://www.w3.org/2000/svg">
<g clip-path="url(#clip0_2392_150)">
<path d="M0 23.6132C0 10.572 10.572 0 23.6132 0H416.773C429.815 0 440.387 10.572 440.387 23.6132V416.773C440.387 429.815 429.815 440.387 416.773 440.387H23.6132C10.572 440.387 0 429.815 0 416.773V23.6132Z" fill="#F6BC89"/>
<path d="M112.5 126C139 91 212 83 244 89.5C276 95.9999 342.5 99 373.5 202C398.631 285.5 365.5 324 397.5 358.5C429.5 393 466.5 426 429 449.5C399 468.3 130.5 457.333 -1.90735e-06 449.5C-1.33333 437.667 0.899996 408.1 30.5 396.5C67.5 382 97 343.5 97 294.5C97 278.573 96.902 264.749 96.8068 253.116C96.2139 298.32 90.844 355.878 51 370.5C-11.3585 393.384 -10.5 453 -10.5 453C-10.5 453 -35 413 11.5 373.5C41.6793 347.864 84.2289 355 74 285.5C63.5468 214.477 86 161 112.5 126Z" fill="#4B3F3C"/>
<mask id="mask0_2392_150" style="mask-type:alpha" maskUnits="userSpaceOnUse" x="-17" y="87" width="462" height="373">
<path d="M112.5 126C139 91 212 83 244 89.5C276 95.9999 342.5 99 373.5 202C398.631 285.5 365.5 324 397.5 358.5C429.5 393 466.5 426 429 449.5C399 468.3 130.5 457.333 -1.90735e-06 449.5C-1.33333 437.667 0.899996 408.1 30.5 396.5C67.5 382 97 343.5 97 294.5C97 278.573 96.902 264.749 96.8068 253.116C96.2139 298.32 90.844 355.878 51 370.5C-11.3585 393.384 -10.5 453 -10.5 453C-10.5 453 -35 413 11.5 373.5C41.6793 347.864 84.2289 355 74 285.5C63.5468 214.477 86 161 112.5 126Z" fill="#4B3F3C"/>
</mask>
<g mask="url(#mask0_2392_150)">
<path d="M350.5 326L299 389L352.5 449L407 453.5C409.833 443.667 407.2 418.3 374 395.5C340.8 372.7 344.5 339.667 350.5 326Z" fill="#B8B8B8" style="mix-blend-mode:multiply"/>
<path d="M93.5 213L64 247.5C53.1667 270.333 29 327.5 19 373.5C9 419.5 50.5 416.667 72.5 409.5L127.5 355.5L93.5 213Z" fill="#B8B8B8" style="mix-blend-mode:multiply"/>
</g>
<path d="M118.657 363.053C138.728 361.095 300.478 357.937 302.84 370.728C302.84 370.728 342.392 390.209 357.15 417.364C371.908 444.519 373.089 460.458 373.089 460.458L44.2749 455.735C44.2749 440.977 51.9491 423.857 66.1171 405.557C80.2851 387.257 98.5853 365.011 118.657 363.053Z" fill="#D86A78"/>
<path d="M162 497.5C252 466.5 291 382 343.5 389.5C314.443 362.116 294.776 354.311 267.5 346H130C130 346 111.266 351.395 84.5 375.5C100.09 442.554 140.5 443.5 162 497.5Z" fill="#F4F4F4"/>
<path d="M335.5 381.5C312 370 239.5 448 164.5 482.5C133.5 434.5 103.841 423.714 91.5 371.5" stroke="#606060" stroke-width="6" stroke-linecap="round"/>
<path d="M206.5 374.5C186.1 375.7 156.333 364.167 144 360.5C122.8 357.7 127.5 383.5 147.5 411L186 416C200 411 226.5 388 226.5 374.5C226.5 353.566 232 373 206.5 374.5Z" fill="#FFE6C9"/>
<path d="M110.826 356C133.626 324 127.296 280.833 117.796 261L142.826 263C153.377 326.308 152.326 356 104.826 412C86.3257 433.811 64.6486 484.5 112.296 524H82.2957C79.4624 519.833 69.4257 514.8 55.8257 476C38.8257 427.5 82.3257 396 110.826 356Z" fill="#4B3F3C"/>
<path d="M303.5 357.5C282 357.5 228.271 363.5 192 363.5C170.342 363.5 109.5 357.5 109.5 357.5L103.5 366C113 377 137.364 391.277 184 396C223.549 400.005 292.5 378 303.5 357.5Z" fill="#E3CDB7" style="mix-blend-mode:multiply"/>
<path d="M213.5 113.5C162.732 108.777 87.3691 157 87.3691 212.519C84.9431 223.739 89.5189 241.856 87.3691 266.829C85.3337 290.472 81.7152 297.558 87.3691 323C92.0917 344.252 112.184 368.552 171.786 377.221C204.254 381.944 281.45 391.389 311.695 342.392C313.474 343.283 325.689 348.663 337.079 346.524C351.316 343.85 388.841 287.562 366.595 276.865C348.799 268.308 338.879 275.324 332.947 285.13C340.642 266.091 346.942 243.427 341 201.5C327.5 178.5 311.111 122.58 213.5 113.5Z" fill="#FFE6C9"/>
<path d="M174.418 307.813C156.067 305.599 148.422 297.444 149.034 305.437C149.034 319.272 163.38 323.521 174.418 319.605C185.456 315.689 192.769 310.027 174.418 307.813Z" fill="#F3CDA1"/>
<path d="M208.529 282.524C208.529 282.524 210.688 269.886 233.031 266.856C249.54 264.617 259.086 274.044 259.086 274.044" stroke="#B97565" stroke-width="7.08397" stroke-linecap="round"/>
<path d="M146.525 275.905C146.525 275.905 145.992 262.966 124.447 257.031C108.528 252.646 97.9784 260.849 97.9784 260.849" stroke="#B97565" stroke-width="7.08397" stroke-linecap="round"/>
<path d="M334.466 329.065C334.588 322.028 337.618 300.898 348.971 294.972C362.251 288.04 365.82 300.011 359.673 306.192C352.84 313.062 346.024 315.717 346.024 315.717" stroke="#F3CDA1" stroke-width="3.54198" stroke-linecap="round"/>
<path d="M177.5 339.995C145.909 339.995 140.122 336.847 140.516 339.995C140.516 351.837 175.291 360.692 194.219 360.692C217.242 360.692 236.582 339.995 219 339.995L177.5 339.995Z" fill="#EA9B88"/>
<path d="M91.4135 225.394C93.4701 224.217 118.407 215.202 140.465 228.074" stroke="#8B6539" stroke-width="7.08397" stroke-linecap="round"/>
<path d="M256.722 232.573C254.657 231.411 227.801 228.561 216.778 231.361" stroke="#8B6539" stroke-width="7.08397" stroke-linecap="round"/>
<path d="M183.183 347.114C167.598 347.114 156.815 350.656 154.257 353.018C173.738 361.282 205.025 364.234 215.651 354.789C212.306 352.427 198.768 347.114 183.183 347.114Z" fill="#F6B0A0"/>
<path d="M250.5 365.5C233.3 376.3 219.5 378 202.5 380.5C223.5 382 241.467 380.969 266 377L300.5 345L292 330C285.333 337.333 267.7 354.7 250.5 365.5Z" fill="#F3E1C4" style="mix-blend-mode:multiply"/>
<path d="M223.5 447C223.5 386.5 255.5 373 284.5 344.5C318.164 311.416 283.621 209.35 265.5 171C248.3 134.6 158.333 151.5 115.5 164.5C115.5 161.167 118.2 150.6 129 135C142.5 115.5 160.5 112 217.5 107.5C274.5 103 293.5 131.5 330 154.5C365.367 176.786 397.964 290 359 339C326 380.5 233.069 393.5 279.5 501L249 508C246.167 503.833 223.5 488.115 223.5 447Z" fill="#4B3F3C"/>
<path d="M335 246C347.5 259.667 344.5 306.6 314.5 331C289.526 351.312 257.503 365.872 240.362 387.776C237.156 392.268 234.331 396.987 232 402C234.065 396.89 236.912 392.184 240.362 387.776C273.61 341.186 347.769 318.964 335 246Z" fill="#B8B8B8" style="mix-blend-mode:multiply"/>
<path d="M118.5 102C142.1 81.6 157 101.167 162 111.5H196C200.515 102.372 205.919 94.1697 225.5 94.5C272.219 95.2881 314.5 173 339 247.5C349.329 278.909 298 357 247.5 350.5C291.127 338 287 295 282 275.5C276 269.667 266 275.5 251.5 253C238.027 232.094 236 224.5 236 224.5C236 224.5 235 257.5 237 262.5C220 248 212.283 228.91 214.5 213.5C208.185 228.059 209.401 253.63 213.536 257.105C213.868 257.292 214.19 257.425 214.5 257.5C214.164 257.498 213.842 257.362 213.536 257.105C204.658 252.094 188.55 208.158 189 195C181.462 210.667 187.483 266.501 194 266.5C189.702 269.047 167.234 222.77 170 190C162.004 213.679 159.216 244.701 165 266.5C146.5 246.5 145.219 210.097 147.5 190C134.636 211.091 133.5 234 133.5 257.5C124 238.5 119.908 224.639 124.5 203.5C110.816 222.25 107 226.5 102.272 252C98.5 242 95.8236 242.778 99 224.5C75 281 53.5 313.5 63 328C52 320 47 300.5 44 275.5C44 275.5 40 284.5 40 291.5C29.5 281.5 23.5 269 20 246.5C15.9918 220.733 45.6667 173.5 63 160C50.3391 168.139 36.4309 162.88 29 150C55.404 171.123 102.704 115.654 118.5 102Z" fill="#4B3F3C"/>
<path d="M128 121.444C142 98.2437 152.167 108.11 155.5 115.944C133.1 111.544 115.833 147.777 110 166.444C110.167 161.11 114 144.644 128 121.444Z" fill="#B8B8B8" style="mix-blend-mode:multiply"/>
<path d="M214.5 108.944C206.396 106.365 202.5 110.444 200.5 115.944C218 112.58 241 157.777 245.5 171.444C245.5 147.444 225.5 112.444 214.5 108.944Z" fill="#B8B8B8" style="mix-blend-mode:multiply"/>
<path d="M202.5 115.944C182.875 112.777 172.48 113.189 154.5 115.944C142.313 114.595 136.5 119.444 129 130.444C145.5 120.944 204.5 118.444 223.5 131.944C214.5 120.444 212.806 117.484 202.5 115.944Z" fill="#2D2523"/>
<path d="M162.5 450L146 411L161.5 440.5L167.5 441.5L187 416.5L162.5 450Z" fill="#E3E0DD" style="mix-blend-mode:multiply"/>
<path d="M280.042 459.5C284.209 448 292.742 424.5 293.542 422.5C293.423 434.179 298.125 453.064 302 458C305.441 462.382 288.542 462.833 280.042 459.5Z" fill="#E3E0DD" style="mix-blend-mode:multiply"/>
</g>
<defs>
<clipPath id="clip0_2392_150">
<rect width="440.387" height="440.387" fill="white"/>
</clipPath>
</defs>
</svg>
