<svg width="440" height="440" viewBox="0 0 440 440" fill="none" xmlns="http://www.w3.org/2000/svg">
<g clip-path="url(#clip0_2391_106)">
<path d="M0 23.5925C0 10.5627 10.5627 0 23.5925 0H416.408C429.437 0 440 10.5627 440 23.5925V416.408C440 429.437 429.437 440 416.408 440H23.5925C10.5627 440 0 429.437 0 416.408V23.5925Z" fill="#F8F0A0"/>
<path d="M228.753 359.786C127.779 363.821 66.059 398.123 59.571 462.413L405.201 453.566C389.866 382.788 317.319 356.247 228.753 359.786Z" fill="#F8F8F8"/>
<path d="M255 397C255 397 216.596 385.869 206.669 382.381L293 374C284.892 379.484 269 395 269 395L263.5 409L255 397Z" fill="#F3CDA1"/>
<path d="M74.5 372.5L66.5 271.5L368.5 284L359.5 350.5L351.5 334.5L348 372.5L316.5 350.5L149 356L108.5 381L112 356L74.5 372.5Z" fill="#322E2E"/>
<path d="M103 365.5C101.4 359.1 124.333 354.5 128 352.5C287.5 300.5 339 351.5 348.5 355C358 358.5 348 372 348.5 376C349 380 363 386.5 374 389C385 391.5 388 398.5 406.5 427.5C425 456.5 418 460.5 362.5 461C307 461.5 292.5 463.5 287.5 440C282.5 416.5 291 408 292.5 376C294 344 283 359 241.5 361.5C200 364 174.5 382.5 206 404.5C231.2 422.1 240.167 443.167 241.5 451.5H37.5C13.5 461 33.5 443.5 44 427.5C57.0125 407.671 72.5 392 98 386C107.563 383.75 105.013 373.552 103.015 365.561L103 365.5Z" fill="#AA753F"/>
<mask id="mask0_2391_106" style="mask-type:alpha" maskUnits="userSpaceOnUse" x="26" y="329" width="390" height="133">
<path d="M103 365.5C101.4 359.1 124.333 354.5 128 352.5C287.5 300.5 339 351.5 348.5 355C358 358.5 348 372 348.5 376C349 380 363 386.5 374 389C385 391.5 388 398.5 406.5 427.5C425 456.5 418 460.5 362.5 461C307 461.5 292.5 463.5 287.5 440C282.5 416.5 291 408 292.5 376C294 344 283 359 241.5 361.5C200 364 174.5 382.5 206 404.5C231.2 422.1 240.167 443.167 241.5 451.5H37.5C13.5 461 33.5 443.5 44 427.5C57.0125 407.671 72.5 392 98 386C107.563 383.75 105.013 373.552 103.015 365.561L103 365.5Z" fill="#AA753F"/>
</mask>
<g mask="url(#mask0_2391_106)">
<path d="M161.5 392.5C138 386.5 121 368.5 117.5 365C93.5 379 127 392.5 157.5 398.5C181.9 403.3 206.667 420.833 216 429C205.667 418.833 180.3 397.3 161.5 392.5Z" fill="#C5A4A4" style="mix-blend-mode:multiply"/>
<path d="M294.292 423.863C294.38 425.086 294.5 425.984 294.5 426.5C294.261 426.221 294.134 425.3 294.292 423.863C293.78 416.793 294.311 398.828 325 380.5C361 359 355.5 360.5 358.5 367.5C361.5 374.5 331 379 310 398.5C298.178 409.478 294.794 419.287 294.292 423.863Z" fill="#C5A4A4" style="mix-blend-mode:multiply"/>
</g>
<path d="M208.793 119.142C111.356 129.117 100.268 201.126 96.9102 220.79C97.3575 227.411 97.3041 246.547 96.9102 256.414C84.4999 244.538 70.7727 243 61.5 260C55.5001 271 77.2465 322.5 82.5 329.269C87 335.067 102 329.269 102 329.269C105.5 337.5 126 363.595 157.5 375C215.5 396 262.704 400.135 314.5 369.5C349.161 349 340.912 340.912 347.161 326.756C347.161 326.756 348.843 326.744 352.5 324.5C356.157 322.256 381.5 262.185 369.5 256.414C360.5 252.087 362.5 254.5 355.657 256.414L347.161 193.458C341.826 180.693 306.231 109.167 208.793 119.142Z" fill="#FFE6C9"/>
<path d="M136 316C149 291 151.5 273.5 154.5 260.5L67.5 312.5C80.7442 333.144 88.3133 335.913 102 329.5C109.5 342.5 118.322 351.095 132.5 361.5C127 350.5 123.5 340.038 136 316Z" fill="#E9E0D0" style="mix-blend-mode:multiply"/>
<path d="M349 300.5C349 267.466 342.167 256.833 337.5 245.5L364 300.5C361.5 307 355.5 320.2 353.5 323C351.5 325.8 349.5 326 347 327C347 327 349 311.5 349 300.5Z" fill="#E9E0D0" style="mix-blend-mode:multiply"/>
<path d="M267.239 313.606C249.488 318.701 236.945 317.728 240.614 324.848C245.991 337.582 260.848 335.917 269.485 328.023C278.123 320.129 284.99 308.511 267.239 313.606Z" fill="#F3CDA1"/>
<path d="M95.4198 301.928C96.3137 294.949 96.2851 273.621 85.5862 266.165C73.071 257.442 67.7074 268.781 73.071 275.76C79.032 283.515 85.5862 287.099 85.5862 287.099" stroke="#F3CDA1" stroke-width="3.53887" stroke-linecap="round"/>
<path d="M217.755 243.825C210.672 238.66 187.234 237.236 175.91 246.58" stroke="#654F49" stroke-width="7.07775" stroke-linecap="round"/>
<path d="M289.699 246.148C296.818 241.032 318.134 235.184 329.393 244.606" stroke="#654F49" stroke-width="7.07775" stroke-linecap="round"/>
<path d="M287 286.317C287 286.317 288.864 272.25 313.45 267.973C331.616 264.814 342.564 274.844 342.564 274.844" stroke="#654F49" stroke-width="4.7631" stroke-linecap="round"/>
<path d="M216.735 288.616C216.735 288.616 214.568 273.162 188.031 268.588C168.423 265.208 156.74 276.292 156.74 276.292" stroke="#654F49" stroke-width="4.7631" stroke-linecap="round"/>
<path d="M143 284.5C143 284.5 142 298.5 146.5 305.5C151.158 312.745 240.5 310.5 243 305.5C246.144 299.213 244.639 291.5 247 287.5C249.361 283.5 267.139 283.5 269.5 287.5C271.861 291.5 272.355 300 273.5 305.5C274.644 311 356 311.5 360 305.5C364.667 298.5 360 267 360 267" stroke="black" stroke-width="5" stroke-linecap="round"/>
<path d="M364 265.5C357.5 262 282 259 275.5 265.5C270.5 270.5 271.814 279.226 272 288H246C246.246 279.511 247.017 274.905 243.5 265.5C241.817 261 149.5 258 145.5 265.5C143.297 269.63 142.992 275.593 142.5 284.5" stroke="black" stroke-width="2" stroke-linecap="round"/>
<path d="M251 297C233.5 281.5 211.975 268.93 209 210C183.549 267.99 171.554 265.597 141.5 310.5C149 288.885 153.906 304.911 162.869 238.5C141.5 292.5 120 317 57 343.5L68 319C54 324.5 44.5 338.5 24.5 343.5C40 320 48 310.5 51.5 288C45.4863 294.178 36.0384 291.04 24.5 297C39.2193 278.559 36.9516 286.472 51.5 253L33 261C41.8333 253.667 58 218.4 68 206C80.5 190.5 73 130.5 193 108C289 90 332.667 139.5 342.5 166.5L409 281.5L376.5 266.5C382.167 280.667 393.6 310 394 314C394.4 318 382.5 308.333 376.5 303L381.5 337C359.939 311.863 348.23 294.258 329 247.5L336 278C318.5 266.5 301.965 262.289 283 213C276.006 263.698 275.782 260.299 279.5 314C262.836 302.767 255.801 290.045 245.5 257C245.224 272.84 246.92 281.554 251 297Z" fill="#383535"/>
<path d="M36.8217 170.841C34.8549 191.272 57.3119 193.696 69.2137 202.384C59.5863 222.479 39.0269 252.753 65.3004 249.296C78.9397 247.501 140.52 219.225 196.185 224.508C226.661 227.401 253.524 165.86 259.586 150.606C268.013 149.497 288.768 150.094 307.554 154.884C326.339 159.674 349.873 177.557 349.873 177.557C349.873 177.557 384.627 161.896 382.408 145.034C376.277 98.4359 268.025 46.1114 179.29 57.7877C122.282 65.2892 40.0176 137.64 36.8217 170.841Z" fill="#AA753F"/>
<path d="M257.5 431.5L251.5 419L250 422.5L256 432.5L258.5 442.5H270.5L271.5 432.5L277 417.5L274 419L270.5 431.5H257.5Z" fill="#98ADBC"/>
<path d="M221.5 360C240 366 267 363.5 277 356.5" stroke="#DE8E7B" stroke-width="5" stroke-linecap="round"/>
<path d="M353.043 140.325C375.508 153.91 373.394 160.845 367.667 167.146C361.044 172.065 358.85 173.217 350.369 177.491C307.436 146.326 298.446 149.759 184.744 152.889C180.221 153.013 106.954 159.595 69.2137 202.384C82.9243 183.938 98.0867 175.51 129.718 160.13C169.533 140.77 220.28 143.17 242.052 143.835C263.825 144.5 223.964 137.098 201.246 124.998C193.654 120.954 301.539 109.178 353.043 140.325Z" fill="#D3C5C5" style="mix-blend-mode:multiply"/>
</g>
<defs>
<clipPath id="clip0_2391_106">
<rect width="440" height="440" fill="white"/>
</clipPath>
</defs>
</svg>
