<svg width="440" height="440" viewBox="0 0 440 440" fill="none" xmlns="http://www.w3.org/2000/svg">
<g clip-path="url(#clip0_2355_8)">
<path d="M0 23.5925C0 10.5627 10.5627 0 23.5925 0H416.408C429.437 0 440 10.5627 440 23.5925V416.408C440 429.437 429.437 440 416.408 440H23.5925C10.5627 440 0 429.437 0 416.408V23.5925Z" fill="#7CEFC1"/>
<path d="M228.753 359.786C127.779 363.821 66.059 398.123 59.571 462.413L405.201 453.566C389.866 382.788 317.319 356.247 228.753 359.786Z" fill="#524F4F"/>
<path d="M168 431.6V374H280V431.6C280 431.6 256.5 443 227.5 443C198.5 443 168 431.6 168 431.6Z" fill="#F9F9F9" stroke="#EEE68F" stroke-width="6"/>
<path d="M208.793 119.142C111.356 129.117 100.268 201.126 96.9102 220.79C97.3575 227.411 97.3041 246.547 96.9102 256.414C84.4999 244.538 70.7727 243 61.5 260C55.5001 271 74 326.756 87.5001 329.269C101 331.782 97.5029 329.269 102 329.269C112.347 352.655 120.701 357.744 139.175 368.998L140 369.5C175.48 391.12 236.602 397.094 293.5 377.5C339.018 361.825 340.912 340.912 347.161 326.756C348.939 327.647 349.586 328.893 360.965 326.756C375.19 324.084 407.963 263.717 385.737 253.029C367.957 244.48 366.719 247.567 355.657 256.414L347.161 193.458C341.826 180.693 306.231 109.167 208.793 119.142Z" fill="#FFE6C9"/>
<path d="M231.613 317.544C216.011 315.629 206.5 310.63 207.02 317.544C207.02 329.51 219.217 333.185 228.601 329.798C237.986 326.411 247.214 319.459 231.613 317.544Z" fill="#F3CDA1"/>
<path d="M254.393 291.161C254.393 291.161 255.005 276.742 276.5 270C292.382 265.018 302.758 274.305 302.758 274.305" stroke="#79471B" stroke-width="4.7185" stroke-linecap="round"/>
<path d="M189.438 288.563C189.438 288.563 185.374 271.354 166.5 268.5C150.188 266.034 139.494 279.371 139.494 279.371" stroke="#79471B" stroke-width="4.7185" stroke-linecap="round"/>
<path d="M356.599 301.984C355.705 295.006 355.734 273.678 366.433 266.221C378.948 257.498 384.311 268.838 378.948 275.816C372.987 283.571 366.433 287.155 366.433 287.155" stroke="#F3CDA1" stroke-width="3.53887" stroke-linecap="round"/>
<path d="M99.4198 301.928C100.314 294.949 100.285 273.621 89.5862 266.165C77.071 257.442 71.7074 268.781 77.071 275.76C83.032 283.515 89.5862 287.099 89.5862 287.099" stroke="#F3CDA1" stroke-width="3.53887" stroke-linecap="round"/>
<path d="M184.493 238.255C176.757 234.132 153.35 236.002 143.445 246.838" stroke="#79471B" stroke-width="6" stroke-linecap="round"/>
<path d="M254.879 238.394C262.955 234.983 285.037 234.007 293.927 245.691" stroke="#79471B" stroke-width="6" stroke-linecap="round"/>
<path d="M285.786 291.63C287.985 288.813 288.458 274.97 285.786 272.5C282 269 269.124 273.274 265 277.5C261.701 280.881 265.855 293.039 268.604 294.447C271.353 295.856 283.586 294.447 285.786 291.63Z" fill="#5B9458"/>
<path d="M159.101 292.34C156.397 289.657 155.496 274.798 159.101 271C161 269 172.819 271.084 177.753 275C181.701 278.133 180.498 291.228 177.753 293.071C175.009 294.913 161.805 295.022 159.101 292.34Z" fill="#5B9458"/>
<path d="M375.001 220.225L308.444 120.816C331.868 119.875 357.863 123.059 389.58 133.866C393.988 168.723 382.804 204.811 375.001 220.225Z" fill="#524F4F"/>
<mask id="mask0_2355_8" style="mask-type:alpha" maskUnits="userSpaceOnUse" x="308" y="120" width="83" height="101">
<path d="M375.001 220.225L308.444 120.816C331.868 119.875 357.863 123.059 389.58 133.866C393.988 168.723 382.804 204.811 375.001 220.225Z" fill="#524F4F"/>
</mask>
<g mask="url(#mask0_2355_8)">
<path d="M355.5 161C343.432 141.279 331 125 316 119.5C320.972 117.011 323.717 115.822 327 121.5C338 119.5 343.5 127.5 341.5 134C348 132.5 357.5 140.5 353.5 150C360.5 150 368 161 363.5 167.5C370 167.5 378.5 178.5 372 185.5C377.5 185.5 386 194 379.5 203L388 208.5L383.5 221C377.833 208 376 194.5 355.5 161Z" fill="#EEE68F"/>
</g>
<path d="M67.471 220.66L134.028 121.251C110.604 120.31 84.6083 123.494 52.892 134.301C48.4841 169.158 59.6679 205.245 67.471 220.66Z" fill="#524F4F"/>
<mask id="mask1_2355_8" style="mask-type:alpha" maskUnits="userSpaceOnUse" x="51" y="121" width="84" height="100">
<path d="M67.471 220.66L134.028 121.251C110.604 120.31 84.6083 123.494 52.892 134.301C48.4841 169.158 59.6679 205.245 67.471 220.66Z" fill="#524F4F"/>
</mask>
<g mask="url(#mask1_2355_8)">
<path d="M86.9717 161.435C99.0398 141.713 111.472 125.435 126.472 119.935C121.5 117.445 118.755 116.257 115.472 121.935C104.472 119.935 98.9717 127.935 100.972 134.435C94.4717 132.935 84.9717 140.935 88.9717 150.435C81.9717 150.435 74.4717 161.435 78.9717 167.934C72.4717 167.934 63.9717 178.934 70.4717 185.934C64.9717 185.934 56.4717 194.434 62.9717 203.434L54.4717 208.934L58.9717 221.434C64.6383 208.434 66.4717 194.935 86.9717 161.435Z" fill="#EEE68F"/>
</g>
<path d="M188.5 248.5C178.87 233.801 181 214.5 183.5 199.5C183.5 199.5 179.5 207 174 230C168.5 253 181.5 269.5 181.5 269.5C166.5 263 156.007 256.178 150.5 238.5C148 243.5 148.5 246 139.5 255.5C133.93 261.38 127.5 269.5 127.5 269.5C127.5 269.5 124 283 124 299C124 315 131.857 334.5 137 346.5C149.48 375.619 168 404 151.5 435.5C107.5 411.5 64.5 432.5 55.5 334.5C46.9785 370.5 67.5 405.054 73 409.5C40 385.5 35.6263 338.833 54 267.5C69 209.265 90.7118 155.626 136.5 114C158.5 94 208 96 208 96C208 96 187 84 199 64C211 44 243.288 54.2313 242 55C211 73.5 224.5 95 224.5 95C258.667 97.6667 272.451 97.2685 307.5 118.5C342.549 139.732 370 206 385 239C400 272 417.5 332.5 393 381.5C376.206 415.088 307 416 291 439C273.5 415 307 373.5 320 321.5C330.016 281.434 314 246 307.5 239C307.5 247.5 306.5 255 315 264C291.5 264 275.5 249.5 271 243C266.5 236.5 260.5 228.5 258 205C252.5 237.5 263.5 247 271 262C242.5 260.5 233 226 233 226C233 234.5 234.548 239.205 236.5 247.5C238.147 254.5 246.5 267.5 253.5 272C247 272 231.454 273 221 267.5C210.546 262 200.865 252.76 198.5 245.5C197.5 253.5 206 261.611 213 265.5C211.5 264.667 198 263 188.5 248.5Z" fill="#F8B9B9"/>
<path d="M223 347C191.409 347 184.606 349.886 185 353.034C185 364.876 204.073 377.5 223 377.5C246.023 377.5 267.578 363.191 262.5 353.034C261 350.034 255.5 347 223 347Z" fill="#EA9B88"/>
<path d="M224.5 359C208.915 359 199.058 366.639 196.5 369C217 384 241.5 376 253.5 369C250.155 366.639 240.085 359 224.5 359Z" fill="#F6B0A0"/>
<path d="M224 389.5C197.5 389.5 171 384 162 380C169 386.167 190.5 407 224 407C260 407 280.5 387.833 286.5 380C275 383 250.5 389.5 224 389.5Z" fill="#D9D9D9" style="mix-blend-mode:multiply"/>
<path d="M209.5 414.5C193.011 406.831 184.337 398.603 169 383C183.513 399.925 191.822 409.087 209.5 420L227 400L246 420C262.063 406.954 267.999 398.431 278 383C266.513 397.549 259.817 405.295 245 414.5L227 397L209.5 414.5Z" fill="#D4D4D4" style="mix-blend-mode:multiply"/>
<path d="M198 440L222.5 404.5H232L261 441.5L246.5 445.5L227 418L213 445.5L198 440Z" fill="#EB5F5F"/>
<circle cx="227.5" cy="410.5" r="7.5" fill="#EEE68F"/>
<path d="M103 151.5C93.0001 164.5 68 214.332 68 264C68 349.719 150.258 350.679 156 421.5" stroke="#E2BCBC" stroke-width="3" stroke-linecap="round" style="mix-blend-mode:multiply"/>
<path d="M332.5 141.5C351.5 168 370.594 205.157 374 250C377 289.5 383 357 321 400M156.5 163.5C137 186 134 225.5 127.5 271M262.5 156.5C279.5 154 286.5 205 308.5 239.5M221 125.5C210.5 129 201.5 151.5 198.5 178.5C195.5 205.5 203.5 257.5 230 271" stroke="#DBB7B7" stroke-width="3" style="mix-blend-mode:multiply"/>
<circle cx="167" cy="279" r="3" fill="#FFFDFD"/>
<circle cx="274" cy="280" r="3" fill="#FFFDFD"/>
</g>
<defs>
<clipPath id="clip0_2355_8">
<rect width="440" height="440" fill="white"/>
</clipPath>
</defs>
</svg>
