<svg width="440" height="440" viewBox="0 0 440 440" fill="none" xmlns="http://www.w3.org/2000/svg">
<g clip-path="url(#clip0_2351_2)">
<path d="M0 23.5925C0 10.5627 10.5627 0 23.5925 0H416.408C429.437 0 440 10.5627 440 23.5925V416.408C440 429.437 429.437 440 416.408 440H23.5925C10.5627 440 0 429.437 0 416.408V23.5925Z" fill="#EF7C7C"/>
<path d="M209 79.5C210.833 77.5 215 69.4999 229 69.4999C243 69.4999 244.667 78.8333 245.5 79.4999C258.333 76.8333 286.2 66.2999 321 69.4999C354.128 72.5462 359.743 89.1177 356.094 104.729C366.981 112.313 374.574 123.046 375.5 138C378.3 183.2 395.333 209.167 403.5 216.5C394.667 219.667 373.4 223 359 211C348.134 201.945 346.743 166.107 331.619 134.942C303.999 138.203 185.377 142.191 135.928 138.043C119.018 156.916 101.283 173.46 90.5 175C70.8999 177.8 50.3333 170.167 42.5 166C60.6667 165.833 93.1001 157.5 77.5001 125.5C71.2997 112.781 78.901 104.749 92.6878 99.8653C90.5874 87.9921 95.4944 77.0681 115 73.4999C147.8 67.5 189 77 209 79.5Z" fill="#F8F8F8"/>
<path d="M113 102C97 104 94 97.8333 94.5 94.5C89.9999 112 103.5 119.5 125.5 128.5C147.5 137.5 320.5 136.5 342.5 122C360.1 110.4 357.5 92.8333 354 85.5C351 91.6667 338.9 102.9 314.5 98.5C284 93 294.5 105.5 275.5 104C260.3 102.8 249.833 87.8333 246.5 80.5C247.167 84 247.6 91.7 244 94.5C239.5 98 236 82.5 223 82.5C210 82.5 212 97 209 94.5C206.6 92.5 208 85.6667 209 82.5C204.667 86.5 191.2 94.5 172 94.5C148 94.5 133 99.5 113 102Z" fill="#D2D2D2" style="mix-blend-mode:multiply"/>
<path d="M308.5 73.5C284.1 71.9 264 77.5 257 80.5C318 73.5 323 90.5 341.5 87.5C360 84.5 339 75.5 308.5 73.5Z" fill="#D2D2D2" style="mix-blend-mode:multiply"/>
<path d="M135.5 75.5C153.5 73.1 186 78.1667 200 81C152.509 79.5 125.5 97.5 107.5 90C89.4999 82.5 113 78.5 135.5 75.5Z" fill="#D2D2D2" style="mix-blend-mode:multiply"/>
<path d="M99.9999 121.5C105.6 126.7 115.333 130.667 119.5 132C111 134.684 92.9999 139 87.4999 125C81.9999 111 92.9999 115 99.9999 121.5Z" fill="#D2D2D2" style="mix-blend-mode:multiply"/>
<path d="M81 161.5C93.8 155.5 105 152.333 109 151.5C106.833 157.667 99.5 170.4 87.4999 172C75.4999 173.6 59.1666 170 52.5 168C56.6667 168.333 68.2 167.5 81 161.5Z" fill="#D2D2D2" style="mix-blend-mode:multiply"/>
<path d="M365.5 155.5C354 116 328.5 132.5 326.5 132.5C339.5 160.5 367.7 216.9 376.5 218.5C385.3 220.1 394.167 219.167 397.5 218.5C396.167 218 391.5 215.5 383.5 209.5C373.5 202 377 195 365.5 155.5Z" fill="#D2D2D2" style="mix-blend-mode:multiply"/>
<path d="M132.5 114.5C190.5 78.5 304 74 349 148.5C394 223 360 247 369 267C378 287 413 284.5 409.5 320.5C406 356.5 376.5 375 409.5 401.5C435.9 422.7 424.167 445 415 453.5H52.5C42.5 447.667 22.0001 436.6 34.0001 409C49.0001 374.5 75.5001 369.5 68.0001 329.5C66.1713 319.746 65.6431 313.895 65.9484 310.26C62.5731 317.968 61.7496 328.906 63.5 341C69 379 -3.66097 404.816 34.0001 453.5C-28 400 63.0978 379.597 52.5 345.5C43.2991 315.897 51 295 71 285.5C69.1085 276.178 87.4901 275.864 75.5 260C43 217 98.6378 135.518 132.5 114.5Z" fill="#4B3F3C"/>
<path d="M228.753 359.786C127.779 363.821 66.059 398.123 59.571 462.413L405.201 453.566C389.866 382.788 317.319 356.247 228.753 359.786Z" fill="#F8F8F8"/>
<path d="M175.5 432C151 413 129.833 391.667 123.5 381C160.5 360 181 369.899 205.5 377C240 387 273.5 376 292.5 369.5C307.7 364.3 332.167 369.5 341 375C341.5 378.5 333.2 394.4 316 414C298.8 433.6 260.5 446.167 246 447L231 416.5L217 447C212.667 447.5 195.151 447.239 175.5 432Z" fill="#CCCCCC"/>
<path d="M175.5 424.5C153.1 413.7 129.833 389.167 123.5 378.5C160.5 357.5 185.5 367.399 210 374.5C244.5 384.5 273.5 371 292.5 364.5C307.7 359.3 329.167 369 338 374.5C338.5 378 335.2 389.9 318 409.5C300.8 429.1 260 435.667 245.5 436.5L231 416.5L216.5 436.5C212.167 437 197.9 435.3 175.5 424.5Z" fill="#F8F8F8"/>
<path d="M231.5 401C221.5 401.8 195.167 380.667 186 375.5L280 373.5C266.167 379.667 241.5 400.2 231.5 401Z" fill="#F3CDA1"/>
<path d="M208.793 119.142C111.356 129.117 100.268 201.126 96.9102 220.79C97.3575 227.411 97.3041 246.547 96.9102 256.414C84.4999 244.538 70.7727 243 61.5 260C55.5001 271 74 329.269 82.5001 329.269C88.5 337 97.5029 329.269 102 329.269C105.5 337.5 115 359.595 146.5 371C204.5 392 240.602 390.594 297.5 371C333.5 358.603 340.912 340.912 347.161 326.756C348.939 327.647 349.586 328.893 360.965 326.756C375.19 324.084 407.963 263.717 385.737 253.029C367.957 244.48 366.719 247.567 355.657 256.414L347.161 193.458C341.826 180.693 306.231 109.167 208.793 119.142Z" fill="#FFE6C9"/>
<path d="M233.925 318.094C215.59 315.882 204.413 310.107 205.024 318.094C205.024 331.916 219.357 336.162 230.386 332.249C241.414 328.337 252.259 320.305 233.925 318.094Z" fill="#F3CDA1"/>
<path d="M356.599 301.984C355.705 295.006 355.734 273.678 366.433 266.221C378.948 257.498 384.311 268.838 378.948 275.816C372.987 283.571 366.433 287.155 366.433 287.155" stroke="#F3CDA1" stroke-width="3.53887" stroke-linecap="round"/>
<path d="M95.4198 301.928C96.3137 294.949 96.2851 273.621 85.5862 266.165C73.071 257.442 67.7074 268.781 73.071 275.76C79.032 283.515 85.5862 287.099 85.5862 287.099" stroke="#F3CDA1" stroke-width="3.53887" stroke-linecap="round"/>
<path d="M205 354C205 354 216.7 358.984 226.35 358.984C236 358.984 243.928 354 243.928 354" stroke="#DE8E7B" stroke-width="5.89812" stroke-linecap="round"/>
<path d="M184.099 248.885C178.404 242.22 155.933 235.407 142.753 241.876" stroke="#654F49" stroke-width="7.07775" stroke-linecap="round"/>
<path d="M256 250C262.283 243.887 282.499 234.95 295.028 242.602" stroke="#654F49" stroke-width="7.07775" stroke-linecap="round"/>
<path d="M257.985 286.376C257.985 286.376 259.558 272.273 284.051 267.491C302.148 263.957 313.301 273.76 313.301 273.76" stroke="#654F49" stroke-width="4.7631" stroke-linecap="round"/>
<path d="M188.085 288.537C188.085 288.537 185.6 273.13 158.974 269.104C139.301 266.13 127.849 277.452 127.849 277.452" stroke="#654F49" stroke-width="4.7631" stroke-linecap="round"/>
<path d="M152.331 288.349C149.831 285.329 151.289 275.516 152.331 271.742C153.164 268.722 169.516 271.742 174.203 276.271C177.953 279.894 174.985 289.858 171.86 291.368C168.735 292.878 156.522 293.411 152.331 288.349Z" fill="#736F65"/>
<path d="M289.899 286.776C292.28 283.757 290.891 273.944 289.899 270.169C289.106 267.15 273.532 270.169 269.068 274.698C265.497 278.322 268.324 288.286 271.3 289.796C274.276 291.305 287.519 289.796 289.899 286.776Z" fill="#736F65"/>
<path d="M336.5 395C316.1 376.6 335 343.667 347 329.5C407.583 396.118 422.754 428.275 409.5 474.5H291.5C315 455.667 356.9 413.4 336.5 395Z" fill="#4B3F3C"/>
<path d="M142 137C93.1999 173 77 246 99.5 306.5C103.833 303.667 104.9 268.5 118.5 258.5C132.1 248.5 159 198.5 166.5 181C166.5 183.833 164.6 197.7 159 214.5C153.4 231.3 142.167 245.5 136 252.5C141 250.333 158.324 239.303 164 229.5C175 210.5 178.5 195 183.5 178.5C179 202 170.459 240.447 200 258.5C197.5 252.833 192.5 241.9 192.5 223.5C192.5 205.1 200.833 176.167 208.5 166.5C208.167 169.167 204 180.7 202 205.5C200 230.3 209.167 251.167 214 258.5H226.5C221.756 250.617 219.808 245.253 218 233.5C222.349 245.821 226.057 251.18 234.5 258.5H264.5C261 254.333 256 246 248.5 227C242.675 212.244 240 174.5 240 174.5C240 174.5 245.689 197.572 255.5 214.5C281 258.5 309 258.5 327.5 256.5C325.333 256 311.5 254.5 298 236.5C282.888 216.35 272 189.667 268.5 178.5C289.833 196.333 315.515 243.29 331 250C346 256.5 344.667 305.5 348.5 306.5C361.5 269 368.7 183.1 327.5 147.5C276 103 203 92 142 137Z" fill="#4B3F3C"/>
</g>
<defs>
<clipPath id="clip0_2351_2">
<rect width="440" height="440" fill="white"/>
</clipPath>
</defs>
</svg>
