<svg width="400" height="400" viewBox="0 0 400 400" fill="none" xmlns="http://www.w3.org/2000/svg">
<g clip-path="url(#clip0_2585_58)">
<path fill-rule="evenodd" clip-rule="evenodd" d="M360 20C371.046 20 380 28.9543 380 40V360C380 371.046 371.046 380 360 380H40C28.9543 380 20 371.046 20 360V40C20 28.9543 28.9543 20 40 20H360ZM70 54C61.7157 54 55 60.7157 55 69V329C55 337.284 61.7157 344 70 344H330C338.284 344 345 337.284 345 329V69C345 60.7157 338.284 54 330 54H70Z" fill="#F5D682"/>
<mask id="mask0_2585_58" style="mask-type:alpha" maskUnits="userSpaceOnUse" x="20" y="20" width="360" height="360">
<path fill-rule="evenodd" clip-rule="evenodd" d="M360 20C371.046 20 380 28.9543 380 40V360C380 371.046 371.046 380 360 380H40C28.9543 380 20 371.046 20 360V40C20 28.9543 28.9543 20 40 20H360ZM70 54C61.7157 54 55 60.7157 55 69V329C55 337.284 61.7157 344 70 344H330C338.284 344 345 337.284 345 329V69C345 60.7157 338.284 54 330 54H70Z" fill="#F5D682"/>
</mask>
<g mask="url(#mask0_2585_58)">
<rect x="50" y="50" width="300" height="300" rx="15" fill="#F5E2AE" style="mix-blend-mode:multiply"/>
<path d="M86.5 228.5C32.0526 163.163 6.5 227.333 -0.5 252.5V403.5L403.5 394.5V122C389.5 188.5 348.4 257.7 296 280.5C230.5 309 161.5 318.5 86.5 228.5Z" fill="#FFE3E3" style="mix-blend-mode:multiply"/>
</g>
<path d="M52.8103 292.573C63.1395 299.39 64.9071 308.094 64.8146 312.484C33.0126 334.404 17.2922 302.268 13.4073 283.461C14.8761 284.517 20.293 291.261 27.8922 291.786C36.2498 292.364 45.7269 287.898 52.8103 292.573Z" fill="#ABDB99"/>
<mask id="mask1_2585_58" style="mask-type:alpha" maskUnits="userSpaceOnUse" x="13" y="283" width="52" height="37">
<path d="M52.8103 292.573C63.1395 299.39 64.9071 308.094 64.8146 312.483C33.0126 334.403 17.2922 302.268 13.4073 283.461C14.8761 284.517 20.293 291.261 27.8922 291.786C36.2498 292.364 45.7269 287.898 52.8103 292.573Z" fill="#ABDB99"/>
</mask>
<g mask="url(#mask1_2585_58)">
<path d="M51.707 299.802C58.6612 304.062 63.3507 309.393 65.5324 314.497C57.5442 315.216 40.0815 316.87 28.6728 315.915C17.264 314.961 14.2263 291.412 13.6083 283.626C22.7451 307.884 39.1052 292.084 51.707 299.802Z" fill="#97CF82"/>
</g>
<path d="M85.779 300.07C73.4972 301.593 68.0492 308.607 66.1832 312.582C84.948 346.342 113.301 324.526 125.131 309.398C123.346 309.692 115.499 313.33 108.456 310.428C100.711 307.235 94.2014 299.026 85.779 300.07Z" fill="#ABDB99"/>
<mask id="mask2_2585_58" style="mask-type:alpha" maskUnits="userSpaceOnUse" x="66" y="299" width="60" height="32">
<path d="M85.779 300.07C73.4972 301.593 68.0492 308.607 66.1832 312.582C84.948 346.342 113.301 324.526 125.131 309.398C123.346 309.693 115.499 313.331 108.456 310.428C100.711 307.235 94.2014 299.026 85.779 300.07Z" fill="#ABDB99"/>
</mask>
<g mask="url(#mask2_2585_58)">
<path d="M83.5581 307.038C75.4359 307.767 68.867 310.462 64.6462 314.067C71.4846 318.258 86.398 327.492 97.0445 331.702C107.691 335.912 120.867 316.16 124.878 309.457C105.922 327.137 98.2764 305.717 83.5581 307.038Z" fill="#97CF82"/>
</g>
<path d="M66.4006 312.336C53.3053 298.288 28.3267 293.287 12.7168 315.591C-5.69658 341.901 6.7182 388.83 44.0823 387.334C70.1813 408.11 111.517 380.949 110.733 344.728C110.038 312.633 83.5865 309.107 66.4006 312.336Z" fill="#F26D6D"/>
<mask id="mask3_2585_58" style="mask-type:alpha" maskUnits="userSpaceOnUse" x="4" y="300" width="107" height="95">
<path d="M66.4006 312.336C53.3053 298.288 28.3267 293.287 12.7168 315.591C-5.69658 341.901 6.7182 388.83 44.0823 387.334C70.1813 408.11 111.517 380.949 110.733 344.728C110.038 312.633 83.5865 309.107 66.4006 312.336Z" fill="#EA7B7B"/>
</mask>
<g mask="url(#mask3_2585_58)">
<path d="M19.6234 355.209C6.76213 355.726 6.44655 368.535 5.55096 372.607C17.1006 442.05 104.413 392.3 114.71 374.877C141.408 329.705 102.292 311.61 87.8038 294.071C89.1201 296.194 114.63 323.258 106.442 347.556C101.454 362.356 88.2573 376.971 71.1564 374.566C54.0555 372.161 50.3152 353.976 19.6234 355.209Z" fill="#E55757"/>
<path d="M19.3378 303.55C2.23697 316.548 3.35053 335.522 3.57505 336.455C10.0185 318.128 27.1366 303.153 50.4208 301.496C46.4826 299.483 25.9001 298.562 19.3378 303.55Z" fill="#F4AEA2"/>
<path d="M75.4379 316.553C68.0136 316.879 64.1188 315.932 57.5873 312.59C57.5873 312.59 61.837 318.319 65.878 319.084C69.6725 319.803 75.4379 316.553 75.4379 316.553Z" fill="#F4AEA2"/>
</g>
<path d="M164.629 343L83.8062 370.355C71.372 393.359 126.083 401.441 157.79 386.52C183.156 374.583 172.918 352.533 164.629 343Z" fill="white"/>
<mask id="mask4_2585_58" style="mask-type:alpha" maskUnits="userSpaceOnUse" x="82" y="343" width="92" height="52">
<path d="M164.629 343L83.8062 370.355C71.372 393.359 126.083 401.441 157.79 386.52C183.156 374.583 172.918 352.533 164.629 343Z" fill="white"/>
</mask>
<g mask="url(#mask4_2585_58)">
<path d="M166.494 374.086C176.027 359.786 164.007 341.135 164.007 341.135C169.395 345.694 183.28 364.636 180.793 381.546C177.685 402.684 126.083 402.684 88.1586 398.954C57.8191 395.97 78.0039 365.174 88.1585 352.326C85.8789 356.678 77.5892 376.572 91.8885 384.033C120.487 398.954 159.033 385.276 166.494 374.086Z" fill="#E56868"/>
<path d="M131.678 356.678C130.95 356.132 123.596 359.786 122.974 360.408C122.974 360.408 125.461 361.651 128.57 361.651C131.678 361.651 134.165 358.543 131.678 356.678Z" fill="#9F7D6E"/>
</g>
<path d="M343.957 279.751L395.884 333.928C396.236 356.922 350.278 340.997 331.608 316.476C316.673 296.859 333.618 283.819 343.957 279.751Z" fill="white"/>
<mask id="mask5_2585_58" style="mask-type:alpha" maskUnits="userSpaceOnUse" x="325" y="279" width="71" height="67">
<path d="M343.957 279.751L395.884 333.928C396.236 356.922 350.278 340.997 331.608 316.476C316.673 296.859 333.618 283.819 343.957 279.751Z" fill="white"/>
</mask>
<g mask="url(#mask5_2585_58)">
<path d="M329.871 303.24C328.245 288.213 345.199 278.549 345.199 278.549C339.144 279.916 320.618 289.049 315.687 303.25C309.523 321 349.772 341.967 380.869 354.466C405.746 364.466 402.515 332.244 399.814 318.096C399.824 322.417 398.207 341.303 384.022 341.312C355.653 341.331 331.144 315.001 329.871 303.24Z" fill="#E56868"/>
<path d="M364.101 303.808C364.891 303.678 369.143 309.517 369.375 310.254C369.375 310.254 366.93 310.214 364.505 308.951C362.081 307.688 361.404 304.253 364.101 303.808Z" fill="#9F7D6E"/>
</g>
<path d="M317.461 325.844L280.22 385.704C284.35 406.911 323.514 383.369 335.926 357.211C345.856 336.285 327.754 327.58 317.461 325.844Z" fill="white"/>
<mask id="mask6_2585_58" style="mask-type:alpha" maskUnits="userSpaceOnUse" x="280" y="325" width="59" height="69">
<path d="M317.461 325.844L280.22 385.704C284.35 406.911 323.514 383.369 335.926 357.211C345.856 336.285 327.754 327.58 317.461 325.844Z" fill="white"/>
</mask>
<g mask="url(#mask6_2585_58)">
<path d="M334.959 344.708C333.543 330.579 316.086 324.979 316.086 324.979C321.917 325.063 340.717 329.87 348.001 341.969C357.105 357.093 324.166 384.163 298.001 401.676C277.069 415.687 273.798 385.44 273.54 371.912C274.368 375.886 279.513 392.934 292.554 390.195C318.637 384.717 336.067 355.765 334.959 344.708Z" fill="#E56868"/>
<path d="M303.603 351.86C302.851 351.893 300.074 358.084 300.004 358.807C300.004 358.807 302.243 358.296 304.228 356.666C306.212 355.035 306.169 351.746 303.603 351.86Z" fill="#9F7D6E"/>
</g>
<path d="M332.546 51.9513C344.057 51.7817 349.975 57.547 352.203 60.97C339.237 94.4781 310.32 78.0081 297.482 65.5845C299.165 65.627 306.861 67.9742 312.978 64.3979C319.706 60.4646 324.653 52.0677 332.546 51.9513Z" fill="#ABDB99"/>
<mask id="mask7_2585_58" style="mask-type:alpha" maskUnits="userSpaceOnUse" x="297" y="51" width="56" height="30">
<path d="M332.546 51.9512C344.057 51.7816 349.975 57.5469 352.203 60.9699C339.236 94.478 310.319 78.0079 297.482 65.5844C299.164 65.6269 306.861 67.9741 312.978 64.3977C319.706 60.4645 324.652 52.0676 332.546 51.9512Z" fill="#ABDB99"/>
</mask>
<g mask="url(#mask7_2585_58)">
<path d="M337.283 64.4381C344.86 64.07 349.459 59.3607 353.809 62.1416C352.064 69.688 342.828 81.0686 333.558 86.3106C324.287 91.5526 302.277 71.2682 297.723 65.6063C317.453 79.469 323.553 65.1052 337.283 64.4381Z" fill="#97CF82"/>
</g>
<path d="M281.995 21.0745C290.853 26.0003 292.837 32.9983 293.034 36.5887C268.424 56.4621 253.593 31.1957 249.253 16.0784C250.518 16.8496 255.36 22.0206 261.598 21.9781C268.459 21.9315 275.921 17.6966 281.995 21.0745Z" fill="#ABDB99"/>
<mask id="mask8_2585_58" style="mask-type:alpha" maskUnits="userSpaceOnUse" x="249" y="16" width="45" height="28">
<path d="M281.995 21.0745C290.853 26.0003 292.837 32.9983 293.034 36.5887C268.424 56.4621 253.593 31.1957 249.253 16.0784C250.518 16.8496 255.36 22.0206 261.598 21.9781C268.459 21.9315 275.921 17.6966 281.995 21.0745Z" fill="#ABDB99"/>
</mask>
<g mask="url(#mask8_2585_58)">
<path d="M280.126 32.6832C286.07 35.7298 291.646 34.1558 293.745 38.1883C289.099 43.18 277.054 47.8079 267.678 47.7365C258.302 47.6651 250.415 22.521 249.427 16.2012C258.394 35.4434 269.357 27.1624 280.126 32.6832Z" fill="#97CF82"/>
</g>
<path d="M343.686 13.0392C335.583 19.1619 334.607 26.5376 334.923 30.2193C362.214 47.3915 373.359 19.8045 375.52 3.86456C374.373 4.80798 370.296 10.6793 364.089 11.4145C357.263 12.223 349.243 8.84052 343.686 13.0392Z" fill="#ABDB99"/>
<mask id="mask9_2585_58" style="mask-type:alpha" maskUnits="userSpaceOnUse" x="334" y="3" width="42" height="33">
<path d="M343.686 13.0392C335.583 19.1619 334.607 26.5376 334.923 30.2193C362.214 47.3915 373.359 19.8045 375.52 3.86456C374.373 4.80798 370.296 10.6793 364.089 11.4145C357.263 12.223 349.243 8.84052 343.686 13.0392Z" fill="#ABDB99"/>
</mask>
<g mask="url(#mask9_2585_58)">
<path d="M347.196 24.6306C341.722 28.4754 335.955 27.5681 334.443 31.9374C339.772 36.4422 352.403 39.6531 361.713 38.4105C371.022 37.1679 375.282 10.572 375.364 4.01142C369.191 24.7303 357.115 17.6633 347.196 24.6306Z" fill="#97CF82"/>
</g>
<path d="M376.04 58.9974C365.948 53.6603 357.895 56.225 354.25 58.3265C349.313 94.5578 382.935 92.6397 400.364 87.1517C398.856 86.4327 390.904 85.0961 387.247 79.0978C383.224 72.501 382.961 62.6574 376.04 58.9974Z" fill="#ABDB99"/>
<mask id="mask10_2585_58" style="mask-type:alpha" maskUnits="userSpaceOnUse" x="353" y="55" width="48" height="36">
<path d="M376.04 58.9973C365.948 53.6602 357.895 56.2248 354.25 58.3263C349.313 94.5577 382.935 92.6396 400.364 87.1516C398.856 86.4326 390.904 85.096 387.247 79.0977C383.224 72.5008 382.961 62.6573 376.04 58.9973Z" fill="#ABDB99"/>
</mask>
<g mask="url(#mask10_2585_58)">
<path d="M365.741 68.19C359.223 64.4444 357.463 58.1024 352.256 58.6658C350.106 66.2965 352.7 80.7776 358.33 89.7065C363.959 98.6354 393.344 90.148 400.14 87.0628C375.914 90.7528 377.552 74.9776 365.741 68.19Z" fill="#97CF82"/>
</g>
<path d="M60.2784 72.809C51.6428 76.7734 49.2595 83.3913 48.8021 86.863C70.2351 108.469 85.9922 85.2885 91.1916 70.9972C89.9532 71.6293 85.0438 76.2055 79.2299 75.5841C72.8358 74.9007 66.2004 70.0903 60.2784 72.809Z" fill="#ABDB99"/>
<mask id="mask11_2585_58" style="mask-type:alpha" maskUnits="userSpaceOnUse" x="48" y="70" width="44" height="26">
<path d="M60.2779 72.8089C51.6423 76.7733 49.259 83.3912 48.8016 86.8629C70.2346 108.469 85.9917 85.2883 91.1912 70.9971C89.9527 71.6291 85.0433 76.2053 79.2294 75.584C72.8353 74.9006 66.1999 70.0902 60.2779 72.8089Z" fill="#ABDB99"/>
</mask>
<g mask="url(#mask11_2585_58)">
<path d="M61.1358 84.2666C55.3615 86.6754 50.281 84.6269 48.0169 88.3515C51.9685 93.6357 62.8478 99.2543 71.5961 100.057C80.3444 100.859 89.6164 77.1514 91.0195 71.1001C81.191 88.9707 71.5996 79.9017 61.1358 84.2666Z" fill="#97CF82"/>
</g>
<path d="M311.327 11.2567C306.116 14.5916 303.043 19.7574 302.159 23.0269C299.505 20.0843 296.803 17.5832 293.714 15.4253C290.626 13.2675 280.847 12.8915 276.343 12.9732C276.343 15.7523 276.922 22.4384 279.238 26.9502C281.554 31.4621 291.302 33.1622 295.162 34.0613C293.634 34.0613 287.972 35.6797 283.34 37.2491C278.707 38.8184 272.965 46.5671 272 51.4713C275.941 52.8608 286.476 54.8062 292.267 51.4713C298.057 48.1364 301.354 44.9324 302.159 42.8889C302.159 44.7689 300.422 49.7058 302.159 53.433C305.244 60.0537 313.981 63.4866 317.841 64.2223C318.565 61.6884 321.702 54.659 319.53 48.5288C318.059 44.3759 314.705 39.9464 314.705 39.9464C314.705 39.9464 316.297 41.1234 322.667 42.8889C329.036 44.6544 336.58 38.1482 339.556 35.2874C338.188 34.0613 334.585 31.0207 331.111 28.6667C327.637 26.3127 318.806 25.9694 316.152 26.9502C316.957 26.3781 321.509 22.2422 322.667 19.1035C323.825 15.9648 323.793 10.7663 324.114 7.33337C322.828 7.33337 316.538 7.92188 311.327 11.2567Z" fill="white"/>
<path d="M298.594 25.8049C299.861 24.5188 302.396 29.6629 303.663 30.5202C304.649 28.3768 305.353 24.2616 306.62 24.5188C307.465 24.6903 306.197 30.949 306.197 30.949C306.197 30.949 312.486 26.7542 312.956 27.9483C313.427 29.1423 307.465 32.6637 307.465 32.6637C307.465 32.6637 314.224 32.6638 313.801 34.3784C313.453 35.7899 307.465 35.2357 307.465 35.2357C307.465 35.2357 310.675 39.6083 309.999 39.9512C309.323 40.2941 306.479 38.0936 305.353 36.5218C305.212 38.2365 304.677 41.323 303.663 41.6659C302.649 42.0088 302.818 36.5218 302.818 36.5218C302.818 36.5218 296.735 39.9511 296.059 38.2364C295.383 36.5217 301.128 34.3784 301.128 34.3784C301.128 34.3784 295.003 31.8064 295.637 30.5202C295.975 29.8344 301.973 31.8064 301.973 31.8064C301.973 31.8064 297.608 26.8047 298.594 25.8049Z" fill="#F6D284"/>
<path d="M360.673 29.0345C365.884 32.3693 368.957 37.5351 369.841 40.8046C372.495 37.862 375.197 35.3609 378.286 33.203C381.374 31.0452 391.153 30.6692 395.657 30.7509C395.657 33.53 395.078 40.2161 392.762 44.7279C390.446 49.2398 380.698 50.9399 376.838 51.8391C378.366 51.8391 384.028 53.4574 388.66 55.0268C393.293 56.5961 399.035 64.3448 400 69.249C396.059 70.6385 385.524 72.5839 379.733 69.249C373.943 65.9142 370.646 62.7101 369.841 60.6666C369.841 62.5466 371.578 67.4835 369.841 71.2107C366.756 77.8314 358.019 81.2643 354.159 82C353.435 79.4661 350.298 72.4368 352.47 66.3065C353.941 62.1536 357.295 57.7241 357.295 57.7241C357.295 57.7241 355.703 58.9011 349.333 60.6666C342.964 62.4322 335.42 55.9259 332.444 53.0651C333.812 51.8391 337.415 48.7984 340.889 46.4444C344.363 44.0904 353.194 43.7471 355.848 44.7279C355.043 44.1558 350.491 40.0199 349.333 36.8812C348.175 33.7425 348.207 28.544 347.886 25.1111C349.172 25.1111 355.462 25.6996 360.673 29.0345Z" fill="white"/>
<path d="M373.407 43.5827C372.139 42.2967 369.605 47.4407 368.338 48.298C367.352 46.1547 366.648 42.0395 365.381 42.2967C364.536 42.4681 365.803 48.7268 365.803 48.7268C365.803 48.7268 359.515 44.5321 359.044 45.7261C358.574 46.9201 364.536 50.4415 364.536 50.4415C364.536 50.4415 357.777 50.4416 358.199 52.1562C358.547 53.5678 364.536 53.0135 364.536 53.0135C364.536 53.0135 361.325 57.3861 362.001 57.729C362.677 58.072 365.521 55.8714 366.648 54.2996C366.789 56.0143 367.324 59.1008 368.338 59.4437C369.351 59.7867 369.182 54.2996 369.182 54.2996C369.182 54.2996 375.266 57.7289 375.941 56.0142C376.617 54.2995 370.872 52.1562 370.872 52.1562C370.872 52.1562 376.997 49.5842 376.364 48.2981C376.026 47.6122 370.027 49.5842 370.027 49.5842C370.027 49.5842 374.392 44.5826 373.407 43.5827Z" fill="#F6D284"/>
<path d="M29.7723 55.1379C35.2687 58.6552 38.5089 64.1034 39.442 67.5517C42.2411 64.4483 45.0911 61.8103 48.3482 59.5345C51.6054 57.2586 61.9196 56.8621 66.6696 56.9483C66.6696 59.8793 66.0589 66.931 63.6161 71.6897C61.1732 76.4483 50.8929 78.2414 46.8214 79.1897C48.433 79.1897 54.4045 80.8966 59.2902 82.5517C64.1759 84.2069 70.2321 92.3793 71.25 97.5517C67.0937 99.0172 55.9821 101.069 49.875 97.5517C43.7679 94.0345 40.2902 90.6552 39.442 88.5C39.442 90.4828 41.2741 95.6897 39.442 99.6207C36.1875 106.603 26.9732 110.224 22.9018 111C22.1384 108.328 18.8304 100.914 21.1205 94.4483C22.672 90.0683 26.2098 85.3965 26.2098 85.3965C26.2098 85.3965 24.5304 86.6379 17.8125 88.5C11.0946 90.3621 3.13839 83.5 0 80.4828C1.44196 79.1897 5.24196 75.9828 8.90625 73.5C12.5705 71.0172 21.8839 70.6552 24.683 71.6897C23.8348 71.0862 19.0339 66.7241 17.8125 63.4138C16.5911 60.1034 16.625 54.6207 16.2857 51C17.6429 51 24.2759 51.6207 29.7723 55.1379Z" fill="white"/>
<path d="M43.202 70.4818C41.8654 69.1254 39.1922 74.5508 37.8556 75.455C36.8161 73.1944 36.0735 68.8542 34.737 69.1254C33.846 69.3063 35.1826 75.9072 35.1826 75.9072C35.1826 75.9072 28.5505 71.4831 28.0541 72.7424C27.5576 74.0017 33.846 77.7157 33.846 77.7157C33.846 77.7157 26.7175 77.7158 27.163 79.5242C27.5298 81.0129 33.846 80.4283 33.846 80.4283C33.846 80.4283 30.4599 85.04 31.1728 85.4017C31.8856 85.7634 34.8855 83.4426 36.0735 81.7848C36.222 83.5933 36.7865 86.8485 37.8556 87.2102C38.9248 87.5719 38.7467 81.7848 38.7467 81.7848C38.7467 81.7848 45.1625 85.4016 45.8753 83.5932C46.5882 81.7847 40.5288 79.5242 40.5288 79.5242C40.5288 79.5242 46.9891 76.8115 46.3206 75.455C45.9642 74.7316 39.6378 76.8115 39.6378 76.8115C39.6378 76.8115 44.2412 71.5363 43.202 70.4818Z" fill="#F6D284"/>
<path d="M343.308 42.9032C340.761 46.6866 336.377 47.7988 331.942 47.0356C328.594 42.9081 328.371 38.3035 331.275 33.2224C334.179 28.1413 338.02 32.3536 338.02 32.3536C341.39 31.7883 342.16 32.6964 341.946 36.0733C344.893 35.1859 347.245 37.0532 343.308 42.9032Z" fill="#FFC9E9"/>
<path d="M342.589 71.6579C347.076 72.4733 349.854 76.043 350.933 80.4116C348.495 85.1344 344.367 87.185 338.547 86.563C332.728 85.941 335.046 80.7328 335.046 80.7328C333.176 77.8724 333.7 76.803 336.879 75.6445C334.884 73.3014 335.651 70.3972 342.589 71.6579Z" fill="#FFC9E9"/>
<circle cx="141" cy="44" r="4" fill="#FFF9E9"/>
<circle cx="59" cy="30" r="4" fill="#FFF9E9"/>
<circle cx="36" cy="142" r="4" fill="#FFF9E9"/>
<circle cx="221" cy="32" r="4" fill="#FFF9E9"/>
<circle cx="356" cy="142" r="4" fill="#FFF9E9"/>
<circle cx="372" cy="204" r="4" fill="#FFF9E9"/>
<circle cx="359" cy="272" r="4" fill="#FFF9E9"/>
<circle cx="245" cy="361" r="4" fill="#FFF9E9"/>
<circle cx="44" cy="220" r="4" fill="#FFF9E9"/>
</g>
<defs>
<clipPath id="clip0_2585_58">
<rect width="400" height="400" rx="35" fill="white"/>
</clipPath>
</defs>
</svg>
