<svg width="400" height="400" viewBox="0 0 400 400" fill="none" xmlns="http://www.w3.org/2000/svg">
<g clip-path="url(#clip0_2521_862)">
<rect width="400" height="400" fill="#F37F98"/>
<path d="M345 54.5H52V79L27.5 340C162.051 354.968 236.852 356.458 368.5 340L345 79V54.5Z" fill="#EBD7B5"/>
<path d="M56.4998 339.5L53.9998 90.5C46.4998 170 27.9391 336 32.4998 336C32.4998 336 47.9998 341.333 56.4998 339.5Z" fill="#B7A07A"/>
<path d="M319 134.5H95L92.5 279C103.333 279.833 163 290.5 204.5 290.5C241.406 290.5 293.333 283.833 331.5 281.5L319 134.5Z" fill="white"/>
<path d="M186.59 183.046C224.269 166.196 260.583 204.142 254.128 158.091C260.697 164.3 262.11 173.56 257.259 188.382C276.825 177.903 289.029 175.34 289.029 175.34C289.029 175.34 283.537 187.111 258.86 196.009C277.725 197.357 281.228 201.4 286.285 215.385C252.042 186.292 263.692 231.896 240.233 251.418C217.117 270.654 190.866 272.252 170.879 260.016C150.893 247.779 146.308 201.061 186.59 183.046Z" fill="#EE5A7A"/>
<mask id="mask0_2521_862" style="mask-type:alpha" maskUnits="userSpaceOnUse" x="155" y="158" width="135" height="110">
<path d="M186.59 183.046C224.269 166.196 260.583 204.142 254.128 158.091C260.697 164.3 262.11 173.56 257.259 188.382C276.825 177.903 289.029 175.34 289.029 175.34C289.029 175.34 283.537 187.111 258.86 196.009C277.725 197.357 281.228 201.4 286.285 215.385C252.042 186.292 263.692 231.896 240.233 251.418C217.117 270.654 190.866 272.252 170.879 260.016C150.893 247.779 146.308 201.061 186.59 183.046Z" fill="#EE5A7A"/>
</mask>
<g mask="url(#mask0_2521_862)">
<path d="M175.634 236.958C166.963 234.619 164.992 229.012 158.006 240.659C175.496 304.473 256.811 259.963 259.035 215.356C247.307 243.727 239.189 247.314 225.593 253.323L225.499 253.365C231.724 245.07 233.881 233.038 234.111 220.52C227.435 228.13 224.377 236.221 214.316 240.323C201.738 245.45 190.032 254.518 196.553 248.926C201.769 244.453 204.178 226.805 202.958 220.996C193.262 233.257 188.075 240.314 175.634 236.958Z" fill="#E04163"/>
</g>
</g>
<defs>
<clipPath id="clip0_2521_862">
<rect width="400" height="400" rx="35" fill="white"/>
</clipPath>
</defs>
</svg>
