<svg width="45" height="45" viewBox="0 0 45 45" fill="none" xmlns="http://www.w3.org/2000/svg">
<g clip-path="url(#clip0_2484_2144)">
<rect width="45" height="45" rx="22.5" fill="#5E7153"/>
<path d="M22.7812 37.3125C20.724 37.3125 18.8164 36.9544 17.0586 36.2383C15.3138 35.5221 13.7904 34.5065 12.4883 33.1914C11.1862 31.8763 10.1706 30.3268 9.44141 28.543C8.72526 26.7461 8.36719 24.7799 8.36719 22.6445C8.36719 20.5482 8.72526 18.6016 9.44141 16.8047C10.1576 15.0078 11.1667 13.4453 12.4688 12.1172C13.7839 10.7891 15.3398 9.75391 17.1367 9.01172C18.9466 8.26953 20.9323 7.89844 23.0938 7.89844C24.8125 7.89844 26.4336 8.1263 27.957 8.58203C29.4935 9.02474 30.8737 9.64974 32.0977 10.457L30.2422 14.832C29.487 14.0638 28.4844 13.4453 27.2344 12.9766C25.9844 12.5078 24.6042 12.2734 23.0938 12.2734C21.1797 12.2734 19.474 12.7031 17.9766 13.5625C16.4792 14.4219 15.3008 15.6263 14.4414 17.1758C13.582 18.7122 13.1523 20.4961 13.1523 22.5273C13.1523 24.0768 13.3932 25.4896 13.875 26.7656C14.3698 28.0417 15.0534 29.1484 15.9258 30.0859C16.8112 31.0104 17.8398 31.7266 19.0117 32.2344C20.1836 32.7422 21.4531 32.9961 22.8203 32.9961C24.4609 32.9961 25.8802 32.6445 27.0781 31.9414C28.2891 31.2253 29.2201 30.2682 29.8711 29.0703C30.5352 27.8724 30.8672 26.5312 30.8672 25.0469H21.9414V20.9062H35.4961V24.3828C35.4961 26.8698 34.9753 29.0898 33.9336 31.043C32.8919 32.9831 31.4206 34.513 29.5195 35.6328C27.6185 36.7526 25.3724 37.3125 22.7812 37.3125Z" fill="#FDFDD9"/>
</g>
<defs>
<clipPath id="clip0_2484_2144">
<rect width="45" height="45" rx="22.5" fill="white"/>
</clipPath>
</defs>
</svg>
