<svg width="400" height="400" viewBox="0 0 400 400" fill="none" xmlns="http://www.w3.org/2000/svg">
<g clip-path="url(#clip0_2585_132)">
<path fill-rule="evenodd" clip-rule="evenodd" d="M360 20C371.046 20 380 28.9543 380 40V360C380 371.046 371.046 380 360 380H40C28.9543 380 20 371.046 20 360V40C20 28.9543 28.9543 20 40 20H360ZM70 54C61.7157 54 55 60.7157 55 69V329C55 337.284 61.7157 344 70 344H330C338.284 344 345 337.284 345 329V69C345 60.7157 338.284 54 330 54H70Z" fill="#CAE3FB"/>
<mask id="mask0_2585_132" style="mask-type:alpha" maskUnits="userSpaceOnUse" x="20" y="20" width="360" height="360">
<path fill-rule="evenodd" clip-rule="evenodd" d="M360 20C371.046 20 380 28.9543 380 40V360C380 371.046 371.046 380 360 380H40C28.9543 380 20 371.046 20 360V40C20 28.9543 28.9543 20 40 20H360ZM70 54C61.7157 54 55 60.7157 55 69V329C55 337.284 61.7157 344 70 344H330C338.284 344 345 337.284 345 329V69C345 60.7157 338.284 54 330 54H70Z" fill="#A5CEF5"/>
</mask>
<g mask="url(#mask0_2585_132)">
<rect x="50" y="50" width="300" height="300" rx="15" fill="#A5C7E6"/>
<path d="M36 140.5C10.8 135.7 -9.66667 171.833 -18 196L-8.5 399.5L430.5 413C433.333 356 454.1 124.4 410.5 102C356 74 348 113.5 262 159.5C176 205.5 67.5 146.5 36 140.5Z" fill="#8BD6FB"/>
<path d="M46 205C20.8 200.2 -0.166667 216.833 -8.5 241V399.5L430.5 413C433.333 356 423.1 269.9 379.5 247.5C325 219.5 322 247 236 293C150 339 77.5 211 46 205Z" fill="#4ED0BB"/>
</g>
<circle cx="354" cy="39" r="4" fill="white"/>
<circle cx="366" cy="96" r="4" fill="white"/>
<circle cx="364" cy="142" r="6" fill="white"/>
<circle cx="28" cy="270" r="4" fill="white"/>
<circle cx="42" cy="292" r="4" fill="white"/>
<circle cx="37.5" cy="239.5" r="7.5" fill="white"/>
<path d="M28.8783 74.4718C26.2632 64.9449 44.65 52.1863 54.1703 46.9979C59.9258 48.6929 71.8423 54.6001 73.4639 64.6683C75.491 77.2537 75.3202 81.3733 64.141 96.3241C52.9619 111.275 61.8482 116.498 65.5408 126.968C69.2335 137.438 60.7118 138.055 56.9043 133.285C53.0968 128.515 48.5159 117.784 48.7864 109.524C49.0569 101.264 55.2569 95.7925 59.8834 87.7729C62.1459 83.851 67.7115 54.1133 59.075 60.4307C50.4384 66.7481 38.0767 75.0958 42.7286 85.848C47.3805 96.6003 46.2207 104.077 37.893 114.655C29.5653 125.234 22.7998 122.186 22.5416 118.995C21.9797 112.054 28.78 111.972 32.9586 104.862C38.1819 95.9761 32.1472 86.3804 28.8783 74.4718Z" fill="#F39BC7"/>
<path d="M22.4706 71.7122C20.912 61.7086 45.7383 44.7702 46.8199 41.9277C59.571 38.5416 79.5628 31.2734 84.9719 34.8091C91.7333 39.2287 78.9699 54.5126 78.3679 67.6518C77.7659 80.7909 82.6192 85.8619 85.1059 95.017C88.9156 109.043 82.8898 118.899 73.6986 126.384C65.16 133.337 61.2437 127.449 61.9337 124.018C63.0832 118.302 72.6276 119.028 75.7817 103.342C77.1616 96.4796 69.3262 87.254 67.773 72.1514C67.0117 64.75 74.2314 53.5597 77.2116 48.0389C70.737 50.647 60.18 56.6504 58.3664 65.6699C56.0993 76.9442 61.3847 86.167 63.436 93.7197C67.5388 108.825 44.5929 122.068 47.0233 129.69C50.1511 139.499 41.0299 144.816 37.7018 135.466C34.7689 127.226 34.6772 121.086 47.0442 109.294C55.8784 100.87 49.8096 90.4697 46.49 76.542C43.8344 65.3998 53.0219 49.9749 60.055 44.589C54.234 47.3286 44.3908 58.0656 37.8715 66.1389C29.7223 76.2304 38.2446 84.5742 36.0761 95.3583C33.9076 106.142 12.8163 114.652 16.9271 122.108C21.0379 129.565 17.2122 130.836 11.4312 126.613C5.6502 122.391 3.40517 111.229 12.8241 107.003C28.5204 99.9603 24.0291 81.7157 22.4706 71.7122Z" fill="#FFBCDE"/>
<path d="M48.6373 32.261L28.2333 39.8883C21.7569 44.1961 31.7446 50.5218 37.0487 49.311C47.7396 46.8707 46.1413 60.9321 52.0421 58.446C65.9725 52.577 67.6534 67.7879 74.2952 64.4507C87.3436 57.8943 87.7194 73.7801 94.6912 64.4718L85.8864 44.8511L48.6373 32.261Z" fill="#FFBCDE"/>
<mask id="mask1_2585_132" style="mask-type:alpha" maskUnits="userSpaceOnUse" x="26" y="32" width="69" height="36">
<path d="M48.6373 32.261L28.2333 39.8883C21.7569 44.1961 31.7446 50.5218 37.0487 49.311C47.7396 46.8707 46.1413 60.9321 52.0421 58.446C65.9725 52.577 67.6534 67.7879 74.2952 64.4507C87.3436 57.8943 87.7194 73.7801 94.6912 64.4718L85.8864 44.8511L48.6373 32.261Z" fill="#FFBCDE"/>
</mask>
<g mask="url(#mask1_2585_132)">
<path d="M48.0193 35.3392C46.8444 33.573 31.4408 41.6958 28.2999 44.6343L23.3954 46.1981C24.3403 49.1081 30.2874 57.0701 46.517 65.6376C62.7465 74.2051 85.8963 72.706 95.4425 70.8855C93.0635 64.117 87.8152 50.4815 85.8544 50.0872C83.8936 49.6929 85.8101 61.2985 87.0134 67.1505L76.2292 64.982C76.7913 58.805 77.4445 46.7641 75.5604 48.0173C73.6764 49.2705 68.6855 58.5351 66.4255 63.0107L51.7198 60.0537C54.7328 54.3694 60.2687 42.9024 58.3079 42.5081C56.3472 42.1139 48.0034 50.6363 44.0766 54.9467L35.6501 48.6623C40.1648 44.81 48.9592 36.7522 48.0193 35.3392Z" fill="#FDA9D3"/>
</g>
<path d="M50.5416 9.83912C29.2118 14.6142 28.6239 24.5475 30.9961 28.9172C41.9134 44.6357 83.666 56.0668 95.4607 54.889C107.255 53.7112 104.506 39.1274 97.3827 28.7107C88.5652 15.8168 77.2038 3.87025 50.5416 9.83912Z" fill="#FFBCDE"/>
<path d="M37.4731 19.3058C28.8912 25.3549 34.2256 30.3829 39.0267 34.4084C35.9919 29.2081 35.6055 23.5203 44.0425 19.6067C46.8549 18.3022 63.2744 7.66366 75.6249 12.1871C88.2069 16.7953 93.3699 34.5235 95.0089 42.6052C96.6479 50.6869 90.3904 52.0467 87.0567 51.7164C104.016 56.1466 99.3247 41.433 97.2706 36.4299C93.0244 26.0873 84.84 14.5501 75.8221 11.2067C66.8042 7.86339 48.1692 11.7664 37.4731 19.3058Z" fill="#FFCCE6"/>
<circle cx="54.3392" cy="19.1272" r="8" transform="rotate(11.3694 54.3392 19.1272)" fill="#FFF2F9"/>
<circle cx="68.464" cy="14.8274" r="4" transform="rotate(11.3694 68.464 14.8274)" fill="#FFF2F9"/>
<path d="M345.115 358.917C339.118 354.792 343.416 338.874 346.314 331.431C350.361 329.652 359.878 327.321 365.573 332.222C372.691 338.348 374.551 340.749 375.354 354.479C376.158 368.209 383.643 366.931 390.695 371.074C397.747 375.218 393.241 379.613 388.831 378.734C384.421 377.856 376.745 373.987 372.974 369.206C369.204 364.425 370.098 358.399 368.895 351.684C368.307 348.401 357.32 329.008 355.456 336.668C353.591 344.328 350.593 354.9 358.319 358.747C366.045 362.594 368.943 367.356 369.275 377.269C369.608 387.182 364.351 388.679 362.69 387.004C359.077 383.361 362.868 380.085 361.846 374.097C360.568 366.611 352.612 364.072 345.115 358.917Z" fill="#F39BC7"/>
<path d="M340.195 360.405C334.567 355.511 340.507 334.181 339.766 332.066C345.34 324.103 353.149 310.516 357.875 309.938C363.782 309.217 363.851 323.887 369.752 331.573C375.652 339.26 380.794 339.811 386.542 343.787C395.349 349.878 396.635 358.291 395.013 366.872C393.505 374.843 388.504 373.387 387.263 371.126C385.195 367.36 390.916 363.237 385.244 352.904C382.762 348.383 373.968 346.908 365.921 339.139C361.977 335.332 360.73 325.6 359.786 321.075C357.378 325.619 354.283 334.014 357.544 339.955C361.622 347.382 368.978 350.067 373.72 353.347C383.205 359.907 376.569 378.263 381.558 381.402C387.978 385.441 385.365 392.768 379.05 389.082C373.485 385.833 370.518 382.419 371.884 369.904C372.859 360.964 364.502 357.988 356.018 351.719C349.231 346.704 347.081 333.653 348.485 327.28C346.507 331.587 346.062 342.309 346.223 349.952C346.426 359.506 355.188 360.159 359.088 367.263C362.988 374.367 355.149 389.176 361.006 391.424C366.862 393.671 365.311 396.204 360.049 396.571C354.788 396.938 348.223 391.717 351.521 384.864C357.018 373.443 345.824 365.3 340.195 360.405Z" fill="#FFBCDE"/>
<path d="M336.199 325.758L328.329 339.744C326.727 345.246 335.356 344.066 337.769 340.865C342.632 334.413 348.409 343.092 350.552 338.89C355.611 328.969 363.782 336.738 365.938 331.704C370.174 321.815 377.929 330.584 377.436 322.03L363.159 315.16L336.199 325.758Z" fill="#FFBCDE"/>
<mask id="mask2_2585_132" style="mask-type:alpha" maskUnits="userSpaceOnUse" x="328" y="315" width="50" height="29">
<path d="M336.199 325.758L328.329 339.744C326.727 345.246 335.356 344.066 337.769 340.865C342.632 334.413 348.409 343.092 350.552 338.89C355.611 328.969 363.782 336.738 365.938 331.704C370.174 321.815 377.929 330.584 377.436 322.03L363.159 315.16L336.199 325.758Z" fill="#FFBCDE"/>
</mask>
<g mask="url(#mask2_2585_132)">
<path d="M337.313 327.785C335.813 327.348 330.994 339.238 330.62 342.385L328.6 345.595C330.515 346.785 337.645 348.446 350.855 345.564C364.065 342.683 376.392 330.845 380.905 325.286C376.351 322.603 366.919 317.416 365.627 318.125C364.336 318.834 370.927 324.46 374.383 327.185L367.279 331.085C364.663 327.339 359.312 320.247 358.846 321.847C358.38 323.448 359.969 331.036 360.821 334.63L351.134 339.948C350.132 335.316 347.804 326.228 346.513 326.937C345.221 327.646 344.569 336.409 344.404 340.702L336.673 341.163C337.387 336.85 338.514 328.135 337.313 327.785Z" fill="#FDA9D3"/>
</g>
<path d="M326.623 312.225C316.877 325.043 321.263 330.918 324.674 332.252C338.288 335.921 367.234 322.532 373.318 316.268C379.402 310.003 370.928 303.094 361.969 300.61C350.879 297.535 338.806 296.201 326.623 312.225Z" fill="#FFBCDE"/>
<path d="M323.758 323.763C321.797 331.246 327.189 331.544 331.805 331.532C327.626 330.044 324.707 327.024 327.601 320.813C328.566 318.742 332.762 304.953 341.866 301.636C351.142 298.256 362.469 305.79 367.23 309.563C371.991 313.337 369.112 317.075 367.077 318.472C378.734 312.913 369.104 306.854 365.571 305.011C358.268 301.202 348.179 298.59 341.512 300.99C334.845 303.389 326.202 314.437 323.758 323.763Z" fill="#FFCCE6"/>
<circle cx="333.174" cy="315.653" r="5.89384" transform="rotate(-28.7655 333.174 315.653)" fill="#FFF2F9"/>
<circle cx="339.088" cy="306.523" r="2.94692" transform="rotate(-28.7655 339.088 306.523)" fill="#FFF2F9"/>
<path d="M4.77901 311.974C-1.67585 319.038 7.59176 337.309 7.59176 337.309C-8.09704 339.722 32.3525 354.741 33.4475 352.889C34.3235 351.407 33.3325 350.223 32.7376 348.867C38.6295 343.087 43.4442 332.995 43.6265 325.972C43.7259 322.141 39.7192 319.275 37.3872 319.49C37.7499 317.964 38.8281 314.642 34.6968 312.973C30.5654 311.305 28.5388 312.322 26.4501 313.244C25.693 310.297 25.0385 308.469 20.6366 307.161C17.3854 306.194 14.6411 308.1 12.6471 310.23C12.1198 309.256 8.17008 308.263 4.77901 311.974Z" fill="#BF97DE"/>
<path d="M10.8285 312.684C5.13704 315.347 7.59144 337.309 7.59144 337.309C-8.09737 339.722 32.3522 354.741 33.4472 352.889C34.3232 351.407 33.3322 350.223 32.7373 348.867C38.6292 343.087 48.6489 335.631 48.8312 328.608C48.9306 324.777 44.924 321.912 42.5919 322.126C42.9546 320.6 44.0328 317.278 39.9015 315.61C35.7701 313.941 33.7435 314.959 31.6548 315.88C30.8977 312.933 30.2432 311.105 25.8413 309.797C22.5901 308.83 19.8458 310.737 17.8518 312.866C17.3245 311.892 15.3816 310.553 10.8285 312.684Z" fill="#E0BDFA"/>
<path d="M17.8432 314.422C16.5135 325.406 15.1882 330.42 12.4893 338.693M31.4066 317.991C27.8821 327.11 25.4685 332.252 20.6987 341.549M42.1145 324.059C37.5106 333.46 34.3075 337.985 27.8373 345.118" stroke="#BF97DE" stroke-width="2" stroke-linecap="round"/>
<path d="M112.651 337.238C122.173 347.659 108.501 374.612 108.501 374.612C131.646 378.173 71.9743 400.328 70.359 397.596C69.0667 395.41 70.5287 393.663 71.4062 391.663C62.7145 383.137 55.6119 368.249 55.343 357.888C55.1963 352.237 61.1069 348.01 64.5472 348.325C64.0121 346.075 62.4215 341.175 68.5161 338.713C74.6107 336.251 77.6004 337.753 80.6816 339.112C81.7985 334.764 82.764 332.068 89.2577 330.138C94.0538 328.712 98.1023 331.524 101.044 334.665C101.822 333.229 107.648 331.764 112.651 337.238Z" fill="#BF97DE"/>
<path d="M103.726 338.285C112.122 342.214 108.501 374.612 108.501 374.612C131.645 378.173 71.9738 400.328 70.3585 397.596C69.0663 395.41 70.5282 393.663 71.4058 391.663C62.714 383.136 47.933 372.137 47.664 361.777C47.5174 356.126 53.428 351.898 56.8682 352.214C56.3331 349.964 54.7426 345.063 60.8372 342.602C66.9318 340.14 69.9214 341.641 73.0027 343.001C74.1196 338.653 75.0851 335.957 81.5787 334.027C86.3749 332.601 90.4233 335.413 93.3649 338.554C94.1428 337.118 97.0089 335.142 103.726 338.285Z" fill="#E0BDFA"/>
<path d="M93.3787 340.85C95.3403 357.054 97.2953 364.451 101.277 376.655M73.37 346.115C78.5694 359.567 82.1298 367.153 89.1663 380.867M57.5736 355.066C64.3653 368.934 69.0906 375.611 78.6354 386.132" stroke="#BF97DE" stroke-width="2" stroke-linecap="round"/>
</g>
<defs>
<clipPath id="clip0_2585_132">
<rect width="400" height="400" fill="white"/>
</clipPath>
</defs>
</svg>
