<svg width="1055" height="1341" viewBox="0 0 1055 1341" fill="none" xmlns="http://www.w3.org/2000/svg">
<path d="M832.433 860L832.849 869.565L822.858 870C832.51 869.58 832.837 869.568 832.849 869.571C832.849 869.574 832.849 869.579 832.85 869.584C832.85 869.595 832.851 869.611 832.852 869.632C832.853 869.673 832.856 869.732 832.859 869.811C832.866 869.968 832.876 870.2 832.888 870.504C832.912 871.112 832.946 872.01 832.988 873.181C833.073 875.523 833.188 878.958 833.31 883.352C833.553 892.138 833.826 904.764 833.942 920.155C834.175 950.925 833.786 992.812 831.29 1037.22C828.797 1081.57 824.188 1128.69 815.919 1169.84C807.745 1210.52 795.673 1247.14 777.16 1268.95C758.165 1291.33 721.207 1306.57 678.1 1316.36C634.376 1326.29 582.058 1331.11 529.872 1331C477.682 1330.89 425.203 1325.86 381.148 1315.88C337.675 1306.03 300.34 1290.93 280.659 1269.19C272.305 1259.96 265.537 1246.55 259.885 1231.09C254.171 1215.46 249.313 1196.92 245.16 1176.79C236.853 1136.5 231.198 1088.95 227.339 1043.63C223.475 998.264 221.391 954.892 220.273 922.878C219.714 906.866 219.396 893.681 219.218 884.493C219.129 879.899 219.074 876.303 219.042 873.852C219.026 872.626 219.015 871.685 219.009 871.05C219.006 870.732 219.003 870.49 219.002 870.327C219.001 870.245 219.001 870.183 219.001 870.141C219.001 870.12 219 870.104 219 870.093C219 870.087 219 870.083 219 870.08C219 870.077 219 870.074 229 870L219 870.074L218.926 860H832.433Z" fill="#E69450" stroke="#683210" stroke-width="20"/>
<path d="M527 696C628.786 696 720.693 703.086 786.938 714.455C820.142 720.153 846.419 726.849 864.164 734.049C873.083 737.668 879.269 741.187 883.057 744.364C886.937 747.619 887 749.36 887 749.5C887 749.64 886.937 751.381 883.057 754.636C879.269 757.813 873.083 761.332 864.164 764.951C846.419 772.151 820.142 778.847 786.938 784.545C720.693 795.914 628.786 803 527 803C425.214 803 333.307 795.914 267.062 784.545C233.858 778.847 207.581 772.151 189.836 764.951C180.917 761.332 174.731 757.813 170.943 754.636C167.063 751.381 167 749.64 167 749.5C167 749.36 167.063 747.619 170.943 744.364C174.731 741.187 180.917 737.668 189.836 734.049C207.581 726.849 233.858 720.153 267.062 714.455C333.307 703.086 425.214 696 527 696Z" fill="#AA5628" stroke="#683210" stroke-width="20"/>
<ellipse cx="524.5" cy="796" rx="317.5" ry="47" fill="#532D12"/>
<path d="M958.434 114.759C952.342 107.499 938.44 102.175 916.123 101.142C894.475 100.14 867.431 103.303 838.431 110.087C780.304 123.686 716.536 151.296 675.283 185.911C594.254 253.902 554.237 352.631 557.995 450.767C653.987 471.509 758.165 449.244 839.194 381.252C880.447 346.637 918.71 288.632 942.196 233.75C953.913 206.368 961.724 180.285 964.497 158.791C967.355 136.634 964.525 122.018 958.434 114.759Z" fill="#8CB347" stroke="#426325" stroke-width="20"/>
<path d="M96.0437 111.759C102.135 104.499 116.038 99.1745 138.354 98.142C160.003 97.1405 187.047 100.303 216.047 107.087C274.173 120.686 337.941 148.296 379.194 182.911C460.223 250.902 500.241 349.631 496.482 447.767C400.49 468.509 296.312 446.244 215.283 378.252C174.031 343.637 135.767 285.632 112.282 230.75C100.564 203.368 92.7538 177.285 89.981 155.791C87.1225 133.634 89.9523 119.018 96.0437 111.759Z" fill="#8CB347" stroke="#426325" stroke-width="20"/>
<path d="M561.5 825H509.5H497C499.5 803 503 619.1 503 565.5C503 511.9 489 467.167 482 451.5L503 423L525 513L551.5 423L568.5 451.5C561.5 469 547.3 516.3 546.5 565.5C545.7 614.7 556.667 801.167 561.5 825Z" fill="#406024"/>
<path d="M575 437C591.667 394.667 620.7 333.8 715.5 257C810.3 180.2 875.5 161.5 875.5 161.5" stroke="#658C33" stroke-width="20" stroke-linecap="round"/>
<path d="M479 433.5C462.333 391.167 433.778 330.8 338.978 254C244.178 177.2 178.978 158.5 178.978 158.5" stroke="#658C33" stroke-width="20" stroke-linecap="round"/>
<ellipse cx="526.5" cy="926.5" rx="297.5" ry="56.5" fill="#CD7538"/>
<path d="M875.678 761.482L887.7 755.7L889.867 768.878L879.999 770.5C889.836 768.883 889.868 768.881 889.868 768.884C889.868 768.885 889.869 768.889 889.869 768.892C889.87 768.897 889.871 768.904 889.872 768.912C889.875 768.928 889.878 768.949 889.882 768.974C889.89 769.023 889.901 769.09 889.914 769.174C889.94 769.342 889.976 769.58 890.021 769.883C890.109 770.488 890.23 771.354 890.368 772.455C890.645 774.656 890.994 777.799 891.297 781.664C891.901 789.376 892.329 800.061 891.606 811.921C890.194 835.105 884.252 865.178 864.02 885.122C825.824 922.772 766.247 951.499 524.254 948.999C403.088 947.747 333.943 941.493 289.052 932.427C243.644 923.256 223.065 911.168 199.844 899.424C185.983 892.414 177.379 879.697 172.036 866.134C166.685 852.55 164.195 837.13 163.144 822.991C162.086 808.771 162.45 795.351 163.067 785.528C163.377 780.602 163.754 776.545 164.055 773.701C164.205 772.279 164.337 771.157 164.433 770.38C164.481 769.992 164.52 769.689 164.548 769.478C164.562 769.372 164.573 769.288 164.581 769.229C164.585 769.199 164.588 769.175 164.591 769.157C164.592 769.148 164.593 769.141 164.594 769.135C164.594 769.132 164.595 769.129 164.595 769.127C164.595 769.124 164.596 769.121 174.5 770.5L164.596 769.121L166.552 755.066L179.115 761.63C179.113 761.629 179.107 761.624 179.104 761.622C179.096 761.618 179.089 761.615 179.083 761.612C179.071 761.606 179.064 761.602 179.061 761.601C179.064 761.603 179.076 761.608 179.095 761.617C179.153 761.645 179.281 761.707 179.485 761.801C179.894 761.988 180.606 762.302 181.656 762.724C183.759 763.567 187.215 764.843 192.32 766.408C202.537 769.541 219.317 773.823 245.014 778.138C296.426 786.771 383.311 795.5 524.357 795.5C665.398 795.5 753.748 786.772 806.637 778.131C833.073 773.811 850.608 769.52 861.405 766.369C866.802 764.794 870.509 763.506 872.797 762.645C873.94 762.214 874.728 761.891 875.195 761.692C875.429 761.593 875.582 761.525 875.659 761.49L875.678 761.482Z" fill="#E69450" stroke="#683210" stroke-width="20"/>
<circle cx="339.72" cy="1144.72" r="49.7196" fill="#F38F6B"/>
<circle cx="713.72" cy="1144.72" r="49.7196" fill="#F38F6B"/>
<circle cx="389.72" cy="1074.72" r="49.7196" fill="#402E1D"/>
<circle cx="664.486" cy="1074.72" r="49.7196" fill="#402E1D"/>
<path d="M482.028 1124.44C482.028 1124.44 482.029 1161 524.486 1161C566.944 1161 566.944 1124.44 566.944 1124.44" stroke="#402E1D" stroke-width="23.5876" stroke-linecap="round"/>
<circle cx="663.832" cy="1053.13" r="11.1215" fill="white"/>
<circle cx="389.065" cy="1053.13" r="11.1215" fill="white"/>
</svg>
