<svg width="400" height="400" viewBox="0 0 400 400" fill="none" xmlns="http://www.w3.org/2000/svg">
<path fill-rule="evenodd" clip-rule="evenodd" d="M380 365C380 373.284 373.284 380 365 380H35C26.7157 380 20 373.284 20 365V200V35C20 26.7157 26.7157 20 35 20H200H365C373.284 20 380 26.7157 380 35V200V365ZM65.8571 50.8571C57.5728 50.8571 50.8571 57.5729 50.8571 65.8571V200V334.143C50.8571 342.427 57.5729 349.143 65.8571 349.143H334.143C342.427 349.143 349.143 342.427 349.143 334.143V200V65.8571C349.143 57.5728 342.427 50.8571 334.143 50.8571H200H65.8571Z" fill="#3589BF"/>
<mask id="mask0_2585_199" style="mask-type:alpha" maskUnits="userSpaceOnUse" x="19" y="20" width="360" height="360">
<path fill-rule="evenodd" clip-rule="evenodd" d="M379 365C379 373.284 372.284 380 364 380H34C25.7157 380 19 373.284 19 365V200V35C19 26.7157 25.7157 20 34 20H199H364C372.284 20 379 26.7157 379 35V200V365ZM64.8571 50.8571C56.5728 50.8571 49.8571 57.5729 49.8571 65.8571V200V334.143C49.8571 342.427 56.5729 349.143 64.8571 349.143H333.143C341.427 349.143 348.143 342.427 348.143 334.143V200V65.8571C348.143 57.5728 341.427 50.8571 333.143 50.8571H199H64.8571Z" fill="#4080BE"/>
</mask>
<g mask="url(#mask0_2585_199)">
<path d="M0.313915 262.086C-57.1484 283.976 -29.1309 355.672 -8.98973 419.23C-7.09765 425.201 -1.81276 429.419 4.4393 429.795C142.295 438.091 405.285 451.365 431.762 442.539C465.705 431.225 479.076 207.571 431.762 178.771C384.448 149.971 297.057 244.6 214.771 262.086C132.486 279.571 75.9139 233.286 0.313915 262.086Z" fill="#2472A1"/>
<path d="M24.4378 49.9178C19.4319 48.7467 11.4962 46.6223 4.28188 43.53C-10.8686 37.0361 82.0654 -21.2033 98.028 -25.3147C109.466 -28.2608 120.13 -29.6864 128 -28C141.896 -25.0224 173.998 -35.0729 209.146 -48.6065C225.785 -55.0132 240.419 -29.9566 226.758 -18.5001C98.6774 88.9068 -78.7541 255.102 -56.2572 263.114C-18.7144 276.486 339.296 -9.2059 373.171 15.2287C435.914 60.4858 217.857 202.429 311.457 173.629C405.057 144.829 468.829 102.657 441.057 173.629C406.127 262.894 24.4856 404.543 85.1713 410.714C115.85 413.834 219.441 387.951 314.384 370.695C376.006 354.936 426.697 343.615 434.886 354.143C435.361 354.754 435.789 355.363 436.172 355.969C469.932 355.825 491.843 362.298 491.843 380.029C491.843 465.598 266.586 458.2 155.5 487C127.729 494.2 100.188 456.794 115 451.857C133.311 445.754 470.544 410.474 436.172 355.969C403.596 356.108 359.988 362.406 314.384 370.695C209.686 397.469 73.4353 437.05 60.4856 404.029C46.8165 369.173 392.714 256.943 434.886 153.057C444.604 129.117 235.342 225.057 247.685 195.229C260.028 165.4 412.257 58.4287 373.171 35.8001C355.683 25.675 -67.5714 340.257 -77.8569 263.114C-83.1462 223.444 76.4997 100.5 112 58C119.518 48.9994 153.985 45.5868 168.5 22C205.706 -38.4593 61.9514 34.144 34.0976 48.5932C31.0992 50.1486 27.7269 50.6872 24.4378 49.9178Z" fill="url(#paint0_linear_2585_199)"/>
<rect x="45" y="46" width="308.571" height="308.571" rx="15" fill="#3679A4"/>
</g>
<path d="M376 274.5C389.6 269.7 381.667 253.167 376 246C422 282.5 367 298 389 320C411 342 391.5 381 376 385.5C363.6 389.1 260.5 389.5 260.5 389.5C260.5 389.5 254 396 236.5 396C216.942 396 202 370.5 223.999 353C254.713 328.568 308.312 371.162 322.5 357.5C336.688 343.838 311.5 331.5 322.5 306.5C333.605 281.262 359 280.5 376 274.5Z" fill="#D3F5FF"/>
<mask id="mask1_2585_199" style="mask-type:alpha" maskUnits="userSpaceOnUse" x="213" y="246" width="186" height="150">
<path d="M376 274.5C389.6 269.7 381.667 253.167 376 246C422 282.5 367 298 389 320C411 342 391.5 381 376 385.5C363.6 389.1 260.5 389.5 260.5 389.5C260.5 389.5 254 396 236.5 396C216.942 396 202 370.5 223.999 353C254.713 328.568 308.312 371.162 322.5 357.5C336.688 343.838 311.5 331.5 322.5 306.5C333.605 281.262 359 280.5 376 274.5Z" fill="#D3F5FF"/>
</mask>
<g mask="url(#mask1_2585_199)">
<path d="M386 283C395.2 272.6 391.167 259.667 388 254.5L412 293.5L409 356.5L388 388L281.5 393C305 388 359.739 383.64 336.5 343.5C325.5 324.5 332 312 341 300.5C333.5 326.5 341.8 330.8 353 348C364.2 365.2 344.5 382 329.5 386.5C345 385.5 359.735 381.5 367.5 376C379.5 367.5 397 349 377 329C356.491 308.491 374.5 296 386 283Z" fill="#A6DFEE"/>
<path d="M254 377C254 388 239 399.5 216 390C228.4 401.2 252.167 397.5 258.5 392C262.5 388.526 266.5 378 260.5 369C255.006 360.76 242.5 360.5 239 371C242.167 366.167 254 367.741 254 377Z" fill="#A6DFEE"/>
</g>
<circle cx="70" cy="36" r="4" fill="white"/>
<circle cx="32" cy="115" r="4" fill="white"/>
<circle cx="169" cy="32" r="4" fill="white"/>
<circle cx="329" cy="28" r="4" fill="white"/>
<circle cx="375" cy="128" r="4" fill="white"/>
<circle cx="361" cy="222" r="4" fill="white"/>
<circle cx="40" cy="179" r="4" fill="white"/>
<path d="M11.5215 12.3786C-10.0003 42.3786 33.8331 55.6666 37.9998 56.9999C46.3331 61.3333 40.9115 51.8786 67.9995 51.8786H219C219 42.3786 159.721 44.3786 152.521 42.3786C143.521 39.8786 160.021 35.3786 158.021 29.3786C156.021 23.3786 105.022 29.3786 92.0216 29.3786C79.0216 29.3786 98.5216 22.3786 95.5216 9.37862C92.5216 -3.62138 22.0341 -2.27522 11.5215 12.3786Z" fill="#D3F5FF"/>
<mask id="mask2_2585_199" style="mask-type:alpha" maskUnits="userSpaceOnUse" x="5" y="0" width="214" height="59">
<path d="M11.522 12.3786C-9.99986 42.3786 33.8336 55.6666 38.0003 56.9999C46.3336 61.3333 40.912 51.8786 68 51.8786H219C219 42.3786 159.722 44.3786 152.522 42.3786C143.522 39.8786 160.022 35.3786 158.022 29.3786C156.022 23.3786 105.022 29.3786 92.022 29.3786C79.022 29.3786 98.522 22.3786 95.522 9.37862C92.522 -3.62138 22.0346 -2.27522 11.522 12.3786Z" fill="#D3F5FF"/>
</mask>
<g mask="url(#mask2_2585_199)">
<path d="M136.501 42C131.701 50.8 206.5 46 220.5 51C189.5 31.5 110.5 -7.30002 42.5004 -6.50002C-25.4995 -5.70002 -11.1661 22.8333 6.50055 40C5.33388 37.5 2.05618 19.7184 14.5 14.5C45.5 1.5 81.5002 4.5 90.0002 10.5C96.8002 15.3 93.3335 25.3333 86.0002 27H99.0005C105.834 27.6667 127.9 27.8 141.5 29C158.5 30.5 138.682 38 136.501 42Z" fill="#A6DFEE"/>
</g>
<circle cx="67.5" cy="56.5" r="39.5" fill="url(#paint1_linear_2585_199)"/>
<path d="M29.0002 99.5001H29.0003C40.9754 99.6171 111.497 102.859 105 94C100.6 88 94.9983 87.0001 76.0002 87.0001C72.4886 73.6562 53.8474 70.5793 45.0002 77.1516C35.6669 64.8182 13.5924 64.3247 9.00046 77.1515C0.999709 99.5001 20.5003 99.5001 29.0002 99.5001Z" fill="#D3F5FF"/>
<mask id="mask3_2585_199" style="mask-type:alpha" maskUnits="userSpaceOnUse" x="7" y="67" width="99" height="34">
<path d="M29.0002 99.5001H29.0003C40.9754 99.6171 111.497 102.859 105 94C100.6 88 94.9983 87.0001 76.0002 87.0001C72.4886 73.6562 53.8474 70.5793 45.0002 77.1516C35.6669 64.8182 13.5924 64.3247 9.00046 77.1515C0.999709 99.5001 20.5003 99.5001 29.0002 99.5001Z" fill="#D3F5FF"/>
</mask>
<g mask="url(#mask3_2585_199)">
<path d="M19.9995 87C23.6294 76.2614 39 76.5 42.5 85.5C38.5 78.5 24.599 96.5 46 97.5C67.401 98.5 96.0848 97.5498 102.5 97.5C92.8608 101.051 7.99974 122.5 19.9995 87Z" fill="#A6DFEE"/>
</g>
<circle cx="63" cy="33" r="7" fill="#F0D59B"/>
<circle cx="82.5" cy="39.5" r="3.5" fill="#F0D59B"/>
<defs>
<linearGradient id="paint0_linear_2585_199" x1="200" y1="221" x2="171.5" y2="38" gradientUnits="userSpaceOnUse">
<stop stop-color="#F5F1A9"/>
<stop offset="1" stop-color="#FFFBB8" stop-opacity="0.42"/>
</linearGradient>
<linearGradient id="paint1_linear_2585_199" x1="68.127" y1="87.8492" x2="68.127" y2="6.34127" gradientUnits="userSpaceOnUse">
<stop stop-color="#FFF9DE"/>
<stop offset="1" stop-color="#EBD888"/>
</linearGradient>
</defs>
</svg>
