<svg width="400" height="400" viewBox="0 0 400 400" fill="none" xmlns="http://www.w3.org/2000/svg">
<g clip-path="url(#clip0_2521_810)">
<rect width="400" height="400" fill="#FB9990"/>
<path d="M345 54.5H52V79L27.5 340C162.051 354.968 236.852 356.458 368.5 340L345 79V54.5Z" fill="#EBD7B5"/>
<path d="M56.5 339.5L54 90.5C46.5 170 27.9393 336 32.5 336C32.5 336 48 341.333 56.5 339.5Z" fill="#B7A07A"/>
<path d="M319 134.5H95L92.5 279C103.333 279.833 163 290.5 204.5 290.5C241.406 290.5 293.333 283.833 331.5 281.5L319 134.5Z" fill="white"/>
<path d="M167.291 196.351C175.925 185.858 190.038 182.074 204.069 191.313C209.266 194.735 217.19 193.142 221.542 190.347C236.05 181.032 248.253 184.364 256.875 195.404C265.498 206.445 264.068 232.606 255.503 243.053C234.862 268.231 222.469 252.391 214.481 252.832C209.488 253.108 200.721 260.318 185.026 254.461C160.483 245.302 156.499 209.467 167.291 196.351Z" fill="#E44031"/>
<path d="M240.851 150C240.27 161.32 233.563 184.278 211.383 185.554C211.383 166 224.5 153 240.851 150Z" fill="#6AB746"/>
</g>
<defs>
<clipPath id="clip0_2521_810">
<rect width="400" height="400" rx="35" fill="white"/>
</clipPath>
</defs>
</svg>
