<svg width="400" height="400" viewBox="0 0 400 400" fill="none" xmlns="http://www.w3.org/2000/svg">
<g clip-path="url(#clip0_2521_845)">
<rect width="400" height="400" fill="#F4C868"/>
<path d="M345 54.5H52V79L27.5 340C162.051 354.968 236.852 356.458 368.5 340L345 79V54.5Z" fill="#EBD7B5"/>
<path d="M56.4998 339.5L53.9998 90.5C46.4998 170 27.9391 336 32.4998 336C32.4998 336 47.9998 341.333 56.4998 339.5Z" fill="#B7A07A"/>
<path d="M319 134.5H95L92.5 279C103.333 279.833 163 290.5 204.5 290.5C241.406 290.5 293.333 283.833 331.5 281.5L319 134.5Z" fill="white"/>
<path d="M262.635 154.216C256.933 164.012 240.454 181.348 220.153 172.322C229.111 154.94 246.726 149.393 262.635 154.216Z" fill="#6AB746"/>
<circle cx="212" cy="225" r="45" fill="#FFC13C"/>
</g>
<defs>
<clipPath id="clip0_2521_845">
<rect width="400" height="400" rx="35" fill="white"/>
</clipPath>
</defs>
</svg>
