<svg width="400" height="400" viewBox="0 0 400 400" fill="none" xmlns="http://www.w3.org/2000/svg">
<g clip-path="url(#clip0_2521_853)">
<rect width="400" height="400" fill="#CCD554"/>
<path d="M345 54.5H52V79L27.5 340C162.051 354.968 236.852 356.458 368.5 340L345 79V54.5Z" fill="#EBD7B5"/>
<path d="M56.4998 339.5L53.9998 90.5C46.4998 170 27.9391 336 32.4998 336C32.4998 336 47.9998 341.333 56.4998 339.5Z" fill="#B7A07A"/>
<path d="M319 134.5H95L92.5 279C103.333 279.833 163 290.5 204.5 290.5C241.406 290.5 293.333 283.833 331.5 281.5L319 134.5Z" fill="white"/>
<path d="M229 161.803C241.329 153.762 255.885 146.605 271 161.803C286.115 177 272 192.696 264 200C256 207.304 246.688 241.803 224.188 259.303C204.98 274.242 166.149 271.794 152.689 249.303C141.873 231.229 151.552 207.25 163.689 194.802C183.189 174.802 217.5 169.303 229 161.803Z" fill="#DBE36A"/>
</g>
<defs>
<clipPath id="clip0_2521_853">
<rect width="400" height="400" rx="35" fill="white"/>
</clipPath>
</defs>
</svg>
