<svg width="400" height="400" viewBox="0 0 400 400" fill="none" xmlns="http://www.w3.org/2000/svg">
<g clip-path="url(#clip0_2521_875)">
<rect width="400" height="400" fill="#AF89AF"/>
<path d="M345 54.5H52V79L27.5 340C162.051 354.968 236.852 356.458 368.5 340L345 79V54.5Z" fill="#EBD7B5"/>
<path d="M56.5 339.5L54 90.5C46.5 170 27.9393 336 32.5 336C32.5 336 48 341.333 56.5 339.5Z" fill="#B7A07A"/>
<path d="M319 134.5H95L92.5 279C103.333 279.833 163 290.5 204.5 290.5C241.406 290.5 293.333 283.833 331.5 281.5L319 134.5Z" fill="white"/>
<path d="M277.467 194.557C280.59 191.53 286.334 157.61 258.376 164.26C247.264 166.903 214.5 194.535 188.017 205.882C163.024 216.591 125.027 234.44 132.099 256.798C138.558 277.217 171.525 280.39 200.57 264.643C234.214 246.403 275.792 196.182 277.467 194.557Z" fill="#7A4A7B"/>
<path d="M274.974 164.167C277.522 164.532 286.036 158.128 289.974 154.881L292.405 159.038L281.548 170.71C282.06 172.614 284.395 180.812 282.754 186.572C280.055 196.048 267.205 205.193 267.205 205.193C271.336 195.056 272.707 190.594 273.2 185.206C273.2 185.206 260.429 193.018 252.286 190.398C252.886 181.871 254.076 178.029 260.352 171.603C253.953 170.834 249.19 171.406 239.077 173.829C240.589 172.402 247.927 164.448 256.383 161.734C266.841 158.378 271.79 163.712 274.974 164.167Z" fill="#668266"/>
</g>
<defs>
<clipPath id="clip0_2521_875">
<rect width="400" height="400" rx="35" fill="white"/>
</clipPath>
</defs>
</svg>
