<svg width="317" height="463" viewBox="0 0 317 463" fill="none" xmlns="http://www.w3.org/2000/svg">
<rect y="291" width="317" height="172" fill="#E3AD6F"/>
<path d="M158 320C157 317.5 153.642 331.5 155.5 301.5C156.51 285.192 158.638 239.923 160.371 202L125.5 167.5L98.0002 108L131 167.5L160 193.5C158.5 160.5 160 50 160 50C160 50 162.205 98.1377 163.242 126C163.328 128.33 193.42 87.168 193.5 89.5C193.529 90.3402 185.873 100.777 178.256 111.164L163.242 132.5C163.832 150.877 164.141 168.186 163.643 177L193.5 156.5L222 123L196.5 160L163.643 183C164.398 234.966 165.282 319.797 163 320C159.71 320.292 159 322.5 158 320Z" fill="#6C7D72"/>
<path d="M163.763 308.271C163.89 312.606 162.531 325.533 161.396 337.827C162.78 340.364 166.806 345.074 177.5 349C189.5 353.406 202.113 350.284 204 349C202.501 353 179.753 352.555 177 353C178 356 186.501 363.642 194 366.5C188 366.5 179.721 361.008 172 352C169 348.5 162.712 346.93 161 343L160.999 342.228C160.404 349 159.944 355.216 159.931 359.222C159.913 364.43 159.914 373.696 163.5 378.5C168.151 384.728 180.001 387.5 180.001 387.5C180.001 387.5 172.23 386.482 168 384.5C163.794 382.528 158.954 377.058 158.903 377C158.883 377.06 154.526 390.536 173.114 406.5C173.923 407.195 167.072 404.002 159.023 393.5C150.985 383.012 154.716 352.089 154.726 352C154.702 352.024 149.26 357.346 145 361C142.107 363.481 120.821 370.091 118.001 369C124.306 367.378 155.454 360.713 155.513 334.78C155.573 308.846 154.917 314.5 154.726 308.011L163.763 308.271Z" fill="url(#paint0_linear_2520_1109)"/>
<path d="M165.259 242.088C167.075 240.445 171.07 237.885 171.485 237.677V237.937L165 243.385L165.259 242.088Z" fill="#CDE58A"/>
<path d="M179.741 228.112C171.995 232.859 171.247 236.997 171.247 238.108C171.247 239.3 178.814 242.707 183.444 238.848C190.108 233.295 190.869 226.261 191.98 223.669C191.363 223.792 184.575 225.15 179.741 228.112Z" fill="#AEC767"/>
<path d="M183.073 232.036C176.854 236.775 172.584 238.206 171.226 238.33C171.967 239.44 176.644 243.936 183.678 239.493C190.712 235.051 191.959 223.891 191.959 223.891C191.959 223.891 189.293 227.297 183.073 232.036Z" fill="#93AE48"/>
<path d="M146.531 230.457C155.364 235.757 154.852 240.159 154.506 241.37C153.667 244.308 145.692 245.568 137.716 238.852C133.535 235.331 131 228.358 131 225C131.7 225.14 138.136 225.42 146.531 230.457Z" fill="#AEC767"/>
<path d="M141.074 234.234C148.126 239.607 152.967 241.23 154.506 241.37C154.086 243.469 146.531 245.568 138.975 240.531C131.42 235.494 131 225 131 225C131 225 134.022 228.862 141.074 234.234Z" fill="#93AE48"/>
<path d="M154.551 240.897L162.5 254.145V256.5L154.551 242.075V240.897Z" fill="#CDE58A"/>
<path d="M173.255 222.508L164.536 234.942L164.372 237.251L173.173 223.662L173.255 222.508Z" fill="#CDE58A"/>
<path d="M178.55 198.379C169.303 202.368 172.989 225.118 172.989 225.118C172.989 225.118 183.81 229.784 189.702 231.711C195.419 233.581 204.538 233.865 207.785 229.343C211.674 223.928 220.593 224.041 222.021 219.39C222.67 217.276 222.449 210.057 228.384 207.047C232.177 205.124 238.378 189.926 238.378 189.926C238.378 189.926 224.303 187.631 216.845 189.408C212.382 190.471 209.914 191.627 208.375 190.267C203.694 186.131 198.206 194.658 192.216 196.428C186.752 198.042 183.78 196.123 178.55 198.379Z" fill="#AEC767"/>
<mask id="mask0_2520_1109" style="mask-type:alpha" maskUnits="userSpaceOnUse" x="172" y="188" width="67" height="45">
<path d="M178.549 198.379C169.302 202.368 172.988 225.118 172.988 225.118C172.988 225.118 183.809 229.784 189.702 231.711C195.418 233.581 204.538 233.865 207.784 229.343C211.674 223.928 220.592 224.041 222.02 219.39C222.669 217.276 222.448 210.057 228.383 207.047C232.176 205.124 238.377 189.926 238.377 189.926C238.377 189.926 224.302 187.631 216.844 189.408C212.381 190.471 209.913 191.627 208.374 190.267C203.693 186.131 198.206 194.658 192.215 196.428C186.752 198.042 183.779 196.123 178.549 198.379Z" fill="#AEC767"/>
</mask>
<g mask="url(#mask0_2520_1109)">
<path d="M190.472 210.643C174.987 212.465 173.846 223.351 172.599 225.456L193.965 238.596L228.226 224.666L238.378 189.926C237.625 190.238 234.019 191.59 225.622 194.501C215.126 198.141 205.957 208.821 190.472 210.643Z" fill="#D9D9D9" style="mix-blend-mode:multiply"/>
</g>
<path d="M141.137 196.486L165 232.704V235.594L141.137 197.931V196.486Z" fill="#CDE58A"/>
<path d="M137.524 171.92C146.38 176.512 141.137 198.734 141.137 198.734C141.137 198.734 130.115 202.583 124.157 204.072C118.377 205.517 109.346 205.156 106.456 200.46C102.994 194.834 94.1729 194.318 93.0891 189.622C92.5966 187.488 93.3231 180.37 87.6702 176.978C84.0576 174.81 79 159.356 79 159.356C79 159.356 93.0698 158.079 100.314 160.36C104.649 161.725 107.007 163.041 108.623 161.805C113.54 158.048 118.362 166.86 124.157 169.03C129.442 171.01 132.514 169.323 137.524 171.92Z" fill="#AEC767"/>
<mask id="mask1_2520_1109" style="mask-type:alpha" maskUnits="userSpaceOnUse" x="79" y="159" width="64" height="46">
<path d="M137.524 173.446C146.38 178.038 141.137 198.734 141.137 198.734C141.137 198.734 130.115 202.944 124.157 204.434C118.377 205.879 108.623 204.434 105.733 199.737C102.271 194.112 94.5342 195.041 93.4504 190.345C92.9579 188.21 94.0457 181.453 88.3927 178.062C84.7802 175.894 79 159.356 79 159.356C79 159.356 94.5825 158.321 99.953 163.692C103.204 166.943 109.897 163.843 111.513 162.608C116.43 158.85 118.362 167.301 124.157 169.472C129.442 171.451 132.514 170.848 137.524 173.446Z" fill="#AEC767"/>
</mask>
<g mask="url(#mask1_2520_1109)">
<path d="M124.88 183.2C140.053 186.09 140.414 196.927 141.498 199.095L119.461 210.575L86.5864 194.399L79 159.356C79.7225 159.718 83.1906 161.307 91.2828 164.775C101.398 169.11 109.707 180.309 124.88 183.2Z" fill="#D9D9D9" style="mix-blend-mode:multiply"/>
</g>
<path d="M182 192L163.109 214.628L163 216.154L181.946 192.763L182 192Z" fill="#CDE58A"/>
<path d="M185.805 166.06C177.47 169.655 180.792 190.162 180.792 190.162C180.792 190.162 190.546 194.368 195.858 196.105C201.01 197.79 209.231 198.046 212.157 193.971C215.663 189.089 223.702 189.191 224.989 184.998C225.574 183.093 225.375 176.586 230.725 173.873C234.144 172.139 239.733 158.44 239.733 158.44C239.733 158.44 227.046 156.371 220.324 157.973C216.301 158.932 214.076 159.973 212.689 158.747C208.469 155.019 203.523 162.706 198.123 164.301C193.199 165.756 190.519 164.026 185.805 166.06Z" fill="#AEC767"/>
<mask id="mask2_2520_1109" style="mask-type:alpha" maskUnits="userSpaceOnUse" x="180" y="157" width="60" height="41">
<path d="M185.805 166.06C177.47 169.655 180.792 190.162 180.792 190.162C180.792 190.162 190.546 194.368 195.858 196.105C201.01 197.79 209.231 198.046 212.157 193.971C215.663 189.089 223.702 189.191 224.989 184.998C225.574 183.093 225.375 176.586 230.725 173.873C234.144 172.139 239.733 158.44 239.733 158.44C239.733 158.44 227.046 156.371 220.324 157.973C216.301 158.932 214.076 159.973 212.689 158.747C208.469 155.019 203.523 162.706 198.123 164.301C193.199 165.756 190.519 164.026 185.805 166.06Z" fill="#AEC767"/>
</mask>
<g mask="url(#mask2_2520_1109)">
<path d="M196.551 177.114C182.593 178.756 181.565 188.569 180.441 190.466L199.699 202.31L230.582 189.754L239.733 158.44C239.054 158.721 235.803 159.94 228.235 162.564C218.774 165.845 210.509 175.472 196.551 177.114Z" fill="#D9D9D9" style="mix-blend-mode:multiply"/>
</g>
<path d="M161.638 120.101C167.252 124.407 157.623 136.347 157.623 136.347C157.623 136.347 148.218 136.544 143.283 136.307C138.496 136.078 131.678 134.197 130.654 130.934C129.428 127.025 122.81 125.093 123.168 122.164C123.331 120.833 125.686 116.832 122.219 113.816C120.003 111.888 120.041 101.974 120.041 101.974C120.041 101.974 131.128 103.835 136.093 106.5C139.065 108.095 140.536 109.296 142.085 108.877C146.796 107.604 148.258 113.616 152.142 115.949C155.685 118.077 158.462 117.665 161.638 120.101Z" fill="#AEC767"/>
<mask id="mask3_2520_1109" style="mask-type:alpha" maskUnits="userSpaceOnUse" x="120" y="101" width="44" height="36">
<path d="M161.252 120.987C166.867 125.293 157.623 136.347 157.623 136.347C157.623 136.347 148.127 136.754 143.192 136.517C138.405 136.287 131.308 133.643 130.284 130.38C129.058 126.471 122.904 125.58 123.262 122.651C123.424 121.32 125.965 117.595 122.498 114.579C120.282 112.651 120.041 101.974 120.041 101.974C120.041 101.974 132.224 104.255 134.975 108.369C136.64 110.859 142.544 110.297 144.093 109.878C148.805 108.605 148.146 113.872 152.031 116.205C155.574 118.333 158.076 118.551 161.252 120.987Z" fill="#AEC767"/>
</mask>
<g mask="url(#mask3_2520_1109)">
<path d="M149.113 124.315C159.99 128.801 157.527 135.164 157.808 136.624L138.046 139.217L116.985 123.736L120.041 101.974C120.502 102.318 122.753 103.883 128.067 107.395C134.71 111.785 138.236 119.828 149.113 124.315Z" fill="#D9D9D9" style="mix-blend-mode:multiply"/>
</g>
<path d="M163.073 92.8305C167.686 96.3689 159.774 106.18 159.774 106.18C159.774 106.18 152.046 106.342 147.992 106.147C144.058 105.958 138.456 104.413 137.614 101.732C136.607 98.5198 131.169 96.9325 131.463 94.5259C131.597 93.4322 133.532 90.1446 130.683 87.6661C128.863 86.0822 128.894 77.936 128.894 77.936C128.894 77.936 138.004 79.4652 142.084 81.6553C144.525 82.9659 145.734 83.9522 147.007 83.6083C150.878 82.5621 152.079 87.5018 155.271 89.4189C158.182 91.1671 160.463 90.8289 163.073 92.8305Z" fill="#AEC767"/>
<mask id="mask4_2520_1109" style="mask-type:alpha" maskUnits="userSpaceOnUse" x="128" y="77" width="37" height="30">
<path d="M162.756 93.5585C167.369 97.097 159.774 106.18 159.774 106.18C159.774 106.18 151.971 106.514 147.917 106.319C143.983 106.131 138.151 103.958 137.31 101.277C136.303 98.065 131.246 97.3323 131.54 94.9256C131.674 93.832 133.761 90.7718 130.913 88.2933C129.092 86.7094 128.894 77.936 128.894 77.936C128.894 77.936 138.904 79.8106 141.165 83.1907C142.533 85.2371 147.384 84.7747 148.657 84.4307C152.528 83.3846 151.987 87.7124 155.179 89.6295C158.09 91.3778 160.147 91.5569 162.756 93.5585Z" fill="#AEC767"/>
</mask>
<g mask="url(#mask4_2520_1109)">
<path d="M152.782 96.2929C161.719 99.9791 159.695 105.208 159.926 106.407L143.688 108.537L126.383 95.8176L128.894 77.9362C129.273 78.2184 131.123 79.5045 135.489 82.3902C140.947 85.9974 143.844 92.6067 152.782 96.2929Z" fill="#D9D9D9" style="mix-blend-mode:multiply"/>
</g>
<path d="M165.914 214.914C174.209 220.432 159.424 235.124 159.424 235.124C159.424 235.124 145.315 235.145 137.922 234.73C130.749 234.328 120.579 231.813 119.138 227.71C117.412 222.794 107.543 220.221 108.165 216.568C108.447 214.909 112.095 209.964 106.982 206.111C103.715 203.648 104.057 191.257 104.057 191.257C104.057 191.257 120.63 193.849 127.999 197.3C132.41 199.365 134.58 200.901 136.916 200.415C144.018 198.937 146.036 206.486 151.794 209.496C157.046 212.241 161.221 211.793 165.914 214.914Z" fill="#AEC767"/>
<mask id="mask5_2520_1109" style="mask-type:alpha" maskUnits="userSpaceOnUse" x="104" y="191" width="64" height="45">
<path d="M165.31 216.012C173.605 221.53 159.425 235.124 159.425 235.124C159.425 235.124 145.172 235.405 137.779 234.99C130.606 234.588 120.04 231.112 118.599 227.009C116.873 222.094 107.67 220.831 108.291 217.179C108.574 215.519 112.491 210.925 107.378 207.071C104.111 204.609 104.057 191.257 104.057 191.257C104.057 191.257 122.261 194.401 126.268 199.609C128.694 202.762 137.563 202.201 139.898 201.715C147.001 200.237 145.861 206.804 151.62 209.814C156.871 212.559 160.618 212.891 165.31 216.012Z" fill="#AEC767"/>
</mask>
<g mask="url(#mask5_2520_1109)">
<path d="M147.01 219.88C163.192 225.749 159.314 233.643 159.694 235.475L129.985 238.241L98.848 218.385L104.057 191.257C104.739 191.697 108.07 193.708 115.938 198.225C125.773 203.872 130.828 214.011 147.01 219.88Z" fill="#D9D9D9" style="mix-blend-mode:multiply"/>
</g>
<path d="M174.565 108.366C168.713 110.556 169.75 124.928 169.75 124.928C169.75 124.928 176.102 128.212 179.593 129.616C182.98 130.978 188.527 131.46 190.748 128.737C193.409 125.474 198.842 125.843 199.961 122.978C200.469 121.676 200.719 117.147 204.499 115.46C206.915 114.382 211.506 105.07 211.506 105.07C211.506 105.07 203.043 103.162 198.4 104.026C195.621 104.543 194.055 105.185 193.188 104.281C190.553 101.535 186.752 106.692 183.004 107.601C179.586 108.429 177.875 107.128 174.565 108.366Z" fill="#AEC767"/>
<mask id="mask6_2520_1109" style="mask-type:alpha" maskUnits="userSpaceOnUse" x="169" y="103" width="43" height="28">
<path d="M174.417 109.324C168.565 111.514 169.75 124.928 169.75 124.928C169.75 124.928 176.067 128.439 179.558 129.843C182.945 131.205 189.039 131.063 191.26 128.34C193.92 125.077 198.552 126.269 199.67 123.403C200.179 122.101 200.172 117.771 203.953 116.084C206.368 115.006 211.506 105.07 211.506 105.07C211.506 105.07 202.096 103.196 198.296 106.148C195.995 107.935 192.213 105.462 191.346 104.559C188.711 101.812 186.709 106.969 182.961 107.878C179.543 108.706 177.727 108.086 174.417 109.324Z" fill="#AEC767"/>
</mask>
<g mask="url(#mask6_2520_1109)">
<path d="M181.184 116.446C171.643 117.07 170.367 123.85 169.495 125.127L181.827 134.07L203.465 126.49L211.506 105.07C211.03 105.241 208.759 105.967 203.482 107.51C196.887 109.439 190.726 115.822 181.184 116.446Z" fill="#D9D9D9" style="mix-blend-mode:multiply"/>
</g>
<path d="M196.378 146.499C202.126 151.228 191.881 163.823 191.881 163.823C191.881 163.823 182.104 163.84 176.98 163.485C172.01 163.14 164.962 160.984 163.964 157.467C162.767 153.254 155.929 151.048 156.36 147.917C156.555 146.494 159.083 142.256 155.54 138.952C153.276 136.841 153.513 126.22 153.513 126.22C153.513 126.22 164.997 128.442 170.104 131.401C173.16 133.171 174.665 134.487 176.283 134.07C181.205 132.803 182.603 139.275 186.593 141.854C190.232 144.207 193.126 143.823 196.378 146.499Z" fill="#AEC767"/>
<mask id="mask7_2520_1109" style="mask-type:alpha" maskUnits="userSpaceOnUse" x="153" y="126" width="45" height="38">
<path d="M195.959 147.44C201.707 152.17 191.881 163.823 191.881 163.823C191.881 163.823 182.004 164.063 176.881 163.708C171.911 163.363 164.589 160.383 163.59 156.866C162.394 152.653 156.016 151.571 156.447 148.44C156.643 147.017 159.357 143.079 155.814 139.776C153.55 137.665 153.513 126.22 153.513 126.22C153.513 126.22 166.128 128.915 168.904 133.38C170.585 136.082 176.731 135.601 178.35 135.184C183.271 133.917 182.482 139.547 186.472 142.127C190.111 144.48 192.707 144.765 195.959 147.44Z" fill="#AEC767"/>
</mask>
<g mask="url(#mask7_2520_1109)">
<path d="M183.277 150.756C194.491 155.786 191.804 162.553 192.067 164.123L171.48 166.494L149.903 149.474L153.513 126.22C153.985 126.598 156.294 128.321 161.746 132.194C168.561 137.034 172.064 145.725 183.277 150.756Z" fill="#D9D9D9" style="mix-blend-mode:multiply"/>
</g>
<path d="M209.467 133.887C205.044 135.256 205.195 145.934 205.195 145.934C205.195 145.934 209.754 148.635 212.276 149.823C214.724 150.976 218.807 151.571 220.567 149.651C222.675 147.351 226.679 147.857 227.629 145.785C228.061 144.844 228.44 141.504 231.309 140.418C233.142 139.723 236.937 133.031 236.937 133.031C236.937 133.031 230.758 131.257 227.286 131.698C225.208 131.961 224.022 132.368 223.419 131.663C221.588 129.518 218.555 133.171 215.743 133.682C213.179 134.149 211.969 133.113 209.467 133.887Z" fill="#AEC767"/>
<mask id="mask8_2520_1109" style="mask-type:alpha" maskUnits="userSpaceOnUse" x="205" y="131" width="32" height="20">
<path d="M209.316 134.59C204.893 135.959 205.195 145.934 205.195 145.934C205.195 145.934 209.718 148.802 212.241 149.99C214.688 151.142 219.202 151.299 220.962 149.379C223.07 147.08 226.446 148.159 227.396 146.087C227.828 145.146 228.009 141.942 230.878 140.856C232.711 140.162 236.937 133.031 236.937 133.031C236.937 133.031 230.056 131.241 227.118 133.263C225.34 134.486 222.647 132.495 222.045 131.789C220.213 129.644 218.511 133.374 215.699 133.886C213.135 134.352 211.818 133.816 209.316 134.59Z" fill="#AEC767"/>
</mask>
<g mask="url(#mask8_2520_1109)">
<path d="M214.018 140.148C206.932 140.201 205.698 145.163 204.998 146.07L213.738 153.215L230.071 148.533L236.938 133.032C236.578 133.137 234.866 133.577 230.897 134.493C225.935 135.637 221.103 140.096 214.018 140.148Z" fill="#D9D9D9" style="mix-blend-mode:multiply"/>
</g>
<path d="M107.994 121.764C105.297 124.878 110.432 132.871 110.432 132.871C110.432 132.871 115.145 132.768 117.609 132.479C120 132.199 123.363 130.728 123.79 128.451C124.301 125.723 127.563 124.222 127.306 122.21C127.19 121.296 125.905 118.595 127.562 116.426C128.62 115.04 128.34 108.201 128.34 108.201C128.34 108.201 122.839 109.766 120.423 111.731C118.978 112.907 118.273 113.773 117.487 113.523C115.094 112.765 114.521 116.949 112.638 118.658C110.921 120.216 109.52 120.002 107.994 121.764Z" fill="#AEC767"/>
<mask id="mask9_2520_1109" style="mask-type:alpha" maskUnits="userSpaceOnUse" x="107" y="108" width="22" height="25">
<path d="M108.21 122.366C105.513 125.479 110.432 132.871 110.432 132.871C110.432 132.871 115.196 132.911 117.66 132.622C120.051 132.342 123.534 130.337 123.961 128.06C124.471 125.332 127.529 124.56 127.272 122.548C127.156 121.634 125.786 119.129 127.442 116.96C128.501 115.574 128.34 108.201 128.34 108.201C128.34 108.201 122.301 110.084 121.032 112.992C120.264 114.753 117.294 114.515 116.508 114.265C114.115 113.506 114.584 117.124 112.701 118.832C110.983 120.39 109.736 120.604 108.21 122.366Z" fill="#AEC767"/>
</mask>
<g mask="url(#mask9_2520_1109)">
<path d="M114.375 124.353C109.048 127.725 110.449 132.053 110.347 133.067L120.308 134.354L130.443 123.138L128.34 108.201C128.118 108.45 127.033 109.587 124.465 112.145C121.255 115.342 119.702 120.982 114.375 124.353Z" fill="#D9D9D9" style="mix-blend-mode:multiply"/>
</g>
<path d="M101.014 105.07C104.182 106.845 102.317 115.009 102.317 115.009C102.317 115.009 98.3788 116.335 96.2493 116.833C94.1834 117.316 90.9542 117.104 89.9189 115.343C88.6787 113.234 85.5247 112.966 85.1352 111.221C84.9582 110.428 85.2148 107.805 83.1922 106.502C81.8997 105.669 80.0846 99.9148 80.0846 99.9148C80.0846 99.9148 85.1144 99.5663 87.7055 100.473C89.256 101.015 90.0994 101.522 90.6768 101.079C92.4332 99.7341 94.161 103.032 96.2339 103.885C98.1242 104.663 99.2218 104.067 101.014 105.07Z" fill="#AEC767"/>
<mask id="mask10_2520_1109" style="mask-type:alpha" maskUnits="userSpaceOnUse" x="80" y="99" width="23" height="19">
<path d="M101.015 105.634C104.183 107.408 102.317 115.009 102.317 115.009C102.317 115.009 98.3789 116.468 96.2493 116.967C94.1834 117.45 90.6955 116.83 89.6601 115.07C88.42 112.961 85.6541 113.236 85.2645 111.491C85.0875 110.699 85.4735 108.212 83.4509 106.909C82.1583 106.076 80.0845 99.9149 80.0845 99.9149C80.0845 99.9149 85.6552 99.669 87.5777 101.7C88.7416 102.93 91.1329 101.844 91.7103 101.401C93.4667 100.056 94.1611 103.196 96.234 104.048C98.1243 104.826 99.2224 104.63 101.015 105.634Z" fill="#AEC767"/>
</mask>
<g mask="url(#mask10_2520_1109)">
<path d="M96.498 109.127C101.924 110.328 102.058 114.336 102.446 115.146L94.5727 119.195L82.812 112.93L80.0842 99.9152C80.3427 100.055 81.5833 100.673 84.4781 102.025C88.0964 103.716 91.0721 107.926 96.498 109.127Z" fill="#D9D9D9" style="mix-blend-mode:multiply"/>
</g>
<path d="M184.014 91.0703C187.182 92.8447 185.317 101.009 185.317 101.009C185.317 101.009 181.379 102.335 179.249 102.833C177.183 103.316 173.954 103.104 172.919 101.343C171.679 99.2341 168.525 98.966 168.135 97.2213C167.958 96.4284 168.215 93.8047 166.192 92.5019C164.9 91.6693 163.085 85.9148 163.085 85.9148C163.085 85.9148 168.114 85.5663 170.706 86.4725C172.256 87.0148 173.099 87.5216 173.677 87.0793C175.433 85.7341 177.161 89.0324 179.234 89.8852C181.124 90.6629 182.222 90.0665 184.014 91.0703Z" fill="#AEC767"/>
<mask id="mask11_2520_1109" style="mask-type:alpha" maskUnits="userSpaceOnUse" x="163" y="85" width="23" height="19">
<path d="M184.015 91.6339C187.183 93.4083 185.317 101.009 185.317 101.009C185.317 101.009 181.379 102.468 179.249 102.967C177.183 103.45 173.695 102.83 172.66 101.07C171.42 98.9609 168.654 99.2363 168.265 97.4915C168.088 96.6986 168.473 94.2115 166.451 92.9087C165.158 92.0761 163.085 85.9149 163.085 85.9149C163.085 85.9149 168.655 85.669 170.578 87.7004C171.742 88.9303 174.133 87.8436 174.71 87.4013C176.467 86.0562 177.161 89.1956 179.234 90.0484C181.124 90.8261 182.222 90.6302 184.015 91.6339Z" fill="#AEC767"/>
</mask>
<g mask="url(#mask11_2520_1109)">
<path d="M179.498 95.1274C184.924 96.3283 185.058 100.336 185.446 101.146L177.573 105.195L165.812 98.9295L163.084 85.9152C163.343 86.055 164.583 86.6727 167.478 88.0251C171.096 89.7156 174.072 93.9264 179.498 95.1274Z" fill="#D9D9D9" style="mix-blend-mode:multiply"/>
</g>
<path d="M164.393 54.3881C166.627 57.2514 161.744 64.0558 161.744 64.0558C161.744 64.0558 157.6 63.7519 155.444 63.386C153.352 63.0311 150.457 61.584 150.185 59.5597C149.859 57.1351 147.055 55.666 147.372 53.9066C147.516 53.1071 148.769 50.7876 147.409 48.803C146.54 47.5346 147.096 41.5264 147.096 41.5264C147.096 41.5264 151.868 43.1538 153.906 44.9932C155.125 46.0939 155.706 46.8878 156.41 46.7038C158.55 46.1441 158.865 49.8542 160.446 51.4435C161.887 52.8928 163.13 52.7683 164.393 54.3881Z" fill="#AEC767"/>
<mask id="mask12_2520_1109" style="mask-type:alpha" maskUnits="userSpaceOnUse" x="146" y="41" width="19" height="24">
<path d="M164.176 54.9079C166.409 57.7713 161.744 64.0559 161.744 64.0559C161.744 64.0559 157.548 63.8751 155.392 63.5092C153.3 63.1543 150.324 61.2319 150.052 59.2076C149.726 56.783 147.069 55.9653 147.386 54.2058C147.53 53.4063 148.85 51.263 147.49 49.2783C146.621 48.01 147.096 41.5265 147.096 41.5265C147.096 41.5265 152.327 43.4581 153.312 46.0757C153.909 47.6604 156.534 47.5851 157.238 47.4011C159.378 46.8414 158.802 50.0047 160.383 51.594C161.824 53.0434 162.912 53.2882 164.176 54.9079Z" fill="#AEC767"/>
</mask>
<g mask="url(#mask12_2520_1109)">
<path d="M158.658 56.3786C163.195 59.588 161.766 63.3345 161.81 64.2321L152.983 64.9139L144.568 54.5813L147.095 41.5266C147.28 41.7557 148.184 42.8058 150.329 45.1741C153.009 48.1345 154.121 53.1693 158.658 56.3786Z" fill="#D9D9D9" style="mix-blend-mode:multiply"/>
</g>
<path d="M122.995 174.437C123.063 173.156 129.488 165.305 133.43 172.807C134.996 175.789 135.207 188.427 137.818 196.512C140.283 204.142 143.682 216.047 137.342 218.81C131.553 221.332 124.457 214.621 122.326 205.113C119.858 194.1 122.959 175.125 122.995 174.437Z" fill="#7A4A7B"/>
<path d="M130.232 169.1C129.657 168.605 129.43 165.471 129.389 163.966L127.993 164.232L127.504 168.908C126.982 169.163 124.707 170.233 123.745 171.714C122.162 174.151 122.621 178.78 122.621 178.78C124.073 175.896 124.799 174.727 125.901 173.573C125.901 173.573 126.64 177.926 128.801 179.227C130.58 177.441 131.203 176.432 131.414 173.791C132.826 175.064 133.622 176.234 135.044 178.951C135.068 178.338 135.413 175.166 134.377 172.76C133.095 169.785 130.951 169.72 130.232 169.1Z" fill="#668266"/>
<path d="M131.491 149.162C122.838 150.463 125.814 169.26 125.814 169.26C125.814 169.26 135.758 175.145 141.185 177.863C146.45 180.5 154.902 182.564 158 179.631C161.713 176.117 169.981 178.006 171.396 174.603C172.039 173.057 171.975 167.283 177.537 166.092C181.092 165.33 187.138 154.52 187.138 154.52C187.138 154.52 174.13 149.86 167.179 149.766C163.02 149.71 160.709 150.129 159.308 148.74C155.047 144.514 149.792 150.174 144.202 150.37C139.105 150.549 136.386 148.427 131.491 149.162Z" fill="#AEC767"/>
<mask id="mask13_2520_1109" style="mask-type:alpha" maskUnits="userSpaceOnUse" x="125" y="147" width="63" height="34">
<path d="M131.359 150.359C122.707 151.659 125.814 169.26 125.814 169.26C125.814 169.26 135.727 175.429 141.154 178.147C146.418 180.783 155.637 182.185 158.736 179.252C162.448 175.738 169.582 178.479 170.997 175.076C171.64 173.53 171.207 167.945 176.77 166.754C180.325 165.993 187.138 154.52 187.138 154.52C187.138 154.52 172.699 149.657 167.229 152.474C163.918 154.18 157.945 150.008 156.544 148.618C152.283 144.392 149.754 150.52 144.164 150.716C139.066 150.895 136.254 149.623 131.359 150.359Z" fill="#AEC767"/>
</mask>
<g mask="url(#mask13_2520_1109)">
<path d="M142.309 161.299C127.913 159.622 126.643 168.031 125.446 169.45L145.004 184.186L177.048 180.042L187.139 154.521C186.434 154.616 183.064 154.962 175.22 155.579C165.416 156.35 156.704 162.977 142.309 161.299Z" fill="#D9D9D9" style="mix-blend-mode:multiply"/>
</g>
<path d="M114.547 137.305C120.58 139.173 120.373 153.736 120.373 153.736C120.373 153.736 114.156 157.421 110.715 159.041C107.377 160.613 101.807 161.424 99.4071 158.806C96.5321 155.669 91.0706 156.359 89.7745 153.533C89.1855 152.249 88.6691 147.693 84.7562 146.212C82.2555 145.266 77.0789 136.138 77.0789 136.138C77.0789 136.138 85.5066 133.718 90.2426 134.319C93.0765 134.678 94.6948 135.234 95.5164 134.272C98.0149 131.346 102.151 136.328 105.986 137.026C109.484 137.662 111.134 136.249 114.547 137.305Z" fill="#AEC767"/>
<mask id="mask14_2520_1109" style="mask-type:alpha" maskUnits="userSpaceOnUse" x="77" y="133" width="44" height="28">
<path d="M114.753 138.264C120.785 140.131 120.373 153.736 120.373 153.736C120.373 153.736 114.204 157.648 110.763 159.268C107.425 160.84 101.268 161.053 98.8681 158.435C95.993 155.299 91.389 156.771 90.0929 153.945C89.5039 152.661 89.2571 148.291 85.3441 146.81C82.8435 145.863 77.0789 136.138 77.0789 136.138C77.0789 136.138 86.464 133.697 90.4713 136.453C92.8974 138.122 96.5698 135.406 97.3913 134.444C99.8898 131.518 102.211 136.606 106.046 137.303C109.543 137.939 111.34 137.207 114.753 138.264Z" fill="#AEC767"/>
</mask>
<g mask="url(#mask14_2520_1109)">
<path d="M108.34 145.845C118.004 145.917 119.687 152.684 120.642 153.922L108.721 163.667L86.444 157.282L77.0786 136.138C77.569 136.282 79.9033 136.882 85.3176 138.131C92.0855 139.692 98.6754 145.773 108.34 145.845Z" fill="#D9D9D9" style="mix-blend-mode:multiply"/>
</g>
<path d="M219.371 123.674C217.685 124.196 217.743 128.265 217.743 128.265C217.743 128.265 219.48 129.295 220.441 129.748C221.374 130.187 222.93 130.414 223.601 129.682C224.404 128.806 225.931 128.998 226.293 128.209C226.457 127.85 226.602 126.577 227.695 126.163C228.394 125.898 229.84 123.348 229.84 123.348C229.84 123.348 227.485 122.672 226.162 122.839C225.37 122.94 224.918 123.095 224.688 122.826C223.99 122.009 222.834 123.401 221.763 123.596C220.785 123.774 220.324 123.379 219.371 123.674Z" fill="#AEC767"/>
<mask id="mask15_2520_1109" style="mask-type:alpha" maskUnits="userSpaceOnUse" x="217" y="122" width="13" height="9">
<path d="M219.313 123.942C217.627 124.464 217.742 128.265 217.742 128.265C217.742 128.265 219.466 129.358 220.428 129.811C221.36 130.251 223.081 130.31 223.752 129.578C224.555 128.702 225.842 129.114 226.204 128.324C226.368 127.965 226.437 126.744 227.531 126.33C228.229 126.065 229.84 123.348 229.84 123.348C229.84 123.348 227.218 122.666 226.098 123.436C225.42 123.902 224.394 123.143 224.164 122.875C223.466 122.057 222.817 123.479 221.746 123.673C220.769 123.851 220.267 123.647 219.313 123.942Z" fill="#AEC767"/>
</mask>
<g mask="url(#mask15_2520_1109)">
<path d="M221.105 126.06C218.404 126.08 217.934 127.971 217.667 128.317L220.998 131.04L227.223 129.256L229.84 123.348C229.703 123.388 229.051 123.556 227.538 123.905C225.647 124.341 223.805 126.04 221.105 126.06Z" fill="#D9D9D9" style="mix-blend-mode:multiply"/>
</g>
<path d="M194.371 87.674C192.685 88.1958 192.743 92.2652 192.743 92.2652C192.743 92.2652 194.48 93.2949 195.441 93.7477C196.374 94.187 197.93 94.4136 198.601 93.682C199.404 92.8056 200.931 92.9983 201.293 92.2086C201.457 91.8497 201.602 90.5768 202.695 90.1629C203.394 89.8983 204.84 87.3477 204.84 87.3477C204.84 87.3477 202.485 86.6717 201.162 86.8395C200.37 86.9398 199.918 87.0951 199.688 86.8263C198.99 86.0088 197.834 87.4009 196.763 87.5959C195.785 87.7737 195.324 87.3789 194.371 87.674Z" fill="#AEC767"/>
<mask id="mask16_2520_1109" style="mask-type:alpha" maskUnits="userSpaceOnUse" x="192" y="86" width="13" height="9">
<path d="M194.313 87.9418C192.627 88.4636 192.742 92.2653 192.742 92.2653C192.742 92.2653 194.466 93.3584 195.428 93.8112C196.36 94.2505 198.081 94.3101 198.752 93.5784C199.555 92.702 200.842 93.1136 201.204 92.3239C201.368 91.9651 201.437 90.7439 202.531 90.33C203.229 90.0655 204.84 87.3478 204.84 87.3478C204.84 87.3478 202.218 86.6656 201.098 87.436C200.42 87.9024 199.394 87.1433 199.164 86.8745C198.466 86.057 197.817 87.4785 196.746 87.6735C195.769 87.8512 195.267 87.6467 194.313 87.9418Z" fill="#AEC767"/>
</mask>
<g mask="url(#mask16_2520_1109)">
<path d="M196.105 90.0603C193.404 90.0805 192.934 91.9715 192.667 92.3172L195.998 95.0403L202.223 93.2561L204.84 87.3479C204.703 87.3881 204.051 87.5558 202.538 87.9048C200.647 88.341 198.805 90.0402 196.105 90.0603Z" fill="#D9D9D9" style="mix-blend-mode:multiply"/>
</g>
<path d="M164.472 64.8934C160.047 66.2629 160.199 76.9446 160.199 76.9446C160.199 76.9446 164.759 79.6474 167.283 80.836C169.731 81.9891 173.816 82.5839 175.577 80.6634C177.685 78.363 181.691 78.8687 182.642 76.796C183.074 75.8541 183.453 72.5127 186.323 71.4262C188.157 70.7319 191.954 64.0369 191.954 64.0369C191.954 64.0369 185.772 62.2624 182.298 62.7028C180.22 62.9663 179.033 63.3738 178.43 62.6683C176.598 60.5224 173.564 64.1766 170.751 64.6883C168.186 65.1549 166.975 64.1186 164.472 64.8934Z" fill="#AEC767"/>
<mask id="mask17_2520_1109" style="mask-type:alpha" maskUnits="userSpaceOnUse" x="160" y="62" width="32" height="20">
<path d="M164.321 65.5964C159.896 66.966 160.198 76.9449 160.198 76.9449C160.198 76.9449 164.723 79.8141 167.247 81.0027C169.695 82.1558 174.211 82.3121 175.972 80.3916C178.08 78.0912 181.457 79.1715 182.408 77.0987C182.84 76.1568 183.021 72.9514 185.891 71.865C187.725 71.1707 191.953 64.0372 191.953 64.0372C191.953 64.0372 185.07 62.2466 182.13 64.2687C180.351 65.4928 177.657 63.5004 177.055 62.7948C175.222 60.6489 173.52 64.3803 170.707 64.892C168.142 65.3586 166.824 64.8217 164.321 65.5964Z" fill="#AEC767"/>
</mask>
<g mask="url(#mask17_2520_1109)">
<path d="M169.024 71.1571C161.936 71.2099 160.701 76.1736 160.001 77.0811L168.745 84.2287L185.084 79.5456L191.954 64.0374C191.594 64.1429 189.882 64.5831 185.911 65.4991C180.946 66.6441 176.113 71.1043 169.024 71.1571Z" fill="#D9D9D9" style="mix-blend-mode:multiply"/>
</g>
<path d="M188.173 175.745C188.518 174.536 185.064 165.209 179.018 170.909C176.616 173.175 172.393 184.825 167.395 191.489C162.678 197.778 155.733 207.732 160.731 212.314C165.296 216.498 174.013 212.536 179.018 204.4C184.816 194.976 187.988 176.394 188.173 175.745Z" fill="#7A4A7B"/>
<path d="M183.164 168.491C183.855 168.215 185.064 165.382 185.582 164L186.791 164.691L185.755 169.182C186.158 169.585 187.926 171.302 188.346 172.982C189.037 175.745 187.137 179.891 187.137 179.891C186.709 176.755 186.409 175.439 185.755 174.018C185.755 174.018 183.682 177.818 181.264 178.336C180.184 176.113 179.928 174.979 180.573 172.464C178.859 173.194 177.748 174.025 175.564 176.091C175.737 175.515 176.428 172.464 178.155 170.564C180.291 168.214 182.3 168.836 183.164 168.491Z" fill="#668266"/>
<path d="M190.324 171.745C189.979 170.536 193.433 161.209 199.479 166.909C201.882 169.175 206.104 180.825 211.102 187.489C215.819 193.778 222.764 203.732 217.766 208.314C213.202 212.498 204.484 208.536 199.479 200.4C193.681 190.976 190.51 172.394 190.324 171.745Z" fill="#7A4A7B"/>
<path d="M195.333 164.491C194.642 164.215 193.433 161.382 192.915 160L191.706 160.691L192.742 165.182C192.339 165.585 190.571 167.302 190.151 168.982C189.46 171.745 191.36 175.891 191.36 175.891C191.788 172.755 192.088 171.439 192.742 170.018C192.742 170.018 194.815 173.818 197.233 174.336C198.313 172.113 198.569 170.979 197.924 168.464C199.638 169.194 200.749 170.025 202.933 172.091C202.76 171.515 202.069 168.464 200.342 166.564C198.206 164.214 196.197 164.836 195.333 164.491Z" fill="#668266"/>
<path d="M163.489 127.45C163.855 126.169 160.193 116.282 153.785 122.324C151.238 124.725 146.763 137.074 141.465 144.138C136.465 150.804 129.103 161.356 134.401 166.212C139.239 170.647 148.48 166.448 153.785 157.824C159.931 147.835 163.292 128.138 163.489 127.45Z" fill="#7A4A7B"/>
<path d="M158.179 119.76C158.912 119.467 160.193 116.465 160.743 115L162.024 115.732L160.926 120.493C161.353 120.92 163.227 122.74 163.672 124.521C164.404 127.45 162.39 131.844 162.39 131.844C161.937 128.52 161.619 127.126 160.926 125.619C160.926 125.619 158.729 129.647 156.165 130.197C155.021 127.84 154.749 126.638 155.433 123.971C153.616 124.746 152.439 125.626 150.123 127.816C150.306 127.206 151.039 123.971 152.87 121.957C155.134 119.467 157.264 120.127 158.179 119.76Z" fill="#668266"/>
<path d="M122.756 164.98C123.109 163.747 119.585 154.233 113.419 160.047C110.968 162.358 106.661 174.241 101.563 181.039C96.752 187.453 89.668 197.607 94.7659 202.28C99.4214 206.548 108.313 202.507 113.419 194.208C119.333 184.596 122.567 165.642 122.756 164.98Z" fill="#7A4A7B"/>
<path d="M117.647 157.581C118.352 157.299 119.585 154.409 120.114 153L121.347 153.705L120.29 158.285C120.701 158.697 122.504 160.448 122.932 162.161C123.637 164.98 121.699 169.209 121.699 169.209C121.263 166.01 120.957 164.668 120.29 163.219C120.29 163.219 118.176 167.095 115.709 167.623C114.608 165.356 114.346 164.199 115.004 161.633C113.256 162.378 112.123 163.225 109.895 165.333C110.071 164.745 110.776 161.633 112.538 159.695C114.717 157.298 116.766 157.933 117.647 157.581Z" fill="#668266"/>
<path d="M164.324 136.745C163.978 135.536 167.433 126.209 173.478 131.909C175.881 134.175 180.104 145.825 185.102 152.489C189.818 158.778 196.763 168.732 191.766 173.314C187.201 177.498 178.484 173.536 173.478 165.4C167.681 155.976 164.509 137.394 164.324 136.745Z" fill="#8A4D8B"/>
<path d="M169.333 129.491C168.642 129.215 167.433 126.382 166.915 125L165.706 125.691L166.742 130.182C166.339 130.585 164.571 132.302 164.151 133.982C163.46 136.745 165.36 140.891 165.36 140.891C165.788 137.755 166.088 136.439 166.742 135.018C166.742 135.018 168.815 138.818 171.233 139.336C172.313 137.113 172.569 135.979 171.924 133.464C173.638 134.194 174.749 135.025 176.933 137.091C176.76 136.515 176.069 133.464 174.342 131.564C172.206 129.214 170.197 129.836 169.333 129.491Z" fill="#668266"/>
<defs>
<linearGradient id="paint0_linear_2520_1109" x1="158.254" y1="322.366" x2="161.347" y2="302.263" gradientUnits="userSpaceOnUse">
<stop stop-color="#F9ECC9"/>
<stop offset="1" stop-color="#FFF6DD" stop-opacity="0"/>
</linearGradient>
</defs>
</svg>
