<svg width="317" height="463" viewBox="0 0 317 463" fill="none" xmlns="http://www.w3.org/2000/svg">
<rect y="290.5" width="317" height="172" fill="#E3AD6F"/>
<path d="M147.207 323C146.208 303 148.708 278.5 157.208 257C146.993 307.5 152.041 339.667 157.208 344L157.208 352.5C155.874 351.5 148.207 343 147.207 323Z" fill="#CDE58A"/>
<path d="M140.459 352.376C148.152 343.205 154.19 347.829 157.456 350.331L157.482 350.35L155.456 351.612C148.054 343.934 138.511 357.491 134.341 363.584C132.526 366.238 129.794 370.086 129.984 373.647C130.23 378.252 133.742 382.34 133.762 382.364C133.738 382.353 131.63 381.338 130.137 379.03C128.644 376.722 128.626 373.762 128.626 373.731C128.586 373.796 122.511 384.004 133.338 389.632C132.244 389.396 125.874 388.41 125.351 380.56C124.83 372.739 136.823 358.408 136.915 358.299C136.856 358.335 132.838 360.823 129.385 361.368C127.026 361.74 121.17 360.498 120.091 359.069C123.916 360.191 132.746 361.571 140.459 352.376Z" fill="#F9ECC9"/>
<path d="M169 244C157.4 248 157 257 157 258.5C157 260.109 168.5 259 174 253C178.4 248.2 183.5 242.5 185 239C184.167 239.167 180.6 240 169 244Z" fill="#AEC767"/>
<path d="M146.5 246C158.1 250 157 257.5 157 259C157 260.609 145.5 259.5 140 253.5C135.6 248.7 130.5 243 129 239.5C129.833 239.667 134.9 242 146.5 246Z" fill="#AEC767"/>
<path d="M170.5 249.5C165 252.5 159.5 255 157 258.5C158 260 166 259.5 173 254C180 248.5 185 239 185 239C185 239 179.771 244.443 170.5 249.5Z" fill="#93AE48"/>
<path d="M142.5 250C148.5 253 154 256 157 259C156 260.5 148 260 141 254.5C134 249 129 239.5 129 239.5C129 239.5 133.055 245.277 142.5 250Z" fill="#93AE48"/>
<path d="M167.846 333.84C159.386 332.616 153.604 335.88 150.138 342.379C145.078 351.865 148.873 361.036 159.941 361.68C165.77 360.108 171.899 357.417 175.436 352.814C182.655 343.419 179.943 335.591 167.846 333.84Z" fill="#FAE8AE"/>
<path d="M179.23 341.43C176.384 346.173 171.186 352.687 163.419 356.609C159.308 358.684 156.462 358.822 152.035 359.001C154.565 360.403 155.83 361.352 159.941 361.668C159.941 361.668 165.155 360.144 167.53 359.001C174.171 355.803 179.863 349.652 179.23 341.43Z" fill="#EBDBA7" style="mix-blend-mode:multiply"/>
</svg>
