<svg width="317" height="463" viewBox="0 0 317 463" fill="none" xmlns="http://www.w3.org/2000/svg">
<rect y="291" width="317" height="172" fill="#E3AD6F"/>
<path d="M158 320C157 317.5 153.642 331.5 155.5 301.5C156.51 285.192 158.638 239.923 160.371 202L116 125L160 193.5C158.5 160.5 163 103.5 163 103.5C163 103.5 165 153 163.643 177L198 138L163.643 183C164.398 234.966 165.282 319.797 163 320C159.71 320.292 159 322.5 158 320Z" fill="#6C7D72"/>
<path d="M163.763 308.271C163.89 312.606 162.531 325.533 161.396 337.827C162.78 340.364 166.806 345.074 177.5 349C189.5 353.406 202.113 350.284 204 349C202.501 353 179.753 352.555 177 353C178 356 186.501 363.642 194 366.5C188 366.5 179.721 361.008 172 352C169 348.5 162.712 346.93 161 343L160.999 342.228C160.404 349 159.944 355.216 159.931 359.222C159.913 364.43 159.914 373.696 163.5 378.5C168.151 384.728 180.001 387.5 180.001 387.5C180.001 387.5 172.23 386.482 168 384.5C163.794 382.528 158.954 377.058 158.903 377C158.883 377.06 154.526 390.536 173.114 406.5C173.923 407.195 167.072 404.002 159.023 393.5C150.985 383.012 154.716 352.089 154.726 352C154.702 352.024 149.26 357.346 145 361C142.107 363.481 120.821 370.091 118.001 369C124.306 367.378 155.454 360.713 155.513 334.78C155.573 308.846 154.917 314.5 154.726 308.011L163.763 308.271Z" fill="url(#paint0_linear_2520_608)"/>
<path d="M165.259 242.088C167.075 240.445 171.07 237.885 171.485 237.677V237.937L165 243.385L165.259 242.088Z" fill="#CDE58A"/>
<path d="M179.741 228.112C171.995 232.859 171.247 236.997 171.247 238.108C171.247 239.3 178.814 242.707 183.444 238.848C190.108 233.295 190.869 226.261 191.98 223.669C191.363 223.792 184.575 225.15 179.741 228.112Z" fill="#AEC767"/>
<path d="M183.073 232.036C176.854 236.775 172.584 238.206 171.226 238.33C171.967 239.44 176.644 243.936 183.678 239.493C190.712 235.051 191.959 223.891 191.959 223.891C191.959 223.891 189.293 227.297 183.073 232.036Z" fill="#93AE48"/>
<path d="M146.531 230.457C155.364 235.757 154.852 240.159 154.506 241.37C153.667 244.308 145.692 245.568 137.716 238.852C133.535 235.331 131 228.358 131 225C131.7 225.14 138.136 225.42 146.531 230.457Z" fill="#AEC767"/>
<path d="M141.074 234.234C148.126 239.607 152.967 241.23 154.506 241.37C154.086 243.469 146.531 245.568 138.975 240.531C131.42 235.494 131 225 131 225C131 225 134.022 228.862 141.074 234.234Z" fill="#93AE48"/>
<path d="M154.551 240.897L162.5 254.145V256.5L154.551 242.075V240.897Z" fill="#CDE58A"/>
<path d="M173.255 222.508L164.536 234.942L164.372 237.251L173.173 223.662L173.255 222.508Z" fill="#CDE58A"/>
<path d="M178.55 198.379C169.303 202.368 172.989 225.118 172.989 225.118C172.989 225.118 183.81 229.784 189.702 231.711C195.419 233.581 204.538 233.865 207.785 229.343C211.674 223.928 220.593 224.041 222.021 219.39C222.67 217.276 222.449 210.057 228.384 207.047C232.177 205.124 238.378 189.926 238.378 189.926C238.378 189.926 224.303 187.631 216.845 189.408C212.382 190.471 209.914 191.627 208.375 190.267C203.694 186.131 198.206 194.658 192.216 196.428C186.752 198.042 183.78 196.123 178.55 198.379Z" fill="#AEC767"/>
<mask id="mask0_2520_608" style="mask-type:alpha" maskUnits="userSpaceOnUse" x="172" y="188" width="67" height="45">
<path d="M178.549 198.379C169.302 202.368 172.988 225.118 172.988 225.118C172.988 225.118 183.809 229.784 189.702 231.711C195.418 233.581 204.538 233.865 207.784 229.343C211.674 223.928 220.592 224.041 222.02 219.39C222.669 217.276 222.448 210.057 228.383 207.047C232.176 205.124 238.377 189.926 238.377 189.926C238.377 189.926 224.302 187.631 216.844 189.408C212.381 190.471 209.913 191.627 208.374 190.267C203.693 186.131 198.206 194.658 192.215 196.428C186.752 198.042 183.779 196.123 178.549 198.379Z" fill="#AEC767"/>
</mask>
<g mask="url(#mask0_2520_608)">
<path d="M190.472 210.643C174.987 212.465 173.846 223.351 172.599 225.456L193.965 238.596L228.226 224.666L238.378 189.926C237.625 190.238 234.019 191.59 225.622 194.501C215.126 198.141 205.957 208.821 190.472 210.643Z" fill="#D9D9D9" style="mix-blend-mode:multiply"/>
</g>
<path d="M141.137 196.486L165 232.704V235.594L141.137 197.931V196.486Z" fill="#CDE58A"/>
<path d="M137.524 171.92C146.38 176.512 141.137 198.734 141.137 198.734C141.137 198.734 130.115 202.583 124.157 204.072C118.377 205.517 109.346 205.156 106.456 200.46C102.994 194.834 94.1729 194.318 93.0891 189.622C92.5966 187.488 93.3231 180.37 87.6702 176.978C84.0576 174.81 79 159.356 79 159.356C79 159.356 93.0698 158.079 100.314 160.36C104.649 161.725 107.007 163.041 108.623 161.805C113.54 158.048 118.362 166.86 124.157 169.03C129.442 171.01 132.514 169.323 137.524 171.92Z" fill="#AEC767"/>
<mask id="mask1_2520_608" style="mask-type:alpha" maskUnits="userSpaceOnUse" x="79" y="159" width="64" height="46">
<path d="M137.524 173.446C146.38 178.038 141.137 198.734 141.137 198.734C141.137 198.734 130.115 202.944 124.157 204.434C118.377 205.879 108.623 204.434 105.733 199.737C102.271 194.112 94.5342 195.041 93.4504 190.345C92.9579 188.21 94.0457 181.453 88.3927 178.062C84.7802 175.894 79 159.356 79 159.356C79 159.356 94.5825 158.321 99.953 163.692C103.204 166.943 109.897 163.843 111.513 162.608C116.43 158.85 118.362 167.301 124.157 169.472C129.442 171.451 132.514 170.848 137.524 173.446Z" fill="#AEC767"/>
</mask>
<g mask="url(#mask1_2520_608)">
<path d="M124.88 183.2C140.053 186.09 140.414 196.927 141.498 199.095L119.461 210.575L86.5864 194.399L79 159.356C79.7225 159.718 83.1906 161.307 91.2828 164.775C101.398 169.11 109.707 180.309 124.88 183.2Z" fill="#D9D9D9" style="mix-blend-mode:multiply"/>
</g>
<path d="M182 192L163.109 214.628L163 216.154L181.946 192.763L182 192Z" fill="#CDE58A"/>
<path d="M185.805 166.06C177.47 169.655 180.792 190.162 180.792 190.162C180.792 190.162 190.546 194.368 195.858 196.105C201.01 197.79 209.231 198.046 212.157 193.971C215.663 189.089 223.702 189.191 224.989 184.998C225.574 183.093 225.375 176.586 230.725 173.873C234.144 172.139 239.733 158.44 239.733 158.44C239.733 158.44 227.046 156.371 220.324 157.973C216.301 158.932 214.076 159.973 212.689 158.747C208.469 155.019 203.523 162.706 198.123 164.301C193.199 165.756 190.519 164.026 185.805 166.06Z" fill="#AEC767"/>
<mask id="mask2_2520_608" style="mask-type:alpha" maskUnits="userSpaceOnUse" x="180" y="157" width="60" height="41">
<path d="M185.805 166.06C177.47 169.655 180.792 190.162 180.792 190.162C180.792 190.162 190.546 194.368 195.858 196.105C201.01 197.79 209.231 198.046 212.157 193.971C215.663 189.089 223.702 189.191 224.989 184.998C225.574 183.093 225.375 176.586 230.725 173.873C234.144 172.139 239.733 158.44 239.733 158.44C239.733 158.44 227.046 156.371 220.324 157.973C216.301 158.932 214.076 159.973 212.689 158.747C208.469 155.019 203.523 162.706 198.123 164.301C193.199 165.756 190.519 164.026 185.805 166.06Z" fill="#AEC767"/>
</mask>
<g mask="url(#mask2_2520_608)">
<path d="M196.551 177.114C182.593 178.756 181.565 188.569 180.441 190.466L199.699 202.31L230.582 189.754L239.733 158.44C239.054 158.721 235.803 159.94 228.235 162.564C218.774 165.845 210.509 175.472 196.551 177.114Z" fill="#D9D9D9" style="mix-blend-mode:multiply"/>
</g>
<path d="M164.919 123.262C168.751 127.476 161.921 138.696 161.921 138.696C161.921 138.696 155.402 138.712 151.987 138.395C148.673 138.088 143.975 136.167 143.309 133.034C142.512 129.28 137.953 127.315 138.24 124.526C138.37 123.258 140.055 119.482 137.693 116.539C136.184 114.659 136.342 105.196 136.342 105.196C136.342 105.196 143.998 107.176 147.403 109.811C149.44 111.388 150.443 112.561 151.522 112.19C154.803 111.061 155.735 116.826 158.396 119.125C160.822 121.221 162.751 120.879 164.919 123.262Z" fill="#AEC767"/>
<mask id="mask3_2520_608" style="mask-type:alpha" maskUnits="userSpaceOnUse" x="136" y="105" width="30" height="34">
<path d="M164.64 124.101C168.472 128.315 161.921 138.696 161.921 138.696C161.921 138.696 155.336 138.911 151.921 138.594C148.607 138.287 143.726 135.632 143.06 132.499C142.263 128.745 138.011 127.781 138.298 124.992C138.429 123.724 140.238 120.216 137.876 117.273C136.367 115.392 136.342 105.196 136.342 105.196C136.342 105.196 144.752 107.597 146.603 111.575C147.724 113.982 151.821 113.554 152.9 113.182C156.181 112.054 155.655 117.069 158.315 119.368C160.741 121.464 162.472 121.718 164.64 124.101Z" fill="#AEC767"/>
</mask>
<g mask="url(#mask3_2520_608)">
<path d="M156.185 127.055C163.661 131.537 161.87 137.565 162.045 138.964L148.32 141.076L133.936 125.913L136.342 105.196C136.657 105.533 138.196 107.068 141.831 110.518C146.374 114.83 148.709 122.573 156.185 127.055Z" fill="#D9D9D9" style="mix-blend-mode:multiply"/>
</g>
<path d="M165.914 214.914C174.209 220.432 159.424 235.124 159.424 235.124C159.424 235.124 145.315 235.145 137.922 234.73C130.749 234.328 120.579 231.813 119.138 227.71C117.412 222.794 107.543 220.221 108.165 216.568C108.447 214.909 112.095 209.964 106.982 206.111C103.715 203.648 104.057 191.257 104.057 191.257C104.057 191.257 120.63 193.849 127.999 197.3C132.41 199.365 134.58 200.901 136.916 200.415C144.018 198.937 146.036 206.486 151.794 209.496C157.046 212.241 161.221 211.793 165.914 214.914Z" fill="#AEC767"/>
<mask id="mask4_2520_608" style="mask-type:alpha" maskUnits="userSpaceOnUse" x="104" y="191" width="64" height="45">
<path d="M165.31 216.012C173.605 221.53 159.425 235.124 159.425 235.124C159.425 235.124 145.172 235.405 137.779 234.99C130.606 234.588 120.04 231.112 118.599 227.009C116.873 222.094 107.67 220.831 108.291 217.179C108.574 215.519 112.491 210.925 107.378 207.071C104.111 204.609 104.057 191.257 104.057 191.257C104.057 191.257 122.261 194.401 126.268 199.609C128.694 202.762 137.563 202.201 139.898 201.715C147.001 200.237 145.861 206.804 151.62 209.814C156.871 212.559 160.618 212.891 165.31 216.012Z" fill="#AEC767"/>
</mask>
<g mask="url(#mask4_2520_608)">
<path d="M147.01 219.88C163.192 225.749 159.314 233.643 159.694 235.475L129.985 238.241L98.848 218.385L104.057 191.257C104.739 191.697 108.07 193.708 115.938 198.225C125.773 203.872 130.828 214.011 147.01 219.88Z" fill="#D9D9D9" style="mix-blend-mode:multiply"/>
</g>
<path d="M160.131 99.846C157.016 103.271 162.568 112.393 162.568 112.393C162.568 112.393 167.867 112.405 170.644 112.148C173.337 111.898 177.157 110.337 177.698 107.79C178.346 104.738 182.052 103.141 181.819 100.873C181.713 99.8427 180.343 96.7731 182.263 94.3807C183.49 92.8519 183.362 85.1594 183.362 85.1594C183.362 85.1594 177.138 86.7689 174.37 88.9113C172.714 90.1933 171.898 91.1467 171.021 90.845C168.354 89.9273 167.596 94.614 165.434 96.4825C163.462 98.1863 161.893 97.9083 160.131 99.846Z" fill="#AEC767"/>
<mask id="mask5_2520_608" style="mask-type:alpha" maskUnits="userSpaceOnUse" x="159" y="85" width="25" height="28">
<path d="M160.358 100.528C157.242 103.953 162.568 112.393 162.568 112.393C162.568 112.393 167.921 112.567 170.697 112.31C173.391 112.06 177.359 109.902 177.9 107.355C178.549 104.303 182.005 103.52 181.771 101.252C181.665 100.222 180.194 97.3696 182.114 94.9772C183.341 93.4483 183.362 85.1594 183.362 85.1594C183.362 85.1594 176.525 87.1115 175.02 90.3447C174.109 92.3021 170.778 91.9535 169.901 91.6518C167.234 90.7341 167.662 94.8114 165.499 96.6798C163.527 98.3837 162.12 98.5902 160.358 100.528Z" fill="#AEC767"/>
</mask>
<g mask="url(#mask5_2520_608)">
<path d="M167.231 102.929C161.153 106.572 162.61 111.473 162.467 112.61L173.625 114.327L185.318 102.001L183.362 85.1595C183.106 85.433 181.855 86.6811 178.9 89.4856C175.206 92.9913 173.308 99.2855 167.231 102.929Z" fill="#D9D9D9" style="mix-blend-mode:multiply"/>
</g>
<path d="M176.919 158.262C180.751 162.476 173.921 173.696 173.921 173.696C173.921 173.696 167.402 173.712 163.987 173.395C160.673 173.088 155.975 171.167 155.309 168.034C154.512 164.28 149.953 162.315 150.24 159.526C150.37 158.258 152.055 154.482 149.693 151.539C148.184 149.659 148.342 140.196 148.342 140.196C148.342 140.196 155.998 142.176 159.403 144.811C161.44 146.388 162.443 147.561 163.522 147.19C166.803 146.061 167.735 151.826 170.396 154.125C172.822 156.221 174.751 155.879 176.919 158.262Z" fill="#AEC767"/>
<mask id="mask6_2520_608" style="mask-type:alpha" maskUnits="userSpaceOnUse" x="148" y="140" width="30" height="34">
<path d="M176.64 159.101C180.472 163.315 173.921 173.696 173.921 173.696C173.921 173.696 167.336 173.911 163.921 173.594C160.607 173.287 155.726 170.632 155.06 167.499C154.263 163.745 150.011 162.781 150.298 159.992C150.429 158.724 152.238 155.216 149.876 152.273C148.367 150.392 148.342 140.196 148.342 140.196C148.342 140.196 156.752 142.597 158.603 146.575C159.724 148.982 163.821 148.554 164.9 148.182C168.181 147.054 167.655 152.069 170.315 154.368C172.741 156.464 174.472 156.718 176.64 159.101Z" fill="#AEC767"/>
</mask>
<g mask="url(#mask6_2520_608)">
<path d="M168.185 162.055C175.661 166.537 173.87 172.565 174.045 173.964L160.32 176.076L145.936 160.913L148.342 140.196C148.657 140.533 150.196 142.068 153.831 145.518C158.374 149.83 160.709 157.573 168.185 162.055Z" fill="#D9D9D9" style="mix-blend-mode:multiply"/>
</g>
<path d="M186.467 145.887C182.044 147.256 182.195 157.934 182.195 157.934C182.195 157.934 186.754 160.635 189.276 161.823C191.724 162.976 195.807 163.571 197.567 161.651C199.675 159.351 203.679 159.857 204.629 157.785C205.061 156.844 205.44 153.504 208.309 152.418C210.142 151.723 213.937 145.031 213.937 145.031C213.937 145.031 207.758 143.257 204.286 143.698C202.208 143.961 201.022 144.368 200.419 143.663C198.588 141.518 195.555 145.171 192.743 145.682C190.179 146.149 188.969 145.113 186.467 145.887Z" fill="#AEC767"/>
<mask id="mask7_2520_608" style="mask-type:alpha" maskUnits="userSpaceOnUse" x="182" y="143" width="32" height="20">
<path d="M186.316 146.59C181.893 147.959 182.195 157.934 182.195 157.934C182.195 157.934 186.718 160.802 189.241 161.99C191.688 163.142 196.202 163.299 197.962 161.379C200.07 159.08 203.446 160.159 204.396 158.087C204.828 157.146 205.009 153.942 207.878 152.856C209.711 152.162 213.937 145.031 213.937 145.031C213.937 145.031 207.056 143.241 204.118 145.263C202.34 146.486 199.647 144.495 199.045 143.789C197.213 141.644 195.511 145.374 192.699 145.886C190.135 146.352 188.818 145.816 186.316 146.59Z" fill="#AEC767"/>
</mask>
<g mask="url(#mask7_2520_608)">
<path d="M191.018 152.148C183.932 152.201 182.698 157.163 181.998 158.07L190.738 165.215L207.071 160.533L213.938 145.032C213.578 145.137 211.866 145.577 207.897 146.493C202.935 147.637 198.103 152.096 191.018 152.148Z" fill="#D9D9D9" style="mix-blend-mode:multiply"/>
</g>
<path d="M129.521 143.21C127.143 145.955 131.67 153.001 131.67 153.001C131.67 153.001 135.825 152.91 137.997 152.656C140.104 152.409 143.069 151.112 143.445 149.104C143.895 146.7 146.771 145.377 146.545 143.603C146.442 142.797 145.31 140.417 146.77 138.504C147.703 137.282 147.456 131.254 147.456 131.254C147.456 131.254 142.607 132.634 140.477 134.366C139.203 135.403 138.582 136.166 137.889 135.946C135.78 135.277 135.275 138.966 133.614 140.472C132.101 141.845 130.866 141.657 129.521 143.21Z" fill="#AEC767"/>
<mask id="mask8_2520_608" style="mask-type:alpha" maskUnits="userSpaceOnUse" x="128" y="131" width="20" height="23">
<path d="M129.711 143.74C127.334 146.485 131.67 153.001 131.67 153.001C131.67 153.001 135.87 153.036 138.042 152.781C140.149 152.534 143.219 150.767 143.595 148.76C144.046 146.355 146.741 145.675 146.515 143.901C146.412 143.096 145.204 140.887 146.664 138.975C147.597 137.753 147.456 131.254 147.456 131.254C147.456 131.254 142.133 132.914 141.014 135.478C140.337 137.03 137.719 136.82 137.026 136.6C134.917 135.931 135.33 139.119 133.67 140.625C132.156 141.999 131.056 142.187 129.711 143.74Z" fill="#AEC767"/>
</mask>
<g mask="url(#mask8_2520_608)">
<path d="M135.146 145.492C130.45 148.464 131.685 152.279 131.595 153.174L140.375 154.308L149.31 144.421L147.456 131.254C147.261 131.473 146.303 132.475 144.04 134.73C141.211 137.549 139.842 142.52 135.146 145.492Z" fill="#D9D9D9" style="mix-blend-mode:multiply"/>
</g>
<path d="M123.014 129.07C126.182 130.845 124.317 139.009 124.317 139.009C124.317 139.009 120.379 140.335 118.249 140.833C116.183 141.316 112.954 141.104 111.919 139.343C110.679 137.234 107.525 136.966 107.135 135.221C106.958 134.428 107.215 131.805 105.192 130.502C103.9 129.669 102.085 123.915 102.085 123.915C102.085 123.915 107.114 123.566 109.706 124.473C111.256 125.015 112.099 125.522 112.677 125.079C114.433 123.734 116.161 127.032 118.234 127.885C120.124 128.663 121.222 128.067 123.014 129.07Z" fill="#AEC767"/>
<mask id="mask9_2520_608" style="mask-type:alpha" maskUnits="userSpaceOnUse" x="102" y="123" width="23" height="19">
<path d="M123.015 129.634C126.183 131.408 124.317 139.009 124.317 139.009C124.317 139.009 120.379 140.468 118.249 140.967C116.183 141.45 112.695 140.83 111.66 139.07C110.42 136.961 107.654 137.236 107.265 135.491C107.088 134.699 107.473 132.212 105.451 130.909C104.158 130.076 102.085 123.915 102.085 123.915C102.085 123.915 107.655 123.669 109.578 125.7C110.742 126.93 113.133 125.844 113.71 125.401C115.467 124.056 116.161 127.196 118.234 128.048C120.124 128.826 121.222 128.63 123.015 129.634Z" fill="#AEC767"/>
</mask>
<g mask="url(#mask9_2520_608)">
<path d="M118.498 133.127C123.924 134.328 124.058 138.336 124.446 139.146L116.573 143.195L104.812 136.93L102.084 123.915C102.343 124.055 103.583 124.673 106.478 126.025C110.096 127.716 113.072 131.926 118.498 133.127Z" fill="#D9D9D9" style="mix-blend-mode:multiply"/>
</g>
<path d="M157.64 169.305C151.607 171.173 151.814 185.736 151.814 185.736C151.814 185.736 158.031 189.421 161.472 191.041C164.81 192.613 170.379 193.424 172.78 190.806C175.655 187.669 181.116 188.359 182.412 185.533C183.001 184.249 183.518 179.693 187.431 178.212C189.931 177.266 195.108 168.138 195.108 168.138C195.108 168.138 186.68 165.718 181.944 166.319C179.11 166.678 177.492 167.234 176.67 166.272C174.172 163.346 170.035 168.328 166.2 169.026C162.703 169.662 161.053 168.249 157.64 169.305Z" fill="#AEC767"/>
<mask id="mask10_2520_608" style="mask-type:alpha" maskUnits="userSpaceOnUse" x="151" y="165" width="45" height="28">
<path d="M157.434 170.264C151.401 172.131 151.814 185.736 151.814 185.736C151.814 185.736 157.982 189.648 161.423 191.268C164.761 192.84 170.918 193.053 173.319 190.435C176.194 187.299 180.798 188.771 182.094 185.945C182.683 184.661 182.93 180.291 186.843 178.81C189.343 177.863 195.108 168.138 195.108 168.138C195.108 168.138 185.723 165.697 181.715 168.453C179.289 170.122 175.617 167.406 174.795 166.444C172.297 163.518 169.976 168.606 166.141 169.303C162.643 169.939 160.847 169.207 157.434 170.264Z" fill="#AEC767"/>
</mask>
<g mask="url(#mask10_2520_608)">
<path d="M163.847 177.845C154.183 177.917 152.5 184.684 151.545 185.922L163.466 195.667L185.743 189.282L195.108 168.138C194.618 168.282 192.283 168.882 186.869 170.131C180.101 171.692 173.511 177.773 163.847 177.845Z" fill="#D9D9D9" style="mix-blend-mode:multiply"/>
</g>
<path d="M137.547 155.305C143.58 157.173 143.373 171.736 143.373 171.736C143.373 171.736 137.156 175.421 133.715 177.041C130.377 178.613 124.807 179.424 122.407 176.806C119.532 173.669 114.071 174.359 112.775 171.533C112.186 170.249 111.669 165.693 107.756 164.212C105.256 163.266 100.079 154.138 100.079 154.138C100.079 154.138 108.507 151.718 113.243 152.319C116.077 152.678 117.695 153.234 118.516 152.272C121.015 149.346 125.151 154.328 128.986 155.026C132.484 155.662 134.134 154.249 137.547 155.305Z" fill="#AEC767"/>
<mask id="mask11_2520_608" style="mask-type:alpha" maskUnits="userSpaceOnUse" x="100" y="151" width="44" height="28">
<path d="M137.753 156.264C143.785 158.131 143.373 171.736 143.373 171.736C143.373 171.736 137.204 175.648 133.763 177.268C130.425 178.84 124.268 179.053 121.868 176.435C118.993 173.299 114.389 174.771 113.093 171.945C112.504 170.661 112.257 166.291 108.344 164.81C105.843 163.863 100.079 154.138 100.079 154.138C100.079 154.138 109.464 151.697 113.471 154.453C115.897 156.122 119.57 153.406 120.391 152.444C122.89 149.518 125.211 154.606 129.046 155.303C132.543 155.939 134.34 155.207 137.753 156.264Z" fill="#AEC767"/>
</mask>
<g mask="url(#mask11_2520_608)">
<path d="M131.34 163.845C141.004 163.917 142.687 170.684 143.642 171.922L131.721 181.667L109.444 175.282L100.079 154.138C100.569 154.282 102.903 154.882 108.318 156.131C115.085 157.692 121.675 163.773 131.34 163.845Z" fill="#D9D9D9" style="mix-blend-mode:multiply"/>
</g>
<path d="M196.371 136.674C194.685 137.196 194.743 141.265 194.743 141.265C194.743 141.265 196.48 142.295 197.441 142.748C198.374 143.187 199.93 143.414 200.601 142.682C201.404 141.806 202.931 141.998 203.293 141.209C203.457 140.85 203.602 139.577 204.695 139.163C205.394 138.898 206.84 136.348 206.84 136.348C206.84 136.348 204.485 135.672 203.162 135.839C202.37 135.94 201.918 136.095 201.688 135.826C200.99 135.009 199.834 136.401 198.763 136.596C197.785 136.774 197.324 136.379 196.371 136.674Z" fill="#AEC767"/>
<mask id="mask12_2520_608" style="mask-type:alpha" maskUnits="userSpaceOnUse" x="194" y="135" width="13" height="9">
<path d="M196.313 136.942C194.627 137.464 194.742 141.265 194.742 141.265C194.742 141.265 196.466 142.358 197.428 142.811C198.36 143.251 200.081 143.31 200.752 142.578C201.555 141.702 202.842 142.114 203.204 141.324C203.368 140.965 203.437 139.744 204.531 139.33C205.229 139.065 206.84 136.348 206.84 136.348C206.84 136.348 204.218 135.666 203.098 136.436C202.42 136.902 201.394 136.143 201.164 135.875C200.466 135.057 199.817 136.479 198.746 136.673C197.769 136.851 197.267 136.647 196.313 136.942Z" fill="#AEC767"/>
</mask>
<g mask="url(#mask12_2520_608)">
<path d="M198.105 139.06C195.404 139.08 194.934 140.971 194.667 141.317L197.998 144.04L204.223 142.256L206.84 136.348C206.703 136.388 206.051 136.556 204.538 136.905C202.647 137.341 200.805 139.04 198.105 139.06Z" fill="#D9D9D9" style="mix-blend-mode:multiply"/>
</g>
<defs>
<linearGradient id="paint0_linear_2520_608" x1="158.254" y1="322.366" x2="161.347" y2="302.263" gradientUnits="userSpaceOnUse">
<stop stop-color="#F9ECC9"/>
<stop offset="1" stop-color="#FFF6DD" stop-opacity="0"/>
</linearGradient>
</defs>
</svg>
