<svg width="317" height="463" viewBox="0 0 317 463" fill="none" xmlns="http://www.w3.org/2000/svg">
<rect y="290.5" width="317" height="172" fill="#E3AD6F"/>
<path d="M134.882 381C143.233 365.36 150.883 364.5 154.883 359L158.383 364.5C149.883 367.5 138.55 382.353 136.883 386C133.802 392.736 139.883 420.5 118.883 428C139.383 415 127.088 395.599 134.882 381Z" fill="#F9ECC9"/>
<path d="M183.153 370.474C168.589 360.362 161.389 363.085 155.321 360.014L154.714 366.505C155.394 366.413 156.12 366.375 156.883 366.384C161.549 369.756 171.583 379 174.383 389C177.183 399 188.883 404.167 194.383 405.5C190.049 404 180.683 398.3 177.883 387.5C175.083 376.7 165.049 369.132 160.383 366.697C169.445 368.102 181.091 373.813 183.653 375.835C189.467 380.426 196.715 407.908 218.825 405.006C194.652 402.785 196.747 379.912 183.153 370.474Z" fill="#F9ECC9"/>
<path d="M150.5 254C135.7 288 147.216 338.833 153.383 360L158.383 366C156.716 338.5 151.6 290.1 162 266.5C163.206 263.764 164.518 256.914 165.5 254C178.113 261.167 186 263.731 202.5 262.5C236 260 223.26 249.68 205.5 244.5C193.5 241 174 244.5 168.5 244.5C171.838 237.387 187 216 187 216V181.5L177 150.5C177 150.5 167.117 142 160 133C155.482 141 143.5 150.5 143.5 150.5L133.714 179V216C133.714 216 145.845 238.042 150.5 244.5C138 241 124 238.5 109 241C92.2313 243.795 87.2465 252.686 115 258C138.5 262.5 143.872 258.333 150.5 254Z" fill="#AEC767"/>
<mask id="mask0_2452_206" style="mask-type:alpha" maskUnits="userSpaceOnUse" x="95" y="133" width="129" height="233">
<path d="M150.5 254C135.7 288 147.216 338.833 153.383 360L158.383 366C156.716 338.5 151.6 290.1 162 266.5C163.206 263.764 164.518 256.914 165.5 254C178.113 261.167 186 263.731 202.5 262.5C236 260 223.26 249.68 205.5 244.5C193.5 241 174 244.5 168.5 244.5C171.838 237.387 187 216 187 216V181.5L177 150.5C177 150.5 167.117 142 160 133C155.482 141 143.5 150.5 143.5 150.5L133.714 179V216C133.714 216 145.845 238.042 150.5 244.5C138 241 124 238.5 109 241C92.2313 243.795 87.2465 252.686 115 258C138.5 262.5 143.872 258.333 150.5 254Z" fill="#AEC767"/>
</mask>
<g mask="url(#mask0_2452_206)">
<path d="M162.5 149L160 123.5C138 133.5 99 207.5 154 248C131.458 253.402 116.456 250.834 88.5 248C111.5 262.5 144.5 357 147 361C149.5 365 145 341.5 144.5 318C144.1 299.2 153.333 268.5 158 255.5L162.5 219.5V182V149Z" fill="#94A958"/>
</g>
<path d="M186 142.5L175.5 151.5L188.5 149" stroke="white"/>
<path d="M195.5 172L185 181L198 178.5" stroke="white"/>
<path d="M195.5 207L185 216L198 213.5" stroke="white"/>
<path d="M168.654 152L163 161L170 158.5" stroke="white"/>
<path d="M168.654 176L163 185L170 182.5" stroke="white"/>
<path d="M168.654 210L163 219L170 216.5" stroke="white"/>
<path d="M125.5 207L136 216L123 213.5" stroke="white"/>
<path d="M125.5 171L136 180L123 177.5" stroke="white"/>
<path d="M136.5 143L147 152L134 149.5" stroke="white"/>
<path d="M160.403 122.875L160.6 136.703L153.875 125.3" stroke="white"/>
</svg>
