<svg width="317" height="463" viewBox="0 0 317 463" fill="none" xmlns="http://www.w3.org/2000/svg">
<rect y="291" width="317" height="172" fill="#E3AD6F"/>
<path d="M139.447 305.372V112.959C144.825 103.548 153.171 109.037 156.672 112.959C155.972 178.217 153.563 309.573 149.53 312.934C145.497 316.295 141.128 309.293 139.447 305.372Z" fill="#B78144"/>
<mask id="mask0_2519_160" style="mask-type:alpha" maskUnits="userSpaceOnUse" x="139" y="107" width="18" height="207">
<path d="M139.447 305.372V112.959C144.825 103.548 153.171 109.037 156.672 112.959C155.972 178.217 153.563 309.573 149.53 312.934C145.497 316.295 141.128 309.293 139.447 305.372Z" fill="#B78144"/>
</mask>
<g mask="url(#mask0_2519_160)">
<path d="M131.045 305.372V112.959C136.422 103.548 144.769 109.037 148.27 112.959C147.57 178.217 145.161 309.573 141.128 312.934C137.095 316.295 132.725 309.293 131.045 305.372Z" fill="#9F6B2F"/>
</g>
<path d="M152.377 372.801C154.733 368.387 156.892 368.145 158.021 366.593L159.009 368.145C156.61 368.991 153.412 373.183 152.941 374.212C152.072 376.113 153.788 383.949 147.861 386.065C153.647 382.396 150.177 376.921 152.377 372.801Z" fill="#F9ECC9"/>
<path d="M165.999 369.831C161.889 366.977 159.857 367.745 158.145 366.879L157.973 368.711C158.165 368.685 158.37 368.674 158.585 368.676C159.902 369.628 162.734 372.237 163.524 375.059C164.314 377.881 167.616 379.339 169.168 379.715C167.945 379.292 165.302 377.684 164.512 374.636C163.722 371.588 160.89 369.452 159.573 368.765C162.13 369.161 165.417 370.773 166.14 371.344C167.781 372.639 169.827 380.395 176.066 379.576C169.244 378.949 169.836 372.494 165.999 369.831Z" fill="#F9ECC9"/>
<path d="M160.187 370.863C160.187 363.193 167.595 306.057 167.595 298.495C167.595 285.041 165.915 245.561 165.915 245.561L170.116 203.969L168.306 174.981L165.915 156.076L191.072 158.618L208.332 170.31L218.911 193.695L237.285 205.945L259 203.969L241.74 199.82L227.82 189.798L218.911 164.742L197.197 149.709L174.925 146.925L165.915 152.493L168.306 122.887L157.544 94.5873H174.925L191.072 103.496L204.435 126.668L227.82 136.346L245.637 127.994L227.82 126.668L210.003 117.416L197.197 96.2576L178.266 84.5651H159.193L155.832 91.2465L134.28 74.5429L105.327 66.7479L88.6233 56.7258L77.4876 41.6925L66.9086 30L69.1358 45.0332L81.3851 62.8504L98.6455 72.3158L129.826 84.5651L146.589 98.5199L155.832 126.668L142.075 117.416L123.144 120.756L101.429 139.13L99.759 164.742L90.8505 182.003L75.8172 189.798L58 195.366L78.0444 199.82L97.5319 192.582L110.895 170.31L113.122 144.313L132.053 127.994L155.832 129.665L154.151 154.816L157.544 179.182L159.193 201.448L155.832 236.738L157.544 273.708C157.544 273.708 153.311 307.318 157.544 367.691L160.187 370.863Z" fill="#AEC767"/>
<mask id="mask1_2519_160" style="mask-type:alpha" maskUnits="userSpaceOnUse" x="58" y="30" width="201" height="341">
<path d="M160.187 370.863C160.187 363.193 167.595 306.057 167.595 298.495C167.595 285.041 165.915 245.561 165.915 245.561L170.116 203.969L168.306 174.981L165.915 156.076L191.072 158.618L208.332 170.31L218.911 193.695L237.285 205.945L259 203.969L241.74 199.82L227.82 189.798L218.911 164.742L197.197 149.709L174.925 146.925L165.915 152.493L168.306 122.887L157.544 94.5873H174.925L191.072 103.496L204.435 126.668L227.82 136.346L245.637 127.994L227.82 126.668L210.003 117.416L197.197 96.2576L178.266 84.5651H159.193L155.832 91.2465L134.28 74.5429L105.327 66.7479L88.6233 56.7258L77.4876 41.6925L66.9086 30L69.1358 45.0332L81.3851 62.8504L98.6455 72.3158L129.826 84.5651L146.589 98.5199L155.832 126.668L142.075 117.416L123.144 120.756L101.429 139.13L99.759 164.742L90.8505 182.003L75.8172 189.798L58 195.366L78.0444 199.82L97.5319 192.582L110.895 170.31L113.122 144.313L132.053 127.994L155.832 129.665L154.151 154.816L157.544 179.182L159.193 201.448L155.832 236.738L157.544 273.708C157.544 273.708 153.311 307.318 157.544 367.691L160.187 370.863Z" fill="#AEC767"/>
</mask>
<g mask="url(#mask1_2519_160)">
<path d="M160.873 154.395L179.936 151.936L197.754 156.391L215.014 170.31L222.252 189.241L238.399 202.604L265.681 205.388L226.15 213.183L160.873 156.391L166.335 185.484L162.554 227.496V305.217C160.087 312.089 152.638 335.553 152.849 345.491C153.113 357.912 155.492 370.334 154.171 368.22C152.849 366.105 135.22 296.077 123.063 288.413C137.84 289.911 141.816 291.268 153.731 288.413C152.164 282.927 138.539 253.063 138.607 223.715L51.8754 196.479L92.5208 189.241L104.77 167.526L107.554 141.357L126.485 123.54L139.848 122.983L155.438 126.881C156.232 124.467 149.826 110.313 137.608 98.4848L105.558 81.4454C94.1622 76.6538 82.7963 71.7548 75.8172 65.6344C58.3581 50.3235 64.6814 28.3297 64.6814 28.3297L84.169 58.953L104.77 70.6455L132.609 80.1109L151.54 95.7009L160.873 123.54V154.395Z" fill="#94A958"/>
<path d="M162.554 90.133L157.665 95.7009L182.72 117.416L222.252 144.698L252.319 126.881L226.15 131.892L206.662 122.983L193.856 100.712L174.925 90.133H162.554Z" fill="#94A958"/>
</g>
<path d="M129.312 66.952L126.323 71.7093L130.023 70.3878" stroke="white" stroke-width="0.840233"/>
<path d="M91.9886 56L89 60.7573L92.7001 59.4358" stroke="white" stroke-width="0.840233"/>
<path d="M180.989 85L178 89.7573L181.7 88.4358" stroke="white" stroke-width="0.840233"/>
<path d="M208.989 116L206 120.757L209.7 119.436" stroke="white" stroke-width="0.840233"/>
<path d="M232.989 126L230 130.757L233.7 129.436" stroke="white" stroke-width="0.840233"/>
<path d="M155.039 84.2358L152.051 88.9931L155.751 87.6716" stroke="white" stroke-width="0.840233"/>
<path d="M167.643 107.762L164.654 112.52L168.354 111.198" stroke="white" stroke-width="0.840233"/>
<path d="M194.989 147L192 151.757L195.7 150.436" stroke="white" stroke-width="0.840233"/>
<path d="M217.989 164L215 168.757L218.7 167.436" stroke="white" stroke-width="0.840233"/>
<path d="M228.989 187L226 191.757L229.7 190.436" stroke="white" stroke-width="0.840233"/>
<path d="M153.02 246.401L157.092 249.762L152.051 248.828" stroke="white" stroke-width="0.840233"/>
<path d="M155.541 220.354L159.613 223.714L154.572 222.781" stroke="white" stroke-width="0.840233"/>
<path d="M158.062 194.307L162.134 197.667L157.092 196.734" stroke="white" stroke-width="0.840233"/>
<path d="M153.86 160.697L157.932 164.058L152.891 163.124" stroke="white" stroke-width="0.840233"/>
<path d="M153.02 132.969L157.092 136.33L152.051 135.397" stroke="white" stroke-width="0.840233"/>
<path d="M137.12 111.729L137.184 116.196L135.011 112.513" stroke="white" stroke-width="0.840233"/>
<path d="M102.671 134.415L102.735 138.883L100.562 135.199" stroke="white" stroke-width="0.840233"/>
<path d="M125.715 123.606L125.778 128.073L123.606 124.389" stroke="white" stroke-width="0.840233"/>
<path d="M100.715 168.606L100.778 173.073L98.6057 169.389" stroke="white" stroke-width="0.840233"/>
<path d="M72.7147 189.606L72.7785 194.073L70.6057 190.389" stroke="white" stroke-width="0.840233"/>
<path d="M171.085 131.289L166.335 135.49L172.216 134.323" stroke="white" stroke-width="0.840233"/>
<path d="M72.8485 42.8778C66.5079 40.2822 53.909 48.3965 53.7596 39.7469C52.8477 44.7544 52.6807 44.4733 56.0945 47.7597C47.733 44.9404 46.2918 46.6647 46.2918 46.6647C46.2918 46.6647 47.9885 47.6328 54.5458 50.5819C52.0209 50.6091 50.9036 51.6432 48.8389 55.4059C57.4595 49.7328 54.8463 57.6069 61.5841 61.1756C68.2235 64.6921 75.0878 64.4112 79.3462 60.3933C83.6046 56.3755 80.7743 46.1223 72.8485 42.8778Z" fill="#EE5A7A"/>
<path d="M77 54.9999C79 53.9829 79.1941 52.5107 81.5 54.9999C80.5 71.5 58.3338 64.7921 55.5 54C59.8238 60.3344 61.9927 60.7948 65.6254 61.5659L65.6506 61.5712C63.7028 59.8628 62.5578 57.0319 61.8589 53.9829C63.8818 55.5009 65.0447 57.3222 67.7153 57.8084C71.0536 58.4163 74.3814 60.0324 72.5 59C70.9949 58.1741 69.5 53.9829 69.5 52.5C72.5 54.9999 74.1306 56.459 77 54.9999Z" fill="#E04163"/>
<path d="M76.2793 175.032C70.4744 171.392 56.676 177.239 58.0042 168.69C56.2515 173.469 56.1349 173.163 58.938 176.984C51.18 172.78 49.4658 174.233 49.4658 174.233C49.4658 174.233 50.9725 175.476 56.9307 179.501C54.4381 179.097 53.1608 179.925 50.4845 183.281C59.9465 179.161 56.0284 186.474 62.0588 191.14C68.001 195.737 74.8127 196.631 79.6941 193.399C84.5754 190.166 83.5355 179.58 76.2793 175.032Z" fill="#EE5A7A"/>
<path d="M78.3022 187.684C80.4463 187.023 80.8887 185.606 82.7362 188.452C78.9364 204.539 58.2393 194.149 57.2879 183.032C60.4678 190.011 62.5264 190.834 65.9743 192.214L65.9982 192.223C64.3704 190.208 63.725 187.223 63.5565 184.099C65.2908 185.94 66.126 187.933 68.6745 188.868C71.8602 190.036 74.8635 192.196 73.1858 190.858C71.8436 189.788 71.0856 185.403 71.3385 183.942C73.8681 186.917 75.226 188.632 78.3022 187.684Z" fill="#E04163"/>
<path d="M224.634 109.905C229.733 105.329 244.326 108.736 241.559 100.54C244.101 104.949 244.164 104.628 242.054 108.871C248.981 103.405 250.918 104.544 250.918 104.544C250.918 104.544 249.645 106.027 244.461 111.008C246.848 110.185 248.248 110.783 251.457 113.633C241.431 111.188 246.539 117.725 241.393 123.351C236.322 128.895 229.763 130.938 224.402 128.585C219.041 126.233 218.26 115.625 224.634 109.905Z" fill="#EE5A7A"/>
<path d="M224.799 122.717C222.573 122.432 221.895 121.11 220.56 124.23C227.049 139.434 245.67 125.665 244.711 114.548C242.768 121.968 240.88 123.13 237.718 125.078L237.696 125.091C238.957 122.827 239.083 119.776 238.717 116.67C237.322 118.779 236.839 120.886 234.487 122.241C231.547 123.936 228.956 126.577 230.381 124.972C231.521 123.688 231.52 119.238 231.022 117.842C229.037 121.205 227.991 123.127 224.799 122.717Z" fill="#E04163"/>
<path d="M233.92 183.197C238.164 177.819 253.125 178.686 249 171.082C252.257 174.993 252.264 174.666 250.909 179.207C256.802 172.639 258.905 173.432 258.905 173.432C258.905 173.432 257.904 175.109 253.645 180.902C255.857 179.684 257.338 180.035 260.987 182.295C250.691 181.596 256.839 187.166 252.728 193.588C248.677 199.915 242.562 203.047 236.878 201.643C231.194 200.24 228.615 189.921 233.92 183.197Z" fill="#EE5A7A"/>
<path d="M236.268 195.794C234.027 195.892 233.133 194.706 232.35 198.007C241.337 211.881 257.337 195.138 254.496 184.348C253.847 191.99 252.185 193.457 249.401 195.916L249.382 195.933C250.237 193.487 249.842 190.459 248.951 187.461C247.936 189.777 247.819 191.935 245.733 193.672C243.126 195.843 241.023 198.887 242.154 197.063C243.058 195.604 242.298 191.219 241.568 189.928C240.186 193.58 239.484 195.653 236.268 195.794Z" fill="#E04163"/>
</svg>
