<svg width="317" height="463" viewBox="0 0 317 463" fill="none" xmlns="http://www.w3.org/2000/svg">
<rect y="291" width="317" height="172" fill="#E3AD6F"/>
<path d="M139.447 305.372V112.959C144.825 103.548 153.171 109.037 156.672 112.959C155.972 178.217 153.563 309.573 149.53 312.934C145.497 316.295 141.128 309.293 139.447 305.372Z" fill="#B78144"/>
<mask id="mask0_2519_49" style="mask-type:alpha" maskUnits="userSpaceOnUse" x="139" y="107" width="18" height="207">
<path d="M139.447 305.372V112.959C144.825 103.548 153.171 109.037 156.672 112.959C155.972 178.217 153.563 309.573 149.53 312.934C145.497 316.295 141.128 309.293 139.447 305.372Z" fill="#B78144"/>
</mask>
<g mask="url(#mask0_2519_49)">
<path d="M131.045 305.372V112.959C136.422 103.548 144.769 109.037 148.27 112.959C147.57 178.217 145.161 309.573 141.128 312.934C137.095 316.295 132.725 309.293 131.045 305.372Z" fill="#9F6B2F"/>
</g>
<path d="M152.377 372.801C154.733 368.387 156.892 368.145 158.021 366.593L159.009 368.145C156.61 368.991 153.412 373.183 152.941 374.212C152.072 376.113 153.788 383.949 147.861 386.065C153.647 382.396 150.177 376.921 152.377 372.801Z" fill="#F9ECC9"/>
<path d="M165.999 369.831C161.889 366.977 159.857 367.745 158.145 366.879L157.973 368.711C158.165 368.685 158.37 368.674 158.585 368.676C159.902 369.628 162.734 372.237 163.524 375.059C164.314 377.881 167.616 379.339 169.168 379.715C167.945 379.292 165.302 377.684 164.512 374.636C163.722 371.588 160.89 369.452 159.573 368.765C162.13 369.161 165.417 370.773 166.14 371.344C167.781 372.639 169.827 380.395 176.066 379.576C169.244 378.949 169.836 372.494 165.999 369.831Z" fill="#F9ECC9"/>
<path d="M160.187 370.863C160.187 363.193 167.595 306.057 167.595 298.495C167.595 285.041 165.915 245.561 165.915 245.561L170.116 203.969L168.306 174.981L165.915 156.076L191.072 158.618L208.332 170.31L218.911 193.695L237.285 205.945L259 203.969L241.74 199.82L227.82 189.798L218.911 164.742L197.197 149.709L174.925 146.925L165.915 152.493L168.306 122.887L157.544 94.5873H174.925L191.072 103.496L204.435 126.668L227.82 136.346L245.637 127.994L227.82 126.668L210.003 117.416L197.197 96.2576L178.266 84.5651H159.193L155.832 91.2465L134.28 74.5429L105.327 66.7479L88.6233 56.7258L77.4875 41.6925L66.9086 30L69.1357 45.0332L81.385 62.8504L98.6454 72.3158L129.825 84.5651L146.589 98.5199L155.832 126.668L142.075 117.416L123.144 120.756L101.429 139.13L99.759 164.742L90.8504 182.003L75.8172 189.798L58 195.366L78.0443 199.82L97.5319 192.582L110.895 170.31L113.122 144.313L132.053 127.994L155.832 129.665L154.151 154.816L157.544 179.182L159.193 201.448L155.832 236.738L157.544 273.708C157.544 273.708 153.311 307.318 157.544 367.691L160.187 370.863Z" fill="#AEC767"/>
<mask id="mask1_2519_49" style="mask-type:alpha" maskUnits="userSpaceOnUse" x="58" y="30" width="201" height="341">
<path d="M160.187 370.863C160.187 363.193 167.595 306.057 167.595 298.495C167.595 285.041 165.915 245.561 165.915 245.561L170.116 203.969L168.306 174.981L165.915 156.076L191.072 158.618L208.332 170.31L218.911 193.695L237.285 205.945L259 203.969L241.74 199.82L227.82 189.798L218.911 164.742L197.197 149.709L174.925 146.925L165.915 152.493L168.306 122.887L157.544 94.5873H174.925L191.072 103.496L204.435 126.668L227.82 136.346L245.637 127.994L227.82 126.668L210.003 117.416L197.197 96.2576L178.266 84.5651H159.193L155.832 91.2465L134.28 74.5429L105.327 66.7479L88.6233 56.7258L77.4875 41.6925L66.9086 30L69.1357 45.0332L81.385 62.8504L98.6454 72.3158L129.825 84.5651L146.589 98.5199L155.832 126.668L142.075 117.416L123.144 120.756L101.429 139.13L99.759 164.742L90.8504 182.003L75.8172 189.798L58 195.366L78.0443 199.82L97.5319 192.582L110.895 170.31L113.122 144.313L132.053 127.994L155.832 129.665L154.151 154.816L157.544 179.182L159.193 201.448L155.832 236.738L157.544 273.708C157.544 273.708 153.311 307.318 157.544 367.691L160.187 370.863Z" fill="#AEC767"/>
</mask>
<g mask="url(#mask1_2519_49)">
<path d="M160.873 154.395L179.936 151.936L197.753 156.391L215.014 170.31L222.252 189.241L238.399 202.604L265.681 205.388L226.15 213.183L160.873 156.391L166.335 185.484L162.554 227.496V305.217C160.087 312.089 152.638 335.553 152.849 345.491C153.113 357.912 155.492 370.334 154.171 368.22C152.849 366.105 135.22 296.077 123.063 288.413C137.84 289.911 141.816 291.268 153.731 288.413C152.164 282.927 138.539 253.063 138.607 223.715L51.8754 196.479L92.5208 189.241L104.77 167.526L107.554 141.357L126.485 123.54L139.848 122.983L155.438 126.881C156.232 124.467 149.826 110.313 137.608 98.4848L105.558 81.4454C94.1622 76.6538 82.7963 71.7548 75.8172 65.6344C58.358 50.3235 64.6814 28.3297 64.6814 28.3297L84.169 58.953L104.77 70.6455L132.609 80.1109L151.54 95.7009L160.873 123.54V154.395Z" fill="#94A958"/>
<path d="M162.554 90.133L157.665 95.7009L182.72 117.416L222.252 144.698L252.319 126.881L226.15 131.892L206.662 122.983L193.856 100.712L174.925 90.133H162.554Z" fill="#94A958"/>
</g>
<path d="M129.312 66.952L126.323 71.7093L130.023 70.3878" stroke="white" stroke-width="0.840233"/>
<path d="M91.9885 56L89 60.7573L92.7001 59.4358" stroke="white" stroke-width="0.840233"/>
<path d="M180.989 85L178 89.7573L181.7 88.4358" stroke="white" stroke-width="0.840233"/>
<path d="M208.989 116L206 120.757L209.7 119.436" stroke="white" stroke-width="0.840233"/>
<path d="M232.989 126L230 130.757L233.7 129.436" stroke="white" stroke-width="0.840233"/>
<path d="M155.039 84.2358L152.051 88.9931L155.751 87.6716" stroke="white" stroke-width="0.840233"/>
<path d="M167.643 107.762L164.654 112.52L168.354 111.198" stroke="white" stroke-width="0.840233"/>
<path d="M194.989 147L192 151.757L195.7 150.436" stroke="white" stroke-width="0.840233"/>
<path d="M217.989 164L215 168.757L218.7 167.436" stroke="white" stroke-width="0.840233"/>
<path d="M228.989 187L226 191.757L229.7 190.436" stroke="white" stroke-width="0.840233"/>
<path d="M153.02 246.401L157.092 249.762L152.051 248.828" stroke="white" stroke-width="0.840233"/>
<path d="M155.541 220.354L159.613 223.714L154.572 222.781" stroke="white" stroke-width="0.840233"/>
<path d="M158.062 194.307L162.134 197.667L157.092 196.734" stroke="white" stroke-width="0.840233"/>
<path d="M153.86 160.697L157.932 164.058L152.891 163.124" stroke="white" stroke-width="0.840233"/>
<path d="M153.02 132.969L157.092 136.33L152.051 135.397" stroke="white" stroke-width="0.840233"/>
<path d="M137.12 111.729L137.184 116.196L135.011 112.513" stroke="white" stroke-width="0.840233"/>
<path d="M102.671 134.415L102.735 138.883L100.562 135.199" stroke="white" stroke-width="0.840233"/>
<path d="M125.715 123.606L125.778 128.073L123.606 124.389" stroke="white" stroke-width="0.840233"/>
<path d="M100.715 168.606L100.778 173.073L98.6056 169.389" stroke="white" stroke-width="0.840233"/>
<path d="M72.7147 189.606L72.7785 194.073L70.6058 190.389" stroke="white" stroke-width="0.840233"/>
<path d="M171.085 131.289L166.335 135.49L172.216 134.323" stroke="white" stroke-width="0.840233"/>
<path d="M245.119 106.924C242.322 107.766 235.144 115.262 231.904 118.905C226.833 123.737 231.668 124.412 234.719 124.145C239.95 122.379 250.956 118.628 253.133 117.75C255.31 116.872 255.369 113.285 255.126 111.601L251.568 112.441L253.188 109.333L249.393 110.229L252.437 106.784C251.163 106.48 247.916 106.081 245.119 106.924Z" fill="#FFFEFE"/>
<path d="M231.053 118.836C234.586 116.025 234.488 110.637 233.997 108.294C241.456 108.294 238.741 114.81 237.187 117.518C241.957 114.193 244.545 112.799 248.964 111.369C247.144 115.52 244.959 117.515 239.395 120.593C240.704 120.227 243.517 118.836 247.246 118.836C250.976 118.836 253.871 122.789 254.852 124.766C254.116 124.546 251.368 123.755 246.265 122.35C239.886 120.593 231.053 130.037 227.618 128.28C224.183 126.523 226.637 122.35 231.053 118.836Z" fill="#CBE67D"/>
<path d="M253.119 176.924C250.322 177.766 243.144 185.262 239.904 188.905C234.833 193.737 239.668 194.412 242.719 194.145C247.95 192.379 258.956 188.628 261.133 187.75C263.31 186.872 263.369 183.285 263.126 181.601L259.568 182.441L261.188 179.333L257.393 180.229L260.437 176.784C259.163 176.48 255.916 176.081 253.119 176.924Z" fill="#FFFEFE"/>
<path d="M239.053 188.836C242.586 186.025 242.488 180.637 241.997 178.294C249.456 178.294 246.741 184.81 245.187 187.518C249.957 184.193 252.545 182.799 256.964 181.369C255.144 185.52 252.959 187.515 247.395 190.593C248.704 190.227 251.517 188.836 255.246 188.836C258.976 188.836 261.871 192.789 262.852 194.766C262.116 194.546 259.368 193.755 254.265 192.35C247.886 190.593 239.053 200.037 235.618 198.28C232.183 196.523 234.637 192.35 239.053 188.836Z" fill="#CBE67D"/>
<path d="M63.136 167.924C65.9327 168.766 73.1111 176.262 76.3507 179.905C81.4218 184.737 76.5875 185.412 73.5365 185.145C68.3054 183.379 57.2991 179.628 55.122 178.75C52.9448 177.872 52.8862 174.285 53.1291 172.601L56.6875 173.441L55.0667 170.333L58.8623 171.229L55.8181 167.784C57.0922 167.48 60.3394 167.081 63.136 167.924Z" fill="#FFFEFE"/>
<path d="M77.2021 179.836C73.669 177.025 73.7672 171.637 74.2579 169.294C66.7991 169.294 69.5144 175.81 71.0683 178.518C66.2979 175.193 63.7103 173.799 59.2914 172.369C61.111 176.52 63.2959 178.515 68.8601 181.593C67.5516 181.227 64.7382 179.836 61.0089 179.836C57.2795 179.836 54.3844 183.789 53.403 185.766C54.139 185.546 56.887 184.755 61.9903 183.35C68.3694 181.593 77.2021 191.037 80.637 189.28C84.0719 187.523 81.6184 183.35 77.2021 179.836Z" fill="#CBE67D"/>
<path d="M66.136 39.9236C68.9327 40.7661 76.1111 48.262 79.3507 51.9046C84.4218 56.7371 79.5875 57.4119 76.5365 57.1453C71.3054 55.3793 60.2991 51.6278 58.122 50.7499C55.9448 49.8721 55.8862 46.2845 56.1291 44.6005L59.6875 45.4413L58.0667 42.3326L61.8623 43.2295L58.8181 39.7845C60.0922 39.4798 63.3394 39.0811 66.136 39.9236Z" fill="#FFFEFE"/>
<path d="M80.2021 51.836C76.669 49.0249 76.7672 43.6369 77.2579 41.2943C69.7991 41.2943 72.5144 47.8097 74.0683 50.5183C69.2979 47.1931 66.7103 45.7985 62.2914 44.369C64.111 48.5197 66.2959 50.5147 71.8601 53.593C70.5516 53.2269 67.7382 51.836 64.0089 51.836C60.2795 51.836 57.3844 55.7892 56.403 57.7657C57.139 57.5461 59.887 56.7555 64.9903 55.3499C71.3694 53.593 80.2021 63.0366 83.637 61.2796C87.0719 59.5227 84.6184 55.3499 80.2021 51.836Z" fill="#CBE67D"/>
</svg>
