<svg width="317" height="463" viewBox="0 0 317 463" fill="none" xmlns="http://www.w3.org/2000/svg">
<rect y="291" width="317" height="172" fill="#E3AD6F"/>
<path d="M149.059 325C148.059 305 160.059 240.5 168.559 219C158.344 269.5 152.089 334.667 157.256 339L157.256 347.5C155.923 346.5 150.059 345 149.059 325Z" fill="#CDE58A"/>
<path d="M140.787 346.649C151.493 341.295 155.194 347.937 157.196 351.532L157.211 351.56L154.852 351.912C152.003 344.302 143.113 347.508 136.277 351.206C135.305 352.912 133.791 356.441 134.217 359C134.717 362 138.884 364 140.217 364.5C138.884 364.5 134.917 362.7 133.717 361.5C133.717 364.5 134.717 367 137.217 371.5C135.717 369.5 132.576 366.999 132.217 360C132.035 356.453 133.089 353.809 133.781 352.621C132.637 353.297 131.598 353.945 130.717 354.5C127.996 356.212 123.959 358.657 122.717 362C121.114 366.315 122.703 371.453 122.717 371.5C122.7 371.481 121.169 369.711 120.717 367C120.263 364.274 121.438 361.536 121.438 361.536C121.438 361.536 111.717 368.5 119.438 378C118.527 377.349 113.074 373.911 115.717 366.5C118.355 359.103 135.115 350.706 135.181 350.674C135.156 350.677 130.453 351.373 127.051 350.495C124.739 349.898 119.86 346.43 119.438 344.689C122.501 347.24 130.054 352.018 140.787 346.649Z" fill="#F9ECC9"/>
<path d="M173.528 237.5C161.928 241.5 163.028 248 163.028 249.5C163.028 251.109 175.528 252.5 181.028 246.5C185.428 241.7 189.528 233.5 191.028 230C190.195 230.167 185.128 233.5 173.528 237.5Z" fill="#AEC767"/>
<path d="M179 242C170.6 248.4 164.833 250.333 163 250.5C164 252 173.5 254 180.5 248.5C187.5 243 191 231 191 231C191 231 187.4 235.6 179 242Z" fill="#93AE48"/>
<path d="M177.528 212C165.928 216 167.028 220 167.028 221.5C167.028 223.109 178.528 222 184.028 216C188.428 211.2 193.528 205.5 195.028 202C194.195 202.167 189.128 208 177.528 212Z" fill="#AEC767"/>
<path d="M183.028 213C174.628 219.4 168.861 221.333 167.028 221.5C168.028 223 176.028 222.5 183.028 217C190.028 211.5 195.028 202 195.028 202C195.028 202 191.428 206.6 183.028 213Z" fill="#93AE48"/>
<path d="M150.5 237.5C161.022 243.813 160.412 249.058 160 250.5C159 254 147.458 252.5 141.5 246C137.1 241.2 133.5 234.5 132 231C132.833 231.167 140.5 231.5 150.5 237.5Z" fill="#AEC767"/>
<path d="M144 242C152.4 248.4 158.167 250.333 160 250.5C159.5 253 150.5 253.5 143.5 248C136.5 242.5 132 231 132 231C132 231 135.6 235.6 144 242Z" fill="#93AE48"/>
<path d="M172.98 325.805C166.194 324.822 160.057 328.842 157.825 334.311C156.857 336.684 156.256 340.273 155.885 343.697C155.343 348.692 154.781 353.082 154.781 353.082L162.898 351.814L167.21 351.57C171.886 350.308 176.802 348.15 179.639 344.458C185.43 336.921 182.683 327.209 172.98 325.805Z" fill="#F5EA93"/>
<path d="M182.683 335.326C180.4 339.131 175.327 346.233 168.985 347.755C159.416 350.052 157.317 352.575 154.781 353.082C157.507 353.082 161.883 351.56 167.21 351.56C167.21 351.56 171.393 350.337 173.298 349.42C178.624 346.855 183.19 341.921 182.683 335.326Z" fill="#EDDFB9" style="mix-blend-mode:multiply"/>
</svg>
