<svg width="317" height="463" viewBox="0 0 317 463" fill="none" xmlns="http://www.w3.org/2000/svg">
<g clip-path="url(#clip0_2398_252)">
<rect y="291" width="317" height="172" fill="#E3AD6F"/>
<path d="M124 51.4999C121.333 46.8332 120.195 39.7257 129.5 33.9999C135.449 30.3391 142.793 33.5188 144.252 35.4897C142.124 30.1577 148.976 15.5986 163 18.5001C177.5 21.5001 178 33.5001 175.5 41.0001C183.333 36.8335 195.02 33.9999 203 44.4999C209.5 53.0527 207 65.8332 200.5 68.9999C203.5 67.8332 208.5 66.4999 213 70.9999C216.797 74.7968 215.491 80.1362 213.89 82.8133C217.762 77.9165 224.542 72.5602 233 73.4999C242 74.4999 243.833 83.3332 243.5 86.4999C246.166 84.1665 254.252 76.5014 264 83.9999C270.5 88.9999 265.833 97.1665 265 99.4999C267.833 99.4999 272.769 103.5 272 108.5C271 115 264 115.667 257.5 115.5C262 117.333 270.3 123.4 267.5 133C264.7 142.6 254.666 143.333 250 142.5C250.166 148 246.2 158.9 229 158.5C211.8 158.1 198.166 158.333 193.5 158.5C196.333 161.333 200.3 167.9 193.5 171.5C185 176 113.5 177.5 111.5 168C110.035 161.043 113.208 158.862 115.417 158.543C102.055 159.501 75.8649 159.49 73.4998 152C71.0998 144.4 74.8331 140.833 76.9998 140C64.4998 140.667 48.8314 140.712 46.4998 127.5C45.3208 120.819 52.1735 116.506 55.6458 115.533C49.7026 115.547 38.9997 114.668 38.9998 107.5C38.9998 101.966 43.9998 97.6665 48.9998 95.9999C46.9998 92.5001 47.9998 88.2694 54.9998 84.5001C61.9998 80.7309 71.4998 82.0001 73.4998 85.5001C72.6665 80.6668 81.1998 67.8001 89.9998 67.0001C97.4635 66.3216 102.817 70.8704 105.389 74.3012C98.6945 62.6543 105.906 44.8338 124 51.4999Z" fill="#AEC767"/>
<path d="M55.9999 125C52.3999 134.6 68.8333 138.666 77.5 139.5C69.4999 144 70.4577 155 79.4999 157C87.4577 158.5 100.5 159.5 115 158.5C111.5 160 106 164.4 112 170C119.5 177 177 176 190.5 172.5C200.634 169.873 197.167 162.667 194 158.5C206.333 158.667 219.5 159 231.5 158.5C243.5 158 245.5 143 240.5 140.5C243 137 254 133.5 249.5 125C246.323 119 233.333 118.833 227 122C231.5 118.333 231 108.5 223.5 105.5C213.521 101.508 193 108 193 108C193 108 200.5 97.4996 193 89.9997C184.146 81.1454 174.833 84.6667 171 88C173 83 167.631 71 158.749 71C142.249 71 139.667 85.1665 140.5 88.9999C132 84.5 125.5 85.5 119.5 89.9997C113.842 94.2426 113.5 105.5 115.5 113.5C112.167 108.167 100.4 94.7997 87.9999 99.9997C75.5999 105.2 81.1666 113.166 85.4999 116.5C77.1666 115.333 59.5999 115.4 55.9999 125Z" fill="#93AE48"/>
<path d="M151.3 324.741C150.237 322.267 148.802 318.795 147.819 305.823C147.371 299.909 148.641 172.765 148.754 170.928C148.866 169.092 139.313 153.662 126.513 141.983L98.5607 135.724L121.314 137.895C107.33 127.928 78.8447 112.855 72.7063 110.836C76.1541 110.119 95.525 118.922 110.923 126.873L105.695 110L116.704 129.918C123.11 133.368 128.144 136.356 129.911 137.895C136.048 143.241 146.811 153.472 149.5 160.906C149.788 157.035 150.948 146.204 152.141 133.758C148.928 129.227 140.6 119.231 133 115.5C125.4 111.769 121.167 109.279 120 108.5L137.5 115.5L136 105L141 118.5L152.505 129.918C153.251 121.958 153.977 113.578 154.476 106.09C153.952 103.713 154.107 100.097 147.83 89.2527C141.553 78.4083 129.854 70.7023 129.854 70.7023C129.854 70.7023 142.54 77.8831 146.678 83.28C150.817 88.6768 153.417 92.6122 155.12 96.5703C156.823 100.528 158.765 47.0235 160.135 41.9257C159.534 48.936 159.102 63.7118 158.823 81.9718L180.059 58.426C174.6 65.0665 163.184 79.4604 161.199 83.9122C159.215 88.3639 158.68 92.8122 158.66 94.4799C158.513 107.991 158.439 117.534 158.431 125.5L174.5 112L186 96L178.5 110L195.5 101.776C188.833 105.799 174.4 115.21 170 120.672C165.6 126.134 160.466 131.672 158.449 133.758C158.502 143.456 158.671 151.864 158.935 164.996C162.418 160.073 172.623 147.843 185.586 138.312C190.711 134.544 201.297 127.676 212.45 120.672L227.5 96.5703L218 117.204C233.289 107.696 248.128 98.8434 250.089 98.1643C237.923 106.481 221.534 118.202 206.862 129.234L224.857 128.778C229.855 128.651 241.71 129.375 243.389 129.844C237.228 130.167 222.414 131.176 212.45 132.629C202.486 134.082 199.012 135.201 198.52 135.578C186.59 144.765 176.817 152.837 173.059 157.135C164.115 167.365 159.303 179.491 159.455 188.99C160.597 238.89 161.891 308.467 159.695 320.527C157.5 332.586 152.363 327.214 151.3 324.741Z" fill="#C0880E"/>
<path d="M160.939 305.336C161.12 314.362 156.723 349.599 155.351 370.286C157.784 373.554 160.942 376.842 164.305 378.269C170.794 381.023 179.955 375.289 182.613 373.279C180.932 375.912 172.414 381.501 168.556 382.375C174.415 386.116 180.558 387.259 192.499 387.934C186.702 388.402 177.856 391.487 163.735 383.467C159.943 381.314 157.085 378.791 155.019 376.473C154.985 377.412 154.961 378.293 154.951 379.11C154.863 386.621 150.985 400.456 155.947 407.079C162.38 415.666 174.498 418.926 174.498 418.926C174.498 418.926 169.083 419.767 163.187 417.265C157.309 414.77 153.449 409.06 153.427 409.027C153.427 409.027 154.764 436.911 183.053 433.509C180.634 434.495 167.042 440.979 155.903 426.517C144.764 412.054 149.551 368.336 149.551 368.336C149.551 368.336 144.967 378.532 138.947 384.171C134.866 387.992 121.939 393.305 118.007 391.969C137.849 385.08 148.547 373.58 148.862 344.186C149.176 314.792 148.039 313.661 147.851 304.322L160.939 305.336Z" fill="url(#paint0_linear_2398_252)"/>
<circle cx="138" cy="77" r="2" fill="#FFFF3F"/>
<circle cx="160" cy="66" r="2" fill="#FFFF3F"/>
<circle cx="162" cy="90" r="2" fill="#FFFF3F"/>
<circle cx="188" cy="105" r="2" fill="#FFFF3F"/>
<circle cx="224" cy="107" r="2" fill="#FFFF3F"/>
<circle cx="212" cy="129" r="2" fill="#FFFF3F"/>
<circle cx="138" cy="107" r="2" fill="#FFFF3F"/>
<circle cx="116" cy="127" r="2" fill="#FFFF3F"/>
<circle cx="90" cy="121" r="2" fill="#FFFF3F"/>
<circle cx="170" cy="121" r="2" fill="#FFFF3F"/>
<circle cx="126" cy="144" r="2" fill="#FFFF3F"/>
</g>
<defs>
<linearGradient id="paint0_linear_2398_252" x1="157.11" y1="321.015" x2="159.05" y2="306.804" gradientUnits="userSpaceOnUse">
<stop stop-color="#F9ECC9"/>
<stop offset="1" stop-color="#FFF6DD" stop-opacity="0"/>
</linearGradient>
<clipPath id="clip0_2398_252">
<rect width="317" height="463" fill="white"/>
</clipPath>
</defs>
</svg>
