<svg width="317" height="463" viewBox="0 0 317 463" fill="none" xmlns="http://www.w3.org/2000/svg">
<rect y="290.5" width="317" height="172" fill="#E3AD6F"/>
<path d="M147.207 323C146.208 303 148.708 278.5 157.208 257C146.993 307.5 152.041 339.667 157.208 344L157.208 352.5C155.874 351.5 148.207 343 147.207 323Z" fill="#CDE58A"/>
<path fill-rule="evenodd" clip-rule="evenodd" d="M140.46 352.376C148.152 343.205 154.19 347.828 157.456 350.33L157.482 350.35L155.456 351.611C149.816 345.761 142.934 352.239 138.132 358.351C137.92 360.303 137.934 364.143 139.342 366.321C140.994 368.874 145.612 369.052 147.035 368.981C145.811 369.511 141.456 369.437 139.878 368.813C141.071 371.566 142.983 373.462 147.066 376.597C144.894 375.358 141.018 374.313 137.905 368.034C136.327 364.851 136.243 362.005 136.405 360.64C135.625 361.716 134.929 362.725 134.341 363.584C132.526 366.237 129.794 370.086 129.984 373.647C130.229 378.242 133.728 382.324 133.762 382.363C133.737 382.352 131.629 381.336 130.137 379.03C128.644 376.721 128.626 373.759 128.626 373.73C128.592 373.786 122.507 384.001 133.338 389.631C132.244 389.396 125.874 388.41 125.351 380.56C124.829 372.708 136.916 358.298 136.916 358.298C136.916 358.298 132.864 360.819 129.385 361.367C127.026 361.739 121.17 360.498 120.091 359.068C123.916 360.19 132.746 361.571 140.46 352.376Z" fill="#F9ECC9"/>
<path d="M167.5 249C155.9 253 157 257 157 258.5C157 260.109 168.5 259 174 253C178.4 248.2 183.5 242.5 185 239C184.167 239.167 179.1 245 167.5 249Z" fill="#AEC767"/>
<path d="M146.5 249.5C158.1 253.5 157 257.5 157 259C157 260.609 145.5 259.5 140 253.5C135.6 248.7 130.5 243 129 239.5C129.833 239.667 134.9 245.5 146.5 249.5Z" fill="#AEC767"/>
<path d="M173 250C164.6 256.4 158.833 258.333 157 258.5C158 260 166 259.5 173 254C180 248.5 185 239 185 239C185 239 181.4 243.6 173 250Z" fill="#93AE48"/>
<path d="M141 250.5C149.4 256.9 155.167 258.833 157 259C156 260.5 148 260 141 254.5C134 249 129 239.5 129 239.5C129 239.5 132.6 244.1 141 250.5Z" fill="#93AE48"/>
<path d="M171.98 325.805C165.194 324.822 159.057 328.842 156.825 334.311C155.857 336.684 155.256 340.273 154.885 343.697C154.343 348.692 153.781 353.082 153.781 353.082L161.898 351.814L166.21 351.57C170.886 350.308 175.802 348.15 178.639 344.458C184.43 336.921 181.683 327.209 171.98 325.805Z" fill="#F5EA93"/>
<path d="M181.683 335.326C179.4 339.131 174.327 346.233 167.985 347.755C158.416 350.052 156.317 352.575 153.781 353.082C156.507 353.082 160.883 351.56 166.21 351.56C166.21 351.56 170.393 350.337 172.298 349.42C177.624 346.855 182.19 341.921 181.683 335.326Z" fill="#EDDFB9" style="mix-blend-mode:multiply"/>
</svg>
