<svg width="317" height="463" viewBox="0 0 317 463" fill="none" xmlns="http://www.w3.org/2000/svg">
<rect y="290.5" width="317" height="172" fill="#E3AD6F"/>
<path d="M147.207 323C146.207 303 148.707 278.5 157.207 257C146.993 307.5 152.04 339.667 157.207 344L157.207 352.5C155.874 351.5 148.207 343 147.207 323Z" fill="#CDE58A"/>
<path d="M140.459 352.376C148.152 343.205 154.189 347.829 157.456 350.331L157.481 350.351L155.456 351.612C148.054 343.934 138.511 357.49 134.341 363.584C132.526 366.238 129.794 370.086 129.984 373.647C130.23 378.251 133.74 382.338 133.762 382.364C133.737 382.352 131.629 381.336 130.137 379.03C128.642 376.719 128.626 373.753 128.626 373.73C128.597 373.779 122.502 383.999 133.338 389.631C132.243 389.395 125.872 388.41 125.35 380.56C124.829 372.724 136.865 358.357 136.915 358.298C136.879 358.32 132.848 360.821 129.385 361.367C127.026 361.739 121.17 360.498 120.09 359.069C123.915 360.191 132.746 361.571 140.459 352.376Z" fill="#F9ECC9"/>
<path d="M169 244C157.4 248 156.999 257 157 258.5C157 260.109 168.5 259 174 253C178.4 248.2 183.5 242.5 185 239C184.166 239.167 180.6 240 169 244Z" fill="#AEC767"/>
<path d="M146.5 246C158.1 250 157 257.5 157 259C157 260.609 145.5 259.5 140 253.5C135.6 248.7 130.5 243 129 239.5C129.833 239.667 134.9 242 146.5 246Z" fill="#AEC767"/>
<path d="M170.5 249.5C165 252.5 159.5 255 157 258.5C158 260 166 259.5 173 254C180 248.5 185 239 185 239C185 239 179.77 244.443 170.5 249.5Z" fill="#93AE48"/>
<path d="M142.5 250C148.5 253 154 256 157 259C156 260.5 148 260 141 254.5C134 249 129 239.5 129 239.5C129 239.5 133.055 245.277 142.5 250Z" fill="#93AE48"/>
<path d="M168.469 333.029C159.805 331.775 153.883 335.118 150.334 341.773C145.152 351.488 149.038 360.879 160.373 361.539C166.342 359.929 172.619 357.173 176.241 352.46C183.634 342.838 180.857 334.822 168.469 333.029Z" fill="#766F68"/>
<path d="M180.127 340.801C177.212 345.659 171.889 352.33 163.935 356.346C159.725 358.471 156.811 358.613 152.277 358.795C154.868 360.232 156.163 361.203 160.373 361.527C160.373 361.527 165.713 359.966 168.145 358.795C174.946 355.521 180.775 349.221 180.127 340.801Z" fill="#A39D8B" style="mix-blend-mode:multiply"/>
</svg>
