<svg width="317" height="463" viewBox="0 0 317 463" fill="none" xmlns="http://www.w3.org/2000/svg">
<rect y="291" width="317" height="172" fill="#E3AD6F"/>
<path d="M132.5 328.5C128 333.5 131 349.5 138 360C108 337 138.372 299.5 143.5 336.5L142.5 342C141.167 341 137 323.5 132.5 328.5Z" fill="#CDE58A"/>
<path d="M126.502 371.435C134.852 355.795 145.713 357.738 151.186 360.356L147.493 364.049C135.675 358.878 128.17 380.391 126.502 384.037L126.465 384.118C123.336 390.959 112.662 414.297 126.502 420.182C124.849 420.175 117.949 416.489 116.472 407.626C114.994 398.763 122.038 379.795 126.502 371.435Z" fill="#F9ECC9"/>
<path d="M165.867 323.397C152.491 321.461 143.347 326.622 137.867 336.897C129.867 351.897 135.867 366.397 153.367 367.416C162.584 364.93 172.275 360.675 177.867 353.397C189.282 338.542 184.994 326.166 165.867 323.397Z" fill="#766F68"/>
<path d="M183.867 335.397C179.367 342.897 171.148 353.197 158.867 359.397C152.367 362.679 147.867 362.897 140.867 363.179C144.867 365.397 146.867 366.897 153.367 367.397C153.367 367.397 161.612 364.987 165.367 363.179C175.867 358.123 184.867 348.397 183.867 335.397Z" fill="#A39D8B" style="mix-blend-mode:multiply"/>
</svg>
