<svg width="317" height="463" viewBox="0 0 317 463" fill="none" xmlns="http://www.w3.org/2000/svg">
<rect y="291" width="317" height="172" fill="#E3AD6F"/>
<path d="M158 320C157 317.5 153.642 331.5 155.5 301.5C157.358 271.5 163 143.5 163 143.5C163 143.5 166.29 319.707 163 320C159.71 320.292 159 322.5 158 320Z" fill="#CDE58A"/>
<path d="M163.763 308.271C163.89 312.606 162.531 325.534 161.396 337.827C162.78 340.365 166.806 345.074 177.5 349C189.5 353.406 202.113 350.284 204 349C202.501 353 179.753 352.555 177 353C178 356 186.501 363.642 194 366.5C188 366.5 179.721 361.008 172 352C169 348.5 162.712 346.931 161 343L160.999 342.228C160.404 349 159.944 355.216 159.931 359.222C159.913 364.43 159.914 373.696 163.5 378.5C168.151 384.728 180.001 387.5 180.001 387.5C180.001 387.5 172.23 386.483 168 384.5C163.794 382.528 158.954 377.059 158.903 377C158.883 377.06 154.526 390.536 173.114 406.5C173.923 407.196 167.072 404.002 159.023 393.5C150.985 383.013 154.716 352.089 154.726 352C154.702 352.024 149.26 357.346 145 361C142.107 363.482 120.821 370.091 118.001 369C124.306 367.378 155.454 360.713 155.513 334.78C155.573 308.847 154.917 314.5 154.726 308.011L163.763 308.271Z" fill="url(#paint0_linear_2417_51)"/>
<path d="M165.259 242.088C167.075 240.445 171.07 237.885 171.485 237.678V237.937L165 243.385L165.259 242.088Z" fill="#CDE58A"/>
<path d="M179.741 228.112C171.994 232.859 171.247 236.997 171.247 238.108C171.247 239.3 178.814 242.707 183.443 238.848C190.108 233.295 190.869 226.261 191.979 223.669C191.362 223.792 184.575 225.15 179.741 228.112Z" fill="#AEC767"/>
<path d="M183.073 232.036C176.854 236.775 172.584 238.206 171.226 238.329C171.967 239.44 176.644 243.936 183.678 239.493C190.712 235.051 191.959 223.891 191.959 223.891C191.959 223.891 189.293 227.297 183.073 232.036Z" fill="#93AE48"/>
<path d="M146.531 222.839C155.364 228.139 154.852 232.542 154.506 233.753C153.666 236.691 145.691 237.95 137.716 231.234C133.535 227.713 131 220.741 131 217.383C131.7 217.522 138.136 217.802 146.531 222.839Z" fill="#AEC767"/>
<path d="M141.074 226.617C148.126 231.99 152.967 233.613 154.506 233.753C154.086 235.852 146.531 237.95 138.975 232.913C131.42 227.876 131 217.383 131 217.383C131 217.383 134.022 221.244 141.074 226.617Z" fill="#93AE48"/>
<path d="M154.551 233.28L162.5 246.527V248.882L154.551 234.457V233.28Z" fill="#CDE58A"/>
<path d="M141.241 185.897L159 212.849V215L141.241 186.972V185.897Z" fill="#CDE58A"/>
<path d="M138.553 167.615C145.143 171.033 141.241 187.569 141.241 187.569C141.241 187.569 133.039 190.434 128.606 191.542C124.304 192.618 117.583 192.349 115.432 188.854C112.856 184.668 106.291 184.284 105.485 180.789C105.118 179.2 105.659 173.903 101.452 171.379C98.7638 169.766 95 158.265 95 158.265C95 158.265 105.471 157.315 110.862 159.012C114.088 160.028 115.842 161.007 117.045 160.088C120.704 157.291 124.293 163.849 128.606 165.464C132.538 166.937 134.825 165.682 138.553 167.615Z" fill="#AEC767"/>
<mask id="mask0_2417_51" style="mask-type:alpha" maskUnits="userSpaceOnUse" x="95" y="158" width="48" height="35">
<path d="M138.553 168.75C145.143 172.168 141.241 187.569 141.241 187.569C141.241 187.569 133.039 190.703 128.606 191.811C124.304 192.887 117.045 191.811 114.894 188.316C112.318 184.13 106.56 184.821 105.754 181.326C105.387 179.738 106.197 174.71 101.99 172.186C99.3015 170.572 95 158.265 95 158.265C95 158.265 106.596 157.495 110.593 161.491C113.013 163.911 117.993 161.604 119.196 160.685C122.855 157.889 124.293 164.178 128.606 165.793C132.538 167.266 134.825 166.817 138.553 168.75Z" fill="#AEC767"/>
</mask>
<g mask="url(#mask0_2417_51)">
<path d="M129.143 176.009C140.435 178.16 140.704 186.225 141.51 187.838L125.111 196.381L100.646 184.343L95 158.265C95.5377 158.534 98.1186 159.717 104.141 162.298C111.668 165.524 117.852 173.858 129.143 176.009Z" fill="#D9D9D9" style="mix-blend-mode:multiply"/>
</g>
<path d="M172.152 216.562L165.133 226.573L165 228.432L172.086 217.492L172.152 216.562Z" fill="#CDE58A"/>
<path d="M175.602 200.924C169.694 203.473 172.049 218.008 172.049 218.008C172.049 218.008 178.963 220.989 182.728 222.221C186.38 223.415 192.206 223.596 194.281 220.708C196.766 217.247 202.464 217.32 203.376 214.348C203.791 212.998 203.65 208.385 207.442 206.462C209.865 205.233 213.827 195.523 213.827 195.523C213.827 195.523 204.834 194.057 200.069 195.192C197.218 195.872 195.641 196.61 194.658 195.741C191.667 193.099 188.161 198.547 184.333 199.678C180.843 200.709 178.944 199.483 175.602 200.924Z" fill="#AEC767"/>
<mask id="mask1_2417_51" style="mask-type:alpha" maskUnits="userSpaceOnUse" x="171" y="194" width="43" height="30">
<path d="M175.602 200.924C169.694 203.473 172.049 218.008 172.049 218.008C172.049 218.008 178.963 220.989 182.728 222.221C186.38 223.415 192.206 223.596 194.281 220.708C196.766 217.247 202.464 217.32 203.376 214.348C203.791 212.998 203.65 208.385 207.442 206.462C209.865 205.233 213.827 195.523 213.827 195.523C213.827 195.523 204.834 194.057 200.069 195.192C197.218 195.872 195.641 196.61 194.658 195.741C191.667 193.099 188.161 198.547 184.333 199.678C180.843 200.709 178.944 199.483 175.602 200.924Z" fill="#AEC767"/>
</mask>
<g mask="url(#mask1_2417_51)">
<path d="M183.219 208.76C173.326 209.924 172.597 216.879 171.8 218.224L185.451 226.619L207.341 217.719L213.827 195.523C213.345 195.723 211.041 196.586 205.677 198.447C198.971 200.772 193.112 207.596 183.219 208.76Z" fill="#D9D9D9" style="mix-blend-mode:multiply"/>
</g>
<path d="M192.153 179.18L163.167 213.818L163 216.154L192.07 180.348L192.153 179.18Z" fill="#CDE58A"/>
<path d="M196.488 159.531C189.065 162.733 192.024 180.997 192.024 180.997C192.024 180.997 200.711 184.743 205.441 186.29C210.03 187.79 217.351 188.018 219.957 184.389C223.079 180.041 230.239 180.132 231.386 176.398C231.907 174.701 231.729 168.906 236.494 166.49C239.539 164.945 244.517 152.745 244.517 152.745C244.517 152.745 233.217 150.903 227.23 152.329C223.648 153.183 221.666 154.11 220.431 153.019C216.673 149.699 212.268 156.544 207.458 157.965C203.073 159.26 200.687 157.72 196.488 159.531Z" fill="#AEC767"/>
<mask id="mask2_2417_51" style="mask-type:alpha" maskUnits="userSpaceOnUse" x="191" y="151" width="54" height="37">
<path d="M196.488 159.531C189.065 162.733 192.024 180.997 192.024 180.997C192.024 180.997 200.711 184.743 205.441 186.29C210.03 187.79 217.351 188.018 219.957 184.389C223.079 180.041 230.239 180.132 231.386 176.398C231.907 174.701 231.729 168.906 236.494 166.49C239.539 164.945 244.517 152.745 244.517 152.745C244.517 152.745 233.217 150.903 227.23 152.329C223.648 153.183 221.666 154.11 220.431 153.019C216.673 149.699 212.268 156.544 207.458 157.965C203.073 159.26 200.687 157.72 196.488 159.531Z" fill="#AEC767"/>
</mask>
<g mask="url(#mask2_2417_51)">
<path d="M206.059 169.376C193.628 170.839 192.712 179.578 191.711 181.268L208.863 191.816L236.367 180.633L244.517 152.745C243.912 152.995 241.017 154.081 234.276 156.418C225.85 159.34 218.489 167.914 206.059 169.376Z" fill="#D9D9D9" style="mix-blend-mode:multiply"/>
</g>
<path d="M199 154L162.19 193.33L162 196L198.905 155.335L199 154Z" fill="#CDE58A"/>
<path d="M185 116C182.712 124.979 178.129 132.228 183 140.5C185.741 145.154 192.464 152.714 198.5 155C200 165 207.925 177.216 217 179.5L215.5 171C225 179 242.5 179.5 246.5 176.5C242.5 168.5 238.5 168.5 231.5 161.5C237 162.5 246 160 248 159C241.424 152.724 228.5 153.5 229.5 150.5C230.132 148.603 239.5 149.5 239.5 149.5C239.5 149.5 233.4 146 234 144.5C234.6 143 252.5 145 259 134.5L249.5 131.5C261 121.5 261 114 264 103.5C253.841 104.849 233.934 113.326 231.5 122.5C230.583 125.958 230 115.667 229.5 111C225.424 115.775 222.5 131.5 221.5 132.5C219.22 134.78 217 125 217 125C217 125 214.924 132.173 212 131.5C208.858 130.777 214.5 121.5 213.5 116C210.5 116 207.5 117 205.5 119.5C206.25 107.221 205.358 106.152 202 98C197 103.5 191.905 109.778 190 122.5L185 116Z" fill="#AEC767"/>
<path d="M177.106 137L162.247 178.321L162.967 180.382L177.466 138.03L177.106 137Z" fill="#CDE58A"/>
<path d="M161.298 119.104C161.323 124.849 159.701 129.914 163.912 134.119C166.282 136.486 171.494 139.976 175.473 140.408C177.93 146.176 184.589 152.274 190.391 152.231L188.167 147.364C195.114 150.686 205.695 148.261 207.628 145.837C203.982 141.659 201.581 142.282 196.29 139.171C199.747 138.914 204.759 136.013 205.803 135.101C200.88 132.359 193.244 134.837 193.377 132.88C193.461 131.643 199.223 130.723 199.223 130.723C199.223 130.723 195.017 129.572 195.143 128.579C195.27 127.585 206.324 125.998 208.59 118.684L202.421 118.363C207.766 110.571 206.598 106.07 206.764 99.3009C200.877 101.692 190.249 109.879 190.217 115.765C190.205 117.983 188.253 111.897 187.226 109.174C185.524 112.675 186.217 122.567 185.773 123.323C184.759 125.047 181.904 119.523 181.904 119.523C181.904 119.523 181.775 124.151 179.916 124.202C177.918 124.258 179.859 117.812 178.402 114.666C176.602 115.134 174.957 116.201 174.146 118.013C172.684 110.527 171.983 110.024 168.698 105.654C166.553 109.734 164.473 114.295 165.311 122.227L161.298 119.104Z" fill="#AEC767"/>
<path d="M155.123 119L163.025 152.95L162.267 154.508L154.744 119.779L155.123 119Z" fill="#CDE58A"/>
<path d="M165.642 107.579C165.624 111.701 166.788 115.335 163.766 118.353C162.066 120.051 158.326 122.556 155.471 122.866C153.708 127.005 148.93 131.38 144.766 131.349L146.362 127.857C141.377 130.24 133.785 128.5 132.397 126.761C135.014 123.763 136.737 124.21 140.533 121.978C138.053 121.794 134.456 119.711 133.707 119.057C137.24 117.09 142.719 118.868 142.624 117.464C142.563 116.576 138.429 115.916 138.429 115.916C138.429 115.916 141.447 115.09 141.356 114.377C141.265 113.664 133.333 112.525 131.707 107.277L136.134 107.047C132.298 101.455 133.136 98.2256 133.018 93.3686C137.242 95.0844 144.868 100.959 144.891 105.182C144.899 106.774 146.3 102.407 147.037 100.453C148.259 102.965 147.761 110.064 148.08 110.606C148.807 111.843 150.856 107.879 150.856 107.879C150.856 107.879 150.949 111.2 152.283 111.237C153.717 111.277 152.324 106.651 153.369 104.394C154.661 104.729 155.841 105.495 156.423 106.795C157.472 101.424 157.975 101.063 160.332 97.9275C161.871 100.855 163.364 104.128 162.763 109.819L165.642 107.579Z" fill="#AEC767"/>
<path d="M126 145.961L162.81 178.241L163 180.432L126.095 147.057L126 145.961Z" fill="#CDE58A"/>
<path d="M150 120.773C152.288 128.143 156.871 134.092 152 140.881C149.259 144.701 142.536 150.906 136.5 152.782C135 160.989 127.075 171.015 118 172.89L119.5 165.914C110 172.48 92.5 172.89 88.5 170.428C92.5 163.862 96.5 163.862 103.5 158.117C98 158.937 89 156.886 87 156.065C93.576 150.914 106.5 151.551 105.5 149.089C104.868 147.531 95.5 148.268 95.5 148.268C95.5 148.268 101.6 145.395 101 144.164C100.4 142.933 82.5 144.575 76 135.957L85.5 133.495C74 125.287 74 119.132 71 110.514C81.1586 111.621 101.066 118.578 103.5 126.108C104.417 128.946 105 120.5 105.5 116.67C109.576 120.589 112.5 133.495 113.5 134.315C115.78 136.187 118 128.16 118 128.16C118 128.16 120.076 134.047 123 133.495C126.142 132.901 120.5 125.287 121.5 120.773C124.5 120.773 127.5 121.594 129.5 123.646C128.75 113.568 129.642 112.691 133 106C138 110.514 143.095 115.667 145 126.108L150 120.773Z" fill="#AEC767"/>
<defs>
<linearGradient id="paint0_linear_2417_51" x1="158.254" y1="322.366" x2="161.347" y2="302.263" gradientUnits="userSpaceOnUse">
<stop stop-color="#F9ECC9"/>
<stop offset="1" stop-color="#FFF6DD" stop-opacity="0"/>
</linearGradient>
</defs>
</svg>
