<svg width="317" height="463" viewBox="0 0 317 463" fill="none" xmlns="http://www.w3.org/2000/svg">
<rect y="291" width="317" height="172" fill="#E3AD6F"/>
<path d="M158 320C157 317.5 153.642 331.5 155.5 301.5C157.359 271.5 149.001 163.5 163.001 75.5C163.001 127 166.29 319.708 163 320C159.711 320.292 159 322.5 158 320Z" fill="url(#paint0_linear_2423_450)"/>
<path d="M163.764 308.271C163.891 312.606 162.532 325.534 161.397 337.827C162.78 340.365 166.806 345.074 177.5 349C189.5 353.406 202.113 350.284 204.001 349C202.501 353 179.753 352.555 177.001 353C178.001 356 186.501 363.642 194.001 366.5C188.001 366.5 179.721 361.008 172 352C169 348.5 162.712 346.931 161 343L161 342.228C160.404 349 159.945 355.216 159.931 359.222C159.914 364.43 159.914 373.696 163.501 378.5C168.151 384.728 180.001 387.5 180.001 387.5C180.001 387.5 172.23 386.483 168.001 384.5C163.794 382.528 158.955 377.059 158.903 377C158.884 377.06 154.527 390.536 173.114 406.5C173.924 407.196 167.072 404.002 159.024 393.5C150.986 383.013 154.716 352.089 154.727 352C154.702 352.024 149.26 357.346 145.001 361C142.107 363.482 120.821 370.091 118.001 369C124.307 367.378 155.454 360.713 155.514 334.78C155.573 308.847 154.918 314.5 154.727 308.011L163.764 308.271Z" fill="url(#paint1_linear_2423_450)"/>
<path d="M216.305 176.493L162.854 183.186L161 185.117L215.378 177.459L216.305 176.493Z" fill="#CDE58A"/>
<path d="M217.527 137.718C210.177 143.36 202.093 146.224 200.807 155.737C200.084 161.089 200.694 171.188 204.024 176.717C199.021 185.504 197.696 200.005 203.417 207.411L207.493 199.803C210.014 211.964 223.459 223.177 228.457 223.292C230.26 214.531 227.116 212.058 225.942 202.229C229.647 206.415 238.266 210.015 240.456 210.465C239.168 201.467 228.531 194.086 231.171 192.347C232.842 191.246 239.649 197.743 239.649 197.743C239.649 197.743 237.019 191.221 238.418 190.413C239.817 189.605 252.649 202.244 264.25 198.011L258.638 189.779C273.859 189.03 278.496 183.135 287.346 176.737C278.528 171.516 257.64 165.87 250.055 171.576C247.196 173.727 253.101 165.278 255.593 161.301C249.438 162.535 237.417 173.085 236.013 173.253C232.811 173.635 237.113 164.576 237.113 164.576C237.113 164.576 231.046 168.93 229.165 166.593C227.142 164.083 237.312 160.28 239.927 155.339C237.569 153.484 234.593 152.415 231.475 153.143C239.656 143.956 239.617 142.565 242.017 134.081C234.687 135.312 226.801 137.097 217.438 145.918L217.527 137.718Z" fill="#93AE48"/>
<path d="M203.525 151.075L162.871 167.671L161.82 169.584L203 152.031L203.525 151.075Z" fill="#CDE58A"/>
<path d="M206.095 118.163C201.343 124.034 195.48 127.843 196.272 135.628C196.717 140.008 199.122 147.897 202.815 151.645C200.521 159.562 202.231 171.309 208.175 176.09L209.958 169.284C214.27 178.444 227.061 184.773 231.046 183.913C230.807 176.626 227.844 175.264 225.043 167.696C228.776 170.309 236.293 171.522 238.115 171.462C235.381 164.575 225.545 160.749 227.307 158.868C228.422 157.678 235.054 161.532 235.054 161.532C235.054 161.532 231.728 156.863 232.683 155.956C233.638 155.049 246.215 162.625 254.604 157.062L248.59 151.605C260.512 148.114 263.066 142.559 268.863 135.804C260.88 133.344 243.249 132.844 238.322 138.81C236.466 141.059 239.538 133.238 240.757 129.612C236.112 131.761 228.592 142.412 227.511 142.812C225.046 143.724 226.732 135.725 226.732 135.725C226.732 135.725 222.752 140.33 220.815 138.836C218.734 137.231 226.072 132.281 227.204 127.867C224.982 126.846 222.419 126.565 220.087 127.735C224.823 118.897 224.527 117.801 224.815 110.62C219.239 112.991 213.328 115.906 207.585 124.68L206.095 118.163Z" fill="#AEC767"/>
<path d="M111.93 170.108L159.142 183.07L160.27 184.958L112.494 171.052L111.93 170.108Z" fill="#CDE58A"/>
<path d="M122.519 136.968C127.796 142.598 134.518 145.948 133.1 154.183C132.303 158.816 128.965 167.334 124.354 171.658C126.59 179.697 123.839 192.177 116.494 197.827L114.797 190.896C109.118 200.952 93.5549 208.964 88.8812 208.496C89.6119 200.843 93.2102 199.096 96.9981 190.87C92.4089 194.01 83.4165 196.095 81.2589 196.231C84.925 188.725 96.8293 183.653 94.8543 181.875C93.6053 180.75 85.5 185.504 85.5 185.504C85.5 185.504 89.7329 180.256 88.6554 179.41C87.578 178.565 72.1924 187.859 62.5813 182.946L70.052 176.582C56.1222 174.221 53.4338 168.684 46.9713 162.242C56.5932 158.801 77.5406 156.365 83.0184 162.076C85.0831 164.228 81.9184 156.375 80.6954 152.711C86.0736 154.457 94.3407 164.79 95.5988 165.091C98.4675 165.779 96.9585 157.589 96.9585 157.589C96.9585 157.589 101.398 161.977 103.786 160.204C106.353 158.298 97.9529 153.913 96.881 149.415C99.5797 148.105 102.637 147.533 105.332 148.505C100.256 139.767 100.675 138.588 100.774 131.103C107.243 132.98 114.077 135.39 120.351 143.95L122.519 136.968Z" fill="#93AE48"/>
<path d="M121.816 149.015L156.719 175.662L157.233 177.783L122.073 150.076L121.816 149.015Z" fill="#CDE58A"/>
<path d="M127.939 116.576C130.991 123.486 135.655 128.694 132.856 136.002C131.281 140.113 126.897 147.099 122.353 149.752C122.498 157.993 117.777 168.884 110.789 171.946L110.847 164.91C104.291 172.624 90.2898 175.389 86.6691 173.518C88.8044 166.546 92.02 166.006 96.7021 159.433C92.4156 160.98 84.8428 160.186 83.1 159.652C87.539 153.719 98.0334 152.597 96.8244 150.32C96.0598 148.88 88.6503 150.867 88.6503 150.867C88.6503 150.867 93.0815 147.229 92.3966 146.105C91.7116 144.98 77.5918 149.005 70.9485 141.442L78.1805 137.747C67.5851 131.261 66.5723 125.232 62.7426 117.196C71.0913 116.908 88.2401 121.034 91.4354 128.081C92.6398 130.737 91.7185 122.385 91.4903 118.566C95.4117 121.855 99.886 134.101 100.825 134.77C102.966 136.295 103.43 128.133 103.43 128.133C103.43 128.133 106.068 133.619 108.327 132.683C110.755 131.678 104.967 124.981 105.028 120.425C107.44 120.02 109.986 120.419 111.932 122.158C109.671 112.389 110.243 111.408 111.842 104.402C116.604 108.148 121.548 112.507 124.798 122.477L127.939 116.576Z" fill="#AEC767"/>
<path d="M193.297 126.027L162.697 150.003L162.266 151.886L193.081 126.969L193.297 126.027Z" fill="#CDE58A"/>
<path d="M187.515 97.3799C184.891 103.53 180.82 108.193 183.38 114.63C184.819 118.252 188.778 124.387 192.829 126.685C192.793 133.982 197.094 143.57 203.313 146.202L203.183 139.975C209.073 146.731 221.497 149.023 224.682 147.326C222.714 141.178 219.861 140.736 215.644 134.97C219.455 136.291 226.15 135.504 227.687 135.012C223.691 129.809 214.389 128.933 215.434 126.904C216.095 125.621 222.676 127.297 222.676 127.297C222.676 127.297 218.713 124.126 219.307 123.123C219.9 122.12 232.444 125.526 238.241 118.757L231.798 115.567C241.105 109.707 241.934 104.359 245.235 97.2027C237.841 97.041 222.707 100.884 219.957 107.158C218.92 109.522 219.643 102.119 219.802 98.7357C216.368 101.69 212.543 112.581 211.72 113.183C209.841 114.557 209.34 107.337 209.34 107.337C209.34 107.337 207.066 112.222 205.056 111.419C202.895 110.556 207.944 104.565 207.839 100.532C205.7 100.2 203.45 100.581 201.747 102.143C203.64 93.4697 203.123 92.6085 201.629 86.4237C197.455 89.7929 193.128 93.7068 190.362 102.568L187.515 97.3799Z" fill="#AEC767"/>
<path d="M139.344 121.233L160.184 154.159L160.009 156.147L139.256 122.227L139.344 121.233Z" fill="#CDE58A"/>
<path d="M153.345 94.7346C153.891 101.596 156.216 107.429 151.912 113.001C149.49 116.136 143.993 120.986 139.573 122.023C137.392 129.23 130.533 137.381 124.02 138.091L126.029 131.989C118.568 136.865 106.457 135.357 104.047 132.717C107.719 127.252 110.474 127.681 116.099 123.273C112.196 123.42 106.284 120.613 105.021 119.662C110.27 115.743 119.083 117.701 118.738 115.383C118.52 113.917 111.965 113.574 111.965 113.574C111.965 113.574 116.568 111.649 116.327 110.479C116.086 109.31 103.528 108.864 100.256 100.43L107.143 99.2384C100.37 90.6369 101.23 85.1108 100.369 77.0524C107.211 79.1355 119.949 87.5164 120.573 94.5373C120.808 97.1837 122.39 89.6632 123.27 86.2783C125.529 90.234 125.739 102.134 126.313 102.978C127.622 104.903 130.273 97.9343 130.273 97.9343C130.273 97.9343 130.88 103.442 132.971 103.26C135.218 103.064 132.396 95.6235 133.716 91.6783C135.782 92 137.734 93.0585 138.824 95.115C139.717 85.9874 140.453 85.295 143.702 79.6487C146.514 84.2374 149.303 89.4099 149.156 98.9877L153.345 94.7346Z" fill="#AEC767"/>
<path d="M168.135 65.6855L163.418 92.0206L162.409 93.0398L167.63 66.1952L168.135 65.6855Z" fill="#CDE58A"/>
<path d="M187.484 56.7459C184.582 60.7222 183.055 64.8432 178.298 66.1826C175.622 66.9361 170.596 67.4042 167.882 66.2129C163.441 69.2934 156.198 71.028 152.577 68.8243L156.419 66.2808C150.389 65.9818 144.965 60.3343 144.969 57.9286C149.357 56.3964 150.551 57.7282 155.436 57.5528C153.395 56.0797 151.707 52.1882 151.509 51.1644C155.978 51.1072 159.526 55.6877 160.425 54.2808C160.994 53.391 157.839 50.5935 157.839 50.5935C157.839 50.5935 161.058 51.3714 161.478 50.6347C161.897 49.8979 155.756 44.6543 158.008 38.7313L162.042 40.8203C162.602 33.4116 165.597 30.7266 168.894 25.969C171.387 29.8339 173.945 39.4967 171.008 43.5912C169.901 45.1346 174.185 41.6444 176.197 40.1403C175.507 43.2068 170.101 49.8096 170 50.5005C169.771 52.0761 174.338 49.3138 174.338 49.3138C174.338 49.3138 172.094 52.5729 173.235 53.3054C174.462 54.0926 176.482 48.8932 178.977 47.2572C179.872 48.256 180.368 49.6128 179.967 51.1737C184.646 46.5284 185.339 46.4423 189.597 44.6422C188.893 48.2758 187.907 52.2198 183.396 57.4082L187.484 56.7459Z" fill="#AEC767"/>
<path d="M144.929 88.6384L161.593 119.255L161.279 120.958L144.772 89.4901L144.929 88.6384Z" fill="#CDE58A"/>
<path d="M159.874 67.1124C159.848 73.1083 161.54 78.3936 157.145 82.7829C154.672 85.2524 149.233 88.8951 145.08 89.3461C142.516 95.3658 135.567 101.729 129.511 101.685L131.832 96.605C124.582 100.072 113.539 97.5412 111.522 95.0121C115.327 90.6513 117.832 91.3014 123.354 88.0545C119.747 87.7871 114.516 84.7586 113.426 83.8072C118.565 80.9452 126.534 83.5313 126.395 81.4897C126.307 80.1985 120.294 79.2383 120.294 79.2383C120.294 79.2383 124.683 78.0374 124.551 77.0003C124.419 75.9633 112.883 74.3071 110.518 66.6741L116.955 66.3389C111.378 58.2066 112.596 53.509 112.424 46.4448C118.567 48.9404 129.659 57.4851 129.692 63.627C129.705 65.942 131.742 59.5907 132.814 56.749C134.591 60.4024 133.867 70.7267 134.331 71.5155C135.388 73.3144 138.368 67.5492 138.368 67.5492C138.368 67.5492 138.503 72.3793 140.444 72.433C142.529 72.4908 140.503 65.7633 142.023 62.4809C143.902 62.9684 145.618 64.0823 146.465 65.9732C147.991 58.1606 148.723 57.6356 152.151 53.0755C154.389 57.3329 156.56 62.0934 155.686 70.3711L159.874 67.1124Z" fill="#AEC767"/>
<path d="M170.922 95.5255L159.958 128.614L160.57 130.234L171.228 96.3357L170.922 95.5255Z" fill="#CDE58A"/>
<path d="M152.394 76.9945C153.484 82.8905 152.756 88.3923 157.861 91.9316C160.733 93.9228 166.733 96.542 170.899 96.2487C174.492 101.717 182.46 106.746 188.411 105.628L185.226 101.04C192.976 103.165 203.394 98.7141 204.931 95.867C200.412 92.2511 198.061 93.3356 192.051 91.1206C195.553 90.217 200.163 86.308 201.067 85.1782C195.502 83.2739 188.119 87.2336 187.893 85.1999C187.75 83.9136 193.498 81.9011 193.498 81.9011C193.498 81.9011 188.965 81.4985 188.91 80.4545C188.856 79.4105 199.916 75.7325 200.888 67.8009L194.493 68.614C198.538 59.6206 196.505 55.214 195.421 48.2314C189.818 51.778 180.419 62.156 181.477 68.2063C181.876 70.4868 178.743 64.5981 177.184 61.9917C176.084 65.9025 178.629 75.9343 178.313 76.793C177.591 78.7511 173.635 73.6064 173.635 73.6064C173.635 73.6064 174.36 78.3837 172.46 78.7811C170.418 79.2082 171.217 72.2278 169.139 69.2674C167.376 70.0808 165.885 71.4817 165.387 73.4928C162.499 66.0752 161.685 65.6886 157.502 61.8095C156.055 66.3966 154.764 71.4669 157.094 79.4579L152.394 76.9945Z" fill="#AEC767"/>
<path d="M227.476 152.306C221.467 149.069 217.103 144.502 210.322 146.503C206.507 147.629 199.904 151.079 197.193 154.981C189.779 154.267 179.634 157.744 176.383 163.815L182.726 164.262C175.313 169.616 171.835 182.022 173.266 185.413C179.697 183.986 180.41 181.13 186.662 177.382C184.966 181.13 185.148 188.002 185.506 189.609C191.164 186.034 192.915 176.668 194.881 177.918C196.124 178.708 193.812 185.236 193.812 185.236C193.812 185.236 197.402 181.506 198.367 182.202C199.332 182.898 194.71 195.321 201.055 201.837L204.894 195.59C209.99 205.586 215.351 206.925 222.32 210.942C223.168 203.448 220.66 187.721 214.537 184.345C212.229 183.073 219.688 184.494 223.113 184.97C220.427 181.208 209.709 176.312 209.173 175.42C207.95 173.385 215.336 173.546 215.336 173.546C215.336 173.546 210.58 170.783 211.582 168.816C212.659 166.702 218.284 172.386 222.393 172.654C222.928 170.512 222.748 168.192 221.318 166.317C229.961 169.045 230.884 168.599 237.31 167.657C234.27 163.105 230.691 158.347 221.939 154.715L227.476 152.306Z" fill="#93AE48"/>
<path d="M152.577 190.041C151.026 184.908 151.517 180.251 145.644 176.833C142.34 174.91 135.526 172.212 130.917 172.147C126.612 167.191 117.474 162.28 110.929 162.787L114.732 166.958C106.003 164.551 94.6913 167.574 93.1491 169.896C98.3759 173.335 100.923 172.585 107.725 174.937C103.888 175.446 98.9943 178.445 98.0557 179.344C104.345 181.396 112.315 178.564 112.684 180.323C112.916 181.436 106.651 182.724 106.651 182.724C106.651 182.724 111.707 183.412 111.828 184.311C111.948 185.209 99.8796 187.521 99.2576 194.241L106.312 194.029C102.338 201.426 104.851 205.354 106.457 211.417C112.475 208.804 122.312 200.627 120.789 195.365C120.215 193.381 124.033 198.662 125.914 201.013C126.91 197.746 123.505 188.961 123.807 188.25C124.495 186.627 129.185 191.333 129.185 191.333C129.185 191.333 128.105 187.187 130.192 186.99C132.434 186.779 131.949 192.697 134.428 195.391C136.339 194.827 137.914 193.74 138.35 192.056C141.986 198.628 142.912 199.021 147.781 202.66C149.122 198.841 150.264 194.596 147.216 187.575L152.577 190.041Z" fill="#93AE48"/>
<path d="M214.768 117.799C210.593 113.496 208.148 108.514 201.937 108.398C198.443 108.333 191.998 109.48 188.693 112.034C182.671 109.474 173.251 109.706 168.918 113.936L174.113 115.988C166.484 118.517 160.282 127.996 160.581 131.218C166.347 131.722 167.702 129.516 173.932 128.027C171.518 130.721 169.848 136.53 169.722 137.972C175.409 136.471 179.359 129.083 180.674 130.65C181.506 131.642 177.839 136.503 177.839 136.503C177.839 136.503 181.835 134.325 182.459 135.164C183.082 136.002 175.917 145.195 179.505 152.335L184.377 148.113C185.996 157.84 190.131 160.381 194.904 165.591C197.601 159.533 199.67 145.685 195.435 141.236C193.839 139.559 199.711 142.724 202.454 144.028C201.201 140.164 193.521 133.226 193.309 132.336C192.824 130.306 198.968 132.395 198.968 132.395C198.968 132.395 195.716 128.82 197.078 127.436C198.54 125.949 201.745 132.202 205.116 133.513C206.132 131.859 206.597 129.866 205.895 127.917C212.412 132.489 213.303 132.359 218.935 133.269C217.596 128.649 215.86 123.713 209.491 118.354L214.768 117.799Z" fill="#AEC767"/>
<path d="M156.537 144.811C156.092 138.831 157.411 133.441 152.72 129.369C150.08 127.078 144.4 123.825 140.226 123.665C137.247 117.839 129.87 111.977 123.833 112.444L126.503 117.35C119.028 114.398 108.189 117.694 106.353 120.358C110.454 124.442 112.908 123.619 118.643 126.472C115.063 126.99 110.057 130.377 109.036 131.402C114.362 133.898 122.131 130.762 122.135 132.808C122.138 134.102 116.206 135.48 116.206 135.48C116.206 135.48 120.669 136.371 120.61 137.415C120.55 138.459 109.158 140.917 107.332 148.697L113.777 148.581C108.781 157.083 110.326 161.684 110.647 168.743C116.601 165.825 127.069 156.526 126.673 150.397C126.523 148.086 129 154.28 130.267 157.04C131.784 153.271 130.341 143.022 130.748 142.203C131.678 140.335 135.053 145.878 135.053 145.878C135.053 145.878 134.85 141.05 136.782 140.861C138.858 140.657 137.307 147.51 139.053 150.678C140.894 150.061 142.528 148.829 143.24 146.884C145.308 154.571 146.075 155.043 149.814 159.353C151.749 154.949 153.582 150.049 152.131 141.853L156.537 144.811Z" fill="#AEC767"/>
<defs>
<linearGradient id="paint0_linear_2423_450" x1="161.006" y1="199.5" x2="164.506" y2="101.5" gradientUnits="userSpaceOnUse">
<stop stop-color="#D2C08F"/>
<stop offset="1" stop-color="#CDE58A"/>
</linearGradient>
<linearGradient id="paint1_linear_2423_450" x1="158.255" y1="322.366" x2="161.347" y2="302.263" gradientUnits="userSpaceOnUse">
<stop stop-color="#F9ECC9"/>
<stop offset="1" stop-color="#FFF6DD" stop-opacity="0"/>
</linearGradient>
</defs>
</svg>
