<svg width="317" height="463" viewBox="0 0 317 463" fill="none" xmlns="http://www.w3.org/2000/svg">
<rect y="291" width="317" height="172" fill="#E3AD6F"/>
<path d="M149.059 325C148.059 305 168 195.5 176.5 174C166.286 224.5 152.089 334.667 157.256 339L157.256 347.5C155.923 346.5 150.059 345 149.059 325Z" fill="#CDE58A"/>
<path d="M140.788 346.65C151.493 341.295 155.194 347.938 157.196 351.532L157.211 351.561L154.852 351.912C153.283 347.721 149.882 346.81 146 347.455C144.834 351.47 141.701 356.2 150.5 361C159.3 365.8 157.667 368.334 158 372.5C156.834 368.334 157.2 366.336 148 361.536C138.801 356.736 142 351.869 143.5 348.053C138.781 349.488 133.793 352.565 130.717 354.5C127.996 356.213 123.959 358.657 122.717 362C121.107 366.335 125 375 125 375C125 375 121.172 369.726 120.717 367C120.264 364.283 121.431 361.554 121.438 361.536C121.438 361.536 111.5 367.5 119.438 383C118.528 382.349 113.075 373.912 115.717 366.5C118.354 359.108 135.096 350.717 135.181 350.674C135.142 350.68 130.447 351.372 127.051 350.495C124.74 349.899 119.861 346.431 119.438 344.69C122.502 347.24 130.054 352.018 140.788 346.65Z" fill="#F9ECC9"/>
<path d="M148 246L161.5 268.5V272.5L148 248V246Z" fill="#CDE58A"/>
<path d="M190.412 230.563C175.481 239.712 174.039 247.689 174.04 249.829C174.04 252.126 188.624 258.693 197.548 251.257C210.392 240.553 211.859 226.995 214 222C212.811 222.238 199.728 224.854 190.412 230.563Z" fill="#AEC767"/>
<path d="M196.834 238.126C184.846 247.26 176.616 250.019 174 250.257C175.427 252.397 184.442 261.063 198 252.5C211.558 243.937 213.96 222.427 213.96 222.427C213.96 222.427 208.823 228.992 196.834 238.126Z" fill="#93AE48"/>
<path d="M162.5 257.5C166 254.333 173.7 249.4 174.5 249V249.5L162 260L162.5 257.5Z" fill="#CDE58A"/>
<path d="M134.378 228.268C149.38 237.269 148.51 244.747 147.923 246.803C146.497 251.794 132.952 253.933 119.407 242.526C112.305 236.546 108 224.703 108 219C109.188 219.238 120.12 219.713 134.378 228.268Z" fill="#AEC767"/>
<path d="M125.11 234.684C137.087 243.809 145.309 246.566 147.923 246.803C147.21 250.368 134.378 253.933 121.545 245.378C108.713 236.823 108 219 108 219C108 219 113.133 225.559 125.11 234.684Z" fill="#93AE48"/>
<path d="M153 193.5L166.5 216V220L153 195.5V193.5Z" fill="#CDE58A"/>
<path d="M148 159.5C160.257 165.856 153 196.611 153 196.611C153 196.611 137.746 201.938 129.5 204C121.5 206 109 205.5 105 199C100.209 191.214 88 190.5 86.5 184C85.8184 181.046 86.8239 171.194 79 166.5C74 163.5 67 142.111 67 142.111C67 142.111 86.4733 140.343 96.5 143.5C102.5 145.389 105.762 147.21 108 145.5C114.805 140.3 121.479 152.496 129.5 155.5C136.814 158.239 141.066 155.905 148 159.5Z" fill="#AEC767"/>
<mask id="mask0_2417_31" style="mask-type:alpha" maskUnits="userSpaceOnUse" x="67" y="141" width="89" height="65">
<path d="M148 161.611C160.257 167.967 153 196.611 153 196.611C153 196.611 137.746 202.438 129.5 204.5C121.5 206.5 108 204.5 104 198C99.2087 190.214 88.5 191.5 87 185C86.3184 182.046 87.8239 172.694 80 168C75 165 67 142.111 67 142.111C67 142.111 88.567 140.678 96 148.111C100.5 152.611 109.762 148.321 112 146.611C118.805 141.411 121.479 153.107 129.5 156.111C136.814 158.85 141.066 158.016 148 161.611Z" fill="#AEC767"/>
</mask>
<g mask="url(#mask0_2417_31)">
<path d="M130.5 175.111C151.5 179.111 152 194.111 153.5 197.111L123 213L77.5 190.611L67 142.111C68 142.611 72.8 144.811 84 149.611C98 155.611 109.5 171.111 130.5 175.111Z" fill="#D9D9D9" style="mix-blend-mode:multiply"/>
</g>
<path d="M176.177 208.995L166.033 223.461L165.841 226.148L176.081 210.338L176.177 208.995Z" fill="#CDE58A"/>
<path d="M181.161 186.397C172.625 190.08 176.028 211.084 176.028 211.084C176.028 211.084 186.018 215.392 191.458 217.172C196.736 218.898 205.156 219.16 208.153 214.985C211.744 209.985 219.978 210.09 221.297 205.795C221.896 203.844 221.692 197.179 227.171 194.4C230.673 192.624 236.398 178.593 236.398 178.593C236.398 178.593 223.403 176.474 216.518 178.115C212.397 179.096 210.119 180.163 208.698 178.908C204.376 175.089 199.31 182.962 193.779 184.596C188.735 186.086 185.991 184.314 181.161 186.397Z" fill="#AEC767"/>
<mask id="mask1_2417_31" style="mask-type:alpha" maskUnits="userSpaceOnUse" x="175" y="177" width="62" height="42">
<path d="M181.161 186.397C172.625 190.08 176.028 211.084 176.028 211.084C176.028 211.084 186.018 215.392 191.458 217.172C196.736 218.898 205.156 219.16 208.153 214.985C211.744 209.985 219.978 210.09 221.297 205.795C221.896 203.844 221.692 197.179 227.171 194.4C230.673 192.624 236.398 178.593 236.398 178.593C236.398 178.593 223.403 176.474 216.518 178.115C212.397 179.096 210.119 180.163 208.698 178.908C204.376 175.089 199.31 182.962 193.779 184.596C188.735 186.086 185.991 184.314 181.161 186.397Z" fill="#AEC767"/>
</mask>
<g mask="url(#mask1_2417_31)">
<path d="M192.169 197.72C177.873 199.402 176.819 209.453 175.668 211.396L195.394 223.528L227.026 210.666L236.398 178.593C235.703 178.881 232.374 180.129 224.621 182.817C214.931 186.177 206.465 196.038 192.169 197.72Z" fill="#D9D9D9" style="mix-blend-mode:multiply"/>
</g>
<path d="M175.502 157.215C171.943 160.816 176.338 175.251 176.338 175.251C176.338 175.251 181.644 177.124 184.459 177.743C187.189 178.344 191.215 177.544 192.083 174.245C193.122 170.293 197.04 169.403 197.096 166.216C197.121 164.768 196.142 160.084 198.371 157.48C199.796 155.816 200.651 145.237 200.651 145.237C200.651 145.237 194.21 145.262 191.164 147.227C189.341 148.402 188.402 149.422 187.562 148.702C185.008 146.511 183.649 152.664 181.244 154.466C179.05 156.109 177.515 155.179 175.502 157.215Z" fill="#AEC767"/>
<mask id="mask2_2417_31" style="mask-type:alpha" maskUnits="userSpaceOnUse" x="174" y="145" width="27" height="33">
<path d="M175.502 157.215C171.943 160.816 176.338 175.251 176.338 175.251C176.338 175.251 181.644 177.124 184.459 177.743C187.189 178.345 191.215 177.544 192.083 174.245C193.122 170.293 197.04 169.403 197.096 166.216C197.121 164.768 196.142 160.084 198.371 157.48C199.796 155.816 200.651 145.237 200.651 145.237C200.651 145.237 194.21 145.262 191.164 147.227C189.341 148.402 188.402 149.423 187.562 148.702C185.008 146.512 183.649 152.664 181.244 154.466C179.05 156.109 177.515 155.179 175.502 157.215Z" fill="#AEC767"/>
</mask>
<g mask="url(#mask2_2417_31)">
<path d="M182.219 163.923C175.665 166.785 176.497 174.006 176.209 175.513L187.166 181.771L200.456 168.985L200.651 145.237C200.359 145.522 198.947 146.793 195.628 149.599C191.48 153.106 188.773 161.061 182.219 163.923Z" fill="#D9D9D9" style="mix-blend-mode:multiply"/>
</g>
<path d="M159.769 340.48C154.935 339.781 151.631 341.646 149.65 345.359C146.759 350.78 148.927 356.021 155.252 356.389C158.583 355.49 162.085 353.952 164.106 351.322C168.231 345.954 166.682 341.481 159.769 340.48Z" fill="#766F68"/>
<path d="M166.275 344.817C164.648 347.528 161.678 351.25 157.24 353.491C154.89 354.677 153.264 354.756 150.734 354.857C152.18 355.659 152.903 356.201 155.252 356.382C155.252 356.382 158.232 355.511 159.589 354.857C163.383 353.03 166.636 349.515 166.275 344.817Z" fill="#A39D8B" style="mix-blend-mode:multiply"/>
</svg>
