<svg width="317" height="463" viewBox="0 0 317 463" fill="none" xmlns="http://www.w3.org/2000/svg">
<rect y="291" width="317" height="172" fill="#E3AD6F"/>
<path d="M145.5 325C142.5 312 151 298.667 155 294.5C141.5 319.5 151.333 336.167 156.5 340.5L154 345C152.667 344 148.5 338 145.5 325Z" fill="#CDE58A"/>
<path d="M144.979 350.533L144.995 350.561L142.635 350.912C138.897 340.923 128.327 348.309 122.181 351.871C116.035 355.434 123.404 363.898 123.404 363.898C123.404 363.898 120.674 361.946 119.15 359.536C117.625 357.127 118.054 354.009 117.477 353.956C116.911 353.905 104.509 365.609 112.562 368.462C112.789 368.498 112.969 368.546 113.078 368.624C112.898 368.574 112.726 368.52 112.562 368.462C110.9 368.194 106.705 368.532 109.03 362.012C111.673 354.6 122.964 349.674 122.964 349.674C122.964 349.674 118.245 350.375 114.834 349.495C112.522 348.898 107.643 345.43 107.221 343.69C110.284 346.24 117.837 351.019 128.571 345.649C139.277 340.294 142.977 346.938 144.979 350.533Z" fill="#F9ECC9"/>
<path d="M141.6 350.282C132.819 350.282 127.341 357.991 129.1 365.282C133.204 382.282 161.742 379.328 174.713 362.446C187.685 345.564 181.887 334.833 180.746 331.525C179.139 326.87 173.001 320.288 164.373 324.232C155.745 328.175 156.254 333.854 155.741 338.435C155.227 343.016 149.6 350.282 141.6 350.282Z" fill="#C4661F"/>
<path d="M143.6 370.782C137.2 370.782 130.934 366.282 129.1 364.782C129.6 366.615 130.3 370.582 135.1 373.782C141.1 377.782 153.1 377.597 163.1 372.782C173.6 367.726 180.6 354.282 182.1 348.282C177.6 355.782 176.1 357.782 171.1 361.782C157.6 372.582 151.6 370.782 143.6 370.782Z" fill="#A85319"/>
</svg>
