<svg width="317" height="463" viewBox="0 0 317 463" fill="none" xmlns="http://www.w3.org/2000/svg">
<rect y="291" width="317" height="172" fill="#E3AD6F"/>
<path d="M141.6 350.282C132.819 350.282 127.341 357.991 129.1 365.282C133.204 382.282 161.742 379.328 174.713 362.446C187.685 345.564 181.887 334.833 180.746 331.525C179.139 326.87 173.001 320.288 164.373 324.232C155.745 328.175 156.254 333.854 155.741 338.435C155.227 343.016 149.6 350.282 141.6 350.282Z" fill="#C4661F"/>
<path d="M143.6 370.782C137.2 370.782 130.934 366.282 129.1 364.782C129.6 366.615 130.3 370.582 135.1 373.782C141.1 377.782 153.1 377.597 163.1 372.782C173.6 367.726 180.6 354.282 182.1 348.282C177.6 355.782 176.1 357.782 171.1 361.782C157.6 372.582 151.6 370.782 143.6 370.782Z" fill="#A85319"/>
</svg>
