<svg width="317" height="463" viewBox="0 0 317 463" fill="none" xmlns="http://www.w3.org/2000/svg">
<rect y="291" width="317" height="172" fill="#E3AD6F"/>
<path d="M152.5 323.5C151.5 303.5 163.5 239 172 217.5C161.786 268 155.531 333.167 160.697 337.5L160.697 346C159.364 345 153.5 343.5 152.5 323.5Z" fill="#CDE58A"/>
<path d="M140.788 346.649C151.493 341.295 155.194 347.937 157.196 351.532L157.212 351.56L154.851 351.912C152.003 344.302 143.112 347.508 136.276 351.206C135.305 352.912 133.79 356.441 134.216 359C134.717 362 138.883 364 140.216 364.5C138.883 364.5 134.917 362.7 133.716 361.5C133.717 364.5 134.717 367 137.216 371.5C135.716 369.5 132.576 366.999 132.216 360C132.035 356.452 133.089 353.808 133.781 352.62C132.637 353.296 131.598 353.945 130.716 354.5C127.995 356.212 123.959 358.657 122.716 362C121.114 366.314 122.701 371.45 122.716 371.5C122.699 371.479 121.168 369.709 120.716 367C120.265 364.288 121.426 361.563 121.437 361.536C121.384 361.574 111.738 368.526 119.437 378C118.527 377.349 113.074 373.911 115.716 366.5C118.36 359.088 135.181 350.674 135.181 350.674C135.181 350.674 130.461 351.375 127.05 350.495C124.739 349.898 119.859 346.43 119.437 344.689C122.5 347.24 130.054 352.019 140.788 346.649Z" fill="#F9ECC9"/>
<path d="M153.285 346.115C148.901 346.115 146.167 349.963 147.045 353.602C149.094 362.088 163.339 360.614 169.814 352.187C176.289 343.76 173.395 338.403 172.826 336.751C172.024 334.428 168.96 331.142 164.653 333.111C160.346 335.079 160.6 337.914 160.343 340.201C160.087 342.487 157.278 346.115 153.285 346.115Z" fill="#C4661F"/>
<path d="M154.17 356.123C150.91 356.123 147.717 353.898 146.783 353.157C147.038 354.063 147.395 356.024 149.84 357.606C152.897 359.583 159.01 359.492 164.104 357.111C169.453 354.612 173.019 347.966 173.783 345C171.491 348.708 170.727 349.696 168.18 351.674C161.302 357.013 158.246 356.123 154.17 356.123Z" fill="#A85319"/>
<path d="M176.5 239.5C164.9 243.5 166 250 166 251.5C166 253.109 178.5 254.5 184 248.5C188.4 243.7 192.5 235.5 194 232C193.167 232.167 188.1 235.5 176.5 239.5Z" fill="#AEC767"/>
<path d="M182 243C173.6 249.4 167.833 251.333 166 251.5C167 253 176.5 255 183.5 249.5C190.5 244 194 232 194 232C194 232 190.4 236.6 182 243Z" fill="#93AE48"/>
<path d="M182.528 208C170.928 212 172.028 216 172.028 217.5C172.028 219.109 183.528 218 189.028 212C193.428 207.2 198.528 201.5 200.028 198C199.195 198.167 194.128 204 182.528 208Z" fill="#AEC767"/>
<path d="M188.028 209C179.628 215.4 173.861 217.333 172.028 217.5C173.028 219 181.028 218.5 188.028 213C195.028 207.5 200.028 198 200.028 198C200.028 198 196.428 202.6 188.028 209Z" fill="#93AE48"/>
<path d="M153.5 237.5C164.022 243.813 163.412 249.058 163 250.5C162 254 150.458 252.5 144.5 246C140.1 241.2 136.5 234.5 135 231C135.833 231.167 143.5 231.5 153.5 237.5Z" fill="#AEC767"/>
<path d="M147 242C155.4 248.4 161.167 250.333 163 250.5C162.5 253 153.5 253.5 146.5 248C139.5 242.5 135 231 135 231C135 231 138.6 235.6 147 242Z" fill="#93AE48"/>
</svg>
