<svg width="317" height="463" viewBox="0 0 317 463" fill="none" xmlns="http://www.w3.org/2000/svg">
<rect y="290.5" width="317" height="172" fill="#E3AD6F"/>
<path d="M156.217 316C155.217 296 157.717 271.5 166.217 250C156.002 300.5 161.05 332.667 166.217 337L166.217 345.5C164.883 344.5 157.217 336 156.217 316Z" fill="#CDE58A"/>
<path d="M140.787 346.15C151.493 340.795 155.193 347.438 157.195 351.033L157.211 351.061L154.852 351.413C152.003 343.802 143.113 347.009 136.276 350.707C135.305 352.413 133.79 355.942 134.217 358.501C134.718 361.5 138.884 363.501 140.217 364.001C138.884 364.001 134.917 362.201 133.717 361.001C133.717 364.001 134.717 366.501 137.217 371.001C135.717 369.001 132.576 366.5 132.217 359.501C132.035 355.954 133.089 353.31 133.78 352.122C132.636 352.798 131.598 353.446 130.717 354.001C127.996 355.713 123.959 358.158 122.717 361.501C121.107 365.836 122.717 371.001 122.717 371.001C122.717 371.001 121.171 369.226 120.717 366.501C120.266 363.795 121.421 361.076 121.438 361.037C121.389 361.071 111.736 368.025 119.438 377.501C118.528 376.85 113.075 373.412 115.717 366.001C118.352 358.611 135.082 350.224 135.181 350.175C135.142 350.18 130.447 350.871 127.051 349.995C124.739 349.398 119.861 345.931 119.438 344.19C122.501 346.741 130.054 351.519 140.787 346.15Z" fill="#F9ECC9"/>
<path d="M155.481 347.521C149.218 347.521 145.312 353.019 146.567 358.218C149.493 370.341 169.844 368.234 179.094 356.195C188.344 344.157 184.21 336.504 183.396 334.145C182.251 330.825 177.874 326.131 171.721 328.944C165.568 331.756 165.931 335.806 165.565 339.072C165.198 342.339 161.186 347.521 155.481 347.521Z" fill="#C4661F"/>
<path d="M157.112 362.39C152.523 362.39 148.03 359.212 146.716 358.153C147.074 359.447 147.576 362.249 151.018 364.508C155.32 367.333 163.923 367.202 171.093 363.802C178.621 360.232 183.64 350.737 184.716 346.5C181.489 351.797 180.414 353.209 176.829 356.034C167.15 363.661 162.848 362.39 157.112 362.39Z" fill="#A85319"/>
<path d="M176.5 241.5C164.9 245.5 166 249.5 166 251C166 252.609 177.5 251.5 183 245.5C187.4 240.7 192.5 235 194 231.5C193.167 231.667 188.1 237.5 176.5 241.5Z" fill="#AEC767"/>
<path d="M155.5 242C167.1 246 166 250 166 251.5C166 253.109 154.5 252 149 246C144.6 241.2 139.5 235.5 138 232C138.833 232.167 143.9 238 155.5 242Z" fill="#AEC767"/>
<path d="M182 242.5C173.6 248.9 167.833 250.833 166 251C167 252.5 175 252 182 246.5C189 241 194 231.5 194 231.5C194 231.5 190.4 236.1 182 242.5Z" fill="#93AE48"/>
<path d="M150 243C158.4 249.4 164.167 251.333 166 251.5C165 253 157 252.5 150 247C143 241.5 138 232 138 232C138 232 141.6 236.6 150 243Z" fill="#93AE48"/>
</svg>
