<svg width="317" height="463" viewBox="0 0 317 463" fill="none" xmlns="http://www.w3.org/2000/svg">
<rect y="291" width="317" height="172" fill="#E3AD6F"/>
<path d="M158 320C157 317.5 157.153 316.493 156.5 303.5C156.202 297.577 159.841 226.333 160 224.5C160.159 222.667 151 207 138.5 195C128.623 185.518 122.5 181.5 115.5 179C121 178 136 185.5 142 191C148 196.5 158.5 207 161 214.5C162.566 198.817 167.56 156.432 170.5 146.5C164.798 197.706 165.29 320.208 162 320.5C158.71 320.793 159 322.5 158 320Z" fill="#CDE58A"/>
<path d="M163.45 310.98C163.45 315.546 160.856 333.291 159.948 343.729C161.151 345.42 162.721 347.134 164.415 347.908C167.682 349.4 172.394 346.643 173.765 345.668C172.883 346.974 168.5 349.668 166.532 350.05C169.47 352.032 172.579 352.704 178.636 353.23C175.687 353.377 171.163 354.8 164.073 350.527C162.169 349.379 160.743 348.059 159.718 346.855C159.691 347.329 159.669 347.774 159.656 348.187C159.535 351.983 157.423 358.919 159.876 362.344C163.04 366.762 169.114 368.602 169.177 368.621C169.131 368.626 166.394 368.951 163.45 367.606C160.494 366.256 158.594 363.316 158.577 363.289C158.579 363.365 159.01 377.404 173.374 376.126C172.135 376.587 165.166 379.655 159.656 372.171C154.158 364.702 157.01 342.751 157.022 342.656C157.002 342.699 154.578 347.752 151.476 350.497C149.364 352.366 142.745 354.852 140.762 354.116C145.283 352.802 156.438 349.367 157.023 330.469C157.607 311.571 157.023 315.704 157.023 310.98L163.45 310.98Z" fill="url(#paint0_linear_2299_112)"/>
<path d="M180.108 160.63C166.829 165.137 168.049 172.572 168.041 174.286C168.032 176.125 182.31 177.785 188.63 170.958C193.685 165.497 198.417 156.149 200.151 152.157C199.197 152.343 193.388 156.124 180.108 160.63Z" fill="#AEC767"/>
<path d="M186.375 164.662C176.739 171.929 170.138 174.106 168.041 174.286C169.176 176.006 180.022 178.345 188.053 172.099C196.084 165.852 200.151 152.157 200.151 152.157C200.151 152.157 196.011 157.394 186.375 164.662Z" fill="#93AE48"/>
<path d="M146.266 178.625C137.286 184.189 139.445 189.438 139.731 190.697C140.037 192.049 150.797 190.84 154.275 184.756C157.057 179.889 158.941 172.224 159.535 169C158.867 169.298 155.246 173.061 146.266 178.625Z" fill="#AEC767"/>
<path d="M151.55 180.518C145.713 187.489 141.238 190.209 139.731 190.697C140.856 191.767 149.213 191.64 154.045 185.691C158.878 179.742 159.535 169 159.535 169C159.535 169 157.387 173.547 151.55 180.518Z" fill="#93AE48"/>
<path d="M177.546 139.629C168.481 143.686 169.654 146.832 169.762 148.041C169.877 149.339 179.069 147.62 183.074 142.388C186.277 138.203 189.98 133.242 190.939 130.313C190.279 130.507 186.612 135.573 177.546 139.629Z" fill="#AEC767"/>
<path d="M182.052 140.042C175.739 145.804 171.228 147.776 169.762 148.042C170.675 149.179 177.089 148.203 182.339 143.267C187.589 138.331 190.939 130.313 190.939 130.313C190.939 130.313 188.366 134.28 182.052 140.042Z" fill="#93AE48"/>
<path d="M109.405 171.787C116.982 175.177 116.001 177.806 115.911 178.817C115.815 179.902 108.132 178.465 104.785 174.093C102.108 170.595 99.013 166.448 98.2119 164C98.7634 164.162 101.828 168.397 109.405 171.787Z" fill="#AEC767"/>
<path d="M105.639 172.131C110.916 176.947 114.686 178.595 115.911 178.817C115.147 179.768 109.787 178.952 105.399 174.827C101.012 170.701 98.2119 164 98.2119 164C98.2119 164 100.362 167.316 105.639 172.131Z" fill="#93AE48"/>
<path d="M158.061 152.57C168.057 157.42 167.928 162.199 167.672 163.533C167.051 166.77 156.521 166.343 150.626 160.958C146.272 156.982 142.488 151.227 140.855 148.191C141.62 148.274 148.561 147.96 158.061 152.57Z" fill="#AEC767"/>
<path d="M152.56 157.15C160.649 162.248 166.005 163.53 167.672 163.533C167.422 165.828 159.344 167.001 152.59 162.601C145.835 158.202 140.855 148.191 140.855 148.191C140.855 148.191 144.471 152.051 152.56 157.15Z" fill="#93AE48"/>
<path d="M122.981 189.094C132.351 187.333 134.703 190.695 135.208 191.746C136.433 194.296 128.952 199.379 122.137 198.676C117.104 198.157 111.555 196.122 108.878 194.862C109.448 194.529 114.075 190.767 122.981 189.094Z" fill="#AEC767"/>
<path d="M121.525 195.062C129.708 194.447 134.056 192.595 135.208 191.746C136.207 193.457 131.235 198.391 124.33 198.807C117.425 199.222 108.877 194.862 108.877 194.862C108.877 194.862 113.342 195.677 121.525 195.062Z" fill="#93AE48"/>
<defs>
<linearGradient id="paint0_linear_2299_112" x1="159.678" y1="320.946" x2="161.911" y2="306.807" gradientUnits="userSpaceOnUse">
<stop stop-color="#F9ECC9"/>
<stop offset="1" stop-color="#FFF6DD" stop-opacity="0"/>
</linearGradient>
</defs>
</svg>
