<svg width="317" height="463" viewBox="0 0 317 463" fill="none" xmlns="http://www.w3.org/2000/svg">
<rect y="291" width="317" height="172" fill="#E3AD6F"/>
<path d="M165.5 331C152.123 329.064 142.98 334.225 137.5 344.5C129.5 359.5 135.5 374 153 375.019C162.217 372.533 171.908 368.278 177.5 361C188.914 346.145 184.627 333.769 165.5 331Z" fill="#FAE8AE"/>
<path d="M183.5 343C179 350.5 170.78 360.8 158.5 367C152 370.282 147.5 370.5 140.5 370.782C144.5 373 146.5 374.5 153 375C153 375 161.245 372.59 165 370.782C175.5 365.726 184.5 356 183.5 343Z" fill="#EBDBA7" style="mix-blend-mode:multiply"/>
</svg>
