<svg width="317" height="463" viewBox="0 0 317 463" fill="none" xmlns="http://www.w3.org/2000/svg">
<rect y="291" width="317" height="172" fill="#E3AD6F"/>
<path d="M158 320C157 317.5 153.642 331.5 155.5 301.5C157.358 271.5 163 143.5 163 143.5C163 143.5 166.29 319.707 163 320C159.71 320.292 159 322.5 158 320Z" fill="#CDE58A"/>
<path d="M163.763 308.271C163.89 312.606 162.531 325.534 161.396 337.827C162.78 340.365 166.806 345.074 177.5 349C189.5 353.406 202.113 350.284 204 349C202.501 353 179.753 352.555 177 353C178 356 186.501 363.642 194 366.5C188 366.5 179.721 361.008 172 352C169 348.5 162.712 346.931 161 343L160.999 342.228C160.404 349 159.944 355.216 159.931 359.222C159.913 364.43 159.914 373.696 163.5 378.5C168.151 384.728 180.001 387.5 180.001 387.5C180.001 387.5 172.23 386.483 168 384.5C163.794 382.528 158.954 377.059 158.903 377C158.883 377.06 154.526 390.536 173.114 406.5C173.923 407.196 167.072 404.002 159.023 393.5C150.985 383.013 154.716 352.089 154.726 352C154.702 352.024 149.26 357.346 145 361C142.107 363.482 120.821 370.091 118.001 369C124.306 367.378 155.454 360.713 155.513 334.78C155.573 308.847 154.917 314.5 154.726 308.011L163.763 308.271Z" fill="url(#paint0_linear_2520_284)"/>
<path d="M165.259 242.088C167.075 240.445 171.07 237.885 171.485 237.677V237.937L165 243.385L165.259 242.088Z" fill="#CDE58A"/>
<path d="M179.741 228.112C171.995 232.859 171.247 236.997 171.247 238.108C171.247 239.3 178.814 242.707 183.444 238.848C190.108 233.295 190.869 226.261 191.98 223.669C191.363 223.792 184.575 225.15 179.741 228.112Z" fill="#AEC767"/>
<path d="M183.073 232.036C176.854 236.775 172.584 238.206 171.226 238.33C171.967 239.44 176.644 243.936 183.678 239.493C190.712 235.051 191.959 223.891 191.959 223.891C191.959 223.891 189.293 227.297 183.073 232.036Z" fill="#93AE48"/>
<path d="M146.531 230.457C155.364 235.757 154.852 240.159 154.506 241.37C153.667 244.308 145.692 245.568 137.716 238.852C133.535 235.331 131 228.358 131 225C131.7 225.14 138.136 225.42 146.531 230.457Z" fill="#AEC767"/>
<path d="M141.074 234.234C148.126 239.607 152.967 241.23 154.506 241.37C154.086 243.469 146.531 245.568 138.975 240.531C131.42 235.494 131 225 131 225C131 225 134.022 228.862 141.074 234.234Z" fill="#93AE48"/>
<path d="M154.551 240.897L162.5 254.145V256.5L154.551 242.075V240.897Z" fill="#CDE58A"/>
<path d="M173.255 222.508L164.536 234.942L164.372 237.251L173.173 223.662L173.255 222.508Z" fill="#CDE58A"/>
<path d="M178.55 198.379C169.303 202.368 172.989 225.118 172.989 225.118C172.989 225.118 183.81 229.784 189.702 231.711C195.419 233.581 204.538 233.865 207.785 229.343C211.674 223.928 220.593 224.041 222.021 219.39C222.67 217.276 222.449 210.057 228.384 207.047C232.177 205.124 238.378 189.926 238.378 189.926C238.378 189.926 224.303 187.631 216.845 189.408C212.382 190.471 209.914 191.627 208.375 190.267C203.694 186.131 198.206 194.658 192.216 196.428C186.752 198.042 183.78 196.123 178.55 198.379Z" fill="#AEC767"/>
<mask id="mask0_2520_284" style="mask-type:alpha" maskUnits="userSpaceOnUse" x="172" y="188" width="67" height="45">
<path d="M178.549 198.379C169.302 202.368 172.988 225.118 172.988 225.118C172.988 225.118 183.809 229.784 189.702 231.711C195.418 233.581 204.538 233.865 207.784 229.343C211.674 223.928 220.592 224.041 222.02 219.39C222.669 217.276 222.448 210.057 228.383 207.047C232.176 205.124 238.377 189.926 238.377 189.926C238.377 189.926 224.302 187.631 216.844 189.408C212.381 190.471 209.913 191.627 208.374 190.267C203.693 186.131 198.206 194.658 192.215 196.428C186.752 198.042 183.779 196.123 178.549 198.379Z" fill="#AEC767"/>
</mask>
<g mask="url(#mask0_2520_284)">
<path d="M190.472 210.643C174.987 212.465 173.846 223.351 172.599 225.456L193.965 238.596L228.226 224.666L238.378 189.926C237.625 190.238 234.019 191.59 225.622 194.501C215.126 198.141 205.957 208.821 190.472 210.643Z" fill="#D9D9D9" style="mix-blend-mode:multiply"/>
</g>
<path d="M141.137 196.486L165 232.704V235.594L141.137 197.931V196.486Z" fill="#CDE58A"/>
<path d="M137.524 171.92C146.38 176.512 141.137 198.734 141.137 198.734C141.137 198.734 130.115 202.583 124.157 204.072C118.377 205.517 109.346 205.156 106.456 200.46C102.994 194.834 94.1729 194.318 93.0891 189.622C92.5966 187.488 93.3231 180.37 87.6702 176.978C84.0576 174.81 79 159.356 79 159.356C79 159.356 93.0698 158.079 100.314 160.36C104.649 161.725 107.007 163.041 108.623 161.805C113.54 158.048 118.362 166.86 124.157 169.03C129.442 171.01 132.514 169.323 137.524 171.92Z" fill="#AEC767"/>
<mask id="mask1_2520_284" style="mask-type:alpha" maskUnits="userSpaceOnUse" x="79" y="159" width="64" height="46">
<path d="M137.524 173.446C146.38 178.038 141.137 198.734 141.137 198.734C141.137 198.734 130.115 202.944 124.157 204.434C118.377 205.879 108.623 204.434 105.733 199.737C102.271 194.112 94.5342 195.041 93.4504 190.345C92.9579 188.21 94.0457 181.453 88.3927 178.062C84.7802 175.894 79 159.356 79 159.356C79 159.356 94.5825 158.321 99.953 163.692C103.204 166.943 109.897 163.843 111.513 162.608C116.43 158.85 118.362 167.301 124.157 169.472C129.442 171.451 132.514 170.848 137.524 173.446Z" fill="#AEC767"/>
</mask>
<g mask="url(#mask1_2520_284)">
<path d="M124.88 183.2C140.053 186.09 140.414 196.927 141.498 199.095L119.461 210.575L86.5864 194.399L79 159.356C79.7225 159.718 83.1906 161.307 91.2828 164.775C101.398 169.11 109.707 180.309 124.88 183.2Z" fill="#D9D9D9" style="mix-blend-mode:multiply"/>
</g>
<path d="M139.137 168.486L163 204.704V207.594L139.137 169.931V168.486Z" fill="#CDE58A"/>
<path d="M145.21 146.794C151.252 153.438 140.483 171.129 140.483 171.129C140.483 171.129 130.206 171.154 124.82 170.655C119.596 170.17 112.188 167.142 111.138 162.201C109.881 156.283 102.692 153.184 103.145 148.786C103.351 146.788 106.008 140.834 102.284 136.194C99.9037 133.229 100.153 118.309 100.153 118.309C100.153 118.309 112.224 121.431 117.593 125.586C120.805 128.073 122.386 129.922 124.087 129.337C129.261 127.557 130.73 136.647 134.925 140.271C138.75 143.575 141.792 143.036 145.21 146.794Z" fill="#AEC767"/>
<mask id="mask2_2520_284" style="mask-type:alpha" maskUnits="userSpaceOnUse" x="100" y="118" width="47" height="54">
<path d="M144.77 148.117C150.812 154.761 140.483 171.129 140.483 171.129C140.483 171.129 130.102 171.467 124.716 170.968C119.492 170.483 111.795 166.298 110.745 161.358C109.488 155.44 102.784 153.919 103.237 149.521C103.443 147.523 106.296 141.991 102.572 137.351C100.192 134.386 100.153 118.309 100.153 118.309C100.153 118.309 113.413 122.095 116.332 128.366C118.098 132.163 124.559 131.487 126.26 130.901C131.433 129.121 130.603 137.03 134.798 140.653C138.623 143.958 141.352 144.359 144.77 148.117Z" fill="#AEC767"/>
</mask>
<g mask="url(#mask2_2520_284)">
<path d="M131.44 152.774C143.227 159.841 140.402 169.346 140.679 171.552L119.039 174.882L96.3585 150.974L100.153 118.309C100.65 118.84 103.076 121.26 108.807 126.7C115.971 133.499 119.653 145.707 131.44 152.774Z" fill="#D9D9D9" style="mix-blend-mode:multiply"/>
</g>
<path d="M182 192L163.109 214.628L163 216.154L181.946 192.763L182 192Z" fill="#CDE58A"/>
<path d="M185.805 166.06C177.47 169.655 180.792 190.162 180.792 190.162C180.792 190.162 190.546 194.368 195.858 196.105C201.01 197.79 209.231 198.046 212.157 193.971C215.663 189.089 223.702 189.191 224.989 184.998C225.574 183.093 225.375 176.586 230.725 173.873C234.144 172.139 239.733 158.44 239.733 158.44C239.733 158.44 227.046 156.371 220.324 157.973C216.301 158.932 214.076 159.973 212.689 158.747C208.469 155.019 203.523 162.706 198.123 164.301C193.199 165.756 190.519 164.026 185.805 166.06Z" fill="#AEC767"/>
<mask id="mask3_2520_284" style="mask-type:alpha" maskUnits="userSpaceOnUse" x="180" y="157" width="60" height="41">
<path d="M185.805 166.06C177.47 169.655 180.792 190.162 180.792 190.162C180.792 190.162 190.546 194.368 195.858 196.105C201.01 197.79 209.231 198.046 212.157 193.971C215.663 189.089 223.702 189.191 224.989 184.998C225.574 183.093 225.375 176.586 230.725 173.873C234.144 172.139 239.733 158.44 239.733 158.44C239.733 158.44 227.046 156.371 220.324 157.973C216.301 158.932 214.076 159.973 212.689 158.747C208.469 155.019 203.523 162.706 198.123 164.301C193.199 165.756 190.519 164.026 185.805 166.06Z" fill="#AEC767"/>
</mask>
<g mask="url(#mask3_2520_284)">
<path d="M196.551 177.114C182.593 178.756 181.565 188.569 180.441 190.466L199.699 202.31L230.582 189.754L239.733 158.44C239.054 158.721 235.803 159.94 228.235 162.564C218.774 165.845 210.509 175.472 196.551 177.114Z" fill="#D9D9D9" style="mix-blend-mode:multiply"/>
</g>
<path d="M173 165L162 183.522V185L173 165.739V165Z" fill="#CDE58A"/>
<path d="M166.018 150.545C160.726 156.364 170.158 171.858 170.158 171.858C170.158 171.858 179.159 171.88 183.876 171.442C188.451 171.018 194.94 168.366 195.859 164.039C196.96 158.855 203.256 156.141 202.86 152.289C202.68 150.539 200.353 145.325 203.614 141.261C205.699 138.664 205.48 125.596 205.48 125.596C205.48 125.596 194.908 128.33 190.206 131.97C187.392 134.147 186.007 135.767 184.518 135.254C179.987 133.696 178.699 141.657 175.026 144.831C171.675 147.725 169.011 147.253 166.018 150.545Z" fill="#AEC767"/>
<mask id="mask4_2520_284" style="mask-type:alpha" maskUnits="userSpaceOnUse" x="164" y="125" width="42" height="47">
<path d="M166.403 151.703C161.111 157.522 170.157 171.858 170.157 171.858C170.157 171.858 179.25 172.154 183.967 171.717C188.543 171.293 195.283 167.627 196.203 163.3C197.304 158.116 203.175 156.785 202.779 152.933C202.599 151.183 200.1 146.338 203.361 142.274C205.446 139.677 205.48 125.596 205.48 125.596C205.48 125.596 193.866 128.912 191.31 134.404C189.763 137.73 184.104 137.137 182.615 136.625C178.084 135.066 178.81 141.992 175.137 145.166C171.787 148.061 169.396 148.411 166.403 151.703Z" fill="#AEC767"/>
</mask>
<g mask="url(#mask4_2520_284)">
<path d="M178.078 155.782C167.754 161.971 170.228 170.297 169.986 172.228L188.939 175.145L208.803 154.205L205.48 125.596C205.045 126.061 202.92 128.181 197.901 132.945C191.626 138.9 188.402 149.593 178.078 155.782Z" fill="#D9D9D9" style="mix-blend-mode:multiply"/>
</g>
<path d="M165.919 136.262C169.751 140.476 162.921 151.696 162.921 151.696C162.921 151.696 156.402 151.712 152.987 151.395C149.673 151.088 144.975 149.167 144.309 146.034C143.512 142.28 138.953 140.315 139.24 137.526C139.37 136.258 141.055 132.482 138.693 129.539C137.184 127.659 137.342 118.196 137.342 118.196C137.342 118.196 144.998 120.176 148.403 122.811C150.44 124.388 151.443 125.561 152.522 125.19C155.803 124.061 156.735 129.826 159.396 132.125C161.822 134.221 163.751 133.879 165.919 136.262Z" fill="#AEC767"/>
<mask id="mask5_2520_284" style="mask-type:alpha" maskUnits="userSpaceOnUse" x="137" y="118" width="30" height="34">
<path d="M165.64 137.101C169.472 141.315 162.921 151.696 162.921 151.696C162.921 151.696 156.336 151.911 152.921 151.594C149.607 151.287 144.726 148.632 144.06 145.499C143.263 141.745 139.011 140.781 139.298 137.992C139.429 136.724 141.238 133.216 138.876 130.273C137.367 128.392 137.342 118.196 137.342 118.196C137.342 118.196 145.752 120.597 147.603 124.575C148.724 126.982 152.821 126.554 153.9 126.182C157.181 125.054 156.655 130.069 159.315 132.368C161.741 134.464 163.472 134.718 165.64 137.101Z" fill="#AEC767"/>
</mask>
<g mask="url(#mask5_2520_284)">
<path d="M157.185 140.055C164.661 144.537 162.87 150.565 163.045 151.964L149.32 154.076L134.936 138.913L137.342 118.196C137.657 118.533 139.196 120.068 142.831 123.518C147.374 127.83 149.709 135.573 157.185 140.055Z" fill="#D9D9D9" style="mix-blend-mode:multiply"/>
</g>
<path d="M165.914 214.914C174.209 220.432 159.424 235.124 159.424 235.124C159.424 235.124 145.315 235.145 137.922 234.73C130.749 234.328 120.579 231.813 119.138 227.71C117.412 222.794 107.543 220.221 108.165 216.568C108.447 214.909 112.095 209.964 106.982 206.111C103.715 203.648 104.057 191.257 104.057 191.257C104.057 191.257 120.63 193.849 127.999 197.3C132.41 199.365 134.58 200.901 136.916 200.415C144.018 198.937 146.036 206.486 151.794 209.496C157.046 212.241 161.221 211.793 165.914 214.914Z" fill="#AEC767"/>
<mask id="mask6_2520_284" style="mask-type:alpha" maskUnits="userSpaceOnUse" x="104" y="191" width="64" height="45">
<path d="M165.31 216.012C173.605 221.53 159.425 235.124 159.425 235.124C159.425 235.124 145.172 235.405 137.779 234.99C130.606 234.588 120.04 231.112 118.599 227.009C116.873 222.094 107.67 220.831 108.291 217.179C108.574 215.519 112.491 210.925 107.378 207.071C104.111 204.609 104.057 191.257 104.057 191.257C104.057 191.257 122.261 194.401 126.268 199.609C128.694 202.762 137.563 202.201 139.898 201.715C147.001 200.237 145.861 206.804 151.62 209.814C156.871 212.559 160.618 212.891 165.31 216.012Z" fill="#AEC767"/>
</mask>
<g mask="url(#mask6_2520_284)">
<path d="M147.01 219.88C163.192 225.749 159.314 233.643 159.694 235.475L129.985 238.241L98.848 218.385L104.057 191.257C104.739 191.697 108.07 193.708 115.938 198.225C125.773 203.872 130.828 214.011 147.01 219.88Z" fill="#D9D9D9" style="mix-blend-mode:multiply"/>
</g>
<path d="M162.131 132.846C159.016 136.271 164.568 145.393 164.568 145.393C164.568 145.393 169.867 145.405 172.644 145.148C175.337 144.898 179.157 143.337 179.698 140.79C180.346 137.738 184.052 136.141 183.819 133.873C183.713 132.843 182.343 129.773 184.263 127.381C185.49 125.852 185.362 118.159 185.362 118.159C185.362 118.159 179.138 119.769 176.37 121.911C174.714 123.193 173.898 124.147 173.021 123.845C170.354 122.927 169.596 127.614 167.434 129.482C165.462 131.186 163.893 130.908 162.131 132.846Z" fill="#AEC767"/>
<mask id="mask7_2520_284" style="mask-type:alpha" maskUnits="userSpaceOnUse" x="161" y="118" width="25" height="28">
<path d="M162.358 133.528C159.242 136.953 164.568 145.393 164.568 145.393C164.568 145.393 169.921 145.567 172.697 145.31C175.391 145.06 179.359 142.902 179.9 140.355C180.549 137.303 184.005 136.52 183.771 134.252C183.665 133.222 182.194 130.37 184.114 127.977C185.341 126.448 185.362 118.159 185.362 118.159C185.362 118.159 178.525 120.111 177.02 123.345C176.109 125.302 172.778 124.954 171.901 124.652C169.234 123.734 169.662 127.811 167.499 129.68C165.527 131.384 164.12 131.59 162.358 133.528Z" fill="#AEC767"/>
</mask>
<g mask="url(#mask7_2520_284)">
<path d="M169.231 135.929C163.153 139.572 164.61 144.473 164.467 145.61L175.625 147.327L187.318 135.001L185.362 118.16C185.106 118.433 183.855 119.681 180.9 122.486C177.206 125.991 175.308 132.286 169.231 135.929Z" fill="#D9D9D9" style="mix-blend-mode:multiply"/>
</g>
<defs>
<linearGradient id="paint0_linear_2520_284" x1="158.254" y1="322.366" x2="161.347" y2="302.263" gradientUnits="userSpaceOnUse">
<stop stop-color="#F9ECC9"/>
<stop offset="1" stop-color="#FFF6DD" stop-opacity="0"/>
</linearGradient>
</defs>
</svg>
